%
M48
M72
T01C0.0197
T02C0.0236
T03C0.0360
T04C0.0394
T05C0.0400
T06C0.0512
T07C0.0866
T08C0.1260
T09C0.1654
%
T01
X14002Y9314
X14314Y10564
X19752Y3877
X22127Y6814
X23002Y6814
X23877Y6814
X29127Y8689
X25502Y8314
X7501Y16127
X33439Y7127
X7501Y17127
X7189Y16377
X7189Y16877
X7501Y16627
X7189Y17377
X24626Y11127
X23439Y11189
X24626Y10127
X28314Y10064
X28001Y12127
X28439Y11127
X30564Y9877
X33439Y7502
X31189Y6752
X28939Y5689
X28939Y7502
X25439Y7564
X23001Y3752
X29001Y3752
X16376Y4064
X16376Y6002
X12439Y3752
X12439Y5627
X11689Y7064
X9939Y7064
X7626Y6939
X8064Y4939
X9126Y3752
X7626Y8064
X12814Y11502
X15501Y12814
X16064Y13939
X19501Y12814
X19501Y13502
X21439Y8127
X8752Y25877
X11752Y27064
X10502Y25877
X4877Y24127
X10689Y24064
X8127Y24127
X11877Y25627
X12939Y26689
X8689Y29314
X12439Y25064
X3189Y24814
X7502Y17627
X18002Y11439
X17252Y9189
X18377Y7627
X16127Y7502
X19752Y9939
X8751Y2439
X13814Y2439
X18189Y2439
X22439Y2439
X26501Y2439
X30251Y2439
X26001Y6064
X6877Y17127
X6876Y16627
X6877Y17627
X6876Y16127
X7814Y16377
X7814Y16877
X7814Y17377
X6564Y17377
X6564Y16877
X6564Y16377
X12939Y17189
X12939Y16564
X10689Y16627
X10689Y17127
X11439Y19064
X16627Y20814
X17002Y19127
X14189Y17752
X13314Y13814
X11439Y13439
X9752Y13439
X7689Y11377
X9752Y11689
X27314Y13752
X26002Y16314
X22377Y18439
X21502Y19252
X21502Y22252
X20314Y23627
X20314Y27189
X20314Y30314
X23127Y30314
X24814Y28564
X27439Y28564
X32564Y22314
X32627Y19189
X12314Y12814
X3252Y30564
X5252Y31127
X11189Y31127
X11502Y35314
X13814Y37314
X17627Y37314
X21627Y37314
X23314Y35377
X13439Y35502
X15627Y35877
X19752Y35939
X24564Y32939
X27002Y31689
X30564Y31689
X33502Y29189
X36439Y26252
X37314Y29127
X15627Y33814
X15627Y29127
X15627Y24939
X16439Y22127
X12877Y22127
X20502Y17127
X20502Y18189
X32376Y4064
X32376Y6377
X32376Y8689
X8377Y31127
X26252Y15252
X24189Y17189
X20439Y12939
X19502Y16377
X24002Y11064
X24002Y13502
X18189Y19314
X19627Y20752
X18189Y19877
X19627Y21314
X20814Y12377
X15939Y12377
X21752Y12002
X16314Y12002
T02
X12752Y29064
X9252Y27814
X9752Y27814
X13127Y28814
X13127Y29314
X12377Y29314
X12377Y28814
X14377Y29752
X13689Y31314
X13939Y32189
X13939Y32689
X13564Y24439
X14064Y24439
X13064Y24439
X13064Y25314
X13564Y25314
X14064Y25314
X16564Y11189
X17064Y17627
X6502Y8064
X6502Y5814
X6377Y11877
X8502Y14002
X19627Y24127
X16939Y21439
X12189Y19189
X12189Y15939
X19627Y22627
X17689Y20689
T03
X22502Y4189
X22502Y5189
X23502Y4189
X23502Y5189
X24502Y4189
X24502Y5189
X25502Y4189
X25502Y5189
X26502Y4189
X26502Y5189
X27502Y4189
X27502Y5189
X28502Y4189
X28502Y5189
X29502Y4189
X29502Y5189
X9939Y4189
X9939Y5189
X10939Y4189
X10939Y5189
X11939Y4189
X11939Y5189
X12939Y4189
X12939Y5189
X13939Y4189
X13939Y5189
X16627Y33377
X16627Y34377
X17627Y33377
X17627Y34377
X18627Y33377
X18627Y34377
X19627Y33377
X19627Y34377
X20627Y33377
X20627Y34377
X21627Y33377
X21627Y34377
X22627Y33377
X22627Y34377
X23627Y33377
X23627Y34377
T04
X30627Y19838
X30627Y22790
X29564Y27150
X29564Y30103
T05
X17502Y14439
X18502Y14439
X19502Y14439
X20502Y14439
X21502Y14439
X24502Y15814
X23502Y15814
X22502Y15814
X21502Y15814
X20502Y15814
X13627Y21439
X13627Y20439
X13627Y19439
X13627Y18439
T06
X33999Y24360
X33999Y20423
X33999Y17471
X33999Y14518
T07
X36314Y20939
X36314Y17627
X36314Y24252
X36314Y14314
T08
X25939Y32564
X25939Y17377
X35985Y35985
X35985Y3701
X3701Y35985
X3701Y3701
T09
X14845Y15002
X16252Y16720
M30
