G75*
G70*
%OFA0B0*%
%FSLAX24Y24*%
%IPPOS*%
%LPD*%
%AMOC8*
5,1,8,0,0,1.08239X$1,22.5*
%
%ADD10C,0.0000*%
%ADD11C,0.1772*%
%ADD12C,0.1378*%
%ADD13C,0.0100*%
%ADD14O,0.1654X0.0886*%
%ADD15R,0.1118X0.1118*%
%ADD16C,0.1118*%
%ADD17R,0.0315X0.0984*%
%ADD18R,0.1339X0.1063*%
%ADD19R,0.2244X0.1693*%
%ADD20R,0.0748X0.0472*%
%ADD21R,0.0630X0.0394*%
%ADD22R,0.0472X0.1102*%
%ADD23R,0.1102X0.0906*%
%ADD24R,0.0472X0.0630*%
%ADD25R,0.1693X0.0709*%
%ADD26R,0.1102X0.0472*%
%ADD27R,0.0630X0.0472*%
%ADD28C,0.2559*%
%ADD29R,0.0394X0.0709*%
%ADD30O,0.0718X0.1318*%
%ADD31R,0.0394X0.0630*%
%ADD32R,0.0472X0.0748*%
%ADD33R,0.0512X0.0669*%
%ADD34R,0.0906X0.0827*%
%ADD35R,0.0827X0.1142*%
%ADD36R,0.0918X0.0378*%
%ADD37R,0.0827X0.0906*%
%ADD38R,0.1142X0.0827*%
%ADD39OC8,0.2087*%
%ADD40OC8,0.0658*%
%ADD41R,0.0709X0.0906*%
%ADD42R,0.0906X0.0709*%
%ADD43O,0.1318X0.0718*%
%ADD44R,0.1299X0.0748*%
%ADD45R,0.2559X0.2402*%
D10*
X001930Y001930D02*
X001930Y037757D01*
X006851Y037757D01*
X006851Y036772D01*
X006853Y036695D01*
X006859Y036618D01*
X006868Y036541D01*
X006881Y036465D01*
X006898Y036389D01*
X006919Y036315D01*
X006943Y036241D01*
X006971Y036169D01*
X007002Y036099D01*
X007037Y036030D01*
X007075Y035962D01*
X007116Y035897D01*
X007161Y035834D01*
X007209Y035773D01*
X007259Y035714D01*
X007312Y035658D01*
X007368Y035605D01*
X007427Y035555D01*
X007488Y035507D01*
X007551Y035462D01*
X007616Y035421D01*
X007684Y035383D01*
X007753Y035348D01*
X007823Y035317D01*
X007895Y035289D01*
X007969Y035265D01*
X008043Y035244D01*
X008119Y035227D01*
X008195Y035214D01*
X008272Y035205D01*
X008349Y035199D01*
X008426Y035197D01*
X008503Y035199D01*
X008580Y035205D01*
X008657Y035214D01*
X008733Y035227D01*
X008809Y035244D01*
X008883Y035265D01*
X008957Y035289D01*
X009029Y035317D01*
X009099Y035348D01*
X009168Y035383D01*
X009236Y035421D01*
X009301Y035462D01*
X009364Y035507D01*
X009425Y035555D01*
X009484Y035605D01*
X009540Y035658D01*
X009593Y035714D01*
X009643Y035773D01*
X009691Y035834D01*
X009736Y035897D01*
X009777Y035962D01*
X009815Y036030D01*
X009850Y036099D01*
X009881Y036169D01*
X009909Y036241D01*
X009933Y036315D01*
X009954Y036389D01*
X009971Y036465D01*
X009984Y036541D01*
X009993Y036618D01*
X009999Y036695D01*
X010001Y036772D01*
X010001Y037757D01*
X037757Y037757D01*
X037757Y001930D01*
X001930Y001930D01*
X014018Y015002D02*
X014021Y015077D01*
X014032Y015152D01*
X014049Y015225D01*
X014072Y015297D01*
X014102Y015366D01*
X014138Y015432D01*
X014180Y015494D01*
X014228Y015553D01*
X014281Y015606D01*
X014338Y015655D01*
X014399Y015699D01*
X014465Y015736D01*
X014533Y015768D01*
X014604Y015793D01*
X014677Y015812D01*
X014751Y015824D01*
X014826Y015829D01*
X014901Y015827D01*
X014976Y015819D01*
X015050Y015803D01*
X015122Y015781D01*
X015192Y015753D01*
X015258Y015718D01*
X015322Y015678D01*
X015381Y015631D01*
X015436Y015580D01*
X015487Y015524D01*
X015531Y015463D01*
X015570Y015399D01*
X015604Y015331D01*
X015630Y015261D01*
X015651Y015189D01*
X015664Y015115D01*
X015671Y015040D01*
X015671Y014964D01*
X015664Y014889D01*
X015651Y014815D01*
X015630Y014743D01*
X015604Y014673D01*
X015570Y014605D01*
X015531Y014541D01*
X015487Y014480D01*
X015436Y014424D01*
X015381Y014373D01*
X015322Y014326D01*
X015259Y014286D01*
X015192Y014251D01*
X015122Y014223D01*
X015050Y014201D01*
X014976Y014185D01*
X014901Y014177D01*
X014826Y014175D01*
X014751Y014180D01*
X014677Y014192D01*
X014604Y014211D01*
X014533Y014236D01*
X014465Y014268D01*
X014399Y014305D01*
X014338Y014349D01*
X014281Y014398D01*
X014228Y014451D01*
X014180Y014510D01*
X014138Y014572D01*
X014102Y014638D01*
X014072Y014707D01*
X014049Y014779D01*
X014032Y014852D01*
X014021Y014927D01*
X014018Y015002D01*
X015425Y016720D02*
X015428Y016795D01*
X015439Y016870D01*
X015456Y016943D01*
X015479Y017015D01*
X015509Y017084D01*
X015545Y017150D01*
X015587Y017212D01*
X015635Y017271D01*
X015688Y017324D01*
X015745Y017373D01*
X015806Y017417D01*
X015872Y017454D01*
X015940Y017486D01*
X016011Y017511D01*
X016084Y017530D01*
X016158Y017542D01*
X016233Y017547D01*
X016308Y017545D01*
X016383Y017537D01*
X016457Y017521D01*
X016529Y017499D01*
X016599Y017471D01*
X016665Y017436D01*
X016729Y017396D01*
X016788Y017349D01*
X016843Y017298D01*
X016894Y017242D01*
X016938Y017181D01*
X016977Y017117D01*
X017011Y017049D01*
X017037Y016979D01*
X017058Y016907D01*
X017071Y016833D01*
X017078Y016758D01*
X017078Y016682D01*
X017071Y016607D01*
X017058Y016533D01*
X017037Y016461D01*
X017011Y016391D01*
X016977Y016323D01*
X016938Y016259D01*
X016894Y016198D01*
X016843Y016142D01*
X016788Y016091D01*
X016729Y016044D01*
X016666Y016004D01*
X016599Y015969D01*
X016529Y015941D01*
X016457Y015919D01*
X016383Y015903D01*
X016308Y015895D01*
X016233Y015893D01*
X016158Y015898D01*
X016084Y015910D01*
X016011Y015929D01*
X015940Y015954D01*
X015872Y015986D01*
X015806Y016023D01*
X015745Y016067D01*
X015688Y016116D01*
X015635Y016169D01*
X015587Y016228D01*
X015545Y016290D01*
X015509Y016356D01*
X015479Y016425D01*
X015456Y016497D01*
X015439Y016570D01*
X015428Y016645D01*
X015425Y016720D01*
X025309Y017377D02*
X025312Y017434D01*
X025319Y017491D01*
X025332Y017547D01*
X025350Y017601D01*
X025373Y017654D01*
X025401Y017704D01*
X025433Y017752D01*
X025469Y017796D01*
X025509Y017837D01*
X025553Y017875D01*
X025599Y017908D01*
X025649Y017936D01*
X025701Y017960D01*
X025755Y017980D01*
X025811Y017994D01*
X025867Y018003D01*
X025925Y018007D01*
X025982Y018006D01*
X026039Y017999D01*
X026095Y017987D01*
X026150Y017971D01*
X026203Y017949D01*
X026254Y017923D01*
X026302Y017892D01*
X026348Y017857D01*
X026390Y017817D01*
X026428Y017775D01*
X026462Y017728D01*
X026492Y017679D01*
X026517Y017628D01*
X026537Y017574D01*
X026553Y017519D01*
X026563Y017463D01*
X026568Y017406D01*
X026568Y017348D01*
X026563Y017291D01*
X026553Y017235D01*
X026537Y017180D01*
X026517Y017126D01*
X026492Y017075D01*
X026462Y017026D01*
X026428Y016979D01*
X026390Y016937D01*
X026348Y016897D01*
X026302Y016862D01*
X026254Y016831D01*
X026203Y016805D01*
X026150Y016783D01*
X026095Y016767D01*
X026039Y016755D01*
X025982Y016748D01*
X025925Y016747D01*
X025867Y016751D01*
X025811Y016760D01*
X025755Y016774D01*
X025701Y016794D01*
X025649Y016818D01*
X025599Y016846D01*
X025553Y016879D01*
X025509Y016917D01*
X025469Y016958D01*
X025433Y017002D01*
X025401Y017050D01*
X025373Y017100D01*
X025350Y017153D01*
X025332Y017207D01*
X025319Y017263D01*
X025312Y017320D01*
X025309Y017377D01*
X025309Y032564D02*
X025312Y032621D01*
X025319Y032678D01*
X025332Y032734D01*
X025350Y032788D01*
X025373Y032841D01*
X025401Y032891D01*
X025433Y032939D01*
X025469Y032983D01*
X025509Y033024D01*
X025553Y033062D01*
X025599Y033095D01*
X025649Y033123D01*
X025701Y033147D01*
X025755Y033167D01*
X025811Y033181D01*
X025867Y033190D01*
X025925Y033194D01*
X025982Y033193D01*
X026039Y033186D01*
X026095Y033174D01*
X026150Y033158D01*
X026203Y033136D01*
X026254Y033110D01*
X026302Y033079D01*
X026348Y033044D01*
X026390Y033004D01*
X026428Y032962D01*
X026462Y032915D01*
X026492Y032866D01*
X026517Y032815D01*
X026537Y032761D01*
X026553Y032706D01*
X026563Y032650D01*
X026568Y032593D01*
X026568Y032535D01*
X026563Y032478D01*
X026553Y032422D01*
X026537Y032367D01*
X026517Y032313D01*
X026492Y032262D01*
X026462Y032213D01*
X026428Y032166D01*
X026390Y032124D01*
X026348Y032084D01*
X026302Y032049D01*
X026254Y032018D01*
X026203Y031992D01*
X026150Y031970D01*
X026095Y031954D01*
X026039Y031942D01*
X025982Y031935D01*
X025925Y031934D01*
X025867Y031938D01*
X025811Y031947D01*
X025755Y031961D01*
X025701Y031981D01*
X025649Y032005D01*
X025599Y032033D01*
X025553Y032066D01*
X025509Y032104D01*
X025469Y032145D01*
X025433Y032189D01*
X025401Y032237D01*
X025373Y032287D01*
X025350Y032340D01*
X025332Y032394D01*
X025319Y032450D01*
X025312Y032507D01*
X025309Y032564D01*
D11*
X016252Y016720D03*
X014845Y015002D03*
D12*
X025939Y017377D03*
X025939Y032564D03*
D13*
X005326Y022754D02*
X005326Y022553D01*
X005326Y022653D02*
X004726Y022653D01*
X004726Y022553D01*
X005026Y022309D02*
X004926Y022209D01*
X004926Y022009D01*
X005026Y021909D01*
X005226Y021909D01*
X005326Y022009D01*
X005326Y022209D01*
X005126Y022309D02*
X005126Y021909D01*
X005026Y021665D02*
X005226Y021665D01*
X005326Y021565D01*
X005326Y021264D01*
X005527Y021264D02*
X004926Y021264D01*
X004926Y021565D01*
X005026Y021665D01*
X005026Y022309D02*
X005126Y022309D01*
X004077Y021163D02*
X003676Y021163D01*
X003676Y021363D02*
X003676Y021463D01*
X003676Y021363D02*
X003876Y021163D01*
X003876Y020919D02*
X003876Y020518D01*
X003776Y020518D02*
X003676Y020618D01*
X003676Y020819D01*
X003776Y020919D01*
X003876Y020919D01*
X004077Y020819D02*
X004077Y020618D01*
X003977Y020518D01*
X003776Y020518D01*
X004077Y020289D02*
X004077Y020089D01*
X004077Y020189D02*
X003476Y020189D01*
X003476Y020089D01*
X003476Y019759D02*
X004077Y019759D01*
X004077Y019659D02*
X004077Y019859D01*
X004726Y019860D02*
X004726Y019760D01*
X004726Y019860D02*
X005326Y019860D01*
X005326Y019760D02*
X005326Y019961D01*
X005326Y020190D02*
X005326Y020390D01*
X005326Y020290D02*
X004926Y020290D01*
X004926Y020190D01*
X004726Y020290D02*
X004626Y020290D01*
X004926Y020620D02*
X004926Y020920D01*
X005026Y021020D01*
X005226Y021020D01*
X005326Y020920D01*
X005326Y020620D01*
X005527Y020620D02*
X004926Y020620D01*
X004726Y019516D02*
X005126Y019116D01*
X005026Y019216D02*
X005326Y019516D01*
X005326Y019116D02*
X004726Y019116D01*
X004077Y019114D02*
X003977Y019014D01*
X003776Y019014D01*
X003676Y019114D01*
X003676Y019315D01*
X003776Y019415D01*
X003977Y019415D01*
X004077Y019315D01*
X004077Y019114D01*
X003676Y018778D02*
X003676Y018677D01*
X003876Y018477D01*
X003676Y018477D02*
X004077Y018477D01*
X004077Y018248D02*
X003977Y018148D01*
X003576Y018148D01*
X003676Y018048D02*
X003676Y018248D01*
X003776Y017803D02*
X004077Y017803D01*
X003776Y017803D02*
X003676Y017703D01*
X003676Y017403D01*
X004077Y017403D01*
X003977Y017159D02*
X003776Y017159D01*
X003676Y017059D01*
X003676Y016859D01*
X003776Y016759D01*
X003977Y016759D01*
X004077Y016859D01*
X004077Y017059D01*
X003977Y017159D01*
X004626Y016853D02*
X004726Y016853D01*
X004926Y016853D02*
X005326Y016853D01*
X005326Y016753D02*
X005326Y016953D01*
X005226Y017182D02*
X005126Y017282D01*
X005126Y017583D01*
X005026Y017583D02*
X005326Y017583D01*
X005326Y017282D01*
X005226Y017182D01*
X004926Y017282D02*
X004926Y017483D01*
X005026Y017583D01*
X004926Y017827D02*
X004926Y018127D01*
X005026Y018227D01*
X005326Y018227D01*
X005326Y017827D02*
X004926Y017827D01*
X004926Y016853D02*
X004926Y016753D01*
X004926Y016523D02*
X004926Y016323D01*
X004826Y016423D02*
X005226Y016423D01*
X005326Y016523D01*
X005226Y016079D02*
X005126Y015979D01*
X005126Y015778D01*
X005026Y015678D01*
X004926Y015778D01*
X004926Y016079D01*
X005226Y016079D02*
X005326Y015979D01*
X005326Y015678D01*
X005326Y015449D02*
X005326Y015249D01*
X005326Y015349D02*
X004926Y015349D01*
X004926Y015249D01*
X004726Y015349D02*
X004626Y015349D01*
X004926Y015012D02*
X004926Y014912D01*
X005126Y014712D01*
X005326Y014712D02*
X004926Y014712D01*
X005026Y014467D02*
X005326Y014467D01*
X005026Y014467D02*
X004926Y014367D01*
X004926Y014167D01*
X005026Y014067D01*
X004726Y014067D02*
X005326Y014067D01*
X005226Y013823D02*
X005326Y013723D01*
X005326Y013523D01*
X005226Y013423D01*
X004826Y013423D01*
X004726Y013523D01*
X004726Y013723D01*
X004826Y013823D01*
X004077Y013936D02*
X004077Y013636D01*
X003977Y013536D01*
X003876Y013636D01*
X003876Y013936D01*
X003776Y013936D02*
X004077Y013936D01*
X004077Y014180D02*
X003676Y014180D01*
X003676Y014481D01*
X003776Y014581D01*
X004077Y014581D01*
X003977Y014825D02*
X003776Y014825D01*
X003676Y014925D01*
X003676Y015225D01*
X003476Y015225D02*
X004077Y015225D01*
X004077Y014925D01*
X003977Y014825D01*
X003776Y013936D02*
X003676Y013836D01*
X003676Y013636D01*
X003014Y014273D02*
X003014Y014473D01*
X002914Y014573D01*
X002714Y014573D01*
X002714Y014373D01*
X002514Y014573D02*
X002414Y014473D01*
X002414Y014273D01*
X002514Y014173D01*
X002914Y014173D01*
X003014Y014273D01*
X002714Y013928D02*
X002714Y013528D01*
X002414Y013284D02*
X002414Y012884D01*
X003014Y012884D01*
X003014Y012639D02*
X002814Y012439D01*
X002814Y012539D02*
X002814Y012239D01*
X003014Y012239D02*
X002414Y012239D01*
X002414Y012539D01*
X002514Y012639D01*
X002714Y012639D01*
X002814Y012539D01*
X002714Y012884D02*
X002714Y013084D01*
X003476Y011917D02*
X004077Y011917D01*
X004077Y011817D02*
X004077Y012017D01*
X003977Y012247D02*
X004077Y012347D01*
X004077Y012647D01*
X004177Y012647D02*
X004277Y012547D01*
X004277Y012447D01*
X004177Y012647D02*
X003676Y012647D01*
X003676Y012247D02*
X003977Y012247D01*
X003977Y011573D02*
X003776Y011573D01*
X003676Y011473D01*
X003676Y011173D01*
X004277Y011173D01*
X004077Y011173D02*
X004077Y011473D01*
X003977Y011573D01*
X004726Y011689D02*
X005326Y011689D01*
X005326Y011489D02*
X005326Y011889D01*
X005326Y012134D02*
X004926Y012534D01*
X004826Y012534D01*
X004726Y012434D01*
X004726Y012234D01*
X004826Y012134D01*
X004726Y011689D02*
X004926Y011489D01*
X004826Y011245D02*
X005226Y010844D01*
X005326Y010945D01*
X005326Y011145D01*
X005226Y011245D01*
X004826Y011245D01*
X004726Y011145D01*
X004726Y010945D01*
X004826Y010844D01*
X005226Y010844D01*
X005326Y010600D02*
X005326Y010200D01*
X004926Y010600D01*
X004826Y010600D01*
X004726Y010500D01*
X004726Y010300D01*
X004826Y010200D01*
X004277Y010528D02*
X003676Y010528D01*
X003676Y010828D01*
X003776Y010928D01*
X003977Y010928D01*
X004077Y010828D01*
X004077Y010528D01*
X004077Y010284D02*
X003676Y010284D01*
X003676Y009884D02*
X003977Y009884D01*
X004077Y009984D01*
X004077Y010284D01*
X003977Y009639D02*
X003876Y009639D01*
X003776Y009539D01*
X003776Y009339D01*
X003676Y009239D01*
X003576Y009239D01*
X003476Y009339D01*
X003476Y009539D01*
X003576Y009639D01*
X003977Y009639D02*
X004077Y009539D01*
X004077Y009339D01*
X003977Y009239D01*
X004726Y009126D02*
X004926Y009326D01*
X005126Y009326D01*
X005326Y009126D01*
X005326Y008881D02*
X005326Y008581D01*
X005226Y008481D01*
X005026Y008481D01*
X004926Y008581D01*
X004926Y008881D01*
X004726Y008252D02*
X004926Y008051D01*
X005126Y008051D01*
X005326Y008252D01*
X003476Y011817D02*
X003476Y011917D01*
X005326Y012134D02*
X005326Y012534D01*
X003014Y014917D02*
X002914Y014817D01*
X002714Y014817D01*
X002614Y014917D01*
X002614Y015117D01*
X002714Y015218D01*
X002814Y015218D01*
X002814Y014817D01*
X003014Y014917D02*
X003014Y015117D01*
X003014Y015462D02*
X002614Y015462D01*
X002614Y015762D01*
X002714Y015862D01*
X003014Y015862D01*
X003476Y016214D02*
X003576Y016114D01*
X003977Y016114D01*
X004077Y016214D01*
X004077Y016414D01*
X003977Y016514D01*
X003576Y016514D02*
X003476Y016414D01*
X003476Y016214D01*
X002814Y016751D02*
X002414Y016751D01*
X002814Y016751D02*
X003014Y016951D01*
X002814Y017151D01*
X002414Y017151D01*
X002514Y017395D02*
X002414Y017495D01*
X002414Y017696D01*
X002514Y017796D01*
X002914Y017395D01*
X003014Y017495D01*
X003014Y017696D01*
X002914Y017796D01*
X002514Y017796D01*
X002514Y017395D02*
X002914Y017395D01*
X002914Y018040D02*
X002914Y018140D01*
X003014Y018140D01*
X003014Y018040D01*
X002914Y018040D01*
X002914Y018362D02*
X003014Y018462D01*
X003014Y018662D01*
X002914Y018762D01*
X002814Y018762D01*
X002714Y018662D01*
X002714Y018562D01*
X002714Y018662D02*
X002614Y018762D01*
X002514Y018762D01*
X002414Y018662D01*
X002414Y018462D01*
X002514Y018362D01*
X003476Y019659D02*
X003476Y019759D01*
D14*
X033615Y020423D03*
X033615Y017471D03*
X033615Y014518D03*
X033615Y024360D03*
D15*
X029564Y027150D03*
X030627Y019838D03*
D16*
X030627Y022790D03*
X029564Y030103D03*
D17*
X013502Y030206D03*
X013002Y030206D03*
X012502Y030206D03*
X012002Y030206D03*
X012002Y027922D03*
X012502Y027922D03*
X013002Y027922D03*
X013502Y027922D03*
D18*
X012752Y029064D03*
D19*
X005752Y029815D03*
X005752Y025563D03*
D20*
X011002Y028704D03*
X011002Y029924D03*
D21*
X014377Y029313D03*
X014377Y028565D03*
X014377Y027938D03*
X014377Y027190D03*
X019502Y017501D03*
X019502Y016753D03*
X021189Y016753D03*
X021189Y017501D03*
X022189Y017501D03*
X022189Y016753D03*
X023189Y016753D03*
X023189Y017501D03*
X024189Y017501D03*
X024189Y016753D03*
X016814Y007626D03*
X016814Y006878D03*
D22*
X013487Y032439D03*
X012266Y032439D03*
D23*
X009502Y030141D03*
X009502Y028487D03*
D24*
X012503Y031314D03*
X013251Y031314D03*
X018628Y015564D03*
X019376Y015564D03*
X017063Y013252D03*
X016315Y013252D03*
X013876Y010564D03*
X013128Y010564D03*
X026065Y013752D03*
X026813Y013752D03*
D25*
X013595Y024877D03*
X009658Y024877D03*
D26*
X012189Y018424D03*
X012189Y017204D03*
X012189Y016549D03*
X012189Y015329D03*
D27*
X011189Y015815D03*
X011189Y016563D03*
X011189Y017190D03*
X011189Y017938D03*
X013189Y009876D03*
X013189Y009128D03*
X013189Y008501D03*
X013189Y007753D03*
X014002Y008128D03*
X014002Y008876D03*
X008439Y008251D03*
X008439Y007503D03*
X019752Y005063D03*
X019752Y004315D03*
X022127Y007253D03*
X022127Y008001D03*
X023002Y008001D03*
X023002Y007253D03*
X023877Y007253D03*
X023877Y008001D03*
D28*
X035985Y003701D03*
X003701Y003701D03*
X003701Y035985D03*
X035985Y035985D03*
D29*
X028502Y012814D03*
X028002Y012814D03*
X027502Y012814D03*
X027002Y012814D03*
X026502Y012814D03*
X026002Y012814D03*
X025502Y012814D03*
X025002Y012814D03*
X024502Y012814D03*
X024002Y012814D03*
X023502Y012814D03*
X023002Y012814D03*
X022502Y012814D03*
X022002Y012814D03*
X022002Y008939D03*
X022502Y008939D03*
X023002Y008939D03*
X023502Y008939D03*
X024002Y008939D03*
X024502Y008939D03*
X025002Y008939D03*
X025502Y008939D03*
X026002Y008939D03*
X026502Y008939D03*
X027002Y008939D03*
X027502Y008939D03*
X028002Y008939D03*
X028502Y008939D03*
D30*
X024502Y015814D03*
X023502Y015814D03*
X022502Y015814D03*
X021502Y015814D03*
X020502Y015814D03*
X020502Y014439D03*
X019502Y014439D03*
X018502Y014439D03*
X017502Y014439D03*
X021502Y014439D03*
D31*
X018376Y013252D03*
X017628Y013252D03*
X019565Y009127D03*
X020313Y009127D03*
X025503Y014502D03*
X026251Y014502D03*
X018563Y035189D03*
X017815Y035189D03*
D32*
X030618Y009189D03*
X030618Y008252D03*
X031760Y008252D03*
X031766Y007314D03*
X032987Y007314D03*
X031760Y009189D03*
D33*
X029876Y008122D03*
X029128Y008122D03*
X029502Y007256D03*
D34*
X017050Y005319D03*
X017050Y004059D03*
D35*
X018821Y004689D03*
D36*
X012024Y007627D03*
X012024Y008127D03*
X012024Y008627D03*
X012024Y009127D03*
X012024Y009627D03*
X012024Y010127D03*
X012024Y010627D03*
X012024Y011127D03*
X009604Y011127D03*
X009604Y010627D03*
X009604Y010127D03*
X009604Y009627D03*
X009604Y009127D03*
X009604Y008627D03*
X009604Y008127D03*
X009604Y007627D03*
D37*
X015559Y008300D03*
X016819Y008300D03*
X017747Y008300D03*
X019007Y008300D03*
D38*
X018377Y010071D03*
X016189Y010071D03*
D39*
X036314Y014314D03*
X036314Y017627D03*
X036314Y020939D03*
X036314Y024252D03*
D40*
X023627Y033377D03*
X023627Y034377D03*
X022627Y034377D03*
X022627Y033377D03*
X021627Y033377D03*
X021627Y034377D03*
X020627Y034377D03*
X020627Y033377D03*
X019627Y033377D03*
X019627Y034377D03*
X018627Y034377D03*
X018627Y033377D03*
X017627Y033377D03*
X017627Y034377D03*
X016627Y034377D03*
X016627Y033377D03*
X013939Y005189D03*
X013939Y004189D03*
X012939Y004189D03*
X011939Y004189D03*
X010939Y004189D03*
X009939Y004189D03*
X009939Y005189D03*
X010939Y005189D03*
X011939Y005189D03*
X012939Y005189D03*
X022502Y005189D03*
X023502Y005189D03*
X024502Y005189D03*
X025502Y005189D03*
X026502Y005189D03*
X027502Y005189D03*
X028502Y005189D03*
X029502Y005189D03*
X029502Y004189D03*
X028502Y004189D03*
X027502Y004189D03*
X026502Y004189D03*
X025502Y004189D03*
X024502Y004189D03*
X023502Y004189D03*
X022502Y004189D03*
D41*
X019046Y007064D03*
X017707Y007064D03*
X017296Y011189D03*
X015957Y011189D03*
D42*
X020252Y008421D03*
X020252Y007082D03*
D43*
X013627Y018439D03*
X013627Y019439D03*
X013627Y020439D03*
X013627Y021439D03*
D44*
X009984Y017782D03*
X009984Y015971D03*
D45*
X007149Y016877D03*
M02*
