G75*
G70*
%OFA0B0*%
%FSLAX24Y24*%
%IPPOS*%
%LPD*%
%AMOC8*
5,1,8,0,0,1.08239X$1,22.5*
%
%ADD10C,0.0000*%
%ADD11C,0.0120*%
%ADD12C,0.0080*%
%ADD13C,0.0160*%
%ADD14C,0.0050*%
%ADD15R,0.1811X0.0591*%
%ADD16R,0.0118X0.0157*%
%ADD17C,0.0031*%
%ADD18R,0.0236X0.0197*%
%ADD19R,0.0125X0.0063*%
%ADD20R,0.0125X0.0063*%
%ADD21C,0.0060*%
%ADD22C,0.0100*%
%ADD23C,0.0010*%
%ADD24C,0.0020*%
%ADD25C,0.0240*%
%ADD26C,0.0110*%
%ADD27R,0.0236X0.0472*%
D10*
X001930Y001930D02*
X001930Y037757D01*
X006851Y037757D01*
X006851Y036772D01*
X006853Y036695D01*
X006859Y036618D01*
X006868Y036541D01*
X006881Y036465D01*
X006898Y036389D01*
X006919Y036315D01*
X006943Y036241D01*
X006971Y036169D01*
X007002Y036099D01*
X007037Y036030D01*
X007075Y035962D01*
X007116Y035897D01*
X007161Y035834D01*
X007209Y035773D01*
X007259Y035714D01*
X007312Y035658D01*
X007368Y035605D01*
X007427Y035555D01*
X007488Y035507D01*
X007551Y035462D01*
X007616Y035421D01*
X007684Y035383D01*
X007753Y035348D01*
X007823Y035317D01*
X007895Y035289D01*
X007969Y035265D01*
X008043Y035244D01*
X008119Y035227D01*
X008195Y035214D01*
X008272Y035205D01*
X008349Y035199D01*
X008426Y035197D01*
X008503Y035199D01*
X008580Y035205D01*
X008657Y035214D01*
X008733Y035227D01*
X008809Y035244D01*
X008883Y035265D01*
X008957Y035289D01*
X009029Y035317D01*
X009099Y035348D01*
X009168Y035383D01*
X009236Y035421D01*
X009301Y035462D01*
X009364Y035507D01*
X009425Y035555D01*
X009484Y035605D01*
X009540Y035658D01*
X009593Y035714D01*
X009643Y035773D01*
X009691Y035834D01*
X009736Y035897D01*
X009777Y035962D01*
X009815Y036030D01*
X009850Y036099D01*
X009881Y036169D01*
X009909Y036241D01*
X009933Y036315D01*
X009954Y036389D01*
X009971Y036465D01*
X009984Y036541D01*
X009993Y036618D01*
X009999Y036695D01*
X010001Y036772D01*
X010001Y037757D01*
X037757Y037757D01*
X037757Y001930D01*
X001930Y001930D01*
X014018Y015002D02*
X014021Y015077D01*
X014032Y015152D01*
X014049Y015225D01*
X014072Y015297D01*
X014102Y015366D01*
X014138Y015432D01*
X014180Y015494D01*
X014228Y015553D01*
X014281Y015606D01*
X014338Y015655D01*
X014399Y015699D01*
X014465Y015736D01*
X014533Y015768D01*
X014604Y015793D01*
X014677Y015812D01*
X014751Y015824D01*
X014826Y015829D01*
X014901Y015827D01*
X014976Y015819D01*
X015050Y015803D01*
X015122Y015781D01*
X015192Y015753D01*
X015258Y015718D01*
X015322Y015678D01*
X015381Y015631D01*
X015436Y015580D01*
X015487Y015524D01*
X015531Y015463D01*
X015570Y015399D01*
X015604Y015331D01*
X015630Y015261D01*
X015651Y015189D01*
X015664Y015115D01*
X015671Y015040D01*
X015671Y014964D01*
X015664Y014889D01*
X015651Y014815D01*
X015630Y014743D01*
X015604Y014673D01*
X015570Y014605D01*
X015531Y014541D01*
X015487Y014480D01*
X015436Y014424D01*
X015381Y014373D01*
X015322Y014326D01*
X015259Y014286D01*
X015192Y014251D01*
X015122Y014223D01*
X015050Y014201D01*
X014976Y014185D01*
X014901Y014177D01*
X014826Y014175D01*
X014751Y014180D01*
X014677Y014192D01*
X014604Y014211D01*
X014533Y014236D01*
X014465Y014268D01*
X014399Y014305D01*
X014338Y014349D01*
X014281Y014398D01*
X014228Y014451D01*
X014180Y014510D01*
X014138Y014572D01*
X014102Y014638D01*
X014072Y014707D01*
X014049Y014779D01*
X014032Y014852D01*
X014021Y014927D01*
X014018Y015002D01*
X015425Y016720D02*
X015428Y016795D01*
X015439Y016870D01*
X015456Y016943D01*
X015479Y017015D01*
X015509Y017084D01*
X015545Y017150D01*
X015587Y017212D01*
X015635Y017271D01*
X015688Y017324D01*
X015745Y017373D01*
X015806Y017417D01*
X015872Y017454D01*
X015940Y017486D01*
X016011Y017511D01*
X016084Y017530D01*
X016158Y017542D01*
X016233Y017547D01*
X016308Y017545D01*
X016383Y017537D01*
X016457Y017521D01*
X016529Y017499D01*
X016599Y017471D01*
X016665Y017436D01*
X016729Y017396D01*
X016788Y017349D01*
X016843Y017298D01*
X016894Y017242D01*
X016938Y017181D01*
X016977Y017117D01*
X017011Y017049D01*
X017037Y016979D01*
X017058Y016907D01*
X017071Y016833D01*
X017078Y016758D01*
X017078Y016682D01*
X017071Y016607D01*
X017058Y016533D01*
X017037Y016461D01*
X017011Y016391D01*
X016977Y016323D01*
X016938Y016259D01*
X016894Y016198D01*
X016843Y016142D01*
X016788Y016091D01*
X016729Y016044D01*
X016666Y016004D01*
X016599Y015969D01*
X016529Y015941D01*
X016457Y015919D01*
X016383Y015903D01*
X016308Y015895D01*
X016233Y015893D01*
X016158Y015898D01*
X016084Y015910D01*
X016011Y015929D01*
X015940Y015954D01*
X015872Y015986D01*
X015806Y016023D01*
X015745Y016067D01*
X015688Y016116D01*
X015635Y016169D01*
X015587Y016228D01*
X015545Y016290D01*
X015509Y016356D01*
X015479Y016425D01*
X015456Y016497D01*
X015439Y016570D01*
X015428Y016645D01*
X015425Y016720D01*
X025309Y017377D02*
X025312Y017434D01*
X025319Y017491D01*
X025332Y017547D01*
X025350Y017601D01*
X025373Y017654D01*
X025401Y017704D01*
X025433Y017752D01*
X025469Y017796D01*
X025509Y017837D01*
X025553Y017875D01*
X025599Y017908D01*
X025649Y017936D01*
X025701Y017960D01*
X025755Y017980D01*
X025811Y017994D01*
X025867Y018003D01*
X025925Y018007D01*
X025982Y018006D01*
X026039Y017999D01*
X026095Y017987D01*
X026150Y017971D01*
X026203Y017949D01*
X026254Y017923D01*
X026302Y017892D01*
X026348Y017857D01*
X026390Y017817D01*
X026428Y017775D01*
X026462Y017728D01*
X026492Y017679D01*
X026517Y017628D01*
X026537Y017574D01*
X026553Y017519D01*
X026563Y017463D01*
X026568Y017406D01*
X026568Y017348D01*
X026563Y017291D01*
X026553Y017235D01*
X026537Y017180D01*
X026517Y017126D01*
X026492Y017075D01*
X026462Y017026D01*
X026428Y016979D01*
X026390Y016937D01*
X026348Y016897D01*
X026302Y016862D01*
X026254Y016831D01*
X026203Y016805D01*
X026150Y016783D01*
X026095Y016767D01*
X026039Y016755D01*
X025982Y016748D01*
X025925Y016747D01*
X025867Y016751D01*
X025811Y016760D01*
X025755Y016774D01*
X025701Y016794D01*
X025649Y016818D01*
X025599Y016846D01*
X025553Y016879D01*
X025509Y016917D01*
X025469Y016958D01*
X025433Y017002D01*
X025401Y017050D01*
X025373Y017100D01*
X025350Y017153D01*
X025332Y017207D01*
X025319Y017263D01*
X025312Y017320D01*
X025309Y017377D01*
X025309Y032564D02*
X025312Y032621D01*
X025319Y032678D01*
X025332Y032734D01*
X025350Y032788D01*
X025373Y032841D01*
X025401Y032891D01*
X025433Y032939D01*
X025469Y032983D01*
X025509Y033024D01*
X025553Y033062D01*
X025599Y033095D01*
X025649Y033123D01*
X025701Y033147D01*
X025755Y033167D01*
X025811Y033181D01*
X025867Y033190D01*
X025925Y033194D01*
X025982Y033193D01*
X026039Y033186D01*
X026095Y033174D01*
X026150Y033158D01*
X026203Y033136D01*
X026254Y033110D01*
X026302Y033079D01*
X026348Y033044D01*
X026390Y033004D01*
X026428Y032962D01*
X026462Y032915D01*
X026492Y032866D01*
X026517Y032815D01*
X026537Y032761D01*
X026553Y032706D01*
X026563Y032650D01*
X026568Y032593D01*
X026568Y032535D01*
X026563Y032478D01*
X026553Y032422D01*
X026537Y032367D01*
X026517Y032313D01*
X026492Y032262D01*
X026462Y032213D01*
X026428Y032166D01*
X026390Y032124D01*
X026348Y032084D01*
X026302Y032049D01*
X026254Y032018D01*
X026203Y031992D01*
X026150Y031970D01*
X026095Y031954D01*
X026039Y031942D01*
X025982Y031935D01*
X025925Y031934D01*
X025867Y031938D01*
X025811Y031947D01*
X025755Y031961D01*
X025701Y031981D01*
X025649Y032005D01*
X025599Y032033D01*
X025553Y032066D01*
X025509Y032104D01*
X025469Y032145D01*
X025433Y032189D01*
X025401Y032237D01*
X025373Y032287D01*
X025350Y032340D01*
X025332Y032394D01*
X025319Y032450D01*
X025312Y032507D01*
X025309Y032564D01*
D11*
X016377Y015002D02*
X016377Y013877D01*
X016939Y014439D01*
X016377Y015002D01*
X016377Y014929D02*
X016449Y014929D01*
X016377Y014811D02*
X016568Y014811D01*
X016686Y014692D02*
X016377Y014692D01*
X016377Y014574D02*
X016805Y014574D01*
X016923Y014455D02*
X016377Y014455D01*
X016377Y014337D02*
X016837Y014337D01*
X016718Y014218D02*
X016377Y014218D01*
X016377Y014099D02*
X016599Y014099D01*
X016481Y013981D02*
X016377Y013981D01*
D12*
X015608Y018167D02*
X015768Y018327D01*
X015768Y018647D01*
X015448Y018647D02*
X015448Y018327D01*
X015608Y018167D01*
X015252Y018247D02*
X015252Y018407D01*
X015172Y018487D01*
X015092Y018487D01*
X014932Y018407D01*
X014932Y018647D01*
X015252Y018647D01*
X015252Y018247D02*
X015172Y018167D01*
X015012Y018167D01*
X014932Y018247D01*
X014737Y018407D02*
X014417Y018407D01*
X014577Y018567D02*
X014577Y018247D01*
X014657Y019167D02*
X014737Y019247D01*
X014737Y019407D01*
X014577Y019407D01*
X014737Y019567D02*
X014657Y019647D01*
X014497Y019647D01*
X014417Y019567D01*
X014417Y019247D01*
X014497Y019167D01*
X014657Y019167D01*
X014932Y019167D02*
X014932Y019647D01*
X015252Y019167D01*
X015252Y019647D01*
X015448Y019647D02*
X015688Y019647D01*
X015768Y019567D01*
X015768Y019247D01*
X015688Y019167D01*
X015448Y019167D01*
X015448Y019647D01*
X015448Y020167D02*
X015688Y020167D01*
X015768Y020247D01*
X015768Y020567D01*
X015688Y020647D01*
X015448Y020647D01*
X015448Y020167D01*
X015252Y020167D02*
X015252Y020647D01*
X014932Y020647D02*
X015252Y020167D01*
X014932Y020167D02*
X014932Y020647D01*
X014737Y020567D02*
X014657Y020647D01*
X014497Y020647D01*
X014417Y020567D01*
X014417Y020247D01*
X014497Y020167D01*
X014657Y020167D01*
X014737Y020247D01*
X014737Y020407D01*
X014577Y020407D01*
X014932Y021167D02*
X015252Y021167D01*
X015092Y021167D02*
X015092Y021647D01*
X014932Y021487D01*
X014737Y021407D02*
X014417Y021407D01*
X014577Y021567D02*
X014577Y021247D01*
X015448Y021167D02*
X015768Y021487D01*
X015768Y021567D01*
X015688Y021647D01*
X015528Y021647D01*
X015448Y021567D01*
X015448Y021167D02*
X015768Y021167D01*
X015964Y021327D02*
X015964Y021647D01*
X016284Y021647D02*
X016284Y021327D01*
X016124Y021167D01*
X015964Y021327D01*
D13*
X034102Y023307D02*
X034902Y023307D01*
X034502Y023707D02*
X034502Y022907D01*
X034502Y021883D02*
X034302Y021683D01*
X034702Y021283D01*
X034502Y021083D01*
X034502Y018933D02*
X034302Y018733D01*
X034702Y018333D01*
X034502Y018133D01*
X034502Y015983D02*
X034502Y015183D01*
D14*
X033802Y015030D02*
X033802Y016959D01*
X033409Y016959D02*
X033409Y015030D01*
X033409Y014006D02*
X033409Y013455D01*
X033802Y013455D01*
X033802Y014006D01*
X033802Y013455D02*
X035220Y013455D01*
X035220Y025423D01*
X033802Y025423D01*
X033802Y024872D01*
X033409Y024872D02*
X033409Y025423D01*
X033802Y025423D01*
X033802Y023849D02*
X033802Y020935D01*
X033409Y020935D02*
X033409Y023849D01*
X033409Y019911D02*
X033409Y017982D01*
X033802Y017982D02*
X033802Y019911D01*
X027454Y014477D02*
X027221Y014477D01*
X027221Y014302D01*
X027338Y014360D01*
X027396Y014360D01*
X027454Y014302D01*
X027454Y014185D01*
X027396Y014127D01*
X027279Y014127D01*
X027221Y014185D01*
X027086Y014185D02*
X027086Y014244D01*
X027028Y014302D01*
X026853Y014302D01*
X026853Y014185D01*
X026911Y014127D01*
X027028Y014127D01*
X027086Y014185D01*
X026853Y014302D02*
X026969Y014419D01*
X027086Y014477D01*
X026718Y014419D02*
X026659Y014477D01*
X026543Y014477D01*
X026484Y014419D01*
X026484Y014185D01*
X026543Y014127D01*
X026659Y014127D01*
X026718Y014185D01*
X026376Y014964D02*
X026376Y015314D01*
X026201Y015139D01*
X026434Y015139D01*
X026066Y014964D02*
X025832Y014964D01*
X025949Y014964D02*
X025949Y015314D01*
X025832Y015198D01*
X025698Y015256D02*
X025698Y015139D01*
X025639Y015081D01*
X025464Y015081D01*
X025581Y015081D02*
X025698Y014964D01*
X025464Y014964D02*
X025464Y015314D01*
X025639Y015314D01*
X025698Y015256D01*
X024617Y016489D02*
X024316Y016489D01*
X024467Y016489D02*
X024467Y016939D01*
X024316Y016789D01*
X024260Y017790D02*
X024260Y017965D01*
X024202Y018023D01*
X024085Y018023D01*
X024026Y017965D01*
X024026Y017790D01*
X024377Y017790D01*
X024260Y017907D02*
X024377Y018023D01*
X024377Y018158D02*
X024377Y018392D01*
X024377Y018275D02*
X024026Y018275D01*
X024143Y018158D01*
X023377Y018158D02*
X023143Y018392D01*
X023085Y018392D01*
X023026Y018333D01*
X023026Y018217D01*
X023085Y018158D01*
X023085Y018023D02*
X023202Y018023D01*
X023260Y017965D01*
X023260Y017790D01*
X023260Y017907D02*
X023377Y018023D01*
X023377Y018158D02*
X023377Y018392D01*
X023085Y018023D02*
X023026Y017965D01*
X023026Y017790D01*
X023377Y017790D01*
X022503Y017835D02*
X022445Y017777D01*
X022328Y017777D01*
X022270Y017835D01*
X022135Y017777D02*
X022018Y017893D01*
X022077Y017893D02*
X021902Y017893D01*
X021902Y017777D02*
X021902Y018127D01*
X022077Y018127D01*
X022135Y018069D01*
X022135Y017952D01*
X022077Y017893D01*
X022270Y018069D02*
X022328Y018127D01*
X022445Y018127D01*
X022503Y018069D01*
X022503Y018010D01*
X022445Y017952D01*
X022503Y017893D01*
X022503Y017835D01*
X022445Y017952D02*
X022387Y017952D01*
X021377Y018023D02*
X021260Y017907D01*
X021260Y017965D02*
X021260Y017790D01*
X021377Y017790D02*
X021026Y017790D01*
X021026Y017965D01*
X021085Y018023D01*
X021202Y018023D01*
X021260Y017965D01*
X021202Y018158D02*
X021202Y018392D01*
X021377Y018333D02*
X021026Y018333D01*
X021202Y018158D01*
X019997Y018127D02*
X019763Y018127D01*
X019763Y017952D01*
X019880Y018010D01*
X019938Y018010D01*
X019997Y017952D01*
X019997Y017835D01*
X019938Y017777D01*
X019822Y017777D01*
X019763Y017835D01*
X019628Y017777D02*
X019395Y017777D01*
X019512Y017777D02*
X019512Y018127D01*
X019395Y018010D01*
X019260Y017952D02*
X019202Y017893D01*
X019027Y017893D01*
X019143Y017893D02*
X019260Y017777D01*
X019260Y017952D02*
X019260Y018068D01*
X019202Y018127D01*
X019027Y018127D01*
X019027Y017777D01*
X018231Y016247D02*
X018172Y016247D01*
X018114Y016188D01*
X018114Y016013D01*
X018231Y016013D01*
X018289Y016072D01*
X018289Y016188D01*
X018231Y016247D01*
X017997Y016130D02*
X018114Y016013D01*
X018172Y015879D02*
X018114Y015820D01*
X018114Y015645D01*
X018231Y015645D01*
X018289Y015703D01*
X018289Y015820D01*
X018231Y015879D01*
X018172Y015879D01*
X017997Y015762D02*
X017939Y015879D01*
X017997Y015762D02*
X018114Y015645D01*
X018231Y015510D02*
X018289Y015452D01*
X018289Y015335D01*
X018231Y015277D01*
X017997Y015277D01*
X017939Y015335D01*
X017939Y015452D01*
X017997Y015510D01*
X017997Y016130D02*
X017939Y016247D01*
X017427Y013764D02*
X017427Y013314D01*
X017277Y013314D02*
X017577Y013314D01*
X017277Y013614D02*
X017427Y013764D01*
X017527Y012814D02*
X017702Y012814D01*
X017760Y012756D01*
X017760Y012639D01*
X017702Y012581D01*
X017527Y012581D01*
X017643Y012581D02*
X017760Y012464D01*
X017895Y012523D02*
X017953Y012464D01*
X018070Y012464D01*
X018129Y012523D01*
X018129Y012581D01*
X018070Y012639D01*
X018012Y012639D01*
X018070Y012639D02*
X018129Y012698D01*
X018129Y012756D01*
X018070Y012814D01*
X017953Y012814D01*
X017895Y012756D01*
X018263Y012756D02*
X018322Y012814D01*
X018438Y012814D01*
X018497Y012756D01*
X018497Y012698D01*
X018263Y012464D01*
X018497Y012464D01*
X017527Y012464D02*
X017527Y012814D01*
X016954Y012789D02*
X016721Y012789D01*
X016721Y012614D01*
X016838Y012673D01*
X016896Y012673D01*
X016954Y012614D01*
X016954Y012497D01*
X016896Y012439D01*
X016779Y012439D01*
X016721Y012497D01*
X016586Y012497D02*
X016528Y012439D01*
X016411Y012439D01*
X016352Y012497D01*
X016352Y012731D01*
X016411Y012789D01*
X016528Y012789D01*
X016586Y012731D01*
X016915Y012164D02*
X017090Y012164D01*
X017149Y012106D01*
X017149Y011872D01*
X017090Y011814D01*
X016915Y011814D01*
X016915Y012164D01*
X017283Y012164D02*
X017283Y011989D01*
X017400Y012048D01*
X017458Y012048D01*
X017517Y011989D01*
X017517Y011872D01*
X017458Y011814D01*
X017342Y011814D01*
X017283Y011872D01*
X017283Y012164D02*
X017517Y012164D01*
X016942Y011504D02*
X016312Y011504D01*
X016469Y011347D02*
X016784Y011189D01*
X016942Y011189D01*
X016784Y011189D02*
X016469Y011032D01*
X016469Y011189D01*
X016312Y011189D01*
X016469Y011189D02*
X016469Y011347D01*
X016784Y011347D02*
X016784Y011189D01*
X016784Y011032D01*
X016942Y010874D02*
X016312Y010874D01*
X016740Y009914D02*
X016976Y009914D01*
X016976Y008733D01*
X016465Y008378D02*
X016386Y008378D01*
X015992Y008378D02*
X015914Y008378D01*
X015402Y008733D02*
X015402Y009914D01*
X015638Y009914D01*
X015252Y009834D02*
X015193Y009892D01*
X015135Y009892D01*
X015076Y009834D01*
X015076Y009658D01*
X015193Y009658D01*
X015252Y009717D01*
X015252Y009834D01*
X015076Y009658D02*
X014960Y009775D01*
X014901Y009892D01*
X014559Y010006D02*
X014326Y009773D01*
X014384Y009714D01*
X014501Y009714D01*
X014559Y009773D01*
X014559Y010006D01*
X014501Y010065D01*
X014384Y010065D01*
X014326Y010006D01*
X014326Y009773D01*
X014191Y009714D02*
X013957Y009714D01*
X014191Y009948D01*
X014191Y010006D01*
X014133Y010065D01*
X014016Y010065D01*
X013957Y010006D01*
X013823Y010006D02*
X013764Y010065D01*
X013647Y010065D01*
X013589Y010006D01*
X013589Y009773D01*
X013647Y009714D01*
X013764Y009714D01*
X013823Y009773D01*
X014522Y008767D02*
X014464Y008708D01*
X014464Y008592D01*
X014522Y008533D01*
X014581Y008533D01*
X014639Y008592D01*
X014639Y008767D01*
X014756Y008767D02*
X014522Y008767D01*
X014756Y008767D02*
X014814Y008708D01*
X014814Y008592D01*
X014756Y008533D01*
X014756Y008399D02*
X014814Y008340D01*
X014814Y008223D01*
X014756Y008165D01*
X014522Y008165D01*
X014464Y008223D01*
X014464Y008340D01*
X014522Y008399D01*
X014901Y008922D02*
X014901Y009097D01*
X014960Y009155D01*
X015076Y009155D01*
X015135Y009097D01*
X015135Y008922D01*
X015135Y009039D02*
X015252Y009155D01*
X015252Y009290D02*
X015252Y009524D01*
X015252Y009407D02*
X014901Y009407D01*
X015018Y009290D01*
X014901Y008922D02*
X015252Y008922D01*
X013622Y007381D02*
X013563Y007439D01*
X013447Y007439D01*
X013388Y007381D01*
X013388Y007323D01*
X013447Y007264D01*
X013622Y007264D01*
X013622Y007148D02*
X013622Y007381D01*
X013622Y007148D02*
X013563Y007089D01*
X013447Y007089D01*
X013388Y007148D01*
X013253Y007089D02*
X013020Y007089D01*
X013137Y007089D02*
X013137Y007439D01*
X013020Y007323D01*
X012885Y007381D02*
X012827Y007439D01*
X012710Y007439D01*
X012652Y007381D01*
X012652Y007148D01*
X012710Y007089D01*
X012827Y007089D01*
X012885Y007148D01*
X011204Y006852D02*
X010971Y006852D01*
X011088Y006852D02*
X011088Y007202D01*
X010971Y007085D01*
X010836Y007144D02*
X010778Y007202D01*
X010661Y007202D01*
X010602Y007144D01*
X010602Y006910D01*
X010661Y006852D01*
X010778Y006852D01*
X010836Y006910D01*
X010474Y006852D02*
X010357Y006852D01*
X010415Y006852D02*
X010415Y007202D01*
X010357Y007202D02*
X010474Y007202D01*
X009189Y005415D02*
X009039Y005415D01*
X008964Y005339D01*
X009189Y005415D02*
X009264Y005339D01*
X009264Y005264D01*
X008964Y004964D01*
X009264Y004964D01*
X009114Y004415D02*
X009114Y003964D01*
X008964Y003964D02*
X009264Y003964D01*
X008964Y004264D02*
X009114Y004415D01*
X011564Y003414D02*
X011714Y003565D01*
X011714Y003114D01*
X011564Y003114D02*
X011864Y003114D01*
X012024Y003189D02*
X012325Y003489D01*
X012325Y003189D01*
X012250Y003114D01*
X012099Y003114D01*
X012024Y003189D01*
X012024Y003489D01*
X012099Y003565D01*
X012250Y003565D01*
X012325Y003489D01*
X017129Y004414D02*
X017129Y004492D01*
X017129Y004886D02*
X017129Y004965D01*
X017483Y005477D02*
X018664Y005477D01*
X018664Y005240D01*
X018691Y006214D02*
X018457Y006214D01*
X018574Y006214D02*
X018574Y006564D01*
X018457Y006448D01*
X018323Y006506D02*
X018264Y006564D01*
X018089Y006564D01*
X018089Y006214D01*
X018264Y006214D01*
X018323Y006272D01*
X018323Y006506D01*
X018062Y006749D02*
X018692Y006749D01*
X018534Y006907D02*
X018219Y007064D01*
X018062Y007064D01*
X018219Y007064D02*
X018534Y007222D01*
X018534Y007064D01*
X018692Y007064D01*
X018534Y007064D02*
X018534Y006907D01*
X018219Y006907D02*
X018219Y007064D01*
X018219Y007222D01*
X018062Y007379D02*
X018692Y007379D01*
X018652Y008379D02*
X018574Y008379D01*
X018180Y008379D02*
X018101Y008379D01*
X017589Y008733D02*
X017589Y009914D01*
X017825Y009914D01*
X018928Y009914D02*
X019164Y009914D01*
X019164Y008733D01*
X019937Y008067D02*
X019937Y007437D01*
X020094Y007594D02*
X020252Y007594D01*
X020252Y007437D01*
X020252Y007594D02*
X020094Y007909D01*
X020252Y007909D01*
X020252Y008067D01*
X020252Y007909D02*
X020409Y007909D01*
X020252Y007594D01*
X020409Y007594D01*
X020567Y007437D02*
X020567Y008067D01*
X020814Y008008D02*
X020989Y007832D01*
X020989Y008066D01*
X021164Y008008D02*
X020814Y008008D01*
X020872Y007698D02*
X020814Y007639D01*
X020814Y007464D01*
X021164Y007464D01*
X021164Y007639D01*
X021106Y007698D01*
X020872Y007698D01*
X021401Y007583D02*
X021577Y007408D01*
X021577Y007642D01*
X021752Y007583D02*
X021401Y007583D01*
X021460Y007274D02*
X021401Y007215D01*
X021401Y007098D01*
X021460Y007040D01*
X021693Y007040D01*
X021752Y007098D01*
X021752Y007215D01*
X021693Y007274D01*
X022714Y007460D02*
X022772Y007402D01*
X022889Y007402D01*
X022948Y007460D01*
X023082Y007460D02*
X023141Y007402D01*
X023258Y007402D01*
X023316Y007460D01*
X023316Y007518D01*
X023258Y007577D01*
X023199Y007577D01*
X023258Y007577D02*
X023316Y007635D01*
X023316Y007694D01*
X023258Y007752D01*
X023141Y007752D01*
X023082Y007694D01*
X022948Y007694D02*
X022889Y007752D01*
X022772Y007752D01*
X022714Y007694D01*
X022714Y007460D01*
X024276Y007404D02*
X024335Y007346D01*
X024276Y007404D02*
X024276Y007521D01*
X024335Y007579D01*
X024393Y007579D01*
X024627Y007346D01*
X024627Y007579D01*
X024568Y007211D02*
X024627Y007153D01*
X024627Y007036D01*
X024568Y006977D01*
X024335Y006977D01*
X024276Y007036D01*
X024276Y007153D01*
X024335Y007211D01*
X021827Y005339D02*
X021752Y005414D01*
X021602Y005414D01*
X021527Y005339D01*
X021827Y005339D02*
X021827Y005264D01*
X021527Y004964D01*
X021827Y004964D01*
X021677Y004414D02*
X021677Y003964D01*
X021527Y003964D02*
X021827Y003964D01*
X021527Y004264D02*
X021677Y004414D01*
X020247Y003564D02*
X020247Y003506D01*
X020013Y003272D01*
X020013Y003214D01*
X019878Y003272D02*
X019878Y003331D01*
X019820Y003389D01*
X019645Y003389D01*
X019645Y003272D01*
X019703Y003214D01*
X019820Y003214D01*
X019878Y003272D01*
X019645Y003389D02*
X019762Y003506D01*
X019878Y003564D01*
X020013Y003564D02*
X020247Y003564D01*
X019510Y003506D02*
X019452Y003564D01*
X019335Y003564D01*
X019277Y003506D01*
X019277Y003272D01*
X019335Y003214D01*
X019452Y003214D01*
X019510Y003272D01*
X019059Y003460D02*
X019059Y003577D01*
X019001Y003635D01*
X018942Y003635D01*
X018826Y003577D01*
X018826Y003752D01*
X019059Y003752D01*
X019059Y003460D02*
X019001Y003402D01*
X018884Y003402D01*
X018826Y003460D01*
X018691Y003460D02*
X018633Y003402D01*
X018516Y003402D01*
X018457Y003460D01*
X018323Y003402D02*
X018206Y003518D01*
X018264Y003518D02*
X018089Y003518D01*
X018089Y003402D02*
X018089Y003752D01*
X018264Y003752D01*
X018323Y003694D01*
X018323Y003577D01*
X018264Y003518D01*
X018457Y003694D02*
X018516Y003752D01*
X018633Y003752D01*
X018691Y003694D01*
X018691Y003635D01*
X018633Y003577D01*
X018691Y003518D01*
X018691Y003460D01*
X018633Y003577D02*
X018574Y003577D01*
X018664Y003902D02*
X018664Y004138D01*
X018664Y003902D02*
X017483Y003902D01*
X017572Y006672D02*
X017572Y006847D01*
X017514Y006905D01*
X017397Y006905D01*
X017339Y006847D01*
X017339Y006672D01*
X017689Y006672D01*
X017572Y006788D02*
X017689Y006905D01*
X017689Y007040D02*
X017689Y007274D01*
X017689Y007157D02*
X017339Y007157D01*
X017456Y007040D01*
X017456Y007408D02*
X017397Y007408D01*
X017339Y007467D01*
X017339Y007583D01*
X017397Y007642D01*
X017456Y007642D01*
X017514Y007583D01*
X017514Y007467D01*
X017456Y007408D01*
X017514Y007467D02*
X017572Y007408D01*
X017631Y007408D01*
X017689Y007467D01*
X017689Y007583D01*
X017631Y007642D01*
X017572Y007642D01*
X017514Y007583D01*
X019026Y010040D02*
X019026Y010215D01*
X019085Y010273D01*
X019201Y010273D01*
X019260Y010215D01*
X019260Y010040D01*
X019377Y010040D02*
X019026Y010040D01*
X019260Y010157D02*
X019377Y010273D01*
X019318Y010408D02*
X019377Y010467D01*
X019377Y010583D01*
X019318Y010642D01*
X019260Y010642D01*
X019201Y010583D01*
X019201Y010408D01*
X019318Y010408D01*
X019201Y010408D02*
X019085Y010525D01*
X019026Y010642D01*
X020564Y009813D02*
X020564Y009697D01*
X020622Y009638D01*
X020681Y009638D01*
X020739Y009697D01*
X020739Y009872D01*
X020856Y009872D02*
X020622Y009872D01*
X020564Y009813D01*
X020856Y009872D02*
X020914Y009813D01*
X020914Y009697D01*
X020856Y009638D01*
X020914Y009503D02*
X020914Y009270D01*
X020914Y009387D02*
X020564Y009387D01*
X020681Y009270D01*
X020739Y009135D02*
X020797Y009077D01*
X020797Y008902D01*
X020797Y009018D02*
X020914Y009135D01*
X020739Y009135D02*
X020622Y009135D01*
X020564Y009077D01*
X020564Y008902D01*
X020914Y008902D01*
X021752Y009377D02*
X028752Y009377D01*
X028752Y012377D01*
X021752Y012377D01*
X021752Y009377D01*
X021902Y009752D02*
X021904Y009782D01*
X021910Y009811D01*
X021920Y009840D01*
X021933Y009867D01*
X021950Y009891D01*
X021971Y009914D01*
X021994Y009933D01*
X022019Y009949D01*
X022046Y009962D01*
X022075Y009971D01*
X022104Y009976D01*
X022135Y009977D01*
X022164Y009974D01*
X022194Y009967D01*
X022222Y009956D01*
X022248Y009942D01*
X022272Y009924D01*
X022294Y009903D01*
X022312Y009879D01*
X022328Y009853D01*
X022340Y009826D01*
X022347Y009797D01*
X022351Y009767D01*
X022351Y009737D01*
X022347Y009707D01*
X022340Y009678D01*
X022328Y009651D01*
X022312Y009625D01*
X022294Y009601D01*
X022272Y009580D01*
X022248Y009562D01*
X022222Y009548D01*
X022194Y009537D01*
X022164Y009530D01*
X022135Y009527D01*
X022104Y009528D01*
X022075Y009533D01*
X022046Y009542D01*
X022019Y009555D01*
X021994Y009571D01*
X021971Y009590D01*
X021950Y009613D01*
X021933Y009637D01*
X021920Y009664D01*
X021910Y009693D01*
X021904Y009722D01*
X021902Y009752D01*
X021602Y010964D02*
X021602Y011081D01*
X021602Y011023D02*
X021251Y011023D01*
X021251Y011081D02*
X021251Y010964D01*
X021310Y011210D02*
X021543Y011210D01*
X021602Y011268D01*
X021602Y011385D01*
X021543Y011443D01*
X021543Y011578D02*
X021602Y011636D01*
X021602Y011753D01*
X021543Y011811D01*
X021485Y011811D01*
X021427Y011753D01*
X021427Y011578D01*
X021543Y011578D01*
X021427Y011578D02*
X021310Y011695D01*
X021251Y011811D01*
X021310Y011443D02*
X021251Y011385D01*
X021251Y011268D01*
X021310Y011210D01*
X020542Y014689D02*
X020391Y014689D01*
X020316Y014764D01*
X020316Y014914D02*
X020467Y014989D01*
X020542Y014989D01*
X020617Y014914D01*
X020617Y014764D01*
X020542Y014689D01*
X020316Y014914D02*
X020316Y015139D01*
X020617Y015139D01*
X021277Y015189D02*
X021352Y015114D01*
X021502Y015114D01*
X021577Y015189D01*
X021577Y015339D01*
X021502Y015414D01*
X021427Y015414D01*
X021277Y015339D01*
X021277Y015564D01*
X021577Y015564D01*
X014017Y011231D02*
X014017Y010997D01*
X013958Y010939D01*
X013842Y010939D01*
X013783Y010997D01*
X014017Y011231D01*
X013958Y011289D01*
X013842Y011289D01*
X013783Y011231D01*
X013783Y010997D01*
X013649Y010939D02*
X013415Y010939D01*
X013532Y010939D02*
X013532Y011289D01*
X013415Y011173D01*
X013280Y011231D02*
X013222Y011289D01*
X013105Y011289D01*
X013047Y011231D01*
X013047Y010997D01*
X013105Y010939D01*
X013222Y010939D01*
X013280Y010997D01*
X009118Y015538D02*
X009118Y018215D01*
X006677Y018215D01*
X006677Y018058D01*
X008294Y018502D02*
X008411Y018502D01*
X008353Y018502D02*
X008353Y018852D01*
X008411Y018852D02*
X008294Y018852D01*
X008540Y018793D02*
X008540Y018560D01*
X008598Y018502D01*
X008715Y018502D01*
X008774Y018560D01*
X008908Y018502D02*
X009142Y018735D01*
X009142Y018793D01*
X009083Y018852D01*
X008967Y018852D01*
X008908Y018793D01*
X008774Y018793D02*
X008715Y018852D01*
X008598Y018852D01*
X008540Y018793D01*
X008908Y018502D02*
X009142Y018502D01*
X011026Y018329D02*
X011026Y018096D01*
X011026Y018329D02*
X011085Y018329D01*
X011318Y018096D01*
X011376Y018096D01*
X011376Y017961D02*
X011376Y017728D01*
X011376Y017844D02*
X011026Y017844D01*
X011143Y017728D01*
X011085Y017593D02*
X011026Y017534D01*
X011026Y017418D01*
X011085Y017359D01*
X011318Y017359D01*
X011376Y017418D01*
X011376Y017534D01*
X011318Y017593D01*
X011714Y017469D02*
X011831Y017352D01*
X011772Y017218D02*
X011714Y017159D01*
X011714Y017042D01*
X011772Y016984D01*
X012006Y016984D01*
X012064Y017042D01*
X012064Y017159D01*
X012006Y017218D01*
X012064Y017352D02*
X012064Y017586D01*
X012064Y017469D02*
X011714Y017469D01*
X011889Y017721D02*
X011889Y017954D01*
X012064Y017896D02*
X011714Y017896D01*
X011889Y017721D01*
X011418Y016872D02*
X011360Y016872D01*
X011301Y016813D01*
X011301Y016638D01*
X011418Y016638D01*
X011477Y016696D01*
X011477Y016813D01*
X011418Y016872D01*
X011185Y016755D02*
X011301Y016638D01*
X011185Y016755D02*
X011126Y016872D01*
X011126Y016387D02*
X011477Y016387D01*
X011477Y016503D02*
X011477Y016270D01*
X011418Y016135D02*
X011477Y016077D01*
X011477Y015960D01*
X011418Y015902D01*
X011185Y015902D01*
X011126Y015960D01*
X011126Y016077D01*
X011185Y016135D01*
X011243Y016270D02*
X011126Y016387D01*
X012964Y017293D02*
X013022Y017234D01*
X013256Y017234D01*
X013314Y017293D01*
X013314Y017409D01*
X013256Y017468D01*
X013314Y017602D02*
X013314Y017836D01*
X013314Y017719D02*
X012964Y017719D01*
X013081Y017602D01*
X013022Y017468D02*
X012964Y017409D01*
X012964Y017293D01*
X013401Y017629D02*
X013626Y017404D01*
X013626Y017704D01*
X013401Y017629D02*
X013852Y017629D01*
X013314Y018029D02*
X013256Y017971D01*
X013197Y017971D01*
X013139Y018029D01*
X013139Y018146D01*
X013197Y018204D01*
X013256Y018204D01*
X013314Y018146D01*
X013314Y018029D01*
X013139Y018029D02*
X013081Y017971D01*
X013022Y017971D01*
X012964Y018029D01*
X012964Y018146D01*
X013022Y018204D01*
X013081Y018204D01*
X013139Y018146D01*
X012768Y019464D02*
X012827Y019522D01*
X012827Y019639D01*
X012768Y019698D01*
X012710Y019698D01*
X012651Y019639D01*
X012651Y019522D01*
X012593Y019464D01*
X012535Y019464D01*
X012476Y019522D01*
X012476Y019639D01*
X012535Y019698D01*
X012476Y019832D02*
X012710Y019832D01*
X012827Y019949D01*
X012710Y020066D01*
X012476Y020066D01*
X012535Y020201D02*
X012476Y020259D01*
X012476Y020376D01*
X012535Y020434D01*
X012593Y020434D01*
X012827Y020201D01*
X012827Y020434D01*
X013551Y021954D02*
X013401Y022104D01*
X013852Y022104D01*
X013852Y021954D02*
X013852Y022254D01*
X013674Y022869D02*
X013674Y024601D01*
X013556Y024522D02*
X012453Y024522D01*
X012453Y023105D01*
X012985Y023499D01*
X013320Y023932D01*
X013556Y024522D01*
X013549Y024505D02*
X012453Y024505D01*
X012453Y024457D02*
X013529Y024457D01*
X013510Y024408D02*
X012453Y024408D01*
X012453Y024359D02*
X013491Y024359D01*
X013471Y024311D02*
X012453Y024311D01*
X012453Y024262D02*
X013452Y024262D01*
X013432Y024214D02*
X012453Y024214D01*
X012453Y024165D02*
X013413Y024165D01*
X013394Y024117D02*
X012453Y024117D01*
X012453Y024068D02*
X013374Y024068D01*
X013355Y024020D02*
X012453Y024020D01*
X012453Y023971D02*
X013335Y023971D01*
X013312Y023923D02*
X012453Y023923D01*
X012453Y023874D02*
X013275Y023874D01*
X013237Y023825D02*
X012453Y023825D01*
X012453Y023777D02*
X013200Y023777D01*
X013162Y023728D02*
X012453Y023728D01*
X012453Y023680D02*
X013125Y023680D01*
X013087Y023631D02*
X012453Y023631D01*
X012453Y023583D02*
X013050Y023583D01*
X013012Y023534D02*
X012453Y023534D01*
X012453Y023486D02*
X012967Y023486D01*
X012902Y023437D02*
X012453Y023437D01*
X012453Y023389D02*
X012836Y023389D01*
X012771Y023340D02*
X012453Y023340D01*
X012453Y023291D02*
X012705Y023291D01*
X012640Y023243D02*
X012453Y023243D01*
X012453Y023194D02*
X012574Y023194D01*
X012509Y023146D02*
X012453Y023146D01*
X013674Y022869D02*
X010642Y022869D01*
X009579Y023892D01*
X009579Y024601D01*
X009579Y025152D02*
X009579Y025861D01*
X010642Y026924D01*
X013674Y026924D01*
X013674Y025152D01*
X013556Y025231D02*
X012453Y025231D01*
X012453Y026648D01*
X012985Y026255D01*
X013320Y025822D01*
X013556Y025231D01*
X013555Y025233D02*
X012453Y025233D01*
X012453Y025282D02*
X013535Y025282D01*
X013516Y025330D02*
X012453Y025330D01*
X012453Y025379D02*
X013497Y025379D01*
X013477Y025427D02*
X012453Y025427D01*
X012453Y025476D02*
X013458Y025476D01*
X013438Y025524D02*
X012453Y025524D01*
X012453Y025573D02*
X013419Y025573D01*
X013399Y025622D02*
X012453Y025622D01*
X012453Y025670D02*
X013380Y025670D01*
X013361Y025719D02*
X012453Y025719D01*
X012453Y025767D02*
X013341Y025767D01*
X013322Y025816D02*
X012453Y025816D01*
X012453Y025864D02*
X013286Y025864D01*
X013249Y025913D02*
X012453Y025913D01*
X012453Y025961D02*
X013211Y025961D01*
X013174Y026010D02*
X012453Y026010D01*
X012453Y026058D02*
X013136Y026058D01*
X013099Y026107D02*
X012453Y026107D01*
X012453Y026156D02*
X013061Y026156D01*
X013024Y026204D02*
X012453Y026204D01*
X012453Y026253D02*
X012986Y026253D01*
X012922Y026301D02*
X012453Y026301D01*
X012453Y026350D02*
X012856Y026350D01*
X012791Y026398D02*
X012453Y026398D01*
X012453Y026447D02*
X012725Y026447D01*
X012660Y026495D02*
X012453Y026495D01*
X012453Y026544D02*
X012594Y026544D01*
X012529Y026592D02*
X012453Y026592D01*
X012453Y026641D02*
X012463Y026641D01*
X011602Y027589D02*
X011602Y027706D01*
X011602Y027647D02*
X011251Y027647D01*
X011251Y027589D02*
X011251Y027706D01*
X011310Y027835D02*
X011543Y027835D01*
X011602Y027893D01*
X011602Y028010D01*
X011543Y028068D01*
X011543Y028203D02*
X011602Y028261D01*
X011602Y028378D01*
X011543Y028436D01*
X011485Y028436D01*
X011426Y028378D01*
X011426Y028320D01*
X011426Y028378D02*
X011368Y028436D01*
X011310Y028436D01*
X011251Y028378D01*
X011251Y028261D01*
X011310Y028203D01*
X011310Y028068D02*
X011251Y028010D01*
X011251Y027893D01*
X011310Y027835D01*
X010792Y027852D02*
X010558Y027852D01*
X010792Y028085D01*
X010792Y028144D01*
X010733Y028202D01*
X010617Y028202D01*
X010558Y028144D01*
X010423Y028144D02*
X010365Y028202D01*
X010190Y028202D01*
X010190Y027852D01*
X010365Y027852D01*
X010423Y027910D01*
X010423Y028144D01*
X010250Y028369D02*
X010053Y028369D01*
X010250Y028369D02*
X010250Y030259D01*
X010053Y030259D01*
X010547Y030310D02*
X010605Y030252D01*
X010722Y030252D01*
X010780Y030310D01*
X010915Y030252D02*
X011149Y030252D01*
X011032Y030252D02*
X011032Y030602D01*
X010915Y030485D01*
X010780Y030544D02*
X010722Y030602D01*
X010605Y030602D01*
X010547Y030544D01*
X010547Y030310D01*
X011283Y030252D02*
X011517Y030252D01*
X011400Y030252D02*
X011400Y030602D01*
X011283Y030485D01*
X011839Y030918D02*
X011897Y030859D01*
X012131Y030859D01*
X012189Y030918D01*
X012189Y031034D01*
X012131Y031093D01*
X012189Y031228D02*
X012189Y031461D01*
X012189Y031344D02*
X011839Y031344D01*
X011956Y031228D01*
X011897Y031093D02*
X011839Y031034D01*
X011839Y030918D01*
X011839Y031596D02*
X012014Y031596D01*
X011956Y031713D01*
X011956Y031771D01*
X012014Y031829D01*
X012131Y031829D01*
X012189Y031771D01*
X012189Y031654D01*
X012131Y031596D01*
X011839Y031596D02*
X011839Y031829D01*
X012460Y033089D02*
X012577Y033089D01*
X012635Y033147D01*
X012770Y033089D02*
X013003Y033089D01*
X012887Y033089D02*
X012887Y033439D01*
X012770Y033323D01*
X012635Y033381D02*
X012577Y033439D01*
X012460Y033439D01*
X012402Y033381D01*
X012402Y033147D01*
X012460Y033089D01*
X013138Y033147D02*
X013196Y033089D01*
X013313Y033089D01*
X013372Y033147D01*
X013372Y033206D01*
X013313Y033264D01*
X013255Y033264D01*
X013313Y033264D02*
X013372Y033323D01*
X013372Y033381D01*
X013313Y033439D01*
X013196Y033439D01*
X013138Y033381D01*
X013145Y029852D02*
X013342Y029852D01*
X013657Y029852D02*
X013736Y029852D01*
X013736Y028434D01*
X011767Y028434D01*
X011767Y028277D01*
X011846Y028277D01*
X011767Y028434D02*
X011767Y029852D01*
X011846Y029852D01*
X012161Y029852D02*
X012358Y029852D01*
X012673Y029852D02*
X012830Y029852D01*
X012830Y028277D02*
X012673Y028277D01*
X012358Y028277D02*
X012161Y028277D01*
X013145Y028277D02*
X013342Y028277D01*
X013657Y028277D02*
X013736Y028277D01*
X013736Y028434D01*
X014814Y028652D02*
X014814Y028827D01*
X014872Y028885D01*
X014989Y028885D01*
X015047Y028827D01*
X015047Y028652D01*
X015047Y028769D02*
X015164Y028885D01*
X015106Y029020D02*
X015164Y029078D01*
X015164Y029195D01*
X015106Y029254D01*
X014872Y029254D01*
X014814Y029195D01*
X014814Y029078D01*
X014872Y029020D01*
X014931Y029020D01*
X014989Y029078D01*
X014989Y029254D01*
X015164Y028652D02*
X014814Y028652D01*
X014872Y027878D02*
X014930Y027878D01*
X014989Y027820D01*
X014989Y027703D01*
X014930Y027645D01*
X014872Y027645D01*
X014814Y027703D01*
X014814Y027820D01*
X014872Y027878D01*
X014989Y027820D02*
X015047Y027878D01*
X015106Y027878D01*
X015164Y027820D01*
X015164Y027703D01*
X015106Y027645D01*
X015047Y027645D01*
X014989Y027703D01*
X014989Y027510D02*
X015047Y027452D01*
X015047Y027276D01*
X015164Y027276D02*
X014814Y027276D01*
X014814Y027452D01*
X014872Y027510D01*
X014989Y027510D01*
X015047Y027393D02*
X015164Y027510D01*
X014164Y023872D02*
X014164Y023638D01*
X013931Y023872D01*
X013872Y023872D01*
X013814Y023813D01*
X013814Y023697D01*
X013872Y023638D01*
X013814Y023387D02*
X014164Y023387D01*
X014164Y023270D02*
X014164Y023504D01*
X013931Y023270D02*
X013814Y023387D01*
X013872Y023135D02*
X013814Y023077D01*
X013814Y022960D01*
X013872Y022902D01*
X014106Y022902D01*
X014164Y022960D01*
X014164Y023077D01*
X014106Y023135D01*
X013556Y024503D02*
X013538Y024418D01*
X013515Y024333D01*
X013489Y024250D01*
X013459Y024167D01*
X013426Y024087D01*
X013389Y024007D01*
X013349Y023930D01*
X013305Y023854D01*
X013258Y023781D01*
X013207Y023709D01*
X013154Y023640D01*
X013097Y023573D01*
X013038Y023509D01*
X012976Y023448D01*
X012911Y023389D01*
X012843Y023334D01*
X012773Y023281D01*
X012701Y023232D01*
X012627Y023185D01*
X012551Y023143D01*
X012473Y023103D01*
X012393Y023067D01*
X012312Y023035D01*
X012229Y023007D01*
X012145Y022982D01*
X012061Y022960D01*
X011975Y022943D01*
X011889Y022929D01*
X011802Y022920D01*
X011714Y022914D01*
X011627Y022912D01*
X011540Y022914D01*
X011452Y022920D01*
X011365Y022929D01*
X011279Y022943D01*
X011193Y022960D01*
X011109Y022982D01*
X011025Y023007D01*
X010942Y023035D01*
X010861Y023067D01*
X010781Y023103D01*
X010703Y023143D01*
X010627Y023185D01*
X010553Y023232D01*
X010481Y023281D01*
X010411Y023334D01*
X010343Y023389D01*
X010278Y023448D01*
X010216Y023509D01*
X010157Y023573D01*
X010100Y023640D01*
X010047Y023709D01*
X009996Y023781D01*
X009949Y023854D01*
X009905Y023930D01*
X009865Y024007D01*
X009828Y024087D01*
X009795Y024167D01*
X009765Y024250D01*
X009739Y024333D01*
X009716Y024418D01*
X009698Y024503D01*
X008311Y025524D02*
X008311Y029854D01*
X008309Y029893D01*
X008303Y029931D01*
X008294Y029968D01*
X008281Y030005D01*
X008264Y030040D01*
X008245Y030073D01*
X008222Y030104D01*
X008196Y030133D01*
X008167Y030159D01*
X008136Y030182D01*
X008103Y030201D01*
X008068Y030218D01*
X008031Y030231D01*
X007994Y030240D01*
X007956Y030246D01*
X007917Y030248D01*
X006893Y030248D01*
X006837Y029443D02*
X006868Y029471D01*
X006900Y029496D01*
X006935Y029518D01*
X006972Y029537D01*
X007010Y029553D01*
X007049Y029565D01*
X007089Y029574D01*
X007130Y029579D01*
X007171Y029581D01*
X007212Y029579D01*
X007253Y029574D01*
X007293Y029565D01*
X007332Y029553D01*
X007370Y029537D01*
X007407Y029518D01*
X007442Y029496D01*
X007474Y029471D01*
X007505Y029443D01*
X007533Y029412D01*
X007558Y029380D01*
X007580Y029345D01*
X007599Y029308D01*
X007615Y029270D01*
X007627Y029231D01*
X007636Y029191D01*
X007641Y029150D01*
X007643Y029109D01*
X007641Y029068D01*
X007636Y029027D01*
X007627Y028987D01*
X007615Y028948D01*
X007599Y028910D01*
X007580Y028873D01*
X007558Y028838D01*
X007533Y028806D01*
X007505Y028775D01*
X008754Y028369D02*
X008754Y030259D01*
X008950Y030259D01*
X009226Y029590D02*
X009502Y029590D01*
X009226Y029039D01*
X009777Y029039D01*
X009502Y029590D01*
X009777Y029590D01*
X008950Y028369D02*
X008754Y028369D01*
X007505Y026603D02*
X007533Y026572D01*
X007558Y026540D01*
X007580Y026505D01*
X007599Y026468D01*
X007615Y026430D01*
X007627Y026391D01*
X007636Y026351D01*
X007641Y026310D01*
X007643Y026269D01*
X007641Y026228D01*
X007636Y026187D01*
X007627Y026147D01*
X007615Y026108D01*
X007599Y026070D01*
X007580Y026033D01*
X007558Y025998D01*
X007533Y025966D01*
X007505Y025935D01*
X007474Y025907D01*
X007442Y025882D01*
X007407Y025860D01*
X007370Y025841D01*
X007332Y025825D01*
X007293Y025813D01*
X007253Y025804D01*
X007212Y025799D01*
X007171Y025797D01*
X007130Y025799D01*
X007089Y025804D01*
X007049Y025813D01*
X007010Y025825D01*
X006972Y025841D01*
X006935Y025860D01*
X006900Y025882D01*
X006868Y025907D01*
X006837Y025935D01*
X006893Y025130D02*
X007917Y025130D01*
X007956Y025132D01*
X007994Y025138D01*
X008031Y025147D01*
X008068Y025160D01*
X008103Y025177D01*
X008136Y025196D01*
X008167Y025219D01*
X008196Y025245D01*
X008222Y025274D01*
X008245Y025305D01*
X008264Y025338D01*
X008281Y025373D01*
X008294Y025410D01*
X008303Y025447D01*
X008309Y025485D01*
X008311Y025524D01*
X003998Y026603D02*
X003953Y026679D01*
X003912Y026756D01*
X003874Y026836D01*
X003839Y026917D01*
X003808Y026999D01*
X003780Y027082D01*
X003756Y027167D01*
X003736Y027253D01*
X003719Y027339D01*
X003706Y027426D01*
X003696Y027513D01*
X003691Y027601D01*
X003689Y027689D01*
X003691Y027777D01*
X003696Y027865D01*
X003706Y027952D01*
X003719Y028039D01*
X003736Y028125D01*
X003756Y028211D01*
X003780Y028296D01*
X003808Y028379D01*
X003839Y028461D01*
X003874Y028542D01*
X003912Y028622D01*
X003953Y028699D01*
X003998Y028775D01*
X003970Y028806D01*
X003945Y028838D01*
X003923Y028873D01*
X003904Y028910D01*
X003888Y028948D01*
X003876Y028987D01*
X003867Y029027D01*
X003862Y029068D01*
X003860Y029109D01*
X003862Y029150D01*
X003867Y029191D01*
X003876Y029231D01*
X003888Y029270D01*
X003904Y029308D01*
X003923Y029345D01*
X003945Y029380D01*
X003970Y029412D01*
X003998Y029443D01*
X004029Y029471D01*
X004061Y029496D01*
X004096Y029518D01*
X004133Y029537D01*
X004171Y029553D01*
X004210Y029565D01*
X004250Y029574D01*
X004291Y029579D01*
X004332Y029581D01*
X004373Y029579D01*
X004414Y029574D01*
X004454Y029565D01*
X004493Y029553D01*
X004531Y029537D01*
X004568Y029518D01*
X004603Y029496D01*
X004635Y029471D01*
X004666Y029443D01*
X004610Y030248D02*
X003586Y030248D01*
X003790Y030439D02*
X004024Y030439D01*
X004158Y030614D02*
X004392Y030614D01*
X004333Y030439D02*
X004333Y030789D01*
X004158Y030614D01*
X003790Y030789D02*
X003790Y030439D01*
X003586Y030248D02*
X003547Y030246D01*
X003509Y030240D01*
X003472Y030231D01*
X003435Y030218D01*
X003400Y030201D01*
X003367Y030182D01*
X003336Y030159D01*
X003307Y030133D01*
X003281Y030104D01*
X003258Y030073D01*
X003239Y030040D01*
X003222Y030005D01*
X003209Y029968D01*
X003200Y029931D01*
X003194Y029893D01*
X003192Y029854D01*
X003193Y029854D02*
X003193Y025524D01*
X003192Y025524D02*
X003194Y025485D01*
X003200Y025447D01*
X003209Y025410D01*
X003222Y025373D01*
X003239Y025338D01*
X003258Y025305D01*
X003281Y025274D01*
X003307Y025245D01*
X003336Y025219D01*
X003367Y025196D01*
X003400Y025177D01*
X003435Y025160D01*
X003472Y025147D01*
X003509Y025138D01*
X003547Y025132D01*
X003586Y025130D01*
X004610Y025130D01*
X004666Y025935D02*
X004635Y025907D01*
X004603Y025882D01*
X004568Y025860D01*
X004531Y025841D01*
X004493Y025825D01*
X004454Y025813D01*
X004414Y025804D01*
X004373Y025799D01*
X004332Y025797D01*
X004291Y025799D01*
X004250Y025804D01*
X004210Y025813D01*
X004171Y025825D01*
X004133Y025841D01*
X004096Y025860D01*
X004061Y025882D01*
X004029Y025907D01*
X003998Y025935D01*
X003970Y025966D01*
X003945Y025998D01*
X003923Y026033D01*
X003904Y026070D01*
X003888Y026108D01*
X003876Y026147D01*
X003867Y026187D01*
X003862Y026228D01*
X003860Y026269D01*
X003862Y026310D01*
X003867Y026351D01*
X003876Y026391D01*
X003888Y026430D01*
X003904Y026468D01*
X003923Y026505D01*
X003945Y026540D01*
X003970Y026572D01*
X003998Y026603D01*
X007506Y026603D02*
X007551Y026679D01*
X007592Y026756D01*
X007630Y026836D01*
X007665Y026917D01*
X007696Y026999D01*
X007724Y027082D01*
X007748Y027167D01*
X007768Y027253D01*
X007785Y027339D01*
X007798Y027426D01*
X007808Y027513D01*
X007813Y027601D01*
X007815Y027689D01*
X007813Y027777D01*
X007808Y027865D01*
X007798Y027952D01*
X007785Y028039D01*
X007768Y028125D01*
X007748Y028211D01*
X007724Y028296D01*
X007696Y028379D01*
X007665Y028461D01*
X007630Y028542D01*
X007592Y028622D01*
X007551Y028699D01*
X007506Y028775D01*
X004649Y029067D02*
X004586Y029014D01*
X004525Y028957D01*
X004466Y028898D01*
X004411Y028836D01*
X004358Y028772D01*
X004308Y028705D01*
X004262Y028635D01*
X004219Y028564D01*
X004180Y028491D01*
X004144Y028416D01*
X004111Y028339D01*
X004082Y028261D01*
X004057Y028182D01*
X004036Y028101D01*
X004018Y028020D01*
X004005Y027938D01*
X003995Y027855D01*
X003989Y027772D01*
X003987Y027689D01*
X003989Y027606D01*
X003995Y027523D01*
X004005Y027440D01*
X004018Y027358D01*
X004036Y027277D01*
X004057Y027196D01*
X004082Y027117D01*
X004111Y027039D01*
X004144Y026962D01*
X004180Y026887D01*
X004219Y026814D01*
X004262Y026743D01*
X004308Y026673D01*
X004358Y026606D01*
X004411Y026542D01*
X004466Y026480D01*
X004525Y026421D01*
X004586Y026364D01*
X004649Y026311D01*
X006855Y026311D02*
X006918Y026364D01*
X006979Y026421D01*
X007038Y026480D01*
X007093Y026542D01*
X007146Y026606D01*
X007196Y026673D01*
X007242Y026743D01*
X007285Y026814D01*
X007324Y026887D01*
X007360Y026962D01*
X007393Y027039D01*
X007422Y027117D01*
X007447Y027196D01*
X007468Y027277D01*
X007486Y027358D01*
X007499Y027440D01*
X007509Y027523D01*
X007515Y027606D01*
X007517Y027689D01*
X007515Y027772D01*
X007509Y027855D01*
X007499Y027938D01*
X007486Y028020D01*
X007468Y028101D01*
X007447Y028182D01*
X007422Y028261D01*
X007393Y028339D01*
X007360Y028416D01*
X007324Y028491D01*
X007285Y028564D01*
X007242Y028635D01*
X007196Y028705D01*
X007146Y028772D01*
X007093Y028836D01*
X007038Y028898D01*
X006979Y028957D01*
X006918Y029014D01*
X006855Y029067D01*
X009698Y025251D02*
X009716Y025336D01*
X009739Y025421D01*
X009765Y025504D01*
X009795Y025587D01*
X009828Y025667D01*
X009865Y025747D01*
X009905Y025824D01*
X009949Y025900D01*
X009996Y025973D01*
X010047Y026045D01*
X010100Y026114D01*
X010157Y026181D01*
X010216Y026245D01*
X010278Y026306D01*
X010343Y026365D01*
X010411Y026420D01*
X010481Y026473D01*
X010553Y026522D01*
X010627Y026569D01*
X010703Y026611D01*
X010781Y026651D01*
X010861Y026687D01*
X010942Y026719D01*
X011025Y026747D01*
X011109Y026772D01*
X011193Y026794D01*
X011279Y026811D01*
X011365Y026825D01*
X011452Y026834D01*
X011540Y026840D01*
X011627Y026842D01*
X011714Y026840D01*
X011802Y026834D01*
X011889Y026825D01*
X011975Y026811D01*
X012061Y026794D01*
X012145Y026772D01*
X012229Y026747D01*
X012312Y026719D01*
X012393Y026687D01*
X012473Y026651D01*
X012551Y026611D01*
X012627Y026569D01*
X012701Y026522D01*
X012773Y026473D01*
X012843Y026420D01*
X012911Y026365D01*
X012976Y026306D01*
X013038Y026245D01*
X013097Y026181D01*
X013154Y026114D01*
X013207Y026045D01*
X013258Y025973D01*
X013305Y025900D01*
X013349Y025824D01*
X013389Y025747D01*
X013426Y025667D01*
X013459Y025587D01*
X013489Y025504D01*
X013515Y025421D01*
X013538Y025336D01*
X013556Y025251D01*
X009118Y015538D02*
X006677Y015538D01*
X006677Y015695D01*
X007689Y008941D02*
X007747Y008824D01*
X007864Y008707D01*
X007864Y008883D01*
X007922Y008941D01*
X007981Y008941D01*
X008039Y008883D01*
X008039Y008766D01*
X007981Y008707D01*
X007864Y008707D01*
X007747Y008573D02*
X007689Y008514D01*
X007689Y008397D01*
X007747Y008339D01*
X007981Y008339D01*
X008039Y008397D01*
X008039Y008514D01*
X007981Y008573D01*
X002323Y003701D02*
X002329Y003826D01*
X002346Y003951D01*
X002374Y004073D01*
X002413Y004192D01*
X002463Y004307D01*
X002524Y004417D01*
X002594Y004521D01*
X002673Y004618D01*
X002760Y004708D01*
X002856Y004789D01*
X002958Y004862D01*
X003067Y004925D01*
X003181Y004977D01*
X003299Y005019D01*
X003421Y005050D01*
X003544Y005070D01*
X003670Y005079D01*
X003795Y005076D01*
X003920Y005062D01*
X004042Y005036D01*
X004162Y004999D01*
X004279Y004952D01*
X004390Y004894D01*
X004496Y004827D01*
X004595Y004750D01*
X004686Y004664D01*
X004770Y004571D01*
X004845Y004470D01*
X004910Y004363D01*
X004965Y004250D01*
X005010Y004133D01*
X005043Y004012D01*
X005066Y003889D01*
X005078Y003764D01*
X005078Y003638D01*
X005066Y003513D01*
X005043Y003390D01*
X005010Y003269D01*
X004965Y003152D01*
X004910Y003039D01*
X004845Y002932D01*
X004770Y002831D01*
X004686Y002738D01*
X004595Y002652D01*
X004496Y002575D01*
X004390Y002508D01*
X004279Y002450D01*
X004162Y002403D01*
X004042Y002366D01*
X003920Y002340D01*
X003795Y002326D01*
X003670Y002323D01*
X003544Y002332D01*
X003421Y002352D01*
X003299Y002383D01*
X003181Y002425D01*
X003067Y002477D01*
X002958Y002540D01*
X002856Y002613D01*
X002760Y002694D01*
X002673Y002784D01*
X002594Y002881D01*
X002524Y002985D01*
X002463Y003095D01*
X002413Y003210D01*
X002374Y003329D01*
X002346Y003451D01*
X002329Y003576D01*
X002323Y003701D01*
X025627Y003414D02*
X025777Y003564D01*
X025777Y003114D01*
X025627Y003114D02*
X025927Y003114D01*
X026087Y003189D02*
X026162Y003114D01*
X026312Y003114D01*
X026387Y003189D01*
X026387Y003264D01*
X026312Y003339D01*
X026087Y003339D01*
X026087Y003189D01*
X026087Y003339D02*
X026237Y003489D01*
X026387Y003564D01*
X028272Y007839D02*
X028214Y007897D01*
X028214Y008131D01*
X028272Y008189D01*
X028389Y008189D01*
X028448Y008131D01*
X028448Y007897D01*
X028389Y007839D01*
X028272Y007839D01*
X028331Y007956D02*
X028448Y007839D01*
X028582Y007839D02*
X028816Y007839D01*
X028699Y007839D02*
X028699Y008189D01*
X028582Y008073D01*
X032152Y008027D02*
X032152Y008377D01*
X032327Y008377D01*
X032385Y008319D01*
X032385Y008202D01*
X032327Y008143D01*
X032152Y008143D01*
X032268Y008143D02*
X032385Y008027D01*
X032520Y008085D02*
X032578Y008027D01*
X032695Y008027D01*
X032753Y008085D01*
X032753Y008143D01*
X032695Y008202D01*
X032637Y008202D01*
X032695Y008202D02*
X032753Y008260D01*
X032753Y008319D01*
X032695Y008377D01*
X032578Y008377D01*
X032520Y008319D01*
X032888Y008202D02*
X033122Y008202D01*
X033063Y008027D02*
X033063Y008377D01*
X032888Y008202D01*
X032947Y009089D02*
X032888Y009148D01*
X032947Y009089D02*
X033063Y009089D01*
X033122Y009148D01*
X033122Y009206D01*
X033063Y009264D01*
X033005Y009264D01*
X033063Y009264D02*
X033122Y009323D01*
X033122Y009381D01*
X033063Y009439D01*
X032947Y009439D01*
X032888Y009381D01*
X032753Y009381D02*
X032753Y009323D01*
X032695Y009264D01*
X032753Y009206D01*
X032753Y009148D01*
X032695Y009089D01*
X032578Y009089D01*
X032520Y009148D01*
X032385Y009089D02*
X032268Y009206D01*
X032327Y009206D02*
X032152Y009206D01*
X032152Y009089D02*
X032152Y009439D01*
X032327Y009439D01*
X032385Y009381D01*
X032385Y009264D01*
X032327Y009206D01*
X032520Y009381D02*
X032578Y009439D01*
X032695Y009439D01*
X032753Y009381D01*
X032695Y009264D02*
X032637Y009264D01*
X032835Y006752D02*
X032777Y006693D01*
X032777Y006460D01*
X032835Y006402D01*
X032952Y006402D01*
X033010Y006460D01*
X033145Y006460D02*
X033203Y006402D01*
X033320Y006402D01*
X033378Y006460D01*
X033378Y006518D01*
X033320Y006577D01*
X033145Y006577D01*
X033145Y006460D01*
X033145Y006577D02*
X033262Y006693D01*
X033378Y006752D01*
X033513Y006693D02*
X033572Y006752D01*
X033688Y006752D01*
X033747Y006693D01*
X033747Y006635D01*
X033688Y006577D01*
X033572Y006577D01*
X033513Y006635D01*
X033513Y006693D01*
X033572Y006577D02*
X033513Y006518D01*
X033513Y006460D01*
X033572Y006402D01*
X033688Y006402D01*
X033747Y006460D01*
X033747Y006518D01*
X033688Y006577D01*
X033010Y006693D02*
X032952Y006752D01*
X032835Y006752D01*
X034607Y003701D02*
X034613Y003826D01*
X034630Y003951D01*
X034658Y004073D01*
X034697Y004192D01*
X034747Y004307D01*
X034808Y004417D01*
X034878Y004521D01*
X034957Y004618D01*
X035044Y004708D01*
X035140Y004789D01*
X035242Y004862D01*
X035351Y004925D01*
X035465Y004977D01*
X035583Y005019D01*
X035705Y005050D01*
X035828Y005070D01*
X035954Y005079D01*
X036079Y005076D01*
X036204Y005062D01*
X036326Y005036D01*
X036446Y004999D01*
X036563Y004952D01*
X036674Y004894D01*
X036780Y004827D01*
X036879Y004750D01*
X036970Y004664D01*
X037054Y004571D01*
X037129Y004470D01*
X037194Y004363D01*
X037249Y004250D01*
X037294Y004133D01*
X037327Y004012D01*
X037350Y003889D01*
X037362Y003764D01*
X037362Y003638D01*
X037350Y003513D01*
X037327Y003390D01*
X037294Y003269D01*
X037249Y003152D01*
X037194Y003039D01*
X037129Y002932D01*
X037054Y002831D01*
X036970Y002738D01*
X036879Y002652D01*
X036780Y002575D01*
X036674Y002508D01*
X036563Y002450D01*
X036446Y002403D01*
X036326Y002366D01*
X036204Y002340D01*
X036079Y002326D01*
X035954Y002323D01*
X035828Y002332D01*
X035705Y002352D01*
X035583Y002383D01*
X035465Y002425D01*
X035351Y002477D01*
X035242Y002540D01*
X035140Y002613D01*
X035044Y002694D01*
X034957Y002784D01*
X034878Y002881D01*
X034808Y002985D01*
X034747Y003095D01*
X034697Y003210D01*
X034658Y003329D01*
X034630Y003451D01*
X034613Y003576D01*
X034607Y003701D01*
X034630Y013027D02*
X034630Y013377D01*
X034513Y013260D01*
X034378Y013202D02*
X034320Y013143D01*
X034145Y013143D01*
X034145Y013027D02*
X034145Y013377D01*
X034320Y013377D01*
X034378Y013318D01*
X034378Y013202D01*
X034262Y013143D02*
X034378Y013027D01*
X034513Y013027D02*
X034747Y013027D01*
X034010Y013085D02*
X033952Y013027D01*
X033777Y013027D01*
X033777Y013377D01*
X033952Y013377D01*
X034010Y013318D01*
X034010Y013260D01*
X033952Y013202D01*
X033777Y013202D01*
X033952Y013202D02*
X034010Y013143D01*
X034010Y013085D01*
X018396Y035627D02*
X018279Y035627D01*
X018221Y035685D01*
X018221Y035802D02*
X018338Y035860D01*
X018396Y035860D01*
X018454Y035802D01*
X018454Y035685D01*
X018396Y035627D01*
X018221Y035802D02*
X018221Y035977D01*
X018454Y035977D01*
X018086Y035919D02*
X018086Y035802D01*
X018028Y035743D01*
X017853Y035743D01*
X017969Y035743D02*
X018086Y035627D01*
X017853Y035627D02*
X017853Y035977D01*
X018028Y035977D01*
X018086Y035919D01*
X002323Y035985D02*
X002329Y036110D01*
X002346Y036235D01*
X002374Y036357D01*
X002413Y036476D01*
X002463Y036591D01*
X002524Y036701D01*
X002594Y036805D01*
X002673Y036902D01*
X002760Y036992D01*
X002856Y037073D01*
X002958Y037146D01*
X003067Y037209D01*
X003181Y037261D01*
X003299Y037303D01*
X003421Y037334D01*
X003544Y037354D01*
X003670Y037363D01*
X003795Y037360D01*
X003920Y037346D01*
X004042Y037320D01*
X004162Y037283D01*
X004279Y037236D01*
X004390Y037178D01*
X004496Y037111D01*
X004595Y037034D01*
X004686Y036948D01*
X004770Y036855D01*
X004845Y036754D01*
X004910Y036647D01*
X004965Y036534D01*
X005010Y036417D01*
X005043Y036296D01*
X005066Y036173D01*
X005078Y036048D01*
X005078Y035922D01*
X005066Y035797D01*
X005043Y035674D01*
X005010Y035553D01*
X004965Y035436D01*
X004910Y035323D01*
X004845Y035216D01*
X004770Y035115D01*
X004686Y035022D01*
X004595Y034936D01*
X004496Y034859D01*
X004390Y034792D01*
X004279Y034734D01*
X004162Y034687D01*
X004042Y034650D01*
X003920Y034624D01*
X003795Y034610D01*
X003670Y034607D01*
X003544Y034616D01*
X003421Y034636D01*
X003299Y034667D01*
X003181Y034709D01*
X003067Y034761D01*
X002958Y034824D01*
X002856Y034897D01*
X002760Y034978D01*
X002673Y035068D01*
X002594Y035165D01*
X002524Y035269D01*
X002463Y035379D01*
X002413Y035494D01*
X002374Y035613D01*
X002346Y035735D01*
X002329Y035860D01*
X002323Y035985D01*
X034607Y035985D02*
X034613Y036110D01*
X034630Y036235D01*
X034658Y036357D01*
X034697Y036476D01*
X034747Y036591D01*
X034808Y036701D01*
X034878Y036805D01*
X034957Y036902D01*
X035044Y036992D01*
X035140Y037073D01*
X035242Y037146D01*
X035351Y037209D01*
X035465Y037261D01*
X035583Y037303D01*
X035705Y037334D01*
X035828Y037354D01*
X035954Y037363D01*
X036079Y037360D01*
X036204Y037346D01*
X036326Y037320D01*
X036446Y037283D01*
X036563Y037236D01*
X036674Y037178D01*
X036780Y037111D01*
X036879Y037034D01*
X036970Y036948D01*
X037054Y036855D01*
X037129Y036754D01*
X037194Y036647D01*
X037249Y036534D01*
X037294Y036417D01*
X037327Y036296D01*
X037350Y036173D01*
X037362Y036048D01*
X037362Y035922D01*
X037350Y035797D01*
X037327Y035674D01*
X037294Y035553D01*
X037249Y035436D01*
X037194Y035323D01*
X037129Y035216D01*
X037054Y035115D01*
X036970Y035022D01*
X036879Y034936D01*
X036780Y034859D01*
X036674Y034792D01*
X036563Y034734D01*
X036446Y034687D01*
X036326Y034650D01*
X036204Y034624D01*
X036079Y034610D01*
X035954Y034607D01*
X035828Y034616D01*
X035705Y034636D01*
X035583Y034667D01*
X035465Y034709D01*
X035351Y034761D01*
X035242Y034824D01*
X035140Y034897D01*
X035044Y034978D01*
X034957Y035068D01*
X034878Y035165D01*
X034808Y035269D01*
X034747Y035379D01*
X034697Y035494D01*
X034658Y035613D01*
X034630Y035735D01*
X034613Y035860D01*
X034607Y035985D01*
D15*
X034314Y025128D03*
D16*
X011826Y028355D03*
D17*
X011297Y028920D02*
X011297Y029708D01*
X010706Y029708D02*
X010706Y028920D01*
X012719Y031078D02*
X013034Y031078D01*
X013034Y031550D02*
X012719Y031550D01*
X012483Y031986D02*
X013270Y031986D01*
X013270Y032892D02*
X012483Y032892D01*
X014140Y029136D02*
X014140Y028742D01*
X014613Y028742D02*
X014613Y029136D01*
X014613Y027761D02*
X014613Y027367D01*
X014140Y027367D02*
X014140Y027761D01*
X017992Y034953D02*
X018386Y034953D01*
X018386Y035425D02*
X017992Y035425D01*
X012642Y018208D02*
X012642Y017420D01*
X011736Y017420D02*
X011736Y018208D01*
X011425Y017722D02*
X011425Y017407D01*
X010953Y017407D02*
X010953Y017722D01*
X010953Y016347D02*
X010953Y016032D01*
X011425Y016032D02*
X011425Y016347D01*
X011736Y016333D02*
X011736Y015545D01*
X012642Y015545D02*
X012642Y016333D01*
X016532Y013488D02*
X016847Y013488D01*
X016847Y013015D02*
X016532Y013015D01*
X017805Y013015D02*
X018199Y013015D01*
X018199Y013488D02*
X017805Y013488D01*
X018844Y015328D02*
X019159Y015328D01*
X019159Y015800D02*
X018844Y015800D01*
X019265Y016930D02*
X019265Y017323D01*
X019738Y017323D02*
X019738Y016930D01*
X020953Y016930D02*
X020953Y017323D01*
X021425Y017323D02*
X021425Y016930D01*
X021953Y016930D02*
X021953Y017323D01*
X022425Y017323D02*
X022425Y016930D01*
X022953Y016930D02*
X022953Y017323D01*
X023425Y017323D02*
X023425Y016930D01*
X023953Y016930D02*
X023953Y017323D01*
X024425Y017323D02*
X024425Y016930D01*
X025680Y014738D02*
X026074Y014738D01*
X026074Y014265D02*
X025680Y014265D01*
X026282Y013988D02*
X026597Y013988D01*
X026597Y013515D02*
X026282Y013515D01*
X030835Y009484D02*
X031543Y009484D01*
X031543Y008894D02*
X030835Y008894D01*
X030835Y008547D02*
X031543Y008547D01*
X031543Y007956D02*
X030835Y007956D01*
X031983Y007609D02*
X032770Y007609D01*
X032770Y007019D02*
X031983Y007019D01*
X024113Y007469D02*
X024113Y007784D01*
X023640Y007784D02*
X023640Y007469D01*
X023238Y007469D02*
X023238Y007784D01*
X022765Y007784D02*
X022765Y007469D01*
X022363Y007469D02*
X022363Y007784D01*
X021890Y007784D02*
X021890Y007469D01*
X020136Y008890D02*
X019742Y008890D01*
X019742Y009363D02*
X020136Y009363D01*
X017050Y007448D02*
X017050Y007055D01*
X016578Y007055D02*
X016578Y007448D01*
X014238Y008344D02*
X014238Y008659D01*
X013766Y008659D02*
X013766Y008344D01*
X013425Y008284D02*
X013425Y007969D01*
X012953Y007969D02*
X012953Y008284D01*
X012953Y009344D02*
X012953Y009659D01*
X013425Y009659D02*
X013425Y009344D01*
X013344Y010328D02*
X013659Y010328D01*
X013659Y010800D02*
X013344Y010800D01*
X008675Y008034D02*
X008675Y007719D01*
X008203Y007719D02*
X008203Y008034D01*
X019515Y004847D02*
X019515Y004532D01*
X019988Y004532D02*
X019988Y004847D01*
D18*
X010132Y030003D03*
X008872Y030003D03*
D19*
X022002Y009345D03*
D20*
X022502Y009345D03*
X023002Y009345D03*
X023502Y009345D03*
X024002Y009345D03*
X024502Y009345D03*
X025002Y009345D03*
X025502Y009345D03*
X026002Y009345D03*
X026502Y009345D03*
X027002Y009345D03*
X027502Y009345D03*
X028002Y009345D03*
X028502Y009345D03*
X028502Y012408D03*
X028002Y012408D03*
X027502Y012408D03*
X027002Y012408D03*
X026502Y012408D03*
X026002Y012408D03*
X025502Y012408D03*
X025002Y012408D03*
X024502Y012408D03*
X024002Y012408D03*
X023502Y012408D03*
X023002Y012408D03*
X022502Y012408D03*
X022002Y012408D03*
D21*
X021752Y013939D02*
X021252Y013939D01*
X021002Y014189D01*
X020752Y013939D01*
X020252Y013939D01*
X020002Y014189D01*
X019752Y013939D01*
X019252Y013939D01*
X019002Y014189D01*
X018752Y013939D01*
X018252Y013939D01*
X018002Y014189D01*
X017752Y013939D01*
X017252Y013939D01*
X017002Y014189D01*
X017002Y014689D01*
X017252Y014939D01*
X017752Y014939D01*
X018002Y014689D01*
X018252Y014939D01*
X018752Y014939D01*
X019002Y014689D01*
X019252Y014939D01*
X019752Y014939D01*
X020002Y014689D01*
X020252Y014939D01*
X020752Y014939D01*
X021002Y014689D01*
X021252Y014939D01*
X021752Y014939D01*
X022002Y014689D01*
X022002Y014189D01*
X021752Y013939D01*
X021752Y015314D02*
X021252Y015314D01*
X021002Y015564D01*
X020752Y015314D01*
X020252Y015314D01*
X020002Y015564D01*
X020002Y016064D01*
X020252Y016314D01*
X020752Y016314D01*
X021002Y016064D01*
X021252Y016314D01*
X021752Y016314D01*
X022002Y016064D01*
X022252Y016314D01*
X022752Y016314D01*
X023002Y016064D01*
X023252Y016314D01*
X023752Y016314D01*
X024002Y016064D01*
X024252Y016314D01*
X024752Y016314D01*
X025002Y016064D01*
X025002Y015564D01*
X024752Y015314D01*
X024252Y015314D01*
X024002Y015564D01*
X023752Y015314D01*
X023252Y015314D01*
X023002Y015564D01*
X022752Y015314D01*
X022252Y015314D01*
X022002Y015564D01*
X021752Y015314D01*
X014127Y018189D02*
X013877Y017939D01*
X013377Y017939D01*
X013127Y018189D01*
X013127Y018689D01*
X013377Y018939D01*
X013127Y019189D01*
X013127Y019689D01*
X013377Y019939D01*
X013127Y020189D01*
X013127Y020689D01*
X013377Y020939D01*
X013127Y021189D01*
X013127Y021689D01*
X013377Y021939D01*
X013877Y021939D01*
X014127Y021689D01*
X014127Y021189D01*
X013877Y020939D01*
X014127Y020689D01*
X014127Y020189D01*
X013877Y019939D01*
X014127Y019689D01*
X014127Y019189D01*
X013877Y018939D01*
X014127Y018689D01*
X014127Y018189D01*
X011434Y011377D02*
X010194Y011377D01*
X010194Y007377D02*
X011434Y007377D01*
X011014Y007377D02*
X011012Y007404D01*
X011007Y007431D01*
X010997Y007457D01*
X010985Y007481D01*
X010969Y007503D01*
X010951Y007523D01*
X010929Y007540D01*
X010906Y007555D01*
X010881Y007565D01*
X010855Y007573D01*
X010828Y007577D01*
X010800Y007577D01*
X010773Y007573D01*
X010747Y007565D01*
X010722Y007555D01*
X010699Y007540D01*
X010677Y007523D01*
X010659Y007503D01*
X010643Y007481D01*
X010631Y007457D01*
X010621Y007431D01*
X010616Y007404D01*
X010614Y007377D01*
X011689Y006539D02*
X011689Y006439D01*
X008939Y006439D01*
X008939Y006539D01*
X008439Y006539D01*
X008439Y006439D01*
X007939Y006439D01*
X007939Y002939D01*
X009689Y002939D01*
X009689Y002989D01*
X010189Y002989D01*
X010189Y002939D01*
X011139Y002939D01*
X011139Y003339D01*
X011139Y003439D01*
X008439Y003439D01*
X008439Y005939D01*
X015439Y005939D01*
X015439Y003439D01*
X013739Y003439D01*
X013139Y003439D01*
X012739Y003439D01*
X012739Y003339D01*
X012739Y002939D01*
X011139Y002939D01*
X011139Y003439D02*
X011139Y003739D01*
X012739Y003739D01*
X012739Y003439D01*
X012939Y003139D02*
X013139Y003139D01*
X013739Y003139D01*
X013739Y003339D01*
X013739Y003439D01*
X013739Y003139D02*
X013939Y003139D01*
X014089Y002939D01*
X015939Y002939D01*
X015939Y006439D01*
X015439Y006439D01*
X015439Y006539D01*
X014939Y006539D01*
X014939Y006439D01*
X012189Y006439D01*
X012189Y006539D01*
X011689Y006539D01*
X013139Y003439D02*
X013139Y003339D01*
X013139Y003139D01*
X012939Y003139D02*
X012789Y002939D01*
X012739Y002939D01*
X020502Y002939D02*
X022202Y002939D01*
X022202Y002989D01*
X022802Y002989D01*
X022802Y002939D01*
X023352Y002939D01*
X023502Y003139D01*
X023702Y003139D01*
X024302Y003139D01*
X024502Y003139D01*
X024652Y002939D01*
X025202Y002939D01*
X025202Y003339D01*
X025202Y003439D01*
X024302Y003439D01*
X023702Y003439D01*
X021002Y003439D01*
X021002Y005939D01*
X031002Y005939D01*
X031002Y003439D01*
X029302Y003439D01*
X028702Y003439D01*
X026802Y003439D01*
X026802Y003339D01*
X026802Y002939D01*
X025202Y002939D01*
X025202Y003439D02*
X025202Y003739D01*
X026802Y003739D01*
X026802Y003439D01*
X026802Y002939D02*
X028352Y002939D01*
X028502Y003139D01*
X028702Y003139D01*
X029302Y003139D01*
X029302Y003339D01*
X029302Y003439D01*
X029302Y003139D02*
X029502Y003139D01*
X029652Y002939D01*
X031502Y002939D01*
X031502Y006439D01*
X031002Y006439D01*
X031002Y006539D01*
X030502Y006539D01*
X030502Y006439D01*
X026252Y006439D01*
X026252Y006539D01*
X025752Y006539D01*
X025752Y006439D01*
X021502Y006439D01*
X021502Y006539D01*
X021002Y006539D01*
X021002Y006439D01*
X020502Y006439D01*
X020502Y002939D01*
X023702Y003139D02*
X023702Y003339D01*
X023702Y003439D01*
X024302Y003439D02*
X024302Y003339D01*
X024302Y003139D01*
X028702Y003139D02*
X028702Y003339D01*
X028702Y003439D01*
D22*
X023735Y014139D02*
X023735Y014700D01*
X024015Y014700D01*
X024108Y014606D01*
X024108Y014419D01*
X024015Y014326D01*
X023735Y014326D01*
X023501Y014326D02*
X023501Y014233D01*
X023407Y014139D01*
X023220Y014139D01*
X023127Y014233D01*
X023220Y014419D02*
X023407Y014419D01*
X023501Y014326D01*
X023501Y014606D02*
X023407Y014700D01*
X023220Y014700D01*
X023127Y014606D01*
X023127Y014513D01*
X023220Y014419D01*
X022893Y014233D02*
X022800Y014139D01*
X022613Y014139D01*
X022519Y014233D01*
X022519Y014606D01*
X022613Y014700D01*
X022800Y014700D01*
X022893Y014606D01*
X022301Y014700D02*
X022114Y014700D01*
X022208Y014700D02*
X022208Y014139D01*
X022301Y014139D02*
X022114Y014139D01*
X025177Y015514D02*
X025550Y015514D01*
X025784Y015514D02*
X025784Y016075D01*
X026158Y015514D01*
X026158Y016075D01*
X026392Y015981D02*
X026392Y015608D01*
X026486Y015514D01*
X026672Y015514D01*
X026766Y015608D01*
X026766Y015981D02*
X026672Y016075D01*
X026486Y016075D01*
X026392Y015981D01*
X025550Y016075D02*
X025177Y016075D01*
X025177Y015514D01*
X025177Y015794D02*
X025364Y015794D01*
D23*
X011608Y011231D02*
X011558Y011231D01*
X011559Y011232D02*
X011556Y011253D01*
X011550Y011272D01*
X011541Y011291D01*
X011529Y011308D01*
X011515Y011322D01*
X011498Y011334D01*
X011479Y011343D01*
X011460Y011349D01*
X011439Y011352D01*
X011438Y011401D01*
X011439Y011402D01*
X011465Y011399D01*
X011491Y011392D01*
X011515Y011382D01*
X011538Y011368D01*
X011558Y011351D01*
X011575Y011331D01*
X011589Y011308D01*
X011599Y011284D01*
X011606Y011258D01*
X011609Y011232D01*
X011600Y011232D01*
X011597Y011257D01*
X011591Y011281D01*
X011581Y011304D01*
X011568Y011325D01*
X011551Y011344D01*
X011532Y011361D01*
X011511Y011374D01*
X011488Y011384D01*
X011464Y011390D01*
X011439Y011393D01*
X011439Y011384D01*
X011463Y011381D01*
X011485Y011375D01*
X011507Y011366D01*
X011527Y011353D01*
X011545Y011338D01*
X011560Y011320D01*
X011573Y011300D01*
X011582Y011278D01*
X011588Y011256D01*
X011591Y011232D01*
X011582Y011232D01*
X011579Y011254D01*
X011574Y011276D01*
X011565Y011296D01*
X011553Y011315D01*
X011539Y011332D01*
X011522Y011346D01*
X011503Y011358D01*
X011483Y011367D01*
X011461Y011372D01*
X011439Y011375D01*
X011439Y011366D01*
X011462Y011363D01*
X011484Y011357D01*
X011505Y011347D01*
X011524Y011333D01*
X011540Y011317D01*
X011554Y011298D01*
X011564Y011277D01*
X011570Y011255D01*
X011573Y011232D01*
X011564Y011232D01*
X011561Y011253D01*
X011555Y011274D01*
X011546Y011293D01*
X011533Y011311D01*
X011518Y011326D01*
X011500Y011339D01*
X011481Y011348D01*
X011460Y011354D01*
X011439Y011357D01*
X010190Y011401D02*
X010190Y011351D01*
X010189Y011352D02*
X010168Y011349D01*
X010149Y011343D01*
X010130Y011334D01*
X010113Y011322D01*
X010099Y011308D01*
X010087Y011291D01*
X010078Y011272D01*
X010072Y011253D01*
X010069Y011232D01*
X010020Y011231D01*
X010019Y011232D01*
X010022Y011258D01*
X010029Y011284D01*
X010039Y011308D01*
X010053Y011331D01*
X010070Y011351D01*
X010090Y011368D01*
X010113Y011382D01*
X010137Y011392D01*
X010163Y011399D01*
X010189Y011402D01*
X010189Y011393D01*
X010164Y011390D01*
X010140Y011384D01*
X010117Y011374D01*
X010096Y011361D01*
X010077Y011344D01*
X010060Y011325D01*
X010047Y011304D01*
X010037Y011281D01*
X010031Y011257D01*
X010028Y011232D01*
X010037Y011232D01*
X010040Y011256D01*
X010046Y011278D01*
X010055Y011300D01*
X010068Y011320D01*
X010083Y011338D01*
X010101Y011353D01*
X010121Y011366D01*
X010143Y011375D01*
X010165Y011381D01*
X010189Y011384D01*
X010189Y011375D01*
X010167Y011372D01*
X010145Y011367D01*
X010125Y011358D01*
X010106Y011346D01*
X010089Y011332D01*
X010075Y011315D01*
X010063Y011296D01*
X010054Y011276D01*
X010049Y011254D01*
X010046Y011232D01*
X010055Y011232D01*
X010058Y011255D01*
X010064Y011277D01*
X010074Y011298D01*
X010088Y011317D01*
X010104Y011333D01*
X010123Y011347D01*
X010144Y011357D01*
X010166Y011363D01*
X010189Y011366D01*
X010189Y011357D01*
X010168Y011354D01*
X010147Y011348D01*
X010128Y011339D01*
X010110Y011326D01*
X010095Y011311D01*
X010082Y011293D01*
X010073Y011274D01*
X010067Y011253D01*
X010064Y011232D01*
X010020Y007523D02*
X010070Y007523D01*
X010069Y007522D02*
X010072Y007501D01*
X010078Y007482D01*
X010087Y007463D01*
X010099Y007446D01*
X010113Y007432D01*
X010130Y007420D01*
X010149Y007411D01*
X010168Y007405D01*
X010189Y007402D01*
X010190Y007353D01*
X010189Y007352D01*
X010163Y007355D01*
X010137Y007362D01*
X010113Y007372D01*
X010090Y007386D01*
X010070Y007403D01*
X010053Y007423D01*
X010039Y007446D01*
X010029Y007470D01*
X010022Y007496D01*
X010019Y007522D01*
X010028Y007522D01*
X010031Y007497D01*
X010037Y007473D01*
X010047Y007450D01*
X010060Y007429D01*
X010077Y007410D01*
X010096Y007393D01*
X010117Y007380D01*
X010140Y007370D01*
X010164Y007364D01*
X010189Y007361D01*
X010189Y007370D01*
X010165Y007373D01*
X010143Y007379D01*
X010121Y007388D01*
X010101Y007401D01*
X010083Y007416D01*
X010068Y007434D01*
X010055Y007454D01*
X010046Y007476D01*
X010040Y007498D01*
X010037Y007522D01*
X010046Y007522D01*
X010049Y007500D01*
X010054Y007478D01*
X010063Y007458D01*
X010075Y007439D01*
X010089Y007422D01*
X010106Y007408D01*
X010125Y007396D01*
X010145Y007387D01*
X010167Y007382D01*
X010189Y007379D01*
X010189Y007388D01*
X010166Y007391D01*
X010144Y007397D01*
X010123Y007407D01*
X010104Y007421D01*
X010088Y007437D01*
X010074Y007456D01*
X010064Y007477D01*
X010058Y007499D01*
X010055Y007522D01*
X010064Y007522D01*
X010067Y007501D01*
X010073Y007480D01*
X010082Y007461D01*
X010095Y007443D01*
X010110Y007428D01*
X010128Y007415D01*
X010147Y007406D01*
X010168Y007400D01*
X010189Y007397D01*
X011438Y007353D02*
X011438Y007403D01*
X011439Y007402D02*
X011460Y007405D01*
X011479Y007411D01*
X011498Y007420D01*
X011515Y007432D01*
X011529Y007446D01*
X011541Y007463D01*
X011550Y007482D01*
X011556Y007501D01*
X011559Y007522D01*
X011608Y007523D01*
X011609Y007522D01*
X011606Y007496D01*
X011599Y007470D01*
X011589Y007446D01*
X011575Y007423D01*
X011558Y007403D01*
X011538Y007386D01*
X011515Y007372D01*
X011491Y007362D01*
X011465Y007355D01*
X011439Y007352D01*
X011439Y007361D01*
X011464Y007364D01*
X011488Y007370D01*
X011511Y007380D01*
X011532Y007393D01*
X011551Y007410D01*
X011568Y007429D01*
X011581Y007450D01*
X011591Y007473D01*
X011597Y007497D01*
X011600Y007522D01*
X011591Y007522D01*
X011588Y007498D01*
X011582Y007476D01*
X011573Y007454D01*
X011560Y007434D01*
X011545Y007416D01*
X011527Y007401D01*
X011507Y007388D01*
X011485Y007379D01*
X011463Y007373D01*
X011439Y007370D01*
X011439Y007379D01*
X011461Y007382D01*
X011483Y007387D01*
X011503Y007396D01*
X011522Y007408D01*
X011539Y007422D01*
X011553Y007439D01*
X011565Y007458D01*
X011574Y007478D01*
X011579Y007500D01*
X011582Y007522D01*
X011573Y007522D01*
X011570Y007499D01*
X011564Y007477D01*
X011554Y007456D01*
X011540Y007437D01*
X011524Y007421D01*
X011505Y007407D01*
X011484Y007397D01*
X011462Y007391D01*
X011439Y007388D01*
X011439Y007397D01*
X011460Y007400D01*
X011481Y007406D01*
X011500Y007415D01*
X011518Y007428D01*
X011533Y007443D01*
X011546Y007461D01*
X011555Y007480D01*
X011561Y007501D01*
X011564Y007522D01*
D24*
X011444Y007377D02*
X011444Y011377D01*
X008339Y006039D02*
X008339Y003339D01*
X011139Y003339D01*
X012739Y003339D02*
X013139Y003339D01*
X013739Y003339D02*
X015539Y003339D01*
X015539Y006039D01*
X008339Y006039D01*
X020902Y006039D02*
X020902Y003339D01*
X023702Y003339D01*
X024302Y003339D02*
X025202Y003339D01*
X026802Y003339D02*
X028702Y003339D01*
X029302Y003339D02*
X031102Y003339D01*
X031102Y006039D01*
X020902Y006039D01*
D25*
X035064Y013814D02*
X035064Y014814D01*
X035814Y015564D01*
X036814Y015564D01*
X037564Y014814D01*
X037564Y013814D01*
X036814Y013064D01*
X035814Y013064D01*
X035064Y013814D01*
X035814Y016377D02*
X035064Y017127D01*
X035064Y018127D01*
X035814Y018877D01*
X036814Y018877D01*
X037564Y018127D01*
X037564Y017127D01*
X036814Y016377D01*
X035814Y016377D01*
X035814Y019689D02*
X035064Y020439D01*
X035064Y021439D01*
X035814Y022189D01*
X036814Y022189D01*
X037564Y021439D01*
X037564Y020439D01*
X036814Y019689D01*
X035814Y019689D01*
X035814Y023002D02*
X035064Y023752D01*
X035064Y024752D01*
X035814Y025502D01*
X036814Y025502D01*
X037564Y024752D01*
X037564Y023752D01*
X036814Y023002D01*
X035814Y023002D01*
D26*
X032223Y005614D02*
X031830Y005614D01*
X031731Y005516D01*
X031731Y005221D01*
X032322Y005221D01*
X032322Y005516D01*
X032223Y005614D01*
X032223Y004970D02*
X032322Y004871D01*
X032322Y004675D01*
X032223Y004576D01*
X031830Y004576D01*
X031731Y004675D01*
X031731Y004871D01*
X031830Y004970D01*
X032322Y004325D02*
X032322Y003932D01*
X031731Y003932D01*
X007647Y003952D02*
X007548Y003854D01*
X007647Y003952D02*
X007647Y004149D01*
X007548Y004247D01*
X007450Y004247D01*
X007351Y004149D01*
X007351Y003952D01*
X007253Y003854D01*
X007155Y003854D01*
X007056Y003952D01*
X007056Y004149D01*
X007155Y004247D01*
X007155Y004498D02*
X007056Y004596D01*
X007056Y004793D01*
X007155Y004892D01*
X007253Y004892D01*
X007647Y004498D01*
X007647Y004892D01*
X007548Y005143D02*
X007647Y005241D01*
X007647Y005438D01*
X007548Y005536D01*
X007450Y005536D01*
X007351Y005438D01*
X007351Y005339D01*
X007351Y005438D02*
X007253Y005536D01*
X007155Y005536D01*
X007056Y005438D01*
X007056Y005241D01*
X007155Y005143D01*
X007155Y005787D02*
X007056Y005885D01*
X007056Y006082D01*
X007155Y006181D01*
X007253Y006181D01*
X007647Y005787D01*
X007647Y006181D01*
X007647Y003603D02*
X007450Y003406D01*
X007450Y003504D02*
X007450Y003209D01*
X007647Y003209D02*
X007056Y003209D01*
X007056Y003504D01*
X007155Y003603D01*
X007351Y003603D01*
X007450Y003504D01*
D27*
X009236Y015971D03*
X009236Y016877D03*
X009236Y017782D03*
M02*
