G75*
G70*
%OFA0B0*%
%FSLAX24Y24*%
%IPPOS*%
%LPD*%
%AMOC8*
5,1,8,0,0,1.08239X$1,22.5*
%
%ADD10C,0.0000*%
%ADD11C,0.0130*%
%ADD12O,0.1535X0.0768*%
%ADD13R,0.1000X0.1000*%
%ADD14C,0.1000*%
%ADD15C,0.2441*%
%ADD16O,0.0600X0.1200*%
%ADD17OC8,0.1969*%
%ADD18OC8,0.0540*%
%ADD19O,0.1200X0.0600*%
%ADD20R,0.0512X0.0276*%
%ADD21R,0.0512X0.0354*%
%ADD22C,0.0160*%
%ADD23C,0.0394*%
%ADD24C,0.0354*%
%ADD25C,0.0400*%
%ADD26C,0.0500*%
%ADD27C,0.0400*%
%ADD28C,0.0240*%
%ADD29C,0.0320*%
D10*
X001930Y001930D02*
X001930Y037757D01*
X006851Y037757D01*
X006851Y036772D01*
X006853Y036695D01*
X006859Y036618D01*
X006868Y036541D01*
X006881Y036465D01*
X006898Y036389D01*
X006919Y036315D01*
X006943Y036241D01*
X006971Y036169D01*
X007002Y036099D01*
X007037Y036030D01*
X007075Y035962D01*
X007116Y035897D01*
X007161Y035834D01*
X007209Y035773D01*
X007259Y035714D01*
X007312Y035658D01*
X007368Y035605D01*
X007427Y035555D01*
X007488Y035507D01*
X007551Y035462D01*
X007616Y035421D01*
X007684Y035383D01*
X007753Y035348D01*
X007823Y035317D01*
X007895Y035289D01*
X007969Y035265D01*
X008043Y035244D01*
X008119Y035227D01*
X008195Y035214D01*
X008272Y035205D01*
X008349Y035199D01*
X008426Y035197D01*
X008503Y035199D01*
X008580Y035205D01*
X008657Y035214D01*
X008733Y035227D01*
X008809Y035244D01*
X008883Y035265D01*
X008957Y035289D01*
X009029Y035317D01*
X009099Y035348D01*
X009168Y035383D01*
X009236Y035421D01*
X009301Y035462D01*
X009364Y035507D01*
X009425Y035555D01*
X009484Y035605D01*
X009540Y035658D01*
X009593Y035714D01*
X009643Y035773D01*
X009691Y035834D01*
X009736Y035897D01*
X009777Y035962D01*
X009815Y036030D01*
X009850Y036099D01*
X009881Y036169D01*
X009909Y036241D01*
X009933Y036315D01*
X009954Y036389D01*
X009971Y036465D01*
X009984Y036541D01*
X009993Y036618D01*
X009999Y036695D01*
X010001Y036772D01*
X010001Y037757D01*
X037757Y037757D01*
X037757Y001930D01*
X001930Y001930D01*
X014018Y015002D02*
X014021Y015077D01*
X014032Y015152D01*
X014049Y015225D01*
X014072Y015297D01*
X014102Y015366D01*
X014138Y015432D01*
X014180Y015494D01*
X014228Y015553D01*
X014281Y015606D01*
X014338Y015655D01*
X014399Y015699D01*
X014465Y015736D01*
X014533Y015768D01*
X014604Y015793D01*
X014677Y015812D01*
X014751Y015824D01*
X014826Y015829D01*
X014901Y015827D01*
X014976Y015819D01*
X015050Y015803D01*
X015122Y015781D01*
X015192Y015753D01*
X015258Y015718D01*
X015322Y015678D01*
X015381Y015631D01*
X015436Y015580D01*
X015487Y015524D01*
X015531Y015463D01*
X015570Y015399D01*
X015604Y015331D01*
X015630Y015261D01*
X015651Y015189D01*
X015664Y015115D01*
X015671Y015040D01*
X015671Y014964D01*
X015664Y014889D01*
X015651Y014815D01*
X015630Y014743D01*
X015604Y014673D01*
X015570Y014605D01*
X015531Y014541D01*
X015487Y014480D01*
X015436Y014424D01*
X015381Y014373D01*
X015322Y014326D01*
X015259Y014286D01*
X015192Y014251D01*
X015122Y014223D01*
X015050Y014201D01*
X014976Y014185D01*
X014901Y014177D01*
X014826Y014175D01*
X014751Y014180D01*
X014677Y014192D01*
X014604Y014211D01*
X014533Y014236D01*
X014465Y014268D01*
X014399Y014305D01*
X014338Y014349D01*
X014281Y014398D01*
X014228Y014451D01*
X014180Y014510D01*
X014138Y014572D01*
X014102Y014638D01*
X014072Y014707D01*
X014049Y014779D01*
X014032Y014852D01*
X014021Y014927D01*
X014018Y015002D01*
X015425Y016720D02*
X015428Y016795D01*
X015439Y016870D01*
X015456Y016943D01*
X015479Y017015D01*
X015509Y017084D01*
X015545Y017150D01*
X015587Y017212D01*
X015635Y017271D01*
X015688Y017324D01*
X015745Y017373D01*
X015806Y017417D01*
X015872Y017454D01*
X015940Y017486D01*
X016011Y017511D01*
X016084Y017530D01*
X016158Y017542D01*
X016233Y017547D01*
X016308Y017545D01*
X016383Y017537D01*
X016457Y017521D01*
X016529Y017499D01*
X016599Y017471D01*
X016665Y017436D01*
X016729Y017396D01*
X016788Y017349D01*
X016843Y017298D01*
X016894Y017242D01*
X016938Y017181D01*
X016977Y017117D01*
X017011Y017049D01*
X017037Y016979D01*
X017058Y016907D01*
X017071Y016833D01*
X017078Y016758D01*
X017078Y016682D01*
X017071Y016607D01*
X017058Y016533D01*
X017037Y016461D01*
X017011Y016391D01*
X016977Y016323D01*
X016938Y016259D01*
X016894Y016198D01*
X016843Y016142D01*
X016788Y016091D01*
X016729Y016044D01*
X016666Y016004D01*
X016599Y015969D01*
X016529Y015941D01*
X016457Y015919D01*
X016383Y015903D01*
X016308Y015895D01*
X016233Y015893D01*
X016158Y015898D01*
X016084Y015910D01*
X016011Y015929D01*
X015940Y015954D01*
X015872Y015986D01*
X015806Y016023D01*
X015745Y016067D01*
X015688Y016116D01*
X015635Y016169D01*
X015587Y016228D01*
X015545Y016290D01*
X015509Y016356D01*
X015479Y016425D01*
X015456Y016497D01*
X015439Y016570D01*
X015428Y016645D01*
X015425Y016720D01*
X025309Y017377D02*
X025312Y017434D01*
X025319Y017491D01*
X025332Y017547D01*
X025350Y017601D01*
X025373Y017654D01*
X025401Y017704D01*
X025433Y017752D01*
X025469Y017796D01*
X025509Y017837D01*
X025553Y017875D01*
X025599Y017908D01*
X025649Y017936D01*
X025701Y017960D01*
X025755Y017980D01*
X025811Y017994D01*
X025867Y018003D01*
X025925Y018007D01*
X025982Y018006D01*
X026039Y017999D01*
X026095Y017987D01*
X026150Y017971D01*
X026203Y017949D01*
X026254Y017923D01*
X026302Y017892D01*
X026348Y017857D01*
X026390Y017817D01*
X026428Y017775D01*
X026462Y017728D01*
X026492Y017679D01*
X026517Y017628D01*
X026537Y017574D01*
X026553Y017519D01*
X026563Y017463D01*
X026568Y017406D01*
X026568Y017348D01*
X026563Y017291D01*
X026553Y017235D01*
X026537Y017180D01*
X026517Y017126D01*
X026492Y017075D01*
X026462Y017026D01*
X026428Y016979D01*
X026390Y016937D01*
X026348Y016897D01*
X026302Y016862D01*
X026254Y016831D01*
X026203Y016805D01*
X026150Y016783D01*
X026095Y016767D01*
X026039Y016755D01*
X025982Y016748D01*
X025925Y016747D01*
X025867Y016751D01*
X025811Y016760D01*
X025755Y016774D01*
X025701Y016794D01*
X025649Y016818D01*
X025599Y016846D01*
X025553Y016879D01*
X025509Y016917D01*
X025469Y016958D01*
X025433Y017002D01*
X025401Y017050D01*
X025373Y017100D01*
X025350Y017153D01*
X025332Y017207D01*
X025319Y017263D01*
X025312Y017320D01*
X025309Y017377D01*
X025309Y032564D02*
X025312Y032621D01*
X025319Y032678D01*
X025332Y032734D01*
X025350Y032788D01*
X025373Y032841D01*
X025401Y032891D01*
X025433Y032939D01*
X025469Y032983D01*
X025509Y033024D01*
X025553Y033062D01*
X025599Y033095D01*
X025649Y033123D01*
X025701Y033147D01*
X025755Y033167D01*
X025811Y033181D01*
X025867Y033190D01*
X025925Y033194D01*
X025982Y033193D01*
X026039Y033186D01*
X026095Y033174D01*
X026150Y033158D01*
X026203Y033136D01*
X026254Y033110D01*
X026302Y033079D01*
X026348Y033044D01*
X026390Y033004D01*
X026428Y032962D01*
X026462Y032915D01*
X026492Y032866D01*
X026517Y032815D01*
X026537Y032761D01*
X026553Y032706D01*
X026563Y032650D01*
X026568Y032593D01*
X026568Y032535D01*
X026563Y032478D01*
X026553Y032422D01*
X026537Y032367D01*
X026517Y032313D01*
X026492Y032262D01*
X026462Y032213D01*
X026428Y032166D01*
X026390Y032124D01*
X026348Y032084D01*
X026302Y032049D01*
X026254Y032018D01*
X026203Y031992D01*
X026150Y031970D01*
X026095Y031954D01*
X026039Y031942D01*
X025982Y031935D01*
X025925Y031934D01*
X025867Y031938D01*
X025811Y031947D01*
X025755Y031961D01*
X025701Y031981D01*
X025649Y032005D01*
X025599Y032033D01*
X025553Y032066D01*
X025509Y032104D01*
X025469Y032145D01*
X025433Y032189D01*
X025401Y032237D01*
X025373Y032287D01*
X025350Y032340D01*
X025332Y032394D01*
X025319Y032450D01*
X025312Y032507D01*
X025309Y032564D01*
D11*
X003164Y008927D02*
X002879Y008927D01*
X002879Y008737D02*
X003164Y008737D01*
X003259Y008832D01*
X003164Y008927D01*
X003164Y008737D02*
X003259Y008642D01*
X003259Y008547D01*
X002879Y008547D01*
X002974Y008283D02*
X003164Y008283D01*
X003259Y008188D01*
X003259Y007998D01*
X003164Y007903D01*
X002974Y007903D01*
X002879Y007998D01*
X002879Y008188D01*
X002974Y008283D01*
X002879Y007663D02*
X002974Y007568D01*
X003354Y007568D01*
X003259Y007473D02*
X003259Y007663D01*
X003259Y007233D02*
X003259Y007043D01*
X003354Y007138D02*
X002974Y007138D01*
X002879Y007233D01*
X002974Y006779D02*
X003164Y006779D01*
X003259Y006684D01*
X003259Y006494D01*
X003164Y006399D01*
X002974Y006399D01*
X002879Y006494D01*
X002879Y006684D01*
X002974Y006779D01*
X002974Y006134D02*
X002879Y006039D01*
X002879Y005754D01*
X003450Y005754D01*
X003450Y006039D01*
X003354Y006134D01*
X003259Y006134D01*
X003164Y006039D01*
X003164Y005754D01*
X003164Y006039D02*
X003069Y006134D01*
X002974Y006134D01*
D12*
X033615Y014518D03*
X033615Y017471D03*
X033615Y020423D03*
X033615Y024360D03*
D13*
X029564Y027150D03*
X030627Y019838D03*
D14*
X030627Y022790D03*
X029564Y030103D03*
D15*
X035985Y035985D03*
X035985Y003701D03*
X003701Y003701D03*
X003701Y035985D03*
D16*
X020502Y015814D03*
X021502Y015814D03*
X022502Y015814D03*
X023502Y015814D03*
X024502Y015814D03*
X021502Y014439D03*
X020502Y014439D03*
X019502Y014439D03*
X018502Y014439D03*
X017502Y014439D03*
D17*
X036314Y014314D03*
X036314Y017627D03*
X036314Y020939D03*
X036314Y024252D03*
D18*
X023627Y033377D03*
X023627Y034377D03*
X022627Y034377D03*
X022627Y033377D03*
X021627Y033377D03*
X021627Y034377D03*
X020627Y034377D03*
X020627Y033377D03*
X019627Y033377D03*
X019627Y034377D03*
X018627Y034377D03*
X018627Y033377D03*
X017627Y033377D03*
X017627Y034377D03*
X016627Y034377D03*
X016627Y033377D03*
X013939Y005189D03*
X013939Y004189D03*
X012939Y004189D03*
X011939Y004189D03*
X010939Y004189D03*
X009939Y004189D03*
X009939Y005189D03*
X010939Y005189D03*
X011939Y005189D03*
X012939Y005189D03*
X022502Y005189D03*
X023502Y005189D03*
X024502Y005189D03*
X025502Y005189D03*
X026502Y005189D03*
X027502Y005189D03*
X028502Y005189D03*
X029502Y005189D03*
X029502Y004189D03*
X028502Y004189D03*
X027502Y004189D03*
X026502Y004189D03*
X025502Y004189D03*
X024502Y004189D03*
X023502Y004189D03*
X022502Y004189D03*
D19*
X013627Y018439D03*
X013627Y019439D03*
X013627Y020439D03*
X013627Y021439D03*
D20*
X025502Y006438D03*
X025502Y005690D03*
X026502Y005690D03*
X026502Y006438D03*
X026502Y003688D03*
X026502Y002940D03*
X025502Y002940D03*
X025502Y003688D03*
D21*
X030252Y004315D03*
X030252Y005063D03*
D22*
X030747Y005139D02*
X037517Y005139D01*
X037517Y005297D02*
X030747Y005297D01*
X030747Y005340D02*
X030607Y005480D01*
X029932Y005480D01*
X029713Y005699D01*
X029290Y005699D01*
X029002Y005410D01*
X028713Y005699D01*
X028290Y005699D01*
X028002Y005410D01*
X027713Y005699D01*
X027290Y005699D01*
X027002Y005410D01*
X026978Y005434D01*
X026997Y005453D01*
X026997Y005927D01*
X026857Y006068D01*
X026146Y006068D01*
X026006Y005927D01*
X026006Y005453D01*
X026025Y005434D01*
X026002Y005410D01*
X025978Y005434D01*
X025997Y005453D01*
X025997Y005927D01*
X025857Y006068D01*
X025146Y006068D01*
X025006Y005927D01*
X025006Y005453D01*
X025025Y005434D01*
X025002Y005410D01*
X024713Y005699D01*
X024290Y005699D01*
X024002Y005410D01*
X023713Y005699D01*
X023290Y005699D01*
X023002Y005410D01*
X022713Y005699D01*
X022290Y005699D01*
X021992Y005400D01*
X021992Y004978D01*
X022290Y004679D01*
X022713Y004679D01*
X023002Y004968D01*
X023280Y004689D01*
X022992Y004400D01*
X022992Y003978D01*
X023290Y003679D01*
X023713Y003679D01*
X024002Y003968D01*
X024290Y003679D01*
X024713Y003679D01*
X025002Y003968D01*
X025025Y003945D01*
X025006Y003925D01*
X025006Y003451D01*
X025146Y003310D01*
X025857Y003310D01*
X025997Y003451D01*
X025997Y003925D01*
X025978Y003945D01*
X026002Y003968D01*
X026025Y003945D01*
X026006Y003925D01*
X026006Y003451D01*
X026146Y003310D01*
X026857Y003310D01*
X026997Y003451D01*
X026997Y003925D01*
X026978Y003945D01*
X027002Y003968D01*
X027290Y003679D01*
X027713Y003679D01*
X028002Y003968D01*
X028290Y003679D01*
X028713Y003679D01*
X029002Y003968D01*
X029290Y003679D01*
X029713Y003679D01*
X029932Y003898D01*
X030607Y003898D01*
X030747Y004039D01*
X030747Y004592D01*
X030650Y004689D01*
X030747Y004787D01*
X030747Y005340D01*
X030631Y005456D02*
X037517Y005456D01*
X037517Y005615D02*
X029797Y005615D01*
X029206Y005615D02*
X028797Y005615D01*
X028956Y005456D02*
X029047Y005456D01*
X028206Y005615D02*
X027797Y005615D01*
X027956Y005456D02*
X028047Y005456D01*
X027206Y005615D02*
X026997Y005615D01*
X026997Y005773D02*
X037517Y005773D01*
X037517Y005932D02*
X026993Y005932D01*
X026997Y005456D02*
X027047Y005456D01*
X026502Y005690D02*
X026502Y005189D01*
X026006Y005456D02*
X025997Y005456D01*
X025997Y005615D02*
X026006Y005615D01*
X025997Y005773D02*
X026006Y005773D01*
X025993Y005932D02*
X026010Y005932D01*
X025502Y005690D02*
X025502Y005189D01*
X025006Y005456D02*
X024956Y005456D01*
X025006Y005615D02*
X024797Y005615D01*
X025006Y005773D02*
X003755Y005773D01*
X003755Y005913D02*
X003755Y006166D01*
X003659Y006261D01*
X003559Y006362D01*
X003564Y006367D01*
X003564Y006620D01*
X003564Y006810D01*
X003511Y006864D01*
X003564Y006917D01*
X003659Y007012D01*
X003659Y007265D01*
X003571Y007353D01*
X003659Y007442D01*
X003659Y007694D01*
X003564Y007789D01*
X003523Y007830D01*
X003564Y007871D01*
X003564Y008124D01*
X003564Y008314D01*
X003511Y008367D01*
X003564Y008421D01*
X003564Y008516D01*
X003564Y008706D01*
X003564Y008959D01*
X003469Y009054D01*
X003291Y009232D01*
X002753Y009232D01*
X002574Y009054D01*
X002574Y008801D01*
X002574Y008611D01*
X002574Y008421D01*
X002627Y008367D01*
X002574Y008314D01*
X002574Y008124D01*
X002574Y007871D01*
X002615Y007830D01*
X002574Y007789D01*
X002574Y007537D01*
X002663Y007448D01*
X002574Y007360D01*
X002574Y007107D01*
X002723Y006959D01*
X002669Y006905D01*
X002574Y006810D01*
X002574Y006620D01*
X002574Y006367D01*
X002675Y006267D01*
X002574Y006166D01*
X002574Y005628D01*
X002753Y005449D01*
X003005Y005449D01*
X003038Y005449D01*
X003291Y005449D01*
X003323Y005449D01*
X003576Y005449D01*
X003755Y005628D01*
X003755Y005913D01*
X003755Y005932D02*
X025010Y005932D01*
X024206Y005615D02*
X023797Y005615D01*
X023956Y005456D02*
X024047Y005456D01*
X023206Y005615D02*
X022797Y005615D01*
X022956Y005456D02*
X023047Y005456D01*
X023148Y004822D02*
X022856Y004822D01*
X023096Y004505D02*
X013345Y004505D01*
X013449Y004400D02*
X013160Y004689D01*
X013439Y004968D01*
X013728Y004679D01*
X014150Y004679D01*
X014449Y004978D01*
X014449Y005400D01*
X014150Y005699D01*
X013728Y005699D01*
X013439Y005410D01*
X013150Y005699D01*
X012728Y005699D01*
X012439Y005410D01*
X012150Y005699D01*
X011728Y005699D01*
X011538Y005509D01*
X011340Y005509D01*
X011150Y005699D01*
X010728Y005699D01*
X010439Y005410D01*
X010150Y005699D01*
X009728Y005699D01*
X009429Y005400D01*
X009429Y004978D01*
X009619Y004788D01*
X009619Y004590D01*
X009429Y004400D01*
X009429Y003978D01*
X009728Y003679D01*
X010150Y003679D01*
X010439Y003968D01*
X010728Y003679D01*
X011150Y003679D01*
X011439Y003968D01*
X011728Y003679D01*
X012150Y003679D01*
X012439Y003968D01*
X012728Y003679D01*
X013150Y003679D01*
X013449Y003978D01*
X013449Y004400D01*
X013449Y004346D02*
X022992Y004346D01*
X022992Y004188D02*
X013449Y004188D01*
X013449Y004029D02*
X022992Y004029D01*
X023099Y003871D02*
X013342Y003871D01*
X013183Y003712D02*
X023257Y003712D01*
X023746Y003712D02*
X024257Y003712D01*
X024099Y003871D02*
X023904Y003871D01*
X024746Y003712D02*
X025006Y003712D01*
X025006Y003554D02*
X002170Y003554D01*
X002170Y003712D02*
X009695Y003712D01*
X009536Y003871D02*
X002170Y003871D01*
X002170Y004029D02*
X009429Y004029D01*
X009429Y004188D02*
X002170Y004188D01*
X002170Y004346D02*
X009429Y004346D01*
X009534Y004505D02*
X002170Y004505D01*
X002170Y004663D02*
X009619Y004663D01*
X009585Y004822D02*
X002170Y004822D01*
X002170Y004980D02*
X009429Y004980D01*
X009429Y005139D02*
X002170Y005139D01*
X002170Y005297D02*
X009429Y005297D01*
X009485Y005456D02*
X003583Y005456D01*
X003741Y005615D02*
X009643Y005615D01*
X009939Y005189D02*
X009939Y004689D01*
X012439Y004689D01*
X012939Y004189D01*
X012536Y003871D02*
X012342Y003871D01*
X012183Y003712D02*
X012695Y003712D01*
X011695Y003712D02*
X011183Y003712D01*
X011342Y003871D02*
X011536Y003871D01*
X010695Y003712D02*
X010183Y003712D01*
X010342Y003871D02*
X010536Y003871D01*
X009939Y004189D02*
X009939Y004189D01*
X009939Y004189D01*
X009939Y004189D01*
X009939Y004689D01*
X010393Y005456D02*
X010485Y005456D01*
X010643Y005615D02*
X010235Y005615D01*
X010939Y005189D02*
X011939Y005189D01*
X011939Y005189D01*
X011939Y005189D01*
X011939Y005189D01*
X011643Y005615D02*
X011235Y005615D01*
X012235Y005615D02*
X012643Y005615D01*
X012485Y005456D02*
X012393Y005456D01*
X013235Y005615D02*
X013643Y005615D01*
X013485Y005456D02*
X013393Y005456D01*
X013293Y004822D02*
X013585Y004822D01*
X013186Y004663D02*
X023255Y004663D01*
X022148Y004822D02*
X014293Y004822D01*
X014449Y004980D02*
X021992Y004980D01*
X021992Y005139D02*
X014449Y005139D01*
X014449Y005297D02*
X021992Y005297D01*
X022047Y005456D02*
X014393Y005456D01*
X014235Y005615D02*
X022206Y005615D01*
X024904Y003871D02*
X025006Y003871D01*
X025062Y003395D02*
X002170Y003395D01*
X002170Y003236D02*
X037517Y003236D01*
X037517Y003078D02*
X002170Y003078D01*
X002170Y002919D02*
X037517Y002919D01*
X037517Y002761D02*
X002170Y002761D01*
X002170Y002602D02*
X037517Y002602D01*
X037517Y002444D02*
X002170Y002444D01*
X002170Y002285D02*
X037517Y002285D01*
X037517Y002170D02*
X002170Y002170D01*
X002170Y037517D01*
X006611Y037517D01*
X006611Y036673D01*
X006611Y036673D01*
X006611Y036653D01*
X006642Y036417D01*
X006704Y036188D01*
X006704Y036188D01*
X006795Y035968D01*
X006914Y035762D01*
X007058Y035573D01*
X007227Y035405D01*
X007415Y035260D01*
X007415Y035260D01*
X007621Y035141D01*
X007621Y035141D01*
X007841Y035050D01*
X007841Y035050D01*
X008071Y034989D01*
X008307Y034958D01*
X008326Y034958D01*
X008326Y034957D01*
X008423Y034957D01*
X008426Y034957D01*
X008525Y034957D01*
X008525Y034958D01*
X008545Y034958D01*
X008781Y034989D01*
X009010Y035050D01*
X009010Y035050D01*
X009230Y035141D01*
X009230Y035141D01*
X009436Y035260D01*
X009625Y035405D01*
X009793Y035573D01*
X009793Y035573D01*
X009938Y035762D01*
X010057Y035968D01*
X010148Y036188D01*
X010209Y036417D01*
X010241Y036653D01*
X010241Y036653D01*
X010241Y036673D01*
X010241Y036819D01*
X010241Y036872D01*
X010241Y037517D01*
X037517Y037517D01*
X037517Y026064D01*
X032814Y026064D01*
X032814Y024825D01*
X032608Y024619D01*
X032608Y024102D01*
X032814Y023895D01*
X032814Y020888D01*
X032608Y020682D01*
X032608Y020165D01*
X032814Y019958D01*
X032814Y017935D01*
X032608Y017729D01*
X032608Y017212D01*
X032814Y017006D01*
X032814Y015627D01*
X037517Y015627D01*
X037517Y002170D01*
X037517Y003395D02*
X026942Y003395D01*
X026997Y003554D02*
X037517Y003554D01*
X037517Y003712D02*
X029746Y003712D01*
X029904Y003871D02*
X037517Y003871D01*
X037517Y004029D02*
X030738Y004029D01*
X030747Y004188D02*
X037517Y004188D01*
X037517Y004346D02*
X030747Y004346D01*
X030747Y004505D02*
X037517Y004505D01*
X037517Y004663D02*
X030676Y004663D01*
X030747Y004822D02*
X037517Y004822D01*
X037517Y004980D02*
X030747Y004980D01*
X029257Y003712D02*
X028746Y003712D01*
X028904Y003871D02*
X029099Y003871D01*
X028257Y003712D02*
X027746Y003712D01*
X027904Y003871D02*
X028099Y003871D01*
X027257Y003712D02*
X026997Y003712D01*
X026997Y003871D02*
X027099Y003871D01*
X026502Y003688D02*
X026502Y004189D01*
X026006Y003871D02*
X025997Y003871D01*
X025997Y003712D02*
X026006Y003712D01*
X025997Y003554D02*
X026006Y003554D01*
X026062Y003395D02*
X025941Y003395D01*
X025502Y003688D02*
X025502Y004189D01*
X025502Y003688D02*
X025502Y003688D01*
X024085Y010647D02*
X024238Y010710D01*
X024355Y010828D01*
X024419Y010981D01*
X024419Y011147D01*
X024355Y011300D01*
X024322Y011334D01*
X024322Y013232D01*
X024355Y013265D01*
X024419Y013419D01*
X024419Y013585D01*
X024355Y013738D01*
X024238Y013855D01*
X024085Y013919D01*
X023919Y013919D01*
X023765Y013855D01*
X023648Y013738D01*
X023584Y013585D01*
X023584Y013419D01*
X023648Y013265D01*
X023682Y013232D01*
X023682Y011334D01*
X023648Y011300D01*
X023584Y011147D01*
X023584Y010981D01*
X023648Y010828D01*
X023765Y010710D01*
X023919Y010647D01*
X024085Y010647D01*
X024184Y010688D02*
X037517Y010688D01*
X037517Y010846D02*
X024363Y010846D01*
X024419Y011005D02*
X037517Y011005D01*
X037517Y011164D02*
X024412Y011164D01*
X024334Y011322D02*
X037517Y011322D01*
X037517Y011481D02*
X024322Y011481D01*
X024322Y011639D02*
X037517Y011639D01*
X037517Y011798D02*
X024322Y011798D01*
X024322Y011956D02*
X037517Y011956D01*
X037517Y012115D02*
X024322Y012115D01*
X024322Y012273D02*
X037517Y012273D01*
X037517Y012432D02*
X024322Y012432D01*
X024322Y012590D02*
X037517Y012590D01*
X037517Y012749D02*
X024322Y012749D01*
X024322Y012908D02*
X037517Y012908D01*
X037517Y013066D02*
X024322Y013066D01*
X024322Y013225D02*
X037517Y013225D01*
X037517Y013383D02*
X024404Y013383D01*
X024419Y013542D02*
X037517Y013542D01*
X037517Y013700D02*
X024371Y013700D01*
X024229Y013859D02*
X037517Y013859D01*
X037517Y014017D02*
X022042Y014017D01*
X022042Y013915D02*
X022042Y014963D01*
X021878Y015127D01*
X022125Y015127D01*
X022002Y015251D02*
X022278Y014974D01*
X022725Y014974D01*
X023002Y015251D01*
X023278Y014974D01*
X023725Y014974D01*
X024002Y015251D01*
X024278Y014974D01*
X024725Y014974D01*
X025042Y015290D01*
X025042Y015952D01*
X025841Y015153D01*
X025898Y015015D01*
X026015Y014898D01*
X026169Y014834D01*
X026335Y014834D01*
X026488Y014898D01*
X026605Y015015D01*
X026669Y015169D01*
X026669Y015335D01*
X026605Y015488D01*
X026488Y015605D01*
X026350Y015662D01*
X024674Y017338D01*
X024674Y017338D01*
X024463Y017549D01*
X024410Y017549D01*
X024272Y017606D01*
X024106Y017606D01*
X023953Y017543D01*
X023835Y017425D01*
X023772Y017272D01*
X023772Y017106D01*
X023835Y016953D01*
X023953Y016835D01*
X024106Y016772D01*
X024222Y016772D01*
X024340Y016654D01*
X024278Y016654D01*
X024002Y016378D01*
X023725Y016654D01*
X023278Y016654D01*
X023002Y016378D01*
X022725Y016654D01*
X022278Y016654D01*
X022002Y016378D01*
X021725Y016654D01*
X021278Y016654D01*
X020962Y016338D01*
X020962Y015290D01*
X021126Y015127D01*
X021002Y015003D01*
X020725Y015279D01*
X020322Y015279D01*
X020322Y015744D01*
X020322Y016009D01*
X019919Y016412D01*
X019919Y016460D01*
X019855Y016613D01*
X019738Y016730D01*
X019585Y016794D01*
X019419Y016794D01*
X019265Y016730D01*
X019148Y016613D01*
X019084Y016460D01*
X019084Y016294D01*
X019148Y016140D01*
X019265Y016023D01*
X019419Y015959D01*
X019466Y015959D01*
X019682Y015744D01*
X019682Y013557D01*
X019869Y013369D01*
X020079Y013159D01*
X020022Y013022D01*
X020022Y012856D01*
X020085Y012703D01*
X020092Y012697D01*
X016209Y012697D01*
X016175Y012730D01*
X016022Y012794D01*
X015856Y012794D01*
X015703Y012730D01*
X015585Y012613D01*
X015522Y012460D01*
X015522Y012294D01*
X015585Y012140D01*
X015703Y012023D01*
X015856Y011959D01*
X015897Y011959D01*
X015897Y011919D01*
X015960Y011765D01*
X016078Y011648D01*
X016231Y011584D01*
X016397Y011584D01*
X016550Y011648D01*
X016584Y011682D01*
X021482Y011682D01*
X021515Y011648D01*
X021669Y011584D01*
X021835Y011584D01*
X021988Y011648D01*
X022105Y011765D01*
X022169Y011919D01*
X022169Y012085D01*
X022105Y012238D01*
X021988Y012355D01*
X021835Y012419D01*
X021669Y012419D01*
X021515Y012355D01*
X021482Y012322D01*
X021231Y012322D01*
X021231Y012460D01*
X021168Y012613D01*
X021050Y012730D01*
X020897Y012794D01*
X020830Y012794D01*
X020856Y012856D01*
X020856Y013022D01*
X020793Y013175D01*
X020759Y013209D01*
X020759Y013384D01*
X020544Y013599D01*
X020725Y013599D01*
X021002Y013876D01*
X021278Y013599D01*
X021725Y013599D01*
X022042Y013915D01*
X021985Y013859D02*
X023774Y013859D01*
X023632Y013700D02*
X021826Y013700D01*
X022042Y014176D02*
X037517Y014176D01*
X037517Y014334D02*
X022042Y014334D01*
X022042Y014493D02*
X037517Y014493D01*
X037517Y014652D02*
X022042Y014652D01*
X022042Y014810D02*
X037517Y014810D01*
X037517Y014969D02*
X026559Y014969D01*
X026652Y015127D02*
X037517Y015127D01*
X037517Y015286D02*
X026669Y015286D01*
X026623Y015444D02*
X037517Y015444D01*
X037517Y015603D02*
X026490Y015603D01*
X026251Y015761D02*
X032814Y015761D01*
X032814Y015920D02*
X026092Y015920D01*
X025934Y016078D02*
X032814Y016078D01*
X032814Y016237D02*
X025775Y016237D01*
X025617Y016396D02*
X032814Y016396D01*
X032814Y016554D02*
X026226Y016554D01*
X026112Y016507D02*
X026432Y016639D01*
X026677Y016884D01*
X026809Y017204D01*
X026809Y017550D01*
X026677Y017869D01*
X026432Y018114D01*
X026112Y018247D01*
X025766Y018247D01*
X025446Y018114D01*
X025202Y017869D01*
X025069Y017550D01*
X025069Y017204D01*
X025202Y016884D01*
X025446Y016639D01*
X025766Y016507D01*
X026112Y016507D01*
X026505Y016713D02*
X032814Y016713D01*
X032814Y016871D02*
X026664Y016871D01*
X026737Y017030D02*
X032790Y017030D01*
X032631Y017188D02*
X026803Y017188D01*
X026809Y017347D02*
X032608Y017347D01*
X032608Y017505D02*
X026809Y017505D01*
X026762Y017664D02*
X032608Y017664D01*
X032701Y017822D02*
X026696Y017822D01*
X026565Y017981D02*
X032814Y017981D01*
X032814Y018139D02*
X026371Y018139D01*
X025508Y018139D02*
X014391Y018139D01*
X014467Y018215D02*
X014150Y017899D01*
X013103Y017899D01*
X012787Y018215D01*
X012787Y018663D01*
X013103Y018979D01*
X014150Y018979D01*
X014467Y018663D01*
X014467Y018215D01*
X014467Y018298D02*
X032814Y018298D01*
X032814Y018457D02*
X014467Y018457D01*
X014467Y018615D02*
X032814Y018615D01*
X032814Y018774D02*
X014356Y018774D01*
X014197Y018932D02*
X018021Y018932D01*
X017953Y018960D02*
X018106Y018897D01*
X018272Y018897D01*
X018425Y018960D01*
X018543Y019078D01*
X018606Y019231D01*
X018606Y019279D01*
X019662Y020334D01*
X019710Y020334D01*
X019863Y020398D01*
X019980Y020515D01*
X020044Y020669D01*
X020044Y020835D01*
X032761Y020835D01*
X032814Y020993D02*
X019975Y020993D01*
X019980Y020988D02*
X019935Y021033D01*
X019980Y021078D01*
X020044Y021231D01*
X020044Y021397D01*
X019980Y021550D01*
X019863Y021668D01*
X019710Y021731D01*
X019544Y021731D01*
X019390Y021668D01*
X019273Y021550D01*
X019209Y021397D01*
X019209Y021349D01*
X018154Y020294D01*
X018106Y020294D01*
X017953Y020230D01*
X017835Y020113D01*
X017772Y019960D01*
X017772Y019794D01*
X017835Y019640D01*
X017880Y019595D01*
X017835Y019550D01*
X017772Y019397D01*
X017772Y019231D01*
X017835Y019078D01*
X017953Y018960D01*
X017830Y019091D02*
X012679Y019091D01*
X012679Y019189D02*
X012679Y019392D01*
X012392Y019679D01*
X011986Y019679D01*
X011699Y019392D01*
X011699Y016064D01*
X011699Y015861D01*
X011749Y015811D01*
X011749Y015757D01*
X012007Y015499D01*
X012371Y015499D01*
X012629Y015757D01*
X012629Y015811D01*
X012679Y015861D01*
X012679Y019189D01*
X012679Y019249D02*
X017772Y019249D01*
X017776Y019408D02*
X012663Y019408D01*
X012505Y019566D02*
X017851Y019566D01*
X017800Y019725D02*
X002170Y019725D01*
X002170Y019883D02*
X017772Y019883D01*
X017806Y020042D02*
X002170Y020042D01*
X002170Y020201D02*
X017485Y020201D01*
X017486Y020199D02*
X017892Y020199D01*
X020117Y022424D01*
X020117Y022830D01*
X019830Y023117D01*
X019424Y023117D01*
X017199Y020892D01*
X017199Y020486D01*
X017486Y020199D01*
X017326Y020359D02*
X002170Y020359D01*
X002170Y020518D02*
X017199Y020518D01*
X017199Y020676D02*
X002170Y020676D01*
X002170Y020835D02*
X017199Y020835D01*
X017142Y020949D02*
X020117Y023924D01*
X020117Y024330D01*
X019830Y024617D01*
X019424Y024617D01*
X016449Y021642D01*
X016449Y021236D01*
X016736Y020949D01*
X017142Y020949D01*
X017186Y020993D02*
X017300Y020993D01*
X017345Y021152D02*
X017459Y021152D01*
X017503Y021310D02*
X017617Y021310D01*
X017662Y021469D02*
X017776Y021469D01*
X017820Y021627D02*
X017935Y021627D01*
X017979Y021786D02*
X018093Y021786D01*
X018137Y021945D02*
X018252Y021945D01*
X018296Y022103D02*
X018410Y022103D01*
X018454Y022262D02*
X018569Y022262D01*
X018613Y022420D02*
X018727Y022420D01*
X018772Y022579D02*
X018886Y022579D01*
X018930Y022737D02*
X019044Y022737D01*
X019089Y022896D02*
X019203Y022896D01*
X019247Y023054D02*
X019361Y023054D01*
X019406Y023213D02*
X030002Y023213D01*
X029999Y023210D02*
X029887Y022938D01*
X029887Y022643D01*
X029999Y022371D01*
X030207Y022163D01*
X030479Y022050D01*
X030774Y022050D01*
X031046Y022163D01*
X031254Y022371D01*
X031367Y022643D01*
X031367Y022938D01*
X031254Y023210D01*
X031046Y023418D01*
X030774Y023530D01*
X030479Y023530D01*
X030207Y023418D01*
X029999Y023210D01*
X029935Y023054D02*
X019892Y023054D01*
X020050Y022896D02*
X029887Y022896D01*
X029887Y022737D02*
X020117Y022737D01*
X020117Y022579D02*
X029913Y022579D01*
X029979Y022420D02*
X020113Y022420D01*
X019955Y022262D02*
X030109Y022262D01*
X030352Y022103D02*
X019796Y022103D01*
X019637Y021945D02*
X032814Y021945D01*
X032814Y022103D02*
X030901Y022103D01*
X031144Y022262D02*
X032814Y022262D01*
X032814Y022420D02*
X031274Y022420D01*
X031340Y022579D02*
X032814Y022579D01*
X032814Y022737D02*
X031367Y022737D01*
X031367Y022896D02*
X032814Y022896D01*
X032814Y023054D02*
X031318Y023054D01*
X031251Y023213D02*
X032814Y023213D01*
X032814Y023371D02*
X031092Y023371D01*
X030775Y023530D02*
X032814Y023530D01*
X032814Y023689D02*
X019881Y023689D01*
X020040Y023847D02*
X032814Y023847D01*
X032704Y024006D02*
X020117Y024006D01*
X020117Y024164D02*
X032608Y024164D01*
X032608Y024323D02*
X020117Y024323D01*
X019965Y024481D02*
X032608Y024481D01*
X032629Y024640D02*
X002170Y024640D01*
X002170Y024798D02*
X032787Y024798D01*
X032814Y024957D02*
X002170Y024957D01*
X002170Y025115D02*
X032814Y025115D01*
X032814Y025274D02*
X002170Y025274D01*
X002170Y025432D02*
X032814Y025432D01*
X032814Y025591D02*
X002170Y025591D01*
X002170Y025750D02*
X032814Y025750D01*
X032814Y025908D02*
X002170Y025908D01*
X002170Y026067D02*
X037517Y026067D01*
X037517Y026225D02*
X002170Y026225D01*
X002170Y026384D02*
X037517Y026384D01*
X037517Y026542D02*
X002170Y026542D01*
X002170Y026701D02*
X037517Y026701D01*
X037517Y026859D02*
X002170Y026859D01*
X002170Y027018D02*
X037517Y027018D01*
X037517Y027176D02*
X002170Y027176D01*
X002170Y027335D02*
X037517Y027335D01*
X037517Y027494D02*
X002170Y027494D01*
X002170Y027652D02*
X037517Y027652D01*
X037517Y027811D02*
X002170Y027811D01*
X002170Y027969D02*
X037517Y027969D01*
X037517Y028128D02*
X002170Y028128D01*
X002170Y028286D02*
X037517Y028286D01*
X037517Y028445D02*
X002170Y028445D01*
X002170Y028603D02*
X037517Y028603D01*
X037517Y028762D02*
X002170Y028762D01*
X002170Y028920D02*
X037517Y028920D01*
X037517Y029079D02*
X002170Y029079D01*
X002170Y029238D02*
X037517Y029238D01*
X037517Y029396D02*
X029792Y029396D01*
X029711Y029363D02*
X029983Y029476D01*
X030192Y029684D01*
X030304Y029956D01*
X030304Y030250D01*
X030192Y030522D01*
X029983Y030730D01*
X029711Y030843D01*
X029417Y030843D01*
X029145Y030730D01*
X028937Y030522D01*
X028824Y030250D01*
X028824Y029956D01*
X028937Y029684D01*
X029145Y029476D01*
X029417Y029363D01*
X029711Y029363D01*
X029337Y029396D02*
X002170Y029396D01*
X002170Y029555D02*
X029066Y029555D01*
X028925Y029713D02*
X002170Y029713D01*
X002170Y029872D02*
X028859Y029872D01*
X028824Y030030D02*
X002170Y030030D01*
X002170Y030189D02*
X028824Y030189D01*
X028864Y030347D02*
X002170Y030347D01*
X002170Y030506D02*
X028930Y030506D01*
X029079Y030664D02*
X002170Y030664D01*
X002170Y030823D02*
X029369Y030823D01*
X029759Y030823D02*
X037517Y030823D01*
X037517Y030981D02*
X002170Y030981D01*
X002170Y031140D02*
X037517Y031140D01*
X037517Y031299D02*
X002170Y031299D01*
X002170Y031457D02*
X037517Y031457D01*
X037517Y031616D02*
X002170Y031616D01*
X002170Y031774D02*
X025573Y031774D01*
X025446Y031827D02*
X025766Y031694D01*
X026112Y031694D01*
X026432Y031827D01*
X026677Y032071D01*
X026809Y032391D01*
X026809Y032737D01*
X026677Y033057D01*
X026432Y033302D01*
X026112Y033434D01*
X025766Y033434D01*
X025446Y033302D01*
X025202Y033057D01*
X025069Y032737D01*
X025069Y032391D01*
X025202Y032071D01*
X025446Y031827D01*
X025340Y031933D02*
X002170Y031933D01*
X002170Y032091D02*
X025193Y032091D01*
X025128Y032250D02*
X002170Y032250D01*
X002170Y032408D02*
X025069Y032408D01*
X025069Y032567D02*
X002170Y032567D01*
X002170Y032725D02*
X025069Y032725D01*
X025130Y032884D02*
X023855Y032884D01*
X023838Y032867D02*
X024137Y033165D01*
X024137Y033588D01*
X023848Y033877D01*
X024137Y034165D01*
X024137Y034588D01*
X023838Y034887D01*
X023415Y034887D01*
X023127Y034598D01*
X022838Y034887D01*
X022415Y034887D01*
X022117Y034588D01*
X022117Y034165D01*
X022405Y033877D01*
X022117Y033588D01*
X022117Y033165D01*
X022415Y032867D01*
X022838Y032867D01*
X023127Y033155D01*
X023415Y032867D01*
X023838Y032867D01*
X024014Y033043D02*
X025196Y033043D01*
X025346Y033201D02*
X024137Y033201D01*
X024137Y033360D02*
X025587Y033360D01*
X026292Y033360D02*
X037517Y033360D01*
X037517Y033518D02*
X024137Y033518D01*
X024048Y033677D02*
X037517Y033677D01*
X037517Y033835D02*
X023889Y033835D01*
X023965Y033994D02*
X037517Y033994D01*
X037517Y034152D02*
X024124Y034152D01*
X024137Y034311D02*
X037517Y034311D01*
X037517Y034469D02*
X024137Y034469D01*
X024096Y034628D02*
X037517Y034628D01*
X037517Y034787D02*
X023938Y034787D01*
X023315Y034787D02*
X022938Y034787D01*
X023096Y034628D02*
X023157Y034628D01*
X022315Y034787D02*
X019938Y034787D01*
X019838Y034887D02*
X020137Y034588D01*
X020137Y034165D01*
X019848Y033877D01*
X020137Y033588D01*
X020137Y033165D01*
X019838Y032867D01*
X019415Y032867D01*
X019127Y033155D01*
X018838Y032867D01*
X018415Y032867D01*
X018127Y033155D01*
X017838Y032867D01*
X017415Y032867D01*
X017127Y033155D01*
X016838Y032867D01*
X016415Y032867D01*
X016117Y033165D01*
X016117Y033588D01*
X016405Y033877D01*
X016117Y034165D01*
X016117Y034588D01*
X016415Y034887D01*
X016838Y034887D01*
X017127Y034598D01*
X017415Y034887D01*
X017838Y034887D01*
X018127Y034598D01*
X018415Y034887D01*
X018838Y034887D01*
X019127Y034598D01*
X019415Y034887D01*
X019838Y034887D01*
X020096Y034628D02*
X022157Y034628D01*
X022117Y034469D02*
X020137Y034469D01*
X020137Y034311D02*
X022117Y034311D01*
X022130Y034152D02*
X020124Y034152D01*
X019965Y033994D02*
X022288Y033994D01*
X022364Y033835D02*
X019889Y033835D01*
X020048Y033677D02*
X022206Y033677D01*
X022117Y033518D02*
X020137Y033518D01*
X020137Y033360D02*
X022117Y033360D01*
X022117Y033201D02*
X020137Y033201D01*
X020014Y033043D02*
X022239Y033043D01*
X022398Y032884D02*
X019855Y032884D01*
X019398Y032884D02*
X018855Y032884D01*
X019014Y033043D02*
X019239Y033043D01*
X018398Y032884D02*
X017855Y032884D01*
X018014Y033043D02*
X018239Y033043D01*
X017398Y032884D02*
X016855Y032884D01*
X017014Y033043D02*
X017239Y033043D01*
X016398Y032884D02*
X002170Y032884D01*
X002170Y033043D02*
X016239Y033043D01*
X016117Y033201D02*
X002170Y033201D01*
X002170Y033360D02*
X016117Y033360D01*
X016117Y033518D02*
X002170Y033518D01*
X002170Y033677D02*
X016206Y033677D01*
X016364Y033835D02*
X002170Y033835D01*
X002170Y033994D02*
X016288Y033994D01*
X016130Y034152D02*
X002170Y034152D01*
X002170Y034311D02*
X016117Y034311D01*
X016117Y034469D02*
X002170Y034469D01*
X002170Y034628D02*
X016157Y034628D01*
X016315Y034787D02*
X002170Y034787D01*
X002170Y034945D02*
X037517Y034945D01*
X037517Y035104D02*
X009139Y035104D01*
X009436Y035260D02*
X009436Y035260D01*
X009439Y035262D02*
X037517Y035262D01*
X037517Y035421D02*
X009641Y035421D01*
X009625Y035405D02*
X009625Y035405D01*
X009625Y035405D01*
X009798Y035579D02*
X037517Y035579D01*
X037517Y035738D02*
X009919Y035738D01*
X009938Y035762D02*
X009938Y035762D01*
X010016Y035896D02*
X037517Y035896D01*
X037517Y036055D02*
X010093Y036055D01*
X010057Y035968D02*
X010057Y035968D01*
X010148Y036188D02*
X010148Y036188D01*
X010155Y036213D02*
X037517Y036213D01*
X037517Y036372D02*
X010197Y036372D01*
X010209Y036417D02*
X010209Y036417D01*
X010224Y036531D02*
X037517Y036531D01*
X037517Y036689D02*
X010241Y036689D01*
X010241Y036673D02*
X010241Y036673D01*
X010241Y036848D02*
X037517Y036848D01*
X037517Y037006D02*
X010241Y037006D01*
X010241Y037165D02*
X037517Y037165D01*
X037517Y037323D02*
X010241Y037323D01*
X010241Y037482D02*
X037517Y037482D01*
X037517Y033201D02*
X026532Y033201D01*
X026683Y033043D02*
X037517Y033043D01*
X037517Y032884D02*
X026748Y032884D01*
X026809Y032725D02*
X037517Y032725D01*
X037517Y032567D02*
X026809Y032567D01*
X026809Y032408D02*
X037517Y032408D01*
X037517Y032250D02*
X026751Y032250D01*
X026685Y032091D02*
X037517Y032091D01*
X037517Y031933D02*
X026538Y031933D01*
X026305Y031774D02*
X037517Y031774D01*
X037517Y030664D02*
X030049Y030664D01*
X030198Y030506D02*
X037517Y030506D01*
X037517Y030347D02*
X030264Y030347D01*
X030304Y030189D02*
X037517Y030189D01*
X037517Y030030D02*
X030304Y030030D01*
X030269Y029872D02*
X037517Y029872D01*
X037517Y029713D02*
X030204Y029713D01*
X030062Y029555D02*
X037517Y029555D01*
X030478Y023530D02*
X019723Y023530D01*
X019564Y023371D02*
X030161Y023371D01*
X032814Y021786D02*
X019479Y021786D01*
X019350Y021627D02*
X019320Y021627D01*
X019239Y021469D02*
X019162Y021469D01*
X019170Y021310D02*
X019003Y021310D01*
X019012Y021152D02*
X018845Y021152D01*
X018853Y020993D02*
X018686Y020993D01*
X018695Y020835D02*
X018528Y020835D01*
X018536Y020676D02*
X018369Y020676D01*
X018378Y020518D02*
X018211Y020518D01*
X018219Y020359D02*
X018052Y020359D01*
X017923Y020201D02*
X017893Y020201D01*
X018189Y019877D02*
X019627Y021314D01*
X020011Y021152D02*
X032814Y021152D01*
X032814Y021310D02*
X020044Y021310D01*
X020014Y021469D02*
X032814Y021469D01*
X032814Y021627D02*
X019903Y021627D01*
X019980Y020988D02*
X020044Y020835D01*
X020044Y020676D02*
X032608Y020676D01*
X032608Y020518D02*
X019981Y020518D01*
X019769Y020359D02*
X032608Y020359D01*
X032608Y020201D02*
X019528Y020201D01*
X019370Y020042D02*
X032730Y020042D01*
X032814Y019883D02*
X019211Y019883D01*
X019052Y019725D02*
X032814Y019725D01*
X032814Y019566D02*
X018894Y019566D01*
X018735Y019408D02*
X032814Y019408D01*
X032814Y019249D02*
X018606Y019249D01*
X018548Y019091D02*
X032814Y019091D01*
X032814Y018932D02*
X018357Y018932D01*
X018189Y019314D02*
X019627Y020752D01*
X017544Y022737D02*
X002170Y022737D01*
X002170Y022579D02*
X017386Y022579D01*
X017227Y022420D02*
X002170Y022420D01*
X002170Y022262D02*
X017069Y022262D01*
X016910Y022103D02*
X002170Y022103D01*
X002170Y021945D02*
X013068Y021945D01*
X013103Y021979D02*
X012787Y021663D01*
X012787Y021215D01*
X013103Y020899D01*
X014150Y020899D01*
X014467Y021215D01*
X014467Y021663D01*
X014150Y021979D01*
X013103Y021979D01*
X012910Y021786D02*
X002170Y021786D01*
X002170Y021627D02*
X012787Y021627D01*
X012787Y021469D02*
X002170Y021469D01*
X002170Y021310D02*
X012787Y021310D01*
X012850Y021152D02*
X002170Y021152D01*
X002170Y020993D02*
X013009Y020993D01*
X014244Y020993D02*
X016692Y020993D01*
X016534Y021152D02*
X014403Y021152D01*
X014467Y021310D02*
X016449Y021310D01*
X016449Y021469D02*
X014467Y021469D01*
X014467Y021627D02*
X016449Y021627D01*
X016593Y021786D02*
X014343Y021786D01*
X014185Y021945D02*
X016752Y021945D01*
X017703Y022896D02*
X002170Y022896D01*
X002170Y023054D02*
X017861Y023054D01*
X018020Y023213D02*
X002170Y023213D01*
X002170Y023371D02*
X018178Y023371D01*
X018337Y023530D02*
X002170Y023530D01*
X002170Y023689D02*
X018496Y023689D01*
X018654Y023847D02*
X002170Y023847D01*
X002170Y024006D02*
X018813Y024006D01*
X018971Y024164D02*
X002170Y024164D01*
X002170Y024323D02*
X019130Y024323D01*
X019288Y024481D02*
X002170Y024481D01*
X002170Y019566D02*
X011874Y019566D01*
X011715Y019408D02*
X002170Y019408D01*
X002170Y019249D02*
X011699Y019249D01*
X011699Y019091D02*
X002170Y019091D01*
X002170Y018932D02*
X011699Y018932D01*
X011699Y018774D02*
X002170Y018774D01*
X002170Y018615D02*
X011699Y018615D01*
X011699Y018457D02*
X002170Y018457D01*
X002170Y018298D02*
X011699Y018298D01*
X011699Y018139D02*
X002170Y018139D01*
X002170Y017981D02*
X011699Y017981D01*
X011699Y017822D02*
X002170Y017822D01*
X002170Y017664D02*
X011699Y017664D01*
X011699Y017505D02*
X002170Y017505D01*
X002170Y017347D02*
X011699Y017347D01*
X011699Y017188D02*
X002170Y017188D01*
X002170Y017030D02*
X011699Y017030D01*
X011699Y016871D02*
X002170Y016871D01*
X002170Y016713D02*
X011699Y016713D01*
X011699Y016554D02*
X002170Y016554D01*
X002170Y016396D02*
X011699Y016396D01*
X011699Y016237D02*
X002170Y016237D01*
X002170Y016078D02*
X011699Y016078D01*
X011699Y015920D02*
X002170Y015920D01*
X002170Y015761D02*
X011749Y015761D01*
X011903Y015603D02*
X002170Y015603D01*
X002170Y015444D02*
X013874Y015444D01*
X013808Y015286D02*
X002170Y015286D01*
X002170Y015127D02*
X013779Y015127D01*
X013779Y015214D02*
X013941Y015606D01*
X014241Y015906D01*
X014633Y016068D01*
X015058Y016068D01*
X015450Y015906D01*
X015750Y015606D01*
X015912Y015214D01*
X015912Y014789D01*
X015750Y014397D01*
X015450Y014097D01*
X015058Y013935D01*
X014633Y013935D01*
X014241Y014097D01*
X013941Y014397D01*
X013779Y014789D01*
X013779Y015214D01*
X013779Y014969D02*
X002170Y014969D01*
X002170Y014810D02*
X013779Y014810D01*
X013836Y014652D02*
X002170Y014652D01*
X002170Y014493D02*
X013901Y014493D01*
X014004Y014334D02*
X002170Y014334D01*
X002170Y014176D02*
X014162Y014176D01*
X014434Y014017D02*
X002170Y014017D01*
X002170Y013859D02*
X017018Y013859D01*
X016962Y013915D02*
X017278Y013599D01*
X017725Y013599D01*
X018002Y013876D01*
X018278Y013599D01*
X018725Y013599D01*
X019042Y013915D01*
X019042Y014963D01*
X018725Y015279D01*
X018278Y015279D01*
X018002Y015003D01*
X017725Y015279D01*
X017278Y015279D01*
X016962Y014963D01*
X016962Y013915D01*
X016962Y014017D02*
X015257Y014017D01*
X015528Y014176D02*
X016962Y014176D01*
X016962Y014334D02*
X015687Y014334D01*
X015789Y014493D02*
X016962Y014493D01*
X016962Y014652D02*
X015855Y014652D01*
X015912Y014810D02*
X016962Y014810D01*
X016967Y014969D02*
X015912Y014969D01*
X015912Y015127D02*
X017126Y015127D01*
X016856Y015816D02*
X017156Y016116D01*
X017318Y016508D01*
X017318Y016933D01*
X017156Y017325D01*
X016856Y017625D01*
X016464Y017787D01*
X016039Y017787D01*
X015647Y017625D01*
X015347Y017325D01*
X015185Y016933D01*
X015185Y016508D01*
X015347Y016116D01*
X015647Y015816D01*
X016039Y015654D01*
X016464Y015654D01*
X016856Y015816D01*
X016724Y015761D02*
X019664Y015761D01*
X019682Y015603D02*
X015751Y015603D01*
X015779Y015761D02*
X015594Y015761D01*
X015543Y015920D02*
X015416Y015920D01*
X015385Y016078D02*
X012679Y016078D01*
X012679Y015920D02*
X014275Y015920D01*
X014096Y015761D02*
X012629Y015761D01*
X012475Y015603D02*
X013940Y015603D01*
X012679Y016237D02*
X015297Y016237D01*
X015231Y016396D02*
X012679Y016396D01*
X012679Y016554D02*
X015185Y016554D01*
X015185Y016713D02*
X012679Y016713D01*
X012679Y016871D02*
X015185Y016871D01*
X015225Y017030D02*
X012679Y017030D01*
X012679Y017188D02*
X015291Y017188D01*
X015369Y017347D02*
X012679Y017347D01*
X012679Y017505D02*
X015528Y017505D01*
X015742Y017664D02*
X012679Y017664D01*
X012679Y017822D02*
X025182Y017822D01*
X025116Y017664D02*
X016761Y017664D01*
X016975Y017505D02*
X023915Y017505D01*
X023803Y017347D02*
X017134Y017347D01*
X017212Y017188D02*
X023772Y017188D01*
X023804Y017030D02*
X017278Y017030D01*
X017318Y016871D02*
X023917Y016871D01*
X023825Y016554D02*
X024178Y016554D01*
X024282Y016713D02*
X019756Y016713D01*
X019880Y016554D02*
X021178Y016554D01*
X021020Y016396D02*
X019935Y016396D01*
X020094Y016237D02*
X020962Y016237D01*
X020962Y016078D02*
X020252Y016078D01*
X020322Y015920D02*
X020962Y015920D01*
X020962Y015761D02*
X020322Y015761D01*
X020322Y015603D02*
X020962Y015603D01*
X020962Y015444D02*
X020322Y015444D01*
X020322Y015286D02*
X020967Y015286D01*
X020877Y015127D02*
X021125Y015127D01*
X021878Y015127D02*
X022002Y015251D01*
X022036Y014969D02*
X025945Y014969D01*
X025852Y015127D02*
X024878Y015127D01*
X025037Y015286D02*
X025708Y015286D01*
X025550Y015444D02*
X025042Y015444D01*
X025042Y015603D02*
X025391Y015603D01*
X025233Y015761D02*
X025042Y015761D01*
X025042Y015920D02*
X025074Y015920D01*
X025458Y016554D02*
X025652Y016554D01*
X025373Y016713D02*
X025300Y016713D01*
X025214Y016871D02*
X025141Y016871D01*
X025141Y017030D02*
X024983Y017030D01*
X025076Y017188D02*
X024824Y017188D01*
X024666Y017347D02*
X025069Y017347D01*
X025069Y017505D02*
X024507Y017505D01*
X025313Y017981D02*
X014232Y017981D01*
X013021Y017981D02*
X012679Y017981D01*
X012679Y018139D02*
X012863Y018139D01*
X012787Y018298D02*
X012679Y018298D01*
X012679Y018457D02*
X012787Y018457D01*
X012787Y018615D02*
X012679Y018615D01*
X012679Y018774D02*
X012898Y018774D01*
X013056Y018932D02*
X012679Y018932D01*
X015817Y015444D02*
X019682Y015444D01*
X019682Y015286D02*
X015882Y015286D01*
X016960Y015920D02*
X019506Y015920D01*
X019210Y016078D02*
X017118Y016078D01*
X017206Y016237D02*
X019108Y016237D01*
X019084Y016396D02*
X017272Y016396D01*
X017318Y016554D02*
X019124Y016554D01*
X019248Y016713D02*
X017318Y016713D01*
X017877Y015127D02*
X018126Y015127D01*
X018877Y015127D02*
X019682Y015127D01*
X019682Y014969D02*
X019036Y014969D01*
X019042Y014810D02*
X019682Y014810D01*
X019682Y014652D02*
X019042Y014652D01*
X019042Y014493D02*
X019682Y014493D01*
X019682Y014334D02*
X019042Y014334D01*
X019042Y014176D02*
X019682Y014176D01*
X019682Y014017D02*
X019042Y014017D01*
X018985Y013859D02*
X019682Y013859D01*
X019682Y013700D02*
X018826Y013700D01*
X018177Y013700D02*
X017826Y013700D01*
X017985Y013859D02*
X018018Y013859D01*
X017177Y013700D02*
X002170Y013700D01*
X002170Y013542D02*
X019696Y013542D01*
X019855Y013383D02*
X002170Y013383D01*
X002170Y013225D02*
X020014Y013225D01*
X020040Y013066D02*
X002170Y013066D01*
X002170Y012908D02*
X020022Y012908D01*
X020066Y012749D02*
X016130Y012749D01*
X015748Y012749D02*
X002170Y012749D01*
X002170Y012590D02*
X015576Y012590D01*
X015522Y012432D02*
X002170Y012432D01*
X002170Y012273D02*
X015530Y012273D01*
X015611Y012115D02*
X002170Y012115D01*
X002170Y011956D02*
X015897Y011956D01*
X015947Y011798D02*
X002170Y011798D01*
X002170Y011639D02*
X016099Y011639D01*
X016314Y012002D02*
X021752Y012002D01*
X022070Y012273D02*
X023682Y012273D01*
X023682Y012115D02*
X022156Y012115D01*
X022169Y011956D02*
X023682Y011956D01*
X023682Y011798D02*
X022119Y011798D01*
X021967Y011639D02*
X023682Y011639D01*
X023682Y011481D02*
X002170Y011481D01*
X002170Y011322D02*
X023670Y011322D01*
X023591Y011164D02*
X002170Y011164D01*
X002170Y011005D02*
X023584Y011005D01*
X023640Y010846D02*
X002170Y010846D01*
X002170Y010688D02*
X023820Y010688D01*
X024002Y011064D02*
X024002Y013502D01*
X023584Y013542D02*
X020601Y013542D01*
X020759Y013383D02*
X023599Y013383D01*
X023682Y013225D02*
X020759Y013225D01*
X020838Y013066D02*
X023682Y013066D01*
X023682Y012908D02*
X020856Y012908D01*
X021005Y012749D02*
X023682Y012749D01*
X023682Y012590D02*
X021177Y012590D01*
X021231Y012432D02*
X023682Y012432D01*
X021536Y011639D02*
X016529Y011639D01*
X015939Y012377D02*
X020814Y012377D01*
X020439Y012939D02*
X020439Y013252D01*
X020002Y013689D01*
X020002Y015877D01*
X019502Y016377D01*
X021825Y016554D02*
X022178Y016554D01*
X022020Y016396D02*
X021984Y016396D01*
X022825Y016554D02*
X023178Y016554D01*
X023020Y016396D02*
X022984Y016396D01*
X023984Y016396D02*
X024020Y016396D01*
X024125Y015127D02*
X023878Y015127D01*
X023125Y015127D02*
X022878Y015127D01*
X021177Y013700D02*
X020826Y013700D01*
X020985Y013859D02*
X021018Y013859D01*
X037517Y010529D02*
X002170Y010529D01*
X002170Y010371D02*
X037517Y010371D01*
X037517Y010212D02*
X002170Y010212D01*
X002170Y010054D02*
X037517Y010054D01*
X037517Y009895D02*
X002170Y009895D01*
X002170Y009737D02*
X037517Y009737D01*
X037517Y009578D02*
X002170Y009578D01*
X002170Y009420D02*
X037517Y009420D01*
X037517Y009261D02*
X002170Y009261D01*
X002170Y009103D02*
X002623Y009103D01*
X002574Y008944D02*
X002170Y008944D01*
X002170Y008785D02*
X002574Y008785D01*
X002574Y008627D02*
X002170Y008627D01*
X002170Y008468D02*
X002574Y008468D01*
X002574Y008310D02*
X002170Y008310D01*
X002170Y008151D02*
X002574Y008151D01*
X002574Y007993D02*
X002170Y007993D01*
X002170Y007834D02*
X002611Y007834D01*
X002574Y007676D02*
X002170Y007676D01*
X002170Y007517D02*
X002594Y007517D01*
X002574Y007359D02*
X002170Y007359D01*
X002170Y007200D02*
X002574Y007200D01*
X002640Y007041D02*
X002170Y007041D01*
X002170Y006883D02*
X002647Y006883D01*
X002574Y006724D02*
X002170Y006724D01*
X002170Y006566D02*
X002574Y006566D01*
X002574Y006407D02*
X002170Y006407D01*
X002170Y006249D02*
X002657Y006249D01*
X002574Y006090D02*
X002170Y006090D01*
X002170Y005932D02*
X002574Y005932D01*
X002574Y005773D02*
X002170Y005773D01*
X002170Y005615D02*
X002587Y005615D01*
X002746Y005456D02*
X002170Y005456D01*
X003564Y006407D02*
X037517Y006407D01*
X037517Y006249D02*
X003671Y006249D01*
X003755Y006090D02*
X037517Y006090D01*
X037517Y006566D02*
X003564Y006566D01*
X003564Y006724D02*
X037517Y006724D01*
X037517Y006883D02*
X003530Y006883D01*
X003659Y007041D02*
X037517Y007041D01*
X037517Y007200D02*
X003659Y007200D01*
X003576Y007359D02*
X037517Y007359D01*
X037517Y007517D02*
X003659Y007517D01*
X003659Y007676D02*
X037517Y007676D01*
X037517Y007834D02*
X003527Y007834D01*
X003564Y007993D02*
X037517Y007993D01*
X037517Y008151D02*
X003564Y008151D01*
X003564Y008310D02*
X037517Y008310D01*
X037517Y008468D02*
X003564Y008468D01*
X003564Y008627D02*
X037517Y008627D01*
X037517Y008785D02*
X003564Y008785D01*
X003564Y008944D02*
X037517Y008944D01*
X037517Y009103D02*
X003421Y009103D01*
X022855Y032884D02*
X023398Y032884D01*
X023239Y033043D02*
X023014Y033043D01*
X019315Y034787D02*
X018938Y034787D01*
X019096Y034628D02*
X019157Y034628D01*
X018315Y034787D02*
X017938Y034787D01*
X018096Y034628D02*
X018157Y034628D01*
X017315Y034787D02*
X016938Y034787D01*
X017096Y034628D02*
X017157Y034628D01*
X008781Y034989D02*
X008781Y034989D01*
X008545Y034958D02*
X008545Y034958D01*
X008307Y034958D02*
X008307Y034958D01*
X008071Y034989D02*
X008071Y034989D01*
X007712Y035104D02*
X002170Y035104D01*
X002170Y035262D02*
X007413Y035262D01*
X007227Y035405D02*
X007227Y035405D01*
X007211Y035421D02*
X002170Y035421D01*
X002170Y035579D02*
X007054Y035579D01*
X007058Y035573D02*
X007058Y035573D01*
X006932Y035738D02*
X002170Y035738D01*
X002170Y035896D02*
X006836Y035896D01*
X006795Y035968D02*
X006795Y035968D01*
X006759Y036055D02*
X002170Y036055D01*
X002170Y036213D02*
X006697Y036213D01*
X006654Y036372D02*
X002170Y036372D01*
X002170Y036531D02*
X006627Y036531D01*
X006642Y036417D02*
X006642Y036417D01*
X006611Y036689D02*
X002170Y036689D01*
X002170Y036848D02*
X006611Y036848D01*
X006611Y037006D02*
X002170Y037006D01*
X002170Y037165D02*
X006611Y037165D01*
X006611Y037323D02*
X002170Y037323D01*
X002170Y037482D02*
X006611Y037482D01*
X006914Y035762D02*
X006914Y035762D01*
D23*
X013689Y031314D03*
X013939Y032189D03*
X013939Y032689D03*
X014377Y029752D03*
X013127Y029314D03*
X012752Y029064D03*
X013127Y028814D03*
X012377Y028814D03*
X012377Y029314D03*
X009752Y027814D03*
X009252Y027814D03*
X013064Y025314D03*
X013564Y025314D03*
X014064Y025314D03*
X014064Y024439D03*
X013564Y024439D03*
X013064Y024439D03*
X012189Y019189D03*
X012189Y015939D03*
X008502Y014002D03*
X006377Y011877D03*
X006502Y008064D03*
X006502Y005814D03*
X016564Y011189D03*
X017064Y017627D03*
D24*
X017002Y019127D03*
X018189Y019314D03*
X018189Y019877D03*
X019627Y020752D03*
X019627Y021314D03*
X021502Y022252D03*
X020314Y023627D03*
X020314Y027189D03*
X020314Y030314D03*
X023127Y030314D03*
X024814Y028564D03*
X027439Y028564D03*
X027002Y031689D03*
X024564Y032939D03*
X023314Y035377D03*
X021627Y037314D03*
X019752Y035939D03*
X017627Y037314D03*
X015627Y035877D03*
X015627Y033814D03*
X013439Y035502D03*
X013814Y037314D03*
X011502Y035314D03*
X011189Y031127D03*
X008377Y031127D03*
X008689Y029314D03*
X008752Y025877D03*
X010502Y025877D03*
X011877Y025627D03*
X012439Y025064D03*
X012939Y026689D03*
X011752Y027064D03*
X010689Y024064D03*
X008127Y024127D03*
X004877Y024127D03*
X003189Y024814D03*
X003252Y030564D03*
X005252Y031127D03*
X012877Y022127D03*
X011439Y019064D03*
X010689Y017127D03*
X010689Y016627D03*
X012939Y016564D03*
X012939Y017189D03*
X014189Y017752D03*
X016627Y020814D03*
X016439Y022127D03*
X015627Y024939D03*
X015627Y029127D03*
X021502Y019252D03*
X022377Y018439D03*
X024189Y017189D03*
X026002Y016314D03*
X026252Y015252D03*
X027314Y013752D03*
X028001Y012127D03*
X028439Y011127D03*
X028314Y010064D03*
X029127Y008689D03*
X028939Y007502D03*
X028939Y005689D03*
X029001Y003752D03*
X030251Y002439D03*
X032376Y004064D03*
X032376Y006377D03*
X031189Y006752D03*
X032376Y008689D03*
X033439Y007502D03*
X033439Y007127D03*
X030564Y009877D03*
X026001Y006064D03*
X025439Y007564D03*
X025502Y008314D03*
X023877Y006814D03*
X023002Y006814D03*
X022127Y006814D03*
X021439Y008127D03*
X019752Y009939D03*
X018002Y011439D03*
X016314Y012002D03*
X015939Y012377D03*
X015501Y012814D03*
X016064Y013939D03*
X013314Y013814D03*
X012314Y012814D03*
X011439Y013439D03*
X009752Y013439D03*
X009752Y011689D03*
X007689Y011377D03*
X007626Y008064D03*
X007626Y006939D03*
X008064Y004939D03*
X009126Y003752D03*
X008751Y002439D03*
X012439Y003752D03*
X013814Y002439D03*
X016376Y004064D03*
X018189Y002439D03*
X019752Y003877D03*
X022439Y002439D03*
X023001Y003752D03*
X026501Y002439D03*
X024626Y010127D03*
X024002Y011064D03*
X023439Y011189D03*
X024626Y011127D03*
X024002Y013502D03*
X021752Y012002D03*
X020814Y012377D03*
X020439Y012939D03*
X019501Y012814D03*
X019501Y013502D03*
X019502Y016377D03*
X020502Y017127D03*
X020502Y018189D03*
X014314Y010564D03*
X014002Y009314D03*
X012814Y011502D03*
X016127Y007502D03*
X016376Y006002D03*
X018377Y007627D03*
X017252Y009189D03*
X012439Y005627D03*
X011689Y007064D03*
X009939Y007064D03*
X007501Y016127D03*
X007189Y016377D03*
X007501Y016627D03*
X007189Y016877D03*
X006877Y017127D03*
X007189Y017377D03*
X006877Y017627D03*
X006564Y017377D03*
X006564Y016877D03*
X006876Y016627D03*
X006564Y016377D03*
X006876Y016127D03*
X007814Y016377D03*
X007814Y016877D03*
X007501Y017127D03*
X007814Y017377D03*
X007502Y017627D03*
X030564Y031689D03*
X033502Y029189D03*
X036439Y026252D03*
X037314Y029127D03*
X032564Y022314D03*
X032627Y019189D03*
D25*
X019627Y022627D03*
X019627Y024127D03*
X016939Y021439D03*
X017689Y020689D03*
D26*
X019627Y022627D01*
X019627Y024127D02*
X016939Y021439D01*
X012189Y019189D02*
X012189Y016064D01*
D27*
X012189Y015939D01*
D28*
X024189Y017189D02*
X024314Y017189D01*
X024314Y017189D01*
X026252Y015252D01*
D29*
X029502Y005189D02*
X029628Y005063D01*
X030252Y005063D01*
X030252Y004315D02*
X029628Y004315D01*
X029502Y004189D01*
M02*
