G75*
G70*
%OFA0B0*%
%FSLAX24Y24*%
%IPPOS*%
%LPD*%
%AMOC8*
5,1,8,0,0,1.08239X$1,22.5*
%
%ADD10C,0.0000*%
%ADD11C,0.0050*%
%ADD12C,0.0280*%
%ADD13R,0.0138X0.0315*%
%ADD14C,0.0060*%
%ADD15C,0.0031*%
D10*
X000233Y000233D02*
X000233Y036060D01*
X005154Y036060D01*
X005154Y035076D01*
X005156Y034999D01*
X005162Y034922D01*
X005171Y034845D01*
X005184Y034769D01*
X005201Y034693D01*
X005222Y034619D01*
X005246Y034545D01*
X005274Y034473D01*
X005305Y034403D01*
X005340Y034334D01*
X005378Y034266D01*
X005419Y034201D01*
X005464Y034138D01*
X005512Y034077D01*
X005562Y034018D01*
X005615Y033962D01*
X005671Y033909D01*
X005730Y033859D01*
X005791Y033811D01*
X005854Y033766D01*
X005919Y033725D01*
X005987Y033687D01*
X006056Y033652D01*
X006126Y033621D01*
X006198Y033593D01*
X006272Y033569D01*
X006346Y033548D01*
X006422Y033531D01*
X006498Y033518D01*
X006575Y033509D01*
X006652Y033503D01*
X006729Y033501D01*
X006806Y033503D01*
X006883Y033509D01*
X006960Y033518D01*
X007036Y033531D01*
X007112Y033548D01*
X007186Y033569D01*
X007260Y033593D01*
X007332Y033621D01*
X007402Y033652D01*
X007471Y033687D01*
X007539Y033725D01*
X007604Y033766D01*
X007667Y033811D01*
X007728Y033859D01*
X007787Y033909D01*
X007843Y033962D01*
X007896Y034018D01*
X007946Y034077D01*
X007994Y034138D01*
X008039Y034201D01*
X008080Y034266D01*
X008118Y034334D01*
X008153Y034403D01*
X008184Y034473D01*
X008212Y034545D01*
X008236Y034619D01*
X008257Y034693D01*
X008274Y034769D01*
X008287Y034845D01*
X008296Y034922D01*
X008302Y034999D01*
X008304Y035076D01*
X008304Y036060D01*
X036060Y036060D01*
X036060Y000233D01*
X000233Y000233D01*
X012322Y013305D02*
X012324Y013362D01*
X012330Y013419D01*
X012340Y013475D01*
X012353Y013531D01*
X012371Y013585D01*
X012392Y013638D01*
X012417Y013689D01*
X012445Y013739D01*
X012477Y013786D01*
X012511Y013832D01*
X012549Y013874D01*
X012590Y013914D01*
X012633Y013952D01*
X012679Y013986D01*
X012727Y014016D01*
X012777Y014044D01*
X012829Y014068D01*
X012883Y014088D01*
X012937Y014104D01*
X012993Y014117D01*
X013049Y014126D01*
X013106Y014131D01*
X013163Y014132D01*
X013220Y014129D01*
X013277Y014122D01*
X013333Y014111D01*
X013388Y014097D01*
X013442Y014078D01*
X013495Y014056D01*
X013546Y014031D01*
X013595Y014001D01*
X013642Y013969D01*
X013687Y013933D01*
X013729Y013895D01*
X013768Y013853D01*
X013804Y013809D01*
X013838Y013763D01*
X013868Y013714D01*
X013894Y013664D01*
X013917Y013612D01*
X013936Y013558D01*
X013952Y013503D01*
X013964Y013447D01*
X013972Y013390D01*
X013976Y013334D01*
X013976Y013276D01*
X013972Y013220D01*
X013964Y013163D01*
X013952Y013107D01*
X013936Y013052D01*
X013917Y012998D01*
X013894Y012946D01*
X013868Y012896D01*
X013838Y012847D01*
X013804Y012801D01*
X013768Y012757D01*
X013729Y012715D01*
X013687Y012677D01*
X013642Y012641D01*
X013595Y012609D01*
X013546Y012579D01*
X013495Y012554D01*
X013442Y012532D01*
X013388Y012513D01*
X013333Y012499D01*
X013277Y012488D01*
X013220Y012481D01*
X013163Y012478D01*
X013106Y012479D01*
X013049Y012484D01*
X012993Y012493D01*
X012937Y012506D01*
X012883Y012522D01*
X012829Y012542D01*
X012777Y012566D01*
X012727Y012594D01*
X012679Y012624D01*
X012633Y012658D01*
X012590Y012696D01*
X012549Y012736D01*
X012511Y012778D01*
X012477Y012824D01*
X012445Y012871D01*
X012417Y012921D01*
X012392Y012972D01*
X012371Y013025D01*
X012353Y013079D01*
X012340Y013135D01*
X012330Y013191D01*
X012324Y013248D01*
X012322Y013305D01*
X013728Y015024D02*
X013730Y015081D01*
X013736Y015138D01*
X013746Y015194D01*
X013759Y015250D01*
X013777Y015304D01*
X013798Y015357D01*
X013823Y015408D01*
X013851Y015458D01*
X013883Y015505D01*
X013917Y015551D01*
X013955Y015593D01*
X013996Y015633D01*
X014039Y015671D01*
X014085Y015705D01*
X014133Y015735D01*
X014183Y015763D01*
X014235Y015787D01*
X014289Y015807D01*
X014343Y015823D01*
X014399Y015836D01*
X014455Y015845D01*
X014512Y015850D01*
X014569Y015851D01*
X014626Y015848D01*
X014683Y015841D01*
X014739Y015830D01*
X014794Y015816D01*
X014848Y015797D01*
X014901Y015775D01*
X014952Y015750D01*
X015001Y015720D01*
X015048Y015688D01*
X015093Y015652D01*
X015135Y015614D01*
X015174Y015572D01*
X015210Y015528D01*
X015244Y015482D01*
X015274Y015433D01*
X015300Y015383D01*
X015323Y015331D01*
X015342Y015277D01*
X015358Y015222D01*
X015370Y015166D01*
X015378Y015109D01*
X015382Y015053D01*
X015382Y014995D01*
X015378Y014939D01*
X015370Y014882D01*
X015358Y014826D01*
X015342Y014771D01*
X015323Y014717D01*
X015300Y014665D01*
X015274Y014615D01*
X015244Y014566D01*
X015210Y014520D01*
X015174Y014476D01*
X015135Y014434D01*
X015093Y014396D01*
X015048Y014360D01*
X015001Y014328D01*
X014952Y014298D01*
X014901Y014273D01*
X014848Y014251D01*
X014794Y014232D01*
X014739Y014218D01*
X014683Y014207D01*
X014626Y014200D01*
X014569Y014197D01*
X014512Y014198D01*
X014455Y014203D01*
X014399Y014212D01*
X014343Y014225D01*
X014289Y014241D01*
X014235Y014261D01*
X014183Y014285D01*
X014133Y014313D01*
X014085Y014343D01*
X014039Y014377D01*
X013996Y014415D01*
X013955Y014455D01*
X013917Y014497D01*
X013883Y014543D01*
X013851Y014590D01*
X013823Y014640D01*
X013798Y014691D01*
X013777Y014744D01*
X013759Y014798D01*
X013746Y014854D01*
X013736Y014910D01*
X013730Y014967D01*
X013728Y015024D01*
X023050Y015868D02*
X023052Y015918D01*
X023058Y015968D01*
X023068Y016017D01*
X023082Y016065D01*
X023099Y016112D01*
X023120Y016157D01*
X023145Y016201D01*
X023173Y016242D01*
X023205Y016281D01*
X023239Y016318D01*
X023276Y016352D01*
X023316Y016382D01*
X023358Y016409D01*
X023402Y016433D01*
X023448Y016454D01*
X023495Y016470D01*
X023543Y016483D01*
X023593Y016492D01*
X023642Y016497D01*
X023693Y016498D01*
X023743Y016495D01*
X023792Y016488D01*
X023841Y016477D01*
X023889Y016462D01*
X023935Y016444D01*
X023980Y016422D01*
X024023Y016396D01*
X024064Y016367D01*
X024103Y016335D01*
X024139Y016300D01*
X024171Y016262D01*
X024201Y016222D01*
X024228Y016179D01*
X024251Y016135D01*
X024270Y016089D01*
X024286Y016041D01*
X024298Y015992D01*
X024306Y015943D01*
X024310Y015893D01*
X024310Y015843D01*
X024306Y015793D01*
X024298Y015744D01*
X024286Y015695D01*
X024270Y015647D01*
X024251Y015601D01*
X024228Y015557D01*
X024201Y015514D01*
X024171Y015474D01*
X024139Y015436D01*
X024103Y015401D01*
X024064Y015369D01*
X024023Y015340D01*
X023980Y015314D01*
X023935Y015292D01*
X023889Y015274D01*
X023841Y015259D01*
X023792Y015248D01*
X023743Y015241D01*
X023693Y015238D01*
X023642Y015239D01*
X023593Y015244D01*
X023543Y015253D01*
X023495Y015266D01*
X023448Y015282D01*
X023402Y015303D01*
X023358Y015327D01*
X023316Y015354D01*
X023276Y015384D01*
X023239Y015418D01*
X023205Y015455D01*
X023173Y015494D01*
X023145Y015535D01*
X023120Y015579D01*
X023099Y015624D01*
X023082Y015671D01*
X023068Y015719D01*
X023058Y015768D01*
X023052Y015818D01*
X023050Y015868D01*
X023050Y023305D02*
X023052Y023355D01*
X023058Y023405D01*
X023068Y023454D01*
X023082Y023502D01*
X023099Y023549D01*
X023120Y023594D01*
X023145Y023638D01*
X023173Y023679D01*
X023205Y023718D01*
X023239Y023755D01*
X023276Y023789D01*
X023316Y023819D01*
X023358Y023846D01*
X023402Y023870D01*
X023448Y023891D01*
X023495Y023907D01*
X023543Y023920D01*
X023593Y023929D01*
X023642Y023934D01*
X023693Y023935D01*
X023743Y023932D01*
X023792Y023925D01*
X023841Y023914D01*
X023889Y023899D01*
X023935Y023881D01*
X023980Y023859D01*
X024023Y023833D01*
X024064Y023804D01*
X024103Y023772D01*
X024139Y023737D01*
X024171Y023699D01*
X024201Y023659D01*
X024228Y023616D01*
X024251Y023572D01*
X024270Y023526D01*
X024286Y023478D01*
X024298Y023429D01*
X024306Y023380D01*
X024310Y023330D01*
X024310Y023280D01*
X024306Y023230D01*
X024298Y023181D01*
X024286Y023132D01*
X024270Y023084D01*
X024251Y023038D01*
X024228Y022994D01*
X024201Y022951D01*
X024171Y022911D01*
X024139Y022873D01*
X024103Y022838D01*
X024064Y022806D01*
X024023Y022777D01*
X023980Y022751D01*
X023935Y022729D01*
X023889Y022711D01*
X023841Y022696D01*
X023792Y022685D01*
X023743Y022678D01*
X023693Y022675D01*
X023642Y022676D01*
X023593Y022681D01*
X023543Y022690D01*
X023495Y022703D01*
X023448Y022719D01*
X023402Y022740D01*
X023358Y022764D01*
X023316Y022791D01*
X023276Y022821D01*
X023239Y022855D01*
X023205Y022892D01*
X023173Y022931D01*
X023145Y022972D01*
X023120Y023016D01*
X023099Y023061D01*
X023082Y023108D01*
X023068Y023156D01*
X023058Y023205D01*
X023052Y023255D01*
X023050Y023305D01*
X023050Y030742D02*
X023052Y030792D01*
X023058Y030842D01*
X023068Y030891D01*
X023082Y030939D01*
X023099Y030986D01*
X023120Y031031D01*
X023145Y031075D01*
X023173Y031116D01*
X023205Y031155D01*
X023239Y031192D01*
X023276Y031226D01*
X023316Y031256D01*
X023358Y031283D01*
X023402Y031307D01*
X023448Y031328D01*
X023495Y031344D01*
X023543Y031357D01*
X023593Y031366D01*
X023642Y031371D01*
X023693Y031372D01*
X023743Y031369D01*
X023792Y031362D01*
X023841Y031351D01*
X023889Y031336D01*
X023935Y031318D01*
X023980Y031296D01*
X024023Y031270D01*
X024064Y031241D01*
X024103Y031209D01*
X024139Y031174D01*
X024171Y031136D01*
X024201Y031096D01*
X024228Y031053D01*
X024251Y031009D01*
X024270Y030963D01*
X024286Y030915D01*
X024298Y030866D01*
X024306Y030817D01*
X024310Y030767D01*
X024310Y030717D01*
X024306Y030667D01*
X024298Y030618D01*
X024286Y030569D01*
X024270Y030521D01*
X024251Y030475D01*
X024228Y030431D01*
X024201Y030388D01*
X024171Y030348D01*
X024139Y030310D01*
X024103Y030275D01*
X024064Y030243D01*
X024023Y030214D01*
X023980Y030188D01*
X023935Y030166D01*
X023889Y030148D01*
X023841Y030133D01*
X023792Y030122D01*
X023743Y030115D01*
X023693Y030112D01*
X023642Y030113D01*
X023593Y030118D01*
X023543Y030127D01*
X023495Y030140D01*
X023448Y030156D01*
X023402Y030177D01*
X023358Y030201D01*
X023316Y030228D01*
X023276Y030258D01*
X023239Y030292D01*
X023205Y030329D01*
X023173Y030368D01*
X023145Y030409D01*
X023120Y030453D01*
X023099Y030498D01*
X023082Y030545D01*
X023068Y030593D01*
X023058Y030642D01*
X023052Y030692D01*
X023050Y030742D01*
D11*
X022476Y033555D02*
X022176Y033555D01*
X022326Y033555D02*
X022326Y034005D01*
X022476Y033855D01*
X022015Y033780D02*
X022015Y033630D01*
X021940Y033555D01*
X021790Y033555D01*
X021715Y033630D01*
X021715Y033705D01*
X021790Y033780D01*
X022015Y033780D01*
X021865Y033930D01*
X021715Y034005D01*
X019764Y030868D02*
X019822Y030809D01*
X019822Y030751D01*
X019764Y030693D01*
X019647Y030693D01*
X019589Y030634D01*
X019589Y030576D01*
X019647Y030517D01*
X019764Y030517D01*
X019822Y030576D01*
X019764Y030868D02*
X019647Y030868D01*
X019589Y030809D01*
X019454Y030868D02*
X019454Y030634D01*
X019337Y030517D01*
X019221Y030634D01*
X019221Y030868D01*
X019086Y030751D02*
X018969Y030868D01*
X018969Y030517D01*
X019086Y030517D02*
X018852Y030517D01*
X016061Y030598D02*
X016061Y023512D01*
X027676Y023512D01*
X027675Y023512D02*
X027677Y023551D01*
X027683Y023589D01*
X027692Y023626D01*
X027705Y023663D01*
X027722Y023698D01*
X027741Y023731D01*
X027764Y023762D01*
X027790Y023791D01*
X027819Y023817D01*
X027850Y023840D01*
X027883Y023859D01*
X027918Y023876D01*
X027955Y023889D01*
X027992Y023898D01*
X028030Y023904D01*
X028069Y023906D01*
X028108Y023904D01*
X028146Y023898D01*
X028183Y023889D01*
X028220Y023876D01*
X028255Y023859D01*
X028288Y023840D01*
X028319Y023817D01*
X028348Y023791D01*
X028374Y023762D01*
X028397Y023731D01*
X028416Y023698D01*
X028433Y023663D01*
X028446Y023626D01*
X028455Y023589D01*
X028461Y023551D01*
X028463Y023512D01*
X029054Y023512D01*
X029054Y030598D01*
X028463Y030598D01*
X028461Y030559D01*
X028455Y030521D01*
X028446Y030484D01*
X028433Y030447D01*
X028416Y030412D01*
X028397Y030379D01*
X028374Y030348D01*
X028348Y030319D01*
X028319Y030293D01*
X028288Y030270D01*
X028255Y030251D01*
X028220Y030234D01*
X028183Y030221D01*
X028146Y030212D01*
X028108Y030206D01*
X028069Y030204D01*
X028030Y030206D01*
X027992Y030212D01*
X027955Y030221D01*
X027918Y030234D01*
X027883Y030251D01*
X027850Y030270D01*
X027819Y030293D01*
X027790Y030319D01*
X027764Y030348D01*
X027741Y030379D01*
X027722Y030412D01*
X027705Y030447D01*
X027692Y030484D01*
X027683Y030521D01*
X027677Y030559D01*
X027675Y030598D01*
X027676Y030598D02*
X016061Y030598D01*
X015215Y030655D02*
X015065Y030805D01*
X015065Y030355D01*
X015215Y030355D02*
X014915Y030355D01*
X016061Y023098D02*
X016061Y016012D01*
X027676Y016012D01*
X027675Y016012D02*
X027677Y016051D01*
X027683Y016089D01*
X027692Y016126D01*
X027705Y016163D01*
X027722Y016198D01*
X027741Y016231D01*
X027764Y016262D01*
X027790Y016291D01*
X027819Y016317D01*
X027850Y016340D01*
X027883Y016359D01*
X027918Y016376D01*
X027955Y016389D01*
X027992Y016398D01*
X028030Y016404D01*
X028069Y016406D01*
X028108Y016404D01*
X028146Y016398D01*
X028183Y016389D01*
X028220Y016376D01*
X028255Y016359D01*
X028288Y016340D01*
X028319Y016317D01*
X028348Y016291D01*
X028374Y016262D01*
X028397Y016231D01*
X028416Y016198D01*
X028433Y016163D01*
X028446Y016126D01*
X028455Y016089D01*
X028461Y016051D01*
X028463Y016012D01*
X029053Y016012D01*
X029053Y023098D01*
X028463Y023098D01*
X028461Y023059D01*
X028455Y023021D01*
X028446Y022984D01*
X028433Y022947D01*
X028416Y022912D01*
X028397Y022879D01*
X028374Y022848D01*
X028348Y022819D01*
X028319Y022793D01*
X028288Y022770D01*
X028255Y022751D01*
X028220Y022734D01*
X028183Y022721D01*
X028146Y022712D01*
X028108Y022706D01*
X028069Y022704D01*
X028030Y022706D01*
X027992Y022712D01*
X027955Y022721D01*
X027918Y022734D01*
X027883Y022751D01*
X027850Y022770D01*
X027819Y022793D01*
X027790Y022819D01*
X027764Y022848D01*
X027741Y022879D01*
X027722Y022912D01*
X027705Y022947D01*
X027692Y022984D01*
X027683Y023021D01*
X027677Y023059D01*
X027675Y023098D01*
X027676Y023098D02*
X016061Y023098D01*
X029205Y024076D02*
X029205Y024192D01*
X029263Y024251D01*
X029263Y024386D02*
X029322Y024386D01*
X029380Y024444D01*
X029380Y024561D01*
X029322Y024619D01*
X029263Y024619D01*
X029205Y024561D01*
X029205Y024444D01*
X029263Y024386D01*
X029380Y024444D02*
X029439Y024386D01*
X029497Y024386D01*
X029555Y024444D01*
X029555Y024561D01*
X029497Y024619D01*
X029439Y024619D01*
X029380Y024561D01*
X029497Y024251D02*
X029555Y024192D01*
X029555Y024076D01*
X029497Y024017D01*
X029263Y024017D01*
X029205Y024076D01*
X029497Y017057D02*
X029263Y016823D01*
X029205Y016823D01*
X029263Y016689D02*
X029205Y016630D01*
X029205Y016513D01*
X029263Y016455D01*
X029497Y016455D01*
X029555Y016513D01*
X029555Y016630D01*
X029497Y016689D01*
X029555Y016823D02*
X029555Y017057D01*
X029497Y017057D01*
X023247Y004863D02*
X023189Y004863D01*
X022955Y004629D01*
X022955Y004863D01*
X023247Y004863D02*
X023305Y004804D01*
X023305Y004687D01*
X023247Y004629D01*
X023305Y004378D02*
X022955Y004378D01*
X022955Y004494D02*
X022955Y004261D01*
X022955Y004126D02*
X023072Y004009D01*
X023072Y004068D02*
X023072Y003892D01*
X022955Y003892D02*
X023305Y003892D01*
X023305Y004068D01*
X023247Y004126D01*
X023130Y004126D01*
X023072Y004068D01*
X023189Y004261D02*
X023305Y004378D01*
X025268Y004386D02*
X025326Y004386D01*
X025559Y004619D01*
X025618Y004619D01*
X025618Y004386D01*
X025559Y004251D02*
X025443Y004251D01*
X025384Y004193D01*
X025384Y004017D01*
X025268Y004017D02*
X025618Y004017D01*
X025618Y004193D01*
X025559Y004251D01*
X025384Y004134D02*
X025268Y004251D01*
X025472Y001945D02*
X025238Y001712D01*
X025180Y001712D01*
X025180Y001577D02*
X025180Y001343D01*
X025180Y001460D02*
X025530Y001460D01*
X025414Y001343D01*
X025472Y001209D02*
X025355Y001209D01*
X025297Y001150D01*
X025297Y000975D01*
X025297Y001092D02*
X025180Y001209D01*
X025180Y000975D02*
X025530Y000975D01*
X025530Y001150D01*
X025472Y001209D01*
X025530Y001712D02*
X025530Y001945D01*
X025472Y001945D01*
X023343Y001887D02*
X023343Y001770D01*
X023284Y001712D01*
X023168Y001828D02*
X023168Y001887D01*
X023109Y001945D01*
X023051Y001945D01*
X022992Y001887D01*
X022992Y001770D01*
X023051Y001712D01*
X022992Y001577D02*
X022992Y001343D01*
X022992Y001460D02*
X023343Y001460D01*
X023226Y001343D01*
X023284Y001209D02*
X023168Y001209D01*
X023109Y001150D01*
X023109Y000975D01*
X022992Y000975D02*
X023343Y000975D01*
X023343Y001150D01*
X023284Y001209D01*
X023109Y001092D02*
X022992Y001209D01*
X023168Y001887D02*
X023226Y001945D01*
X023284Y001945D01*
X023343Y001887D01*
X019430Y002701D02*
X019372Y002642D01*
X019138Y002642D01*
X019080Y002701D01*
X019080Y002818D01*
X019138Y002876D01*
X019080Y003011D02*
X019080Y003244D01*
X019080Y003128D02*
X019430Y003128D01*
X019314Y003011D01*
X019372Y002876D02*
X019430Y002818D01*
X019430Y002701D01*
D12*
X028153Y017066D02*
X028153Y018214D01*
X028153Y020019D02*
X028153Y021166D01*
X028726Y020593D02*
X027579Y020593D01*
X028153Y024566D02*
X028153Y025714D01*
X028153Y027519D02*
X028153Y028666D01*
X028727Y028092D02*
X027579Y028092D01*
D13*
X029142Y028531D03*
X029142Y025578D03*
X029142Y021031D03*
X029142Y018079D03*
D14*
X022180Y030980D02*
X014680Y030980D01*
X014650Y030982D01*
X014620Y030987D01*
X014591Y030996D01*
X014564Y031009D01*
X014538Y031024D01*
X014514Y031043D01*
X014493Y031064D01*
X014474Y031088D01*
X014459Y031114D01*
X014446Y031141D01*
X014437Y031170D01*
X014432Y031200D01*
X014430Y031230D01*
X014430Y033130D01*
X014432Y033160D01*
X014437Y033190D01*
X014446Y033219D01*
X014459Y033246D01*
X014474Y033272D01*
X014493Y033296D01*
X014514Y033317D01*
X014538Y033336D01*
X014564Y033351D01*
X014591Y033364D01*
X014620Y033373D01*
X014650Y033378D01*
X014680Y033380D01*
X022180Y033380D01*
X022210Y033378D01*
X022240Y033373D01*
X022269Y033364D01*
X022296Y033351D01*
X022322Y033336D01*
X022346Y033317D01*
X022367Y033296D01*
X022386Y033272D01*
X022401Y033246D01*
X022414Y033219D01*
X022423Y033190D01*
X022428Y033160D01*
X022430Y033130D01*
X022430Y031230D01*
X022428Y031200D01*
X022423Y031170D01*
X022414Y031141D01*
X022401Y031114D01*
X022386Y031088D01*
X022367Y031064D01*
X022346Y031043D01*
X022322Y031024D01*
X022296Y031009D01*
X022269Y030996D01*
X022240Y030987D01*
X022210Y030982D01*
X022180Y030980D01*
D15*
X023569Y004564D02*
X023569Y004171D01*
X024041Y004171D02*
X024041Y004564D01*
X024569Y004564D02*
X024569Y004171D01*
X025041Y004171D02*
X025041Y004564D01*
X025041Y001814D02*
X025041Y001421D01*
X024569Y001421D02*
X024569Y001814D01*
X024041Y001814D02*
X024041Y001421D01*
X023569Y001421D02*
X023569Y001814D01*
X020104Y002835D02*
X020104Y003150D01*
X019631Y003150D02*
X019631Y002835D01*
M02*
