G75*
G70*
%OFA0B0*%
%FSLAX24Y24*%
%IPPOS*%
%LPD*%
%AMOC8*
5,1,8,0,0,1.08239X$1,22.5*
%
%ADD10C,0.0000*%
%ADD11R,0.2000X0.1625*%
%ADD12R,0.1938X0.2250*%
%ADD13C,0.1772*%
%ADD14C,0.1378*%
%ADD15R,0.1118X0.1118*%
%ADD16C,0.1118*%
%ADD17C,0.2559*%
%ADD18OC8,0.2087*%
%ADD19OC8,0.0658*%
%ADD20C,0.0718*%
%ADD21R,0.0630X0.0394*%
%ADD22R,0.0630X0.0472*%
%ADD23C,0.0718*%
%ADD24C,0.0943*%
D10*
X000233Y000233D02*
X000233Y036060D01*
X005154Y036060D01*
X005154Y035076D01*
X005156Y034999D01*
X005162Y034922D01*
X005171Y034845D01*
X005184Y034769D01*
X005201Y034693D01*
X005222Y034619D01*
X005246Y034545D01*
X005274Y034473D01*
X005305Y034403D01*
X005340Y034334D01*
X005378Y034266D01*
X005419Y034201D01*
X005464Y034138D01*
X005512Y034077D01*
X005562Y034018D01*
X005615Y033962D01*
X005671Y033909D01*
X005730Y033859D01*
X005791Y033811D01*
X005854Y033766D01*
X005919Y033725D01*
X005987Y033687D01*
X006056Y033652D01*
X006126Y033621D01*
X006198Y033593D01*
X006272Y033569D01*
X006346Y033548D01*
X006422Y033531D01*
X006498Y033518D01*
X006575Y033509D01*
X006652Y033503D01*
X006729Y033501D01*
X006806Y033503D01*
X006883Y033509D01*
X006960Y033518D01*
X007036Y033531D01*
X007112Y033548D01*
X007186Y033569D01*
X007260Y033593D01*
X007332Y033621D01*
X007402Y033652D01*
X007471Y033687D01*
X007539Y033725D01*
X007604Y033766D01*
X007667Y033811D01*
X007728Y033859D01*
X007787Y033909D01*
X007843Y033962D01*
X007896Y034018D01*
X007946Y034077D01*
X007994Y034138D01*
X008039Y034201D01*
X008080Y034266D01*
X008118Y034334D01*
X008153Y034403D01*
X008184Y034473D01*
X008212Y034545D01*
X008236Y034619D01*
X008257Y034693D01*
X008274Y034769D01*
X008287Y034845D01*
X008296Y034922D01*
X008302Y034999D01*
X008304Y035076D01*
X008304Y036060D01*
X036060Y036060D01*
X036060Y000233D01*
X000233Y000233D01*
X012322Y013305D02*
X012324Y013362D01*
X012330Y013419D01*
X012340Y013475D01*
X012353Y013531D01*
X012371Y013585D01*
X012392Y013638D01*
X012417Y013689D01*
X012445Y013739D01*
X012477Y013786D01*
X012511Y013832D01*
X012549Y013874D01*
X012590Y013914D01*
X012633Y013952D01*
X012679Y013986D01*
X012727Y014016D01*
X012777Y014044D01*
X012829Y014068D01*
X012883Y014088D01*
X012937Y014104D01*
X012993Y014117D01*
X013049Y014126D01*
X013106Y014131D01*
X013163Y014132D01*
X013220Y014129D01*
X013277Y014122D01*
X013333Y014111D01*
X013388Y014097D01*
X013442Y014078D01*
X013495Y014056D01*
X013546Y014031D01*
X013595Y014001D01*
X013642Y013969D01*
X013687Y013933D01*
X013729Y013895D01*
X013768Y013853D01*
X013804Y013809D01*
X013838Y013763D01*
X013868Y013714D01*
X013894Y013664D01*
X013917Y013612D01*
X013936Y013558D01*
X013952Y013503D01*
X013964Y013447D01*
X013972Y013390D01*
X013976Y013334D01*
X013976Y013276D01*
X013972Y013220D01*
X013964Y013163D01*
X013952Y013107D01*
X013936Y013052D01*
X013917Y012998D01*
X013894Y012946D01*
X013868Y012896D01*
X013838Y012847D01*
X013804Y012801D01*
X013768Y012757D01*
X013729Y012715D01*
X013687Y012677D01*
X013642Y012641D01*
X013595Y012609D01*
X013546Y012579D01*
X013495Y012554D01*
X013442Y012532D01*
X013388Y012513D01*
X013333Y012499D01*
X013277Y012488D01*
X013220Y012481D01*
X013163Y012478D01*
X013106Y012479D01*
X013049Y012484D01*
X012993Y012493D01*
X012937Y012506D01*
X012883Y012522D01*
X012829Y012542D01*
X012777Y012566D01*
X012727Y012594D01*
X012679Y012624D01*
X012633Y012658D01*
X012590Y012696D01*
X012549Y012736D01*
X012511Y012778D01*
X012477Y012824D01*
X012445Y012871D01*
X012417Y012921D01*
X012392Y012972D01*
X012371Y013025D01*
X012353Y013079D01*
X012340Y013135D01*
X012330Y013191D01*
X012324Y013248D01*
X012322Y013305D01*
X013728Y015024D02*
X013730Y015081D01*
X013736Y015138D01*
X013746Y015194D01*
X013759Y015250D01*
X013777Y015304D01*
X013798Y015357D01*
X013823Y015408D01*
X013851Y015458D01*
X013883Y015505D01*
X013917Y015551D01*
X013955Y015593D01*
X013996Y015633D01*
X014039Y015671D01*
X014085Y015705D01*
X014133Y015735D01*
X014183Y015763D01*
X014235Y015787D01*
X014289Y015807D01*
X014343Y015823D01*
X014399Y015836D01*
X014455Y015845D01*
X014512Y015850D01*
X014569Y015851D01*
X014626Y015848D01*
X014683Y015841D01*
X014739Y015830D01*
X014794Y015816D01*
X014848Y015797D01*
X014901Y015775D01*
X014952Y015750D01*
X015001Y015720D01*
X015048Y015688D01*
X015093Y015652D01*
X015135Y015614D01*
X015174Y015572D01*
X015210Y015528D01*
X015244Y015482D01*
X015274Y015433D01*
X015300Y015383D01*
X015323Y015331D01*
X015342Y015277D01*
X015358Y015222D01*
X015370Y015166D01*
X015378Y015109D01*
X015382Y015053D01*
X015382Y014995D01*
X015378Y014939D01*
X015370Y014882D01*
X015358Y014826D01*
X015342Y014771D01*
X015323Y014717D01*
X015300Y014665D01*
X015274Y014615D01*
X015244Y014566D01*
X015210Y014520D01*
X015174Y014476D01*
X015135Y014434D01*
X015093Y014396D01*
X015048Y014360D01*
X015001Y014328D01*
X014952Y014298D01*
X014901Y014273D01*
X014848Y014251D01*
X014794Y014232D01*
X014739Y014218D01*
X014683Y014207D01*
X014626Y014200D01*
X014569Y014197D01*
X014512Y014198D01*
X014455Y014203D01*
X014399Y014212D01*
X014343Y014225D01*
X014289Y014241D01*
X014235Y014261D01*
X014183Y014285D01*
X014133Y014313D01*
X014085Y014343D01*
X014039Y014377D01*
X013996Y014415D01*
X013955Y014455D01*
X013917Y014497D01*
X013883Y014543D01*
X013851Y014590D01*
X013823Y014640D01*
X013798Y014691D01*
X013777Y014744D01*
X013759Y014798D01*
X013746Y014854D01*
X013736Y014910D01*
X013730Y014967D01*
X013728Y015024D01*
X023050Y015868D02*
X023052Y015918D01*
X023058Y015968D01*
X023068Y016017D01*
X023082Y016065D01*
X023099Y016112D01*
X023120Y016157D01*
X023145Y016201D01*
X023173Y016242D01*
X023205Y016281D01*
X023239Y016318D01*
X023276Y016352D01*
X023316Y016382D01*
X023358Y016409D01*
X023402Y016433D01*
X023448Y016454D01*
X023495Y016470D01*
X023543Y016483D01*
X023593Y016492D01*
X023642Y016497D01*
X023693Y016498D01*
X023743Y016495D01*
X023792Y016488D01*
X023841Y016477D01*
X023889Y016462D01*
X023935Y016444D01*
X023980Y016422D01*
X024023Y016396D01*
X024064Y016367D01*
X024103Y016335D01*
X024139Y016300D01*
X024171Y016262D01*
X024201Y016222D01*
X024228Y016179D01*
X024251Y016135D01*
X024270Y016089D01*
X024286Y016041D01*
X024298Y015992D01*
X024306Y015943D01*
X024310Y015893D01*
X024310Y015843D01*
X024306Y015793D01*
X024298Y015744D01*
X024286Y015695D01*
X024270Y015647D01*
X024251Y015601D01*
X024228Y015557D01*
X024201Y015514D01*
X024171Y015474D01*
X024139Y015436D01*
X024103Y015401D01*
X024064Y015369D01*
X024023Y015340D01*
X023980Y015314D01*
X023935Y015292D01*
X023889Y015274D01*
X023841Y015259D01*
X023792Y015248D01*
X023743Y015241D01*
X023693Y015238D01*
X023642Y015239D01*
X023593Y015244D01*
X023543Y015253D01*
X023495Y015266D01*
X023448Y015282D01*
X023402Y015303D01*
X023358Y015327D01*
X023316Y015354D01*
X023276Y015384D01*
X023239Y015418D01*
X023205Y015455D01*
X023173Y015494D01*
X023145Y015535D01*
X023120Y015579D01*
X023099Y015624D01*
X023082Y015671D01*
X023068Y015719D01*
X023058Y015768D01*
X023052Y015818D01*
X023050Y015868D01*
X023050Y023305D02*
X023052Y023355D01*
X023058Y023405D01*
X023068Y023454D01*
X023082Y023502D01*
X023099Y023549D01*
X023120Y023594D01*
X023145Y023638D01*
X023173Y023679D01*
X023205Y023718D01*
X023239Y023755D01*
X023276Y023789D01*
X023316Y023819D01*
X023358Y023846D01*
X023402Y023870D01*
X023448Y023891D01*
X023495Y023907D01*
X023543Y023920D01*
X023593Y023929D01*
X023642Y023934D01*
X023693Y023935D01*
X023743Y023932D01*
X023792Y023925D01*
X023841Y023914D01*
X023889Y023899D01*
X023935Y023881D01*
X023980Y023859D01*
X024023Y023833D01*
X024064Y023804D01*
X024103Y023772D01*
X024139Y023737D01*
X024171Y023699D01*
X024201Y023659D01*
X024228Y023616D01*
X024251Y023572D01*
X024270Y023526D01*
X024286Y023478D01*
X024298Y023429D01*
X024306Y023380D01*
X024310Y023330D01*
X024310Y023280D01*
X024306Y023230D01*
X024298Y023181D01*
X024286Y023132D01*
X024270Y023084D01*
X024251Y023038D01*
X024228Y022994D01*
X024201Y022951D01*
X024171Y022911D01*
X024139Y022873D01*
X024103Y022838D01*
X024064Y022806D01*
X024023Y022777D01*
X023980Y022751D01*
X023935Y022729D01*
X023889Y022711D01*
X023841Y022696D01*
X023792Y022685D01*
X023743Y022678D01*
X023693Y022675D01*
X023642Y022676D01*
X023593Y022681D01*
X023543Y022690D01*
X023495Y022703D01*
X023448Y022719D01*
X023402Y022740D01*
X023358Y022764D01*
X023316Y022791D01*
X023276Y022821D01*
X023239Y022855D01*
X023205Y022892D01*
X023173Y022931D01*
X023145Y022972D01*
X023120Y023016D01*
X023099Y023061D01*
X023082Y023108D01*
X023068Y023156D01*
X023058Y023205D01*
X023052Y023255D01*
X023050Y023305D01*
X023050Y030742D02*
X023052Y030792D01*
X023058Y030842D01*
X023068Y030891D01*
X023082Y030939D01*
X023099Y030986D01*
X023120Y031031D01*
X023145Y031075D01*
X023173Y031116D01*
X023205Y031155D01*
X023239Y031192D01*
X023276Y031226D01*
X023316Y031256D01*
X023358Y031283D01*
X023402Y031307D01*
X023448Y031328D01*
X023495Y031344D01*
X023543Y031357D01*
X023593Y031366D01*
X023642Y031371D01*
X023693Y031372D01*
X023743Y031369D01*
X023792Y031362D01*
X023841Y031351D01*
X023889Y031336D01*
X023935Y031318D01*
X023980Y031296D01*
X024023Y031270D01*
X024064Y031241D01*
X024103Y031209D01*
X024139Y031174D01*
X024171Y031136D01*
X024201Y031096D01*
X024228Y031053D01*
X024251Y031009D01*
X024270Y030963D01*
X024286Y030915D01*
X024298Y030866D01*
X024306Y030817D01*
X024310Y030767D01*
X024310Y030717D01*
X024306Y030667D01*
X024298Y030618D01*
X024286Y030569D01*
X024270Y030521D01*
X024251Y030475D01*
X024228Y030431D01*
X024201Y030388D01*
X024171Y030348D01*
X024139Y030310D01*
X024103Y030275D01*
X024064Y030243D01*
X024023Y030214D01*
X023980Y030188D01*
X023935Y030166D01*
X023889Y030148D01*
X023841Y030133D01*
X023792Y030122D01*
X023743Y030115D01*
X023693Y030112D01*
X023642Y030113D01*
X023593Y030118D01*
X023543Y030127D01*
X023495Y030140D01*
X023448Y030156D01*
X023402Y030177D01*
X023358Y030201D01*
X023316Y030228D01*
X023276Y030258D01*
X023239Y030292D01*
X023205Y030329D01*
X023173Y030368D01*
X023145Y030409D01*
X023120Y030453D01*
X023099Y030498D01*
X023082Y030545D01*
X023068Y030593D01*
X023058Y030642D01*
X023052Y030692D01*
X023050Y030742D01*
D11*
X011055Y027367D03*
D12*
X005524Y015180D03*
D13*
X013149Y013305D03*
X014555Y015024D03*
D14*
X023680Y015868D03*
X023680Y023305D03*
X023680Y030742D03*
D15*
X029743Y025578D03*
X029742Y018079D03*
D16*
X029742Y021031D03*
X029743Y028531D03*
D17*
X034288Y034288D03*
X002005Y034288D03*
X002005Y002005D03*
X034288Y002005D03*
D18*
X034618Y012617D03*
X034618Y015930D03*
X034618Y019242D03*
X034618Y022555D03*
D19*
X028430Y012055D03*
X027430Y012055D03*
X027430Y011055D03*
X028430Y011055D03*
X028430Y010055D03*
X027430Y010055D03*
X027805Y003492D03*
X027805Y002492D03*
X026805Y002492D03*
X025805Y002492D03*
X024805Y002492D03*
X023805Y002492D03*
X022805Y002492D03*
X021805Y002492D03*
X020805Y002492D03*
X020805Y003492D03*
X021805Y003492D03*
X022805Y003492D03*
X023805Y003492D03*
X024805Y003492D03*
X025805Y003492D03*
X026805Y003492D03*
X021930Y031680D03*
X021930Y032680D03*
X020930Y032680D03*
X019930Y032680D03*
X018930Y032680D03*
X017930Y032680D03*
X016930Y032680D03*
X015930Y032680D03*
X014930Y032680D03*
X014930Y031680D03*
X015930Y031680D03*
X016930Y031680D03*
X017930Y031680D03*
X018930Y031680D03*
X019930Y031680D03*
X020930Y031680D03*
D20*
X012230Y019742D02*
X011630Y019742D01*
X011630Y018742D02*
X012230Y018742D01*
X012230Y017742D02*
X011630Y017742D01*
X011630Y016742D02*
X012230Y016742D01*
X007180Y029755D02*
X007180Y030355D01*
X006180Y030355D02*
X006180Y029755D01*
D21*
X023805Y004741D03*
X023805Y003993D03*
X024805Y003993D03*
X024805Y004741D03*
X024805Y001991D03*
X024805Y001243D03*
X023805Y001243D03*
X023805Y001991D03*
D22*
X019868Y002618D03*
X019868Y003366D03*
D23*
X019868Y013555D03*
X018868Y013555D03*
X020868Y013555D03*
X021868Y013555D03*
X022868Y013555D03*
X023868Y013555D03*
D24*
X031118Y014955D02*
X031118Y015780D01*
X031118Y016080D02*
X031118Y016905D01*
X032555Y018267D02*
X032555Y019092D01*
X032555Y019392D02*
X032555Y020217D01*
X031118Y022080D02*
X031118Y022905D01*
X032555Y025392D02*
X032555Y026217D01*
X032555Y013092D02*
X032555Y012267D01*
X031118Y009780D02*
X031118Y008955D01*
M02*
