G75*
G70*
%OFA0B0*%
%FSLAX24Y24*%
%IPPOS*%
%LPD*%
%AMOC8*
5,1,8,0,0,1.08239X$1,22.5*
%
%ADD10C,0.0000*%
%ADD11C,0.0130*%
%ADD12R,0.1000X0.1000*%
%ADD13C,0.1000*%
%ADD14R,0.0197X0.0866*%
%ADD15R,0.1220X0.0945*%
%ADD16R,0.2126X0.1575*%
%ADD17R,0.0630X0.0354*%
%ADD18R,0.0512X0.0276*%
%ADD19R,0.0354X0.0984*%
%ADD20R,0.0984X0.0787*%
%ADD21R,0.0354X0.0512*%
%ADD22R,0.1575X0.0591*%
%ADD23R,0.0984X0.0354*%
%ADD24R,0.0512X0.0354*%
%ADD25C,0.2441*%
%ADD26R,0.0394X0.0551*%
%ADD27R,0.0709X0.0787*%
%ADD28R,0.1024X0.0709*%
%ADD29OC8,0.1969*%
%ADD30OC8,0.0540*%
%ADD31R,0.0276X0.0512*%
%ADD32R,0.0591X0.0787*%
%ADD33R,0.0787X0.0591*%
%ADD34C,0.0600*%
%ADD35R,0.1181X0.0630*%
%ADD36R,0.2441X0.2283*%
%ADD37R,0.0500X0.0220*%
%ADD38R,0.0220X0.0500*%
%ADD39C,0.0600*%
%ADD40R,0.0669X0.0276*%
%ADD41C,0.0825*%
%ADD42C,0.0240*%
%ADD43C,0.0394*%
%ADD44C,0.0354*%
%ADD45C,0.0160*%
%ADD46C,0.0500*%
%ADD47C,0.0400*%
%ADD48C,0.0320*%
%ADD49C,0.0400*%
D10*
X000233Y000233D02*
X000233Y036060D01*
X005154Y036060D01*
X005154Y035076D01*
X005156Y034999D01*
X005162Y034922D01*
X005171Y034845D01*
X005184Y034769D01*
X005201Y034693D01*
X005222Y034619D01*
X005246Y034545D01*
X005274Y034473D01*
X005305Y034403D01*
X005340Y034334D01*
X005378Y034266D01*
X005419Y034201D01*
X005464Y034138D01*
X005512Y034077D01*
X005562Y034018D01*
X005615Y033962D01*
X005671Y033909D01*
X005730Y033859D01*
X005791Y033811D01*
X005854Y033766D01*
X005919Y033725D01*
X005987Y033687D01*
X006056Y033652D01*
X006126Y033621D01*
X006198Y033593D01*
X006272Y033569D01*
X006346Y033548D01*
X006422Y033531D01*
X006498Y033518D01*
X006575Y033509D01*
X006652Y033503D01*
X006729Y033501D01*
X006806Y033503D01*
X006883Y033509D01*
X006960Y033518D01*
X007036Y033531D01*
X007112Y033548D01*
X007186Y033569D01*
X007260Y033593D01*
X007332Y033621D01*
X007402Y033652D01*
X007471Y033687D01*
X007539Y033725D01*
X007604Y033766D01*
X007667Y033811D01*
X007728Y033859D01*
X007787Y033909D01*
X007843Y033962D01*
X007896Y034018D01*
X007946Y034077D01*
X007994Y034138D01*
X008039Y034201D01*
X008080Y034266D01*
X008118Y034334D01*
X008153Y034403D01*
X008184Y034473D01*
X008212Y034545D01*
X008236Y034619D01*
X008257Y034693D01*
X008274Y034769D01*
X008287Y034845D01*
X008296Y034922D01*
X008302Y034999D01*
X008304Y035076D01*
X008304Y036060D01*
X036060Y036060D01*
X036060Y000233D01*
X000233Y000233D01*
X012322Y013305D02*
X012324Y013362D01*
X012330Y013419D01*
X012340Y013475D01*
X012353Y013531D01*
X012371Y013585D01*
X012392Y013638D01*
X012417Y013689D01*
X012445Y013739D01*
X012477Y013786D01*
X012511Y013832D01*
X012549Y013874D01*
X012590Y013914D01*
X012633Y013952D01*
X012679Y013986D01*
X012727Y014016D01*
X012777Y014044D01*
X012829Y014068D01*
X012883Y014088D01*
X012937Y014104D01*
X012993Y014117D01*
X013049Y014126D01*
X013106Y014131D01*
X013163Y014132D01*
X013220Y014129D01*
X013277Y014122D01*
X013333Y014111D01*
X013388Y014097D01*
X013442Y014078D01*
X013495Y014056D01*
X013546Y014031D01*
X013595Y014001D01*
X013642Y013969D01*
X013687Y013933D01*
X013729Y013895D01*
X013768Y013853D01*
X013804Y013809D01*
X013838Y013763D01*
X013868Y013714D01*
X013894Y013664D01*
X013917Y013612D01*
X013936Y013558D01*
X013952Y013503D01*
X013964Y013447D01*
X013972Y013390D01*
X013976Y013334D01*
X013976Y013276D01*
X013972Y013220D01*
X013964Y013163D01*
X013952Y013107D01*
X013936Y013052D01*
X013917Y012998D01*
X013894Y012946D01*
X013868Y012896D01*
X013838Y012847D01*
X013804Y012801D01*
X013768Y012757D01*
X013729Y012715D01*
X013687Y012677D01*
X013642Y012641D01*
X013595Y012609D01*
X013546Y012579D01*
X013495Y012554D01*
X013442Y012532D01*
X013388Y012513D01*
X013333Y012499D01*
X013277Y012488D01*
X013220Y012481D01*
X013163Y012478D01*
X013106Y012479D01*
X013049Y012484D01*
X012993Y012493D01*
X012937Y012506D01*
X012883Y012522D01*
X012829Y012542D01*
X012777Y012566D01*
X012727Y012594D01*
X012679Y012624D01*
X012633Y012658D01*
X012590Y012696D01*
X012549Y012736D01*
X012511Y012778D01*
X012477Y012824D01*
X012445Y012871D01*
X012417Y012921D01*
X012392Y012972D01*
X012371Y013025D01*
X012353Y013079D01*
X012340Y013135D01*
X012330Y013191D01*
X012324Y013248D01*
X012322Y013305D01*
X013728Y015024D02*
X013730Y015081D01*
X013736Y015138D01*
X013746Y015194D01*
X013759Y015250D01*
X013777Y015304D01*
X013798Y015357D01*
X013823Y015408D01*
X013851Y015458D01*
X013883Y015505D01*
X013917Y015551D01*
X013955Y015593D01*
X013996Y015633D01*
X014039Y015671D01*
X014085Y015705D01*
X014133Y015735D01*
X014183Y015763D01*
X014235Y015787D01*
X014289Y015807D01*
X014343Y015823D01*
X014399Y015836D01*
X014455Y015845D01*
X014512Y015850D01*
X014569Y015851D01*
X014626Y015848D01*
X014683Y015841D01*
X014739Y015830D01*
X014794Y015816D01*
X014848Y015797D01*
X014901Y015775D01*
X014952Y015750D01*
X015001Y015720D01*
X015048Y015688D01*
X015093Y015652D01*
X015135Y015614D01*
X015174Y015572D01*
X015210Y015528D01*
X015244Y015482D01*
X015274Y015433D01*
X015300Y015383D01*
X015323Y015331D01*
X015342Y015277D01*
X015358Y015222D01*
X015370Y015166D01*
X015378Y015109D01*
X015382Y015053D01*
X015382Y014995D01*
X015378Y014939D01*
X015370Y014882D01*
X015358Y014826D01*
X015342Y014771D01*
X015323Y014717D01*
X015300Y014665D01*
X015274Y014615D01*
X015244Y014566D01*
X015210Y014520D01*
X015174Y014476D01*
X015135Y014434D01*
X015093Y014396D01*
X015048Y014360D01*
X015001Y014328D01*
X014952Y014298D01*
X014901Y014273D01*
X014848Y014251D01*
X014794Y014232D01*
X014739Y014218D01*
X014683Y014207D01*
X014626Y014200D01*
X014569Y014197D01*
X014512Y014198D01*
X014455Y014203D01*
X014399Y014212D01*
X014343Y014225D01*
X014289Y014241D01*
X014235Y014261D01*
X014183Y014285D01*
X014133Y014313D01*
X014085Y014343D01*
X014039Y014377D01*
X013996Y014415D01*
X013955Y014455D01*
X013917Y014497D01*
X013883Y014543D01*
X013851Y014590D01*
X013823Y014640D01*
X013798Y014691D01*
X013777Y014744D01*
X013759Y014798D01*
X013746Y014854D01*
X013736Y014910D01*
X013730Y014967D01*
X013728Y015024D01*
X023050Y015868D02*
X023052Y015918D01*
X023058Y015968D01*
X023068Y016017D01*
X023082Y016065D01*
X023099Y016112D01*
X023120Y016157D01*
X023145Y016201D01*
X023173Y016242D01*
X023205Y016281D01*
X023239Y016318D01*
X023276Y016352D01*
X023316Y016382D01*
X023358Y016409D01*
X023402Y016433D01*
X023448Y016454D01*
X023495Y016470D01*
X023543Y016483D01*
X023593Y016492D01*
X023642Y016497D01*
X023693Y016498D01*
X023743Y016495D01*
X023792Y016488D01*
X023841Y016477D01*
X023889Y016462D01*
X023935Y016444D01*
X023980Y016422D01*
X024023Y016396D01*
X024064Y016367D01*
X024103Y016335D01*
X024139Y016300D01*
X024171Y016262D01*
X024201Y016222D01*
X024228Y016179D01*
X024251Y016135D01*
X024270Y016089D01*
X024286Y016041D01*
X024298Y015992D01*
X024306Y015943D01*
X024310Y015893D01*
X024310Y015843D01*
X024306Y015793D01*
X024298Y015744D01*
X024286Y015695D01*
X024270Y015647D01*
X024251Y015601D01*
X024228Y015557D01*
X024201Y015514D01*
X024171Y015474D01*
X024139Y015436D01*
X024103Y015401D01*
X024064Y015369D01*
X024023Y015340D01*
X023980Y015314D01*
X023935Y015292D01*
X023889Y015274D01*
X023841Y015259D01*
X023792Y015248D01*
X023743Y015241D01*
X023693Y015238D01*
X023642Y015239D01*
X023593Y015244D01*
X023543Y015253D01*
X023495Y015266D01*
X023448Y015282D01*
X023402Y015303D01*
X023358Y015327D01*
X023316Y015354D01*
X023276Y015384D01*
X023239Y015418D01*
X023205Y015455D01*
X023173Y015494D01*
X023145Y015535D01*
X023120Y015579D01*
X023099Y015624D01*
X023082Y015671D01*
X023068Y015719D01*
X023058Y015768D01*
X023052Y015818D01*
X023050Y015868D01*
X023050Y023305D02*
X023052Y023355D01*
X023058Y023405D01*
X023068Y023454D01*
X023082Y023502D01*
X023099Y023549D01*
X023120Y023594D01*
X023145Y023638D01*
X023173Y023679D01*
X023205Y023718D01*
X023239Y023755D01*
X023276Y023789D01*
X023316Y023819D01*
X023358Y023846D01*
X023402Y023870D01*
X023448Y023891D01*
X023495Y023907D01*
X023543Y023920D01*
X023593Y023929D01*
X023642Y023934D01*
X023693Y023935D01*
X023743Y023932D01*
X023792Y023925D01*
X023841Y023914D01*
X023889Y023899D01*
X023935Y023881D01*
X023980Y023859D01*
X024023Y023833D01*
X024064Y023804D01*
X024103Y023772D01*
X024139Y023737D01*
X024171Y023699D01*
X024201Y023659D01*
X024228Y023616D01*
X024251Y023572D01*
X024270Y023526D01*
X024286Y023478D01*
X024298Y023429D01*
X024306Y023380D01*
X024310Y023330D01*
X024310Y023280D01*
X024306Y023230D01*
X024298Y023181D01*
X024286Y023132D01*
X024270Y023084D01*
X024251Y023038D01*
X024228Y022994D01*
X024201Y022951D01*
X024171Y022911D01*
X024139Y022873D01*
X024103Y022838D01*
X024064Y022806D01*
X024023Y022777D01*
X023980Y022751D01*
X023935Y022729D01*
X023889Y022711D01*
X023841Y022696D01*
X023792Y022685D01*
X023743Y022678D01*
X023693Y022675D01*
X023642Y022676D01*
X023593Y022681D01*
X023543Y022690D01*
X023495Y022703D01*
X023448Y022719D01*
X023402Y022740D01*
X023358Y022764D01*
X023316Y022791D01*
X023276Y022821D01*
X023239Y022855D01*
X023205Y022892D01*
X023173Y022931D01*
X023145Y022972D01*
X023120Y023016D01*
X023099Y023061D01*
X023082Y023108D01*
X023068Y023156D01*
X023058Y023205D01*
X023052Y023255D01*
X023050Y023305D01*
X023050Y030742D02*
X023052Y030792D01*
X023058Y030842D01*
X023068Y030891D01*
X023082Y030939D01*
X023099Y030986D01*
X023120Y031031D01*
X023145Y031075D01*
X023173Y031116D01*
X023205Y031155D01*
X023239Y031192D01*
X023276Y031226D01*
X023316Y031256D01*
X023358Y031283D01*
X023402Y031307D01*
X023448Y031328D01*
X023495Y031344D01*
X023543Y031357D01*
X023593Y031366D01*
X023642Y031371D01*
X023693Y031372D01*
X023743Y031369D01*
X023792Y031362D01*
X023841Y031351D01*
X023889Y031336D01*
X023935Y031318D01*
X023980Y031296D01*
X024023Y031270D01*
X024064Y031241D01*
X024103Y031209D01*
X024139Y031174D01*
X024171Y031136D01*
X024201Y031096D01*
X024228Y031053D01*
X024251Y031009D01*
X024270Y030963D01*
X024286Y030915D01*
X024298Y030866D01*
X024306Y030817D01*
X024310Y030767D01*
X024310Y030717D01*
X024306Y030667D01*
X024298Y030618D01*
X024286Y030569D01*
X024270Y030521D01*
X024251Y030475D01*
X024228Y030431D01*
X024201Y030388D01*
X024171Y030348D01*
X024139Y030310D01*
X024103Y030275D01*
X024064Y030243D01*
X024023Y030214D01*
X023980Y030188D01*
X023935Y030166D01*
X023889Y030148D01*
X023841Y030133D01*
X023792Y030122D01*
X023743Y030115D01*
X023693Y030112D01*
X023642Y030113D01*
X023593Y030118D01*
X023543Y030127D01*
X023495Y030140D01*
X023448Y030156D01*
X023402Y030177D01*
X023358Y030201D01*
X023316Y030228D01*
X023276Y030258D01*
X023239Y030292D01*
X023205Y030329D01*
X023173Y030368D01*
X023145Y030409D01*
X023120Y030453D01*
X023099Y030498D01*
X023082Y030545D01*
X023068Y030593D01*
X023058Y030642D01*
X023052Y030692D01*
X023050Y030742D01*
D11*
X004395Y002602D02*
X004205Y002602D01*
X004110Y002507D01*
X004110Y002222D01*
X004680Y002222D01*
X004490Y002222D02*
X004490Y002507D01*
X004395Y002602D01*
X004395Y001957D02*
X004205Y001957D01*
X004110Y001862D01*
X004110Y001672D01*
X004205Y001577D01*
X004395Y001577D01*
X004490Y001672D01*
X004490Y001862D01*
X004395Y001957D01*
X003920Y001313D02*
X003920Y000932D01*
X003920Y001123D02*
X004490Y001123D01*
D12*
X029742Y018079D03*
X029743Y025578D03*
D13*
X029743Y028531D03*
X029742Y021031D03*
D14*
X011805Y026226D03*
X011305Y026226D03*
X010805Y026226D03*
X010305Y026226D03*
X010305Y028509D03*
X010805Y028509D03*
X011305Y028509D03*
X011805Y028509D03*
D15*
X011055Y027367D03*
D16*
X004055Y028118D03*
X004055Y023866D03*
D17*
X009305Y027007D03*
X009305Y028228D03*
X030493Y003728D03*
X030493Y002507D03*
D18*
X021555Y011118D03*
X021555Y011866D03*
X021868Y015618D03*
X021868Y016366D03*
X017805Y016366D03*
X017805Y015618D03*
X018805Y007773D03*
X018805Y007025D03*
X018243Y004616D03*
X017555Y004616D03*
X017555Y003868D03*
X018243Y003868D03*
X011680Y005493D03*
X011680Y006241D03*
X012680Y025493D03*
X012680Y026241D03*
X012680Y026868D03*
X012680Y027616D03*
D19*
X011790Y030742D03*
X010570Y030742D03*
D20*
X007805Y028444D03*
X007805Y026791D03*
D21*
X010806Y029617D03*
X011554Y029617D03*
X018868Y012492D03*
X019617Y012492D03*
X016929Y011680D03*
X016181Y011680D03*
X017806Y008992D03*
X018554Y008992D03*
X024056Y008180D03*
X024804Y008180D03*
X024804Y007367D03*
X024056Y007367D03*
X024056Y006555D03*
X024804Y006555D03*
D22*
X011899Y023180D03*
X007961Y023180D03*
D23*
X010493Y016728D03*
X010493Y015507D03*
X010492Y014853D03*
X010492Y013632D03*
D24*
X009493Y014118D03*
X009493Y014866D03*
X009493Y015493D03*
X009493Y016241D03*
X022430Y011866D03*
X022430Y011118D03*
X023305Y011118D03*
X023305Y011866D03*
X024243Y011866D03*
X024243Y011118D03*
D25*
X034288Y002005D03*
X002005Y002005D03*
X002005Y034288D03*
X034288Y034288D03*
D26*
X018242Y003238D03*
X017493Y003238D03*
X017868Y002372D03*
D27*
X013872Y006916D03*
X012613Y006916D03*
X011685Y006916D03*
X010425Y006916D03*
X030738Y007132D03*
X031997Y007132D03*
D28*
X031368Y005360D03*
X013243Y008687D03*
X011055Y008687D03*
D29*
X034618Y012617D03*
X034618Y015930D03*
X034618Y019242D03*
X034618Y022555D03*
D30*
X028430Y012055D03*
X027430Y012055D03*
X027430Y011055D03*
X028430Y011055D03*
X028430Y010055D03*
X027430Y010055D03*
X027805Y003492D03*
X027805Y002492D03*
X026805Y002492D03*
X025805Y002492D03*
X024805Y002492D03*
X023805Y002492D03*
X022805Y002492D03*
X021805Y002492D03*
X020805Y002492D03*
X020805Y003492D03*
X021805Y003492D03*
X022805Y003492D03*
X023805Y003492D03*
X024805Y003492D03*
X025805Y003492D03*
X026805Y003492D03*
X021930Y031680D03*
X021930Y032680D03*
X020930Y032680D03*
X019930Y032680D03*
X018930Y032680D03*
X017930Y032680D03*
X016930Y032680D03*
X015930Y032680D03*
X014930Y032680D03*
X014930Y031680D03*
X015930Y031680D03*
X016930Y031680D03*
X017930Y031680D03*
X018930Y031680D03*
X019930Y031680D03*
X020930Y031680D03*
D31*
X016867Y033492D03*
X016119Y033492D03*
X015179Y007743D03*
X014431Y007743D03*
D32*
X013912Y005680D03*
X012573Y005680D03*
X012162Y009805D03*
X010823Y009805D03*
D33*
X015118Y007037D03*
X015118Y005698D03*
D34*
X012230Y016742D02*
X011630Y016742D01*
X011630Y017742D02*
X012230Y017742D01*
X012230Y018742D02*
X011630Y018742D01*
X011630Y019742D02*
X012230Y019742D01*
X007180Y029755D02*
X007180Y030355D01*
X006180Y030355D02*
X006180Y029755D01*
D35*
X008287Y016085D03*
X008287Y014274D03*
D36*
X005453Y015180D03*
D37*
X019553Y009439D03*
X019553Y009124D03*
X019553Y008809D03*
X019553Y008494D03*
X019553Y008179D03*
X019553Y007864D03*
X019553Y007549D03*
X019553Y007234D03*
X022933Y007234D03*
X022933Y007549D03*
X022933Y007864D03*
X022933Y008179D03*
X022933Y008494D03*
X022933Y008809D03*
X022933Y009124D03*
X022933Y009439D03*
D38*
X022345Y010026D03*
X022030Y010026D03*
X021715Y010026D03*
X021400Y010026D03*
X021085Y010026D03*
X020770Y010026D03*
X020455Y010026D03*
X020140Y010026D03*
X020140Y006646D03*
X020455Y006646D03*
X020770Y006646D03*
X021085Y006646D03*
X021400Y006646D03*
X021715Y006646D03*
X022030Y006646D03*
X022345Y006646D03*
D39*
X021868Y013555D03*
X022868Y013555D03*
X023868Y013555D03*
X020868Y013555D03*
X019868Y013555D03*
X018868Y013555D03*
D40*
X017868Y007871D03*
X017868Y007399D03*
X017868Y006926D03*
D41*
X031118Y008955D02*
X031118Y009780D01*
X032555Y012267D02*
X032555Y013092D01*
X031118Y014955D02*
X031118Y015780D01*
X031118Y016080D02*
X031118Y016905D01*
X032555Y018267D02*
X032555Y019092D01*
X032555Y019392D02*
X032555Y020217D01*
X031118Y022080D02*
X031118Y022905D01*
X032555Y025392D02*
X032555Y026217D01*
D42*
X021868Y015617D02*
X021868Y015555D01*
X021868Y013555D01*
X021868Y015617D02*
X020618Y015617D01*
X019681Y016554D01*
X019494Y016741D01*
X018743Y017492D01*
X018743Y020117D01*
X017868Y020992D01*
X017930Y020930D01*
X011930Y027368D02*
X011055Y027368D01*
X011055Y027367D01*
X011055Y027368D02*
X011305Y027618D01*
X011305Y028509D01*
X010805Y028509D02*
X010805Y029617D01*
X010806Y029617D01*
X010805Y029617D02*
X010805Y029617D01*
X011554Y029617D02*
X011555Y029617D01*
X011555Y029617D01*
X012179Y027616D02*
X011930Y027368D01*
X012179Y027616D02*
X012680Y027616D01*
D43*
X012680Y028055D03*
X011430Y027618D03*
X011055Y027368D03*
X010680Y027618D03*
X010680Y027118D03*
X011430Y027118D03*
X011992Y029617D03*
X012242Y030492D03*
X012242Y030992D03*
X008055Y026118D03*
X007555Y026118D03*
X011367Y023618D03*
X011867Y023618D03*
X012367Y023618D03*
X012367Y022743D03*
X011867Y022743D03*
X011367Y022743D03*
X010493Y017805D03*
X008242Y015180D03*
X010493Y014242D03*
X012868Y011367D03*
X014055Y010180D03*
X016118Y010055D03*
X018555Y011680D03*
X019618Y010617D03*
X019618Y010055D03*
X021930Y010617D03*
X021180Y012492D03*
X020055Y012492D03*
X017368Y012867D03*
X019805Y015617D03*
X019368Y016055D03*
X018993Y016430D03*
X020180Y017617D03*
X020555Y017242D03*
X020555Y016367D03*
X024555Y014617D03*
X027055Y014617D03*
X025493Y010492D03*
X023493Y006992D03*
X023493Y006305D03*
X023930Y005680D03*
X026305Y005367D03*
X026305Y006305D03*
X017430Y005242D03*
X016930Y006492D03*
X011430Y009805D03*
X015430Y016055D03*
X004742Y018242D03*
X001867Y021242D03*
X002680Y030242D03*
X004742Y011805D03*
X004742Y007867D03*
X004805Y003867D03*
X028055Y033680D03*
D44*
X028055Y029930D03*
X029680Y026867D03*
X031742Y029555D03*
X033617Y027680D03*
X033992Y024555D03*
X035617Y024555D03*
X030117Y019180D03*
X030118Y016992D03*
X030118Y014242D03*
X027930Y012492D03*
X028867Y011555D03*
X028867Y010555D03*
X026992Y010555D03*
X026992Y011555D03*
X025868Y012117D03*
X025368Y013117D03*
X025805Y014180D03*
X025805Y015055D03*
X025805Y016055D03*
X024868Y016055D03*
X025930Y017555D03*
X022743Y016805D03*
X022743Y015367D03*
X022368Y014055D03*
X022368Y013055D03*
X023368Y013055D03*
X023368Y014055D03*
X024368Y014055D03*
X022868Y011555D03*
X022868Y010368D03*
X023774Y010368D03*
X024649Y010368D03*
X025492Y009930D03*
X024930Y008743D03*
X025868Y006868D03*
X025867Y005868D03*
X025742Y004805D03*
X025742Y004243D03*
X026805Y004805D03*
X027305Y003930D03*
X027305Y002993D03*
X027305Y002055D03*
X028305Y002055D03*
X029492Y000743D03*
X030492Y003118D03*
X032180Y002930D03*
X032117Y004493D03*
X033242Y005305D03*
X032117Y006243D03*
X032867Y007055D03*
X029993Y006868D03*
X029993Y005868D03*
X029117Y004868D03*
X028305Y003930D03*
X027930Y005868D03*
X027930Y006868D03*
X027180Y008368D03*
X026992Y009555D03*
X024680Y005867D03*
X023242Y005305D03*
X023242Y004430D03*
X022867Y006493D03*
X022180Y008305D03*
X022180Y009305D03*
X020993Y009305D03*
X020305Y007993D03*
X020305Y007368D03*
X021055Y007368D03*
X019555Y006430D03*
X018368Y006118D03*
X018617Y005180D03*
X017367Y006118D03*
X016430Y006118D03*
X016430Y005180D03*
X015055Y004930D03*
X015117Y006367D03*
X016430Y007930D03*
X017367Y008368D03*
X017367Y008993D03*
X016430Y009493D03*
X017367Y010618D03*
X016430Y010930D03*
X017367Y012243D03*
X016461Y013618D03*
X015430Y013618D03*
X013555Y011680D03*
X014367Y010930D03*
X014367Y009492D03*
X012992Y009492D03*
X012617Y010680D03*
X011242Y012055D03*
X011680Y013493D03*
X011242Y014867D03*
X011242Y015492D03*
X012492Y016055D03*
X011117Y017368D03*
X009742Y017368D03*
X009743Y019118D03*
X011117Y019118D03*
X011180Y020430D03*
X009805Y021493D03*
X008742Y022430D03*
X009805Y023555D03*
X010805Y023180D03*
X011242Y024993D03*
X009867Y025493D03*
X008805Y024180D03*
X007055Y024180D03*
X006992Y022430D03*
X004055Y022430D03*
X001555Y023180D03*
X006992Y027618D03*
X009305Y029368D03*
X009867Y033493D03*
X011742Y033805D03*
X012117Y035618D03*
X013930Y034180D03*
X015930Y035618D03*
X018055Y034243D03*
X019930Y035618D03*
X021617Y033680D03*
X022805Y031493D03*
X024430Y029930D03*
X025742Y026867D03*
X022242Y027117D03*
X020367Y028992D03*
X018617Y028617D03*
X018617Y024992D03*
X018617Y021680D03*
X019305Y020993D03*
X019680Y019742D03*
X019680Y018680D03*
X017930Y019617D03*
X016493Y018180D03*
X016461Y017430D03*
X015430Y017430D03*
X015117Y019055D03*
X014742Y020430D03*
X012680Y018243D03*
X008992Y015430D03*
X008992Y014930D03*
X008992Y013430D03*
X008055Y011805D03*
X006367Y009868D03*
X008055Y007930D03*
X006367Y005868D03*
X008055Y003868D03*
X006367Y002305D03*
X008055Y000743D03*
X010117Y002305D03*
X012117Y000743D03*
X014367Y002243D03*
X016492Y000743D03*
X018867Y002992D03*
X020305Y002055D03*
X021305Y002055D03*
X022305Y002055D03*
X021180Y000743D03*
X020305Y003930D03*
X020305Y005180D03*
X018368Y007399D03*
X018368Y008368D03*
X017368Y007399D03*
X013680Y007930D03*
X012117Y007930D03*
X013242Y006242D03*
X012492Y004868D03*
X012117Y003868D03*
X010992Y006117D03*
X010117Y005868D03*
X010055Y009867D03*
X005805Y014430D03*
X006117Y014680D03*
X005805Y014930D03*
X006117Y015180D03*
X005805Y015430D03*
X006117Y015680D03*
X005805Y015930D03*
X005492Y015680D03*
X005180Y015930D03*
X004867Y015680D03*
X005180Y015430D03*
X005492Y015180D03*
X005180Y014930D03*
X005492Y014680D03*
X005180Y014430D03*
X004867Y014680D03*
X004867Y015180D03*
X013867Y023243D03*
X013930Y027430D03*
X013930Y032118D03*
X004367Y030243D03*
X001742Y028930D03*
X018305Y014868D03*
X018743Y015305D03*
X019368Y014055D03*
X019368Y013055D03*
X020368Y014055D03*
X021368Y014055D03*
X021368Y013055D03*
X021368Y015118D03*
X020430Y015118D03*
X020993Y016805D03*
X022743Y018367D03*
X028055Y021055D03*
X029180Y023305D03*
X019867Y011243D03*
X026305Y002055D03*
X025305Y000743D03*
D45*
X025016Y001982D02*
X024594Y001982D01*
X024404Y002172D01*
X024206Y002172D01*
X024016Y001982D01*
X023594Y001982D01*
X023404Y002172D01*
X023206Y002172D01*
X023016Y001982D01*
X022594Y001982D01*
X022305Y002271D01*
X022016Y001982D01*
X021594Y001982D01*
X021305Y002271D01*
X021016Y001982D01*
X020594Y001982D01*
X020400Y002176D01*
X018304Y002173D01*
X018304Y002049D01*
X018268Y001960D01*
X018200Y001893D01*
X018112Y001856D01*
X017623Y001856D01*
X017535Y001893D01*
X017467Y001960D01*
X017431Y002049D01*
X017431Y002695D01*
X017467Y002783D01*
X017512Y002828D01*
X017512Y003220D01*
X017475Y003220D01*
X017138Y003220D01*
X017138Y002942D01*
X017149Y002901D01*
X017170Y002865D01*
X017199Y002835D01*
X017235Y002815D01*
X017276Y002804D01*
X017475Y002804D01*
X017475Y003220D01*
X017475Y003256D01*
X017138Y003256D01*
X017138Y003535D01*
X017142Y003549D01*
X017116Y003574D01*
X017060Y003597D01*
X016749Y003909D01*
X016659Y003999D01*
X016610Y004116D01*
X016610Y004806D01*
X016659Y004924D01*
X016993Y005258D01*
X016993Y005329D01*
X017006Y005360D01*
X015751Y005360D01*
X015751Y005355D01*
X015715Y005267D01*
X015647Y005199D01*
X015559Y005163D01*
X014676Y005163D01*
X014588Y005199D01*
X014520Y005267D01*
X014484Y005355D01*
X014484Y005360D01*
X014447Y005360D01*
X014447Y005239D01*
X014410Y005150D01*
X014343Y005083D01*
X014255Y005046D01*
X013569Y005046D01*
X013481Y005083D01*
X013413Y005150D01*
X013376Y005239D01*
X013376Y006121D01*
X013413Y006210D01*
X013481Y006277D01*
X013492Y006282D01*
X013470Y006282D01*
X013382Y006319D01*
X013315Y006386D01*
X013278Y006474D01*
X013278Y007357D01*
X013315Y007445D01*
X013382Y007513D01*
X013470Y007549D01*
X013574Y007549D01*
X013601Y007616D01*
X013999Y008014D01*
X014053Y008036D01*
X014053Y008046D01*
X014090Y008134D01*
X014157Y008202D01*
X014245Y008238D01*
X014616Y008238D01*
X014705Y008202D01*
X014772Y008134D01*
X014805Y008055D01*
X014838Y008134D01*
X014905Y008202D01*
X014993Y008238D01*
X015365Y008238D01*
X015453Y008202D01*
X015520Y008134D01*
X015557Y008046D01*
X015557Y007572D01*
X015559Y007572D01*
X015647Y007535D01*
X015715Y007468D01*
X015751Y007380D01*
X015751Y006694D01*
X015715Y006606D01*
X015647Y006538D01*
X015559Y006501D01*
X014676Y006501D01*
X014588Y006538D01*
X014520Y006606D01*
X014484Y006694D01*
X014484Y007247D01*
X014467Y007247D01*
X014467Y006474D01*
X014430Y006386D01*
X014363Y006319D01*
X014303Y006294D01*
X014343Y006277D01*
X014410Y006210D01*
X014447Y006121D01*
X014447Y006000D01*
X014484Y006000D01*
X014484Y006041D01*
X014520Y006129D01*
X014588Y006197D01*
X014676Y006233D01*
X015559Y006233D01*
X015647Y006197D01*
X015715Y006129D01*
X015751Y006041D01*
X015751Y006000D01*
X019417Y006000D01*
X019790Y006368D01*
X019790Y006884D01*
X019301Y006884D01*
X019301Y006839D01*
X019264Y006751D01*
X019197Y006683D01*
X019109Y006647D01*
X019020Y006647D01*
X018931Y006610D01*
X018363Y006610D01*
X018338Y006585D01*
X018250Y006548D01*
X017485Y006548D01*
X017397Y006585D01*
X017342Y006640D01*
X017367Y006579D01*
X017367Y006406D01*
X017300Y006245D01*
X017177Y006122D01*
X017017Y006056D01*
X016843Y006056D01*
X016683Y006122D01*
X016560Y006245D01*
X016493Y006406D01*
X016493Y006579D01*
X016560Y006740D01*
X016610Y006790D01*
X016610Y011226D01*
X016548Y011288D01*
X016512Y011376D01*
X016512Y011384D01*
X016506Y011363D01*
X016485Y011327D01*
X016456Y011297D01*
X016419Y011276D01*
X016379Y011265D01*
X016190Y011265D01*
X016190Y011671D01*
X016172Y011671D01*
X016172Y011265D01*
X015983Y011265D01*
X015943Y011276D01*
X015906Y011297D01*
X015877Y011327D01*
X015856Y011363D01*
X015845Y011403D01*
X015845Y011671D01*
X016172Y011671D01*
X016172Y011689D01*
X016172Y012095D01*
X015983Y012095D01*
X015943Y012084D01*
X015906Y012063D01*
X015877Y012033D01*
X015856Y011997D01*
X015845Y011957D01*
X015845Y011689D01*
X016172Y011689D01*
X016190Y011689D01*
X016190Y012095D01*
X016379Y012095D01*
X016419Y012084D01*
X016456Y012063D01*
X016485Y012033D01*
X016506Y011997D01*
X016512Y011976D01*
X016512Y011984D01*
X016548Y012072D01*
X016609Y012133D01*
X016611Y017777D01*
X016575Y017763D01*
X016528Y017763D01*
X016312Y017547D01*
X016312Y014010D01*
X016313Y013369D01*
X016313Y013369D01*
X016313Y013287D01*
X016313Y013241D01*
X016313Y013241D01*
X016286Y013176D01*
X016264Y013124D01*
X016264Y013124D01*
X016264Y013124D01*
X016219Y013079D01*
X016174Y013034D01*
X016174Y013034D01*
X012764Y009624D01*
X012764Y009624D01*
X012719Y009579D01*
X012697Y009557D01*
X012697Y009364D01*
X012661Y009275D01*
X012656Y009270D01*
X012683Y009282D01*
X013802Y009282D01*
X013890Y009245D01*
X013958Y009178D01*
X013994Y009089D01*
X013994Y008285D01*
X013958Y008197D01*
X013890Y008130D01*
X013802Y008093D01*
X013563Y008093D01*
X013563Y007991D01*
X013514Y007874D01*
X013451Y007811D01*
X013451Y007811D01*
X013404Y007764D01*
X013361Y007721D01*
X013706Y007721D01*
X013579Y007562D02*
X013203Y007562D01*
X013128Y007488D02*
X013361Y007721D01*
X013361Y007721D01*
X013516Y007879D02*
X013864Y007879D01*
X014053Y008038D02*
X013563Y008038D01*
X013243Y008055D02*
X013243Y008687D01*
X013243Y008680D01*
X013243Y008687D02*
X012180Y008687D01*
X012180Y009805D01*
X012367Y009805D01*
X012162Y009805D01*
X012180Y009805D02*
X012493Y009805D01*
X015993Y013305D01*
X015993Y013992D01*
X015993Y017680D01*
X016493Y018180D01*
X016107Y018340D02*
X016033Y018340D01*
X016075Y018263D02*
X016075Y018215D01*
X015721Y017861D01*
X015673Y017744D01*
X015673Y014056D01*
X015672Y014056D01*
X015673Y014011D01*
X015673Y013929D01*
X015673Y013438D01*
X012615Y010380D01*
X012593Y010402D01*
X012505Y010439D01*
X011819Y010439D01*
X011731Y010402D01*
X011663Y010335D01*
X011627Y010246D01*
X011627Y009364D01*
X011663Y009275D01*
X011687Y009252D01*
X011615Y009282D01*
X011211Y009282D01*
X011216Y009284D01*
X011246Y009314D01*
X011266Y009350D01*
X011277Y009390D01*
X011277Y009737D01*
X010891Y009737D01*
X010891Y009873D01*
X010756Y009873D01*
X010756Y010357D01*
X010507Y010357D01*
X010467Y010347D01*
X010431Y010326D01*
X010401Y010296D01*
X010380Y010260D01*
X010369Y010220D01*
X010369Y009873D01*
X010756Y009873D01*
X010756Y009737D01*
X010369Y009737D01*
X010369Y009390D01*
X010380Y009350D01*
X010401Y009314D01*
X010431Y009284D01*
X010460Y009267D01*
X010407Y009245D01*
X010340Y009178D01*
X010303Y009089D01*
X010303Y008285D01*
X010340Y008197D01*
X010407Y008129D01*
X010495Y008093D01*
X010640Y008093D01*
X010154Y007606D01*
X010130Y007549D01*
X010023Y007549D01*
X009935Y007513D01*
X009867Y007445D01*
X009831Y007357D01*
X009831Y006474D01*
X009867Y006386D01*
X009935Y006318D01*
X010023Y006282D01*
X010827Y006282D01*
X010915Y006318D01*
X010983Y006386D01*
X011019Y006474D01*
X011019Y007357D01*
X010983Y007445D01*
X010940Y007488D01*
X011326Y007874D01*
X011375Y007991D01*
X011375Y008093D01*
X011615Y008093D01*
X011703Y008129D01*
X011770Y008197D01*
X011807Y008285D01*
X011807Y008367D01*
X012491Y008367D01*
X012491Y008285D01*
X012527Y008197D01*
X012595Y008130D01*
X012683Y008093D01*
X012828Y008093D01*
X012686Y007951D01*
X012644Y007909D01*
X012596Y007861D01*
X012341Y007606D01*
X012318Y007549D01*
X012211Y007549D01*
X012149Y007524D01*
X012087Y007549D01*
X011283Y007549D01*
X011195Y007513D01*
X011127Y007445D01*
X011091Y007357D01*
X011091Y006474D01*
X011127Y006386D01*
X011184Y006329D01*
X011184Y006056D01*
X011221Y005968D01*
X011288Y005900D01*
X011367Y005867D01*
X011288Y005835D01*
X011221Y005767D01*
X011184Y005679D01*
X011184Y005308D01*
X011221Y005220D01*
X011288Y005152D01*
X011376Y005116D01*
X011984Y005116D01*
X012072Y005152D01*
X012073Y005153D01*
X012074Y005150D01*
X012142Y005083D01*
X012230Y005046D01*
X012916Y005046D01*
X013004Y005083D01*
X013072Y005150D01*
X013108Y005239D01*
X013108Y006121D01*
X013072Y006210D01*
X013004Y006277D01*
X012993Y006282D01*
X013015Y006282D01*
X013103Y006319D01*
X013170Y006386D01*
X013207Y006474D01*
X013207Y007357D01*
X013170Y007445D01*
X013128Y007488D01*
X013188Y007404D02*
X013298Y007404D01*
X013278Y007245D02*
X013207Y007245D01*
X013207Y007087D02*
X013278Y007087D01*
X013278Y006928D02*
X013207Y006928D01*
X013207Y006770D02*
X013278Y006770D01*
X013278Y006611D02*
X013207Y006611D01*
X013198Y006453D02*
X013287Y006453D01*
X013440Y006294D02*
X013045Y006294D01*
X013102Y006136D02*
X013383Y006136D01*
X013376Y005977D02*
X013108Y005977D01*
X013108Y005819D02*
X013376Y005819D01*
X013376Y005660D02*
X013108Y005660D01*
X013108Y005502D02*
X013376Y005502D01*
X013376Y005343D02*
X013108Y005343D01*
X013086Y005185D02*
X013399Y005185D01*
X013912Y005680D02*
X014743Y005680D01*
X014805Y005617D01*
X014805Y005636D01*
X015118Y005698D01*
X015198Y005698D01*
X015243Y005680D01*
X019549Y005680D01*
X020055Y006180D01*
X020140Y006265D01*
X020140Y006646D01*
X020455Y006646D02*
X020493Y006684D01*
X020493Y006055D01*
X019055Y004617D01*
X018555Y004617D01*
X018243Y004616D01*
X018243Y004616D01*
X017555Y004616D01*
X017800Y004994D02*
X017800Y004995D01*
X017867Y005156D01*
X017867Y005329D01*
X017854Y005360D01*
X019345Y005360D01*
X018922Y004937D01*
X018655Y004937D01*
X018634Y004958D01*
X018546Y004994D01*
X017939Y004994D01*
X017899Y004978D01*
X017859Y004994D01*
X017800Y004994D01*
X017813Y005026D02*
X019011Y005026D01*
X019170Y005185D02*
X017867Y005185D01*
X017861Y005343D02*
X019328Y005343D01*
X019758Y004868D02*
X020602Y004868D01*
X020499Y004971D02*
X020985Y004485D01*
X020985Y004002D01*
X020594Y004002D01*
X020295Y003704D01*
X020295Y003281D01*
X020584Y002992D01*
X020408Y002816D01*
X018629Y002814D01*
X018642Y002827D01*
X018678Y002915D01*
X018678Y003561D01*
X018675Y003568D01*
X018702Y003595D01*
X018738Y003683D01*
X018738Y004054D01*
X018702Y004142D01*
X018634Y004210D01*
X018555Y004242D01*
X018634Y004275D01*
X018657Y004297D01*
X019119Y004297D01*
X019236Y004346D01*
X019326Y004436D01*
X020450Y005560D01*
X020450Y005216D01*
X020450Y005089D01*
X020499Y004971D01*
X020476Y005026D02*
X019917Y005026D01*
X020075Y005185D02*
X020450Y005185D01*
X020450Y005343D02*
X020234Y005343D01*
X020392Y005502D02*
X020450Y005502D01*
X020770Y005152D02*
X021305Y004617D01*
X021305Y002992D01*
X021805Y002492D01*
X022207Y002173D02*
X022403Y002173D01*
X022561Y002015D02*
X022049Y002015D01*
X021561Y002015D02*
X021049Y002015D01*
X021207Y002173D02*
X021403Y002173D01*
X020805Y002492D02*
X020676Y002497D01*
X017868Y002492D01*
X017868Y002372D01*
X017431Y002332D02*
X004965Y002332D01*
X004985Y002282D02*
X004939Y002394D01*
X004853Y002480D01*
X004795Y002504D01*
X004795Y002567D01*
X004749Y002680D01*
X004663Y002765D01*
X004568Y002860D01*
X004456Y002907D01*
X004144Y002907D01*
X004032Y002860D01*
X003946Y002775D01*
X003851Y002680D01*
X003805Y002567D01*
X003805Y002161D01*
X003851Y002049D01*
X003858Y002042D01*
X003851Y002035D01*
X003805Y001923D01*
X003805Y001611D01*
X003810Y001598D01*
X003747Y001571D01*
X003661Y001486D01*
X003615Y001373D01*
X003615Y000872D01*
X003661Y000760D01*
X003747Y000674D01*
X003859Y000627D01*
X003980Y000627D01*
X004092Y000674D01*
X004178Y000760D01*
X004202Y000818D01*
X004551Y000818D01*
X004663Y000864D01*
X004749Y000950D01*
X004795Y001062D01*
X004795Y001183D01*
X004749Y001295D01*
X004663Y001381D01*
X033058Y001381D01*
X033040Y001414D02*
X033104Y001295D01*
X033179Y001182D01*
X033265Y001077D01*
X033361Y000982D01*
X033466Y000896D01*
X033578Y000820D01*
X033698Y000756D01*
X033823Y000705D01*
X033953Y000665D01*
X034086Y000639D01*
X034208Y000627D01*
X034208Y001925D01*
X032910Y001925D01*
X032922Y001802D01*
X032949Y001669D01*
X032988Y001540D01*
X033040Y001414D01*
X032930Y001381D02*
X035822Y001381D01*
X035820Y001381D02*
X035519Y001381D01*
X035537Y001414D02*
X035588Y001540D01*
X035628Y001669D01*
X035654Y001802D01*
X035666Y001925D01*
X034368Y001925D01*
X034368Y000627D01*
X034491Y000639D01*
X034624Y000665D01*
X034753Y000705D01*
X034879Y000756D01*
X034998Y000820D01*
X035111Y000896D01*
X035216Y000982D01*
X035311Y001077D01*
X035397Y001182D01*
X035473Y001295D01*
X035537Y001414D01*
X035588Y001539D02*
X035820Y001539D01*
X035822Y001539D02*
X032930Y001539D01*
X032988Y001539D02*
X004765Y001539D01*
X004749Y001499D02*
X004795Y001611D01*
X004795Y001923D01*
X004789Y001937D01*
X004853Y001963D01*
X004939Y002049D01*
X004985Y002161D01*
X004985Y002282D01*
X004985Y002173D02*
X017431Y002173D01*
X017445Y002015D02*
X004905Y002015D01*
X004795Y001856D02*
X017623Y001856D01*
X018112Y001856D02*
X032917Y001856D01*
X032930Y001856D02*
X035822Y001856D01*
X035820Y001856D02*
X035660Y001856D01*
X035633Y001698D02*
X035820Y001698D01*
X035822Y001698D02*
X032930Y001698D01*
X032943Y001698D02*
X004795Y001698D01*
X004749Y001499D02*
X004640Y001391D01*
X004663Y001381D01*
X004779Y001222D02*
X033152Y001222D01*
X033279Y001064D02*
X004795Y001064D01*
X004704Y000905D02*
X033454Y000905D01*
X033721Y000747D02*
X004165Y000747D01*
X003674Y000747D02*
X002572Y000747D01*
X002595Y000756D02*
X002715Y000820D01*
X002827Y000896D01*
X002932Y000982D01*
X003028Y001077D01*
X003114Y001182D01*
X003189Y001295D01*
X003253Y001414D01*
X003305Y001540D01*
X003344Y001669D01*
X003371Y001802D01*
X003383Y001925D01*
X002085Y001925D01*
X002085Y002085D01*
X003383Y002085D01*
X003371Y002207D01*
X003344Y002340D01*
X003305Y002470D01*
X003253Y002595D01*
X003189Y002715D01*
X003114Y002827D01*
X003028Y002932D01*
X002932Y003028D01*
X002827Y003114D01*
X002715Y003189D01*
X002595Y003253D01*
X002470Y003305D01*
X002340Y003344D01*
X002207Y003371D01*
X002085Y003383D01*
X002085Y002085D01*
X001925Y002085D01*
X001925Y003383D01*
X001802Y003371D01*
X001669Y003344D01*
X001540Y003305D01*
X001414Y003253D01*
X001295Y003189D01*
X001182Y003114D01*
X001077Y003028D01*
X000982Y002932D01*
X000896Y002827D01*
X000820Y002715D01*
X000757Y002595D01*
X000705Y002470D01*
X000665Y002340D01*
X000639Y002207D01*
X000627Y002085D01*
X001925Y002085D01*
X001925Y001925D01*
X002085Y001925D01*
X002085Y000627D01*
X002207Y000639D01*
X002340Y000665D01*
X002470Y000705D01*
X002595Y000756D01*
X002839Y000905D02*
X003615Y000905D01*
X003615Y001064D02*
X003015Y001064D01*
X003141Y001222D02*
X003615Y001222D01*
X003618Y001381D02*
X003235Y001381D01*
X003367Y001381D02*
X000471Y001381D01*
X000473Y001381D02*
X000774Y001381D01*
X000757Y001414D02*
X000820Y001295D01*
X000896Y001182D01*
X000982Y001077D01*
X001077Y000982D01*
X001182Y000896D01*
X001295Y000820D01*
X001414Y000756D01*
X001540Y000705D01*
X001669Y000665D01*
X001802Y000639D01*
X001925Y000627D01*
X001925Y001925D01*
X000627Y001925D01*
X000639Y001802D01*
X000665Y001669D01*
X000705Y001540D01*
X000757Y001414D01*
X000705Y001539D02*
X000473Y001539D01*
X000471Y001539D02*
X003367Y001539D01*
X003305Y001539D02*
X003715Y001539D01*
X003805Y001698D02*
X003350Y001698D01*
X003367Y001698D02*
X000471Y001698D01*
X000473Y001698D02*
X000660Y001698D01*
X000634Y001856D02*
X000473Y001856D01*
X000471Y001856D02*
X003367Y001856D01*
X003376Y001856D02*
X003805Y001856D01*
X003843Y002015D02*
X002085Y002015D01*
X002085Y002173D02*
X001925Y002173D01*
X001925Y002015D02*
X000473Y002015D01*
X000471Y002015D02*
X003367Y002015D01*
X003367Y002173D02*
X000471Y002173D01*
X000473Y002173D02*
X000636Y002173D01*
X000664Y002332D02*
X000473Y002332D01*
X000471Y002332D02*
X003367Y002332D01*
X003346Y002332D02*
X003805Y002332D01*
X003805Y002490D02*
X003296Y002490D01*
X003367Y002490D02*
X000471Y002490D01*
X000473Y002490D02*
X000713Y002490D01*
X000785Y002649D02*
X000473Y002649D01*
X000471Y002649D02*
X003367Y002649D01*
X003224Y002649D02*
X003838Y002649D01*
X003979Y002807D02*
X003127Y002807D01*
X002994Y002966D02*
X017138Y002966D01*
X017138Y003124D02*
X002812Y003124D01*
X002523Y003283D02*
X017138Y003283D01*
X017138Y003441D02*
X000473Y003441D01*
X000471Y003367D02*
X003367Y003367D01*
X003367Y000471D01*
X000471Y000471D01*
X000471Y003367D01*
X000471Y003283D02*
X003367Y003283D01*
X003367Y003124D02*
X000471Y003124D01*
X000473Y003124D02*
X001198Y003124D01*
X001016Y002966D02*
X000473Y002966D01*
X000471Y002966D02*
X003367Y002966D01*
X003367Y002807D02*
X000471Y002807D01*
X000473Y002807D02*
X000882Y002807D01*
X000473Y003283D02*
X001487Y003283D01*
X001925Y003283D02*
X002085Y003283D01*
X002085Y003124D02*
X001925Y003124D01*
X001925Y002966D02*
X002085Y002966D01*
X002085Y002807D02*
X001925Y002807D01*
X001925Y002649D02*
X002085Y002649D01*
X002085Y002490D02*
X001925Y002490D01*
X001925Y002332D02*
X002085Y002332D01*
X002085Y001856D02*
X001925Y001856D01*
X001925Y001698D02*
X002085Y001698D01*
X002085Y001539D02*
X001925Y001539D01*
X001925Y001381D02*
X002085Y001381D01*
X002085Y001222D02*
X001925Y001222D01*
X001925Y001064D02*
X002085Y001064D01*
X002085Y000905D02*
X001925Y000905D01*
X001925Y000747D02*
X002085Y000747D01*
X001437Y000747D02*
X000473Y000747D01*
X000471Y000747D02*
X003367Y000747D01*
X003367Y000905D02*
X000471Y000905D01*
X000473Y000905D02*
X001170Y000905D01*
X000995Y001064D02*
X000473Y001064D01*
X000471Y001064D02*
X003367Y001064D01*
X003367Y001222D02*
X000471Y001222D01*
X000473Y001222D02*
X000869Y001222D01*
X000473Y000588D02*
X035820Y000588D01*
X035822Y000588D02*
X032930Y000588D01*
X032930Y000471D02*
X035822Y000471D01*
X035822Y003367D01*
X032930Y003367D01*
X032930Y000471D01*
X032930Y000747D02*
X035822Y000747D01*
X035820Y000747D02*
X034856Y000747D01*
X035123Y000905D02*
X035820Y000905D01*
X035822Y000905D02*
X032930Y000905D01*
X032930Y001064D02*
X035822Y001064D01*
X035820Y001064D02*
X035298Y001064D01*
X035424Y001222D02*
X035820Y001222D01*
X035822Y001222D02*
X032930Y001222D01*
X032930Y002015D02*
X035822Y002015D01*
X035820Y002015D02*
X034368Y002015D01*
X034368Y002085D02*
X035666Y002085D01*
X035654Y002207D01*
X035628Y002340D01*
X035588Y002470D01*
X035537Y002595D01*
X035473Y002715D01*
X035397Y002827D01*
X035311Y002932D01*
X035216Y003028D01*
X035111Y003114D01*
X034998Y003189D01*
X034879Y003253D01*
X034753Y003305D01*
X034624Y003344D01*
X034491Y003371D01*
X034368Y003383D01*
X034368Y002085D01*
X034208Y002085D01*
X034208Y003383D01*
X034086Y003371D01*
X033953Y003344D01*
X033823Y003305D01*
X033698Y003253D01*
X033578Y003189D01*
X033466Y003114D01*
X033361Y003028D01*
X033265Y002932D01*
X033179Y002827D01*
X033104Y002715D01*
X033040Y002595D01*
X032988Y002470D01*
X032949Y002340D01*
X032922Y002207D01*
X032910Y002085D01*
X034208Y002085D01*
X034208Y001925D01*
X034368Y001925D01*
X034368Y002085D01*
X034368Y002173D02*
X034208Y002173D01*
X034208Y002015D02*
X028049Y002015D01*
X028016Y001982D02*
X028206Y002172D01*
X029996Y002172D01*
X030042Y002127D01*
X030130Y002090D01*
X030855Y002090D01*
X030943Y002127D01*
X031004Y002187D01*
X031008Y002187D01*
X031126Y002236D01*
X032924Y004034D01*
X033014Y004124D01*
X033062Y004241D01*
X033062Y006450D01*
X033014Y006568D01*
X032592Y006990D01*
X032592Y007573D01*
X032555Y007661D01*
X032488Y007729D01*
X032400Y007765D01*
X031595Y007765D01*
X031507Y007729D01*
X031440Y007661D01*
X031403Y007573D01*
X031403Y006981D01*
X031251Y006828D01*
X031251Y007052D01*
X030818Y007052D01*
X030818Y007212D01*
X031251Y007212D01*
X031251Y007546D01*
X031240Y007587D01*
X031219Y007623D01*
X031189Y007652D01*
X031153Y007673D01*
X031113Y007684D01*
X030818Y007684D01*
X030818Y007212D01*
X030658Y007212D01*
X030658Y007684D01*
X030362Y007684D01*
X030322Y007673D01*
X030286Y007652D01*
X030256Y007623D01*
X030235Y007587D01*
X030225Y007546D01*
X030225Y007212D01*
X030658Y007212D01*
X030658Y007052D01*
X030225Y007052D01*
X030225Y006717D01*
X030235Y006677D01*
X030256Y006641D01*
X030272Y006625D01*
X026603Y006625D01*
X026552Y006675D01*
X026392Y006742D01*
X026218Y006742D01*
X026058Y006675D01*
X025935Y006552D01*
X025868Y006392D01*
X025868Y006218D01*
X025935Y006058D01*
X026058Y005935D01*
X026218Y005868D01*
X026392Y005868D01*
X026552Y005935D01*
X026603Y005985D01*
X031244Y005985D01*
X031361Y006034D01*
X031826Y006498D01*
X032179Y006498D01*
X032423Y006254D01*
X032423Y004438D01*
X030894Y002909D01*
X030855Y002924D01*
X030130Y002924D01*
X030042Y002888D01*
X029974Y002820D01*
X029971Y002812D01*
X028206Y002812D01*
X028016Y003002D01*
X027594Y003002D01*
X027305Y002714D01*
X027026Y002992D01*
X027315Y003281D01*
X027315Y003704D01*
X027125Y003894D01*
X027125Y003922D01*
X028250Y005047D01*
X030616Y005047D01*
X030616Y004958D01*
X030652Y004870D01*
X030720Y004802D01*
X030808Y004766D01*
X031927Y004766D01*
X032015Y004802D01*
X032083Y004870D01*
X032119Y004958D01*
X032119Y005762D01*
X032083Y005850D01*
X032015Y005918D01*
X031927Y005954D01*
X030808Y005954D01*
X030720Y005918D01*
X030652Y005850D01*
X030616Y005762D01*
X030616Y005687D01*
X028054Y005687D01*
X027936Y005639D01*
X027846Y005549D01*
X026625Y004328D01*
X026625Y005070D01*
X026675Y005120D01*
X026742Y005281D01*
X026742Y005454D01*
X026675Y005615D01*
X026552Y005738D01*
X026392Y005804D01*
X026218Y005804D01*
X026058Y005738D01*
X025935Y005615D01*
X025868Y005454D01*
X025868Y005281D01*
X025935Y005120D01*
X025985Y005070D01*
X025985Y003919D01*
X025983Y003921D01*
X025815Y003921D01*
X025815Y003502D01*
X025795Y003502D01*
X025795Y003921D01*
X025666Y003921D01*
X025639Y003986D01*
X025549Y004076D01*
X024758Y004867D01*
X025701Y005811D01*
X025750Y005929D01*
X025750Y007172D01*
X028201Y009624D01*
X028217Y009662D01*
X028252Y009626D01*
X028420Y009626D01*
X028420Y010045D01*
X028440Y010045D01*
X028440Y010065D01*
X028420Y010065D01*
X028420Y010484D01*
X028311Y010484D01*
X028373Y010545D01*
X028641Y010545D01*
X028940Y010844D01*
X028940Y011266D01*
X028750Y011456D01*
X028750Y011654D01*
X028940Y011844D01*
X028940Y012266D01*
X028750Y012456D01*
X028750Y013369D01*
X028701Y013486D01*
X028611Y013576D01*
X027492Y014696D01*
X027492Y014704D01*
X027425Y014865D01*
X027302Y014988D01*
X027142Y015054D01*
X026968Y015054D01*
X026808Y014988D01*
X026685Y014865D01*
X026618Y014704D01*
X026618Y014531D01*
X026685Y014370D01*
X026808Y014247D01*
X026968Y014181D01*
X027102Y014181D01*
X028110Y013172D01*
X028110Y012456D01*
X028029Y012375D01*
X027831Y012375D01*
X027641Y012565D01*
X027219Y012565D01*
X027029Y012375D01*
X026366Y012375D01*
X026249Y012326D01*
X026159Y012236D01*
X024784Y010861D01*
X024735Y010744D01*
X024735Y009679D01*
X024198Y009088D01*
X024159Y009049D01*
X024156Y009041D01*
X024150Y009036D01*
X024131Y008983D01*
X024110Y008931D01*
X024110Y008923D01*
X024107Y008916D01*
X024110Y008860D01*
X024110Y008676D01*
X023831Y008676D01*
X023743Y008639D01*
X023675Y008572D01*
X023646Y008500D01*
X023341Y008500D01*
X023341Y008518D01*
X023386Y008563D01*
X023422Y008651D01*
X023422Y008804D01*
X023500Y008804D01*
X023617Y008852D01*
X023707Y008942D01*
X023707Y008942D01*
X024424Y009659D01*
X024514Y009749D01*
X024562Y009866D01*
X024562Y010708D01*
X024634Y010738D01*
X024702Y010805D01*
X024738Y010894D01*
X024738Y011161D01*
X026514Y012936D01*
X026562Y013054D01*
X026562Y016431D01*
X026514Y016549D01*
X026424Y016639D01*
X024861Y018201D01*
X024744Y018250D01*
X020429Y018250D01*
X020311Y018201D01*
X020221Y018111D01*
X020164Y018054D01*
X020093Y018054D01*
X019933Y017988D01*
X019810Y017865D01*
X019510Y017865D01*
X019500Y017875D02*
X019500Y020429D01*
X019500Y020488D01*
X019500Y020556D01*
X019500Y020556D01*
X019500Y020556D01*
X019494Y020569D01*
X019451Y020674D01*
X019361Y020764D01*
X018139Y021986D01*
X028420Y021986D01*
X028278Y021844D02*
X028218Y021697D01*
X028218Y020475D01*
X028278Y020328D01*
X028391Y020216D01*
X028953Y019653D01*
X029100Y019592D01*
X030243Y019592D01*
X030305Y019592D01*
X030305Y018726D01*
X030304Y018726D01*
X030263Y018737D01*
X029761Y018737D01*
X029761Y018097D01*
X029724Y018097D01*
X029724Y018737D01*
X029222Y018737D01*
X029181Y018726D01*
X029145Y018706D01*
X029115Y018676D01*
X029095Y018640D01*
X029084Y018599D01*
X029084Y018097D01*
X029724Y018097D01*
X029724Y018060D01*
X029761Y018060D01*
X029761Y017420D01*
X030263Y017420D01*
X030304Y017431D01*
X030305Y017431D01*
X030305Y013930D01*
X035820Y013930D01*
X035820Y000473D01*
X000473Y000473D01*
X000473Y035820D01*
X004914Y035820D01*
X004914Y034837D01*
X005038Y034375D01*
X005277Y033961D01*
X005615Y033623D01*
X006029Y033385D01*
X006490Y033261D01*
X006968Y033261D01*
X007430Y033385D01*
X007844Y033623D01*
X008181Y033961D01*
X008181Y033961D01*
X008181Y033961D01*
X008420Y034375D01*
X008544Y034837D01*
X008544Y035820D01*
X035820Y035820D01*
X035820Y024367D01*
X033830Y024367D01*
X033830Y027078D01*
X033830Y027135D01*
X033803Y027200D01*
X033769Y027282D01*
X033724Y027327D01*
X031457Y029594D01*
X035820Y029594D01*
X035820Y029436D02*
X031615Y029436D01*
X031457Y029594D02*
X031457Y029594D01*
X031345Y029705D01*
X031344Y029707D01*
X031224Y029757D01*
X031197Y029767D01*
X031197Y029767D01*
X031197Y029767D01*
X031118Y029767D01*
X031038Y029767D01*
X023346Y029767D01*
X022642Y030471D01*
X022642Y032885D01*
X022582Y033032D01*
X022469Y033144D01*
X022219Y033394D01*
X022072Y033455D01*
X021420Y033455D01*
X021420Y034152D01*
X021345Y034333D01*
X021208Y034470D01*
X020333Y035345D01*
X020152Y035420D01*
X011770Y035420D01*
X011590Y035345D01*
X011452Y035208D01*
X010154Y033910D01*
X010080Y033730D01*
X010080Y029568D01*
X010154Y029388D01*
X010292Y029250D01*
X010445Y029187D01*
X010445Y029182D01*
X010381Y029182D01*
X010369Y029187D01*
X002991Y029187D01*
X002874Y029139D01*
X002784Y029049D01*
X002735Y028931D01*
X002735Y028625D01*
X001554Y028625D01*
X001472Y028591D01*
X001436Y028576D01*
X001399Y028539D01*
X001346Y028486D01*
X001344Y028481D01*
X001298Y028369D01*
X001297Y023744D01*
X001297Y023744D01*
X001297Y023616D01*
X001337Y023520D01*
X001346Y023499D01*
X001346Y023499D01*
X001391Y023454D01*
X001436Y023409D01*
X001436Y023409D01*
X001455Y023401D01*
X001554Y023360D01*
X002735Y023360D01*
X002735Y022866D01*
X002784Y022749D01*
X002874Y022659D01*
X002991Y022610D01*
X008744Y022610D01*
X008861Y022659D01*
X008883Y022681D01*
X008885Y022681D01*
X008894Y022690D01*
X008977Y022690D01*
X010003Y021665D01*
X010003Y017707D01*
X010003Y017706D02*
X004062Y017706D01*
X004062Y017548D02*
X010069Y017548D01*
X010077Y017527D02*
X010215Y017390D01*
X010395Y017315D01*
X010590Y017315D01*
X010770Y017390D01*
X010908Y017527D01*
X010983Y017707D01*
X010983Y019252D01*
X011402Y019252D01*
X011523Y019202D01*
X012337Y019202D01*
X012458Y019252D01*
X015083Y019252D01*
X015180Y019252D01*
X015277Y019252D01*
X015278Y019253D01*
X015341Y019253D01*
X015521Y019328D01*
X015658Y019466D01*
X015733Y019646D01*
X015733Y019675D01*
X015925Y019482D01*
X015895Y019482D01*
X015715Y019408D01*
X013540Y017232D01*
X012458Y017232D01*
X012337Y017282D01*
X011523Y017282D01*
X011324Y017200D01*
X011252Y017128D01*
X011074Y017128D01*
X011032Y017145D01*
X009953Y017145D01*
X009911Y017128D01*
X009648Y017128D01*
X009501Y017067D01*
X009153Y016719D01*
X009121Y016641D01*
X009099Y016641D01*
X009011Y016605D01*
X008926Y016640D01*
X007649Y016640D01*
X007561Y016604D01*
X007493Y016536D01*
X007457Y016448D01*
X007457Y015723D01*
X007493Y015635D01*
X007561Y015567D01*
X007649Y015530D01*
X008926Y015530D01*
X009014Y015567D01*
X009078Y015631D01*
X009078Y015502D01*
X009484Y015502D01*
X009484Y015485D01*
X009078Y015485D01*
X009078Y015295D01*
X009089Y015255D01*
X009110Y015219D01*
X009139Y015189D01*
X009155Y015180D01*
X009139Y015171D01*
X009110Y015141D01*
X009089Y015105D01*
X009078Y015065D01*
X009078Y014875D01*
X009484Y014875D01*
X009484Y015485D01*
X009501Y015485D01*
X009501Y015502D01*
X009907Y015502D01*
X009907Y015516D01*
X010484Y015516D01*
X010484Y015843D01*
X009979Y015843D01*
X009939Y015832D01*
X009903Y015811D01*
X009873Y015782D01*
X009869Y015774D01*
X009846Y015798D01*
X009810Y015818D01*
X009788Y015824D01*
X009796Y015824D01*
X009884Y015861D01*
X009952Y015928D01*
X009988Y016017D01*
X009988Y016311D01*
X011032Y016311D01*
X011074Y016328D01*
X011281Y016328D01*
X011324Y016285D01*
X011523Y016202D01*
X012337Y016202D01*
X012458Y016252D01*
X013729Y016252D01*
X013840Y016252D01*
X013840Y016252D01*
X013932Y016290D01*
X014020Y016327D01*
X014020Y016327D01*
X014020Y016327D01*
X014103Y016410D01*
X016269Y018576D01*
X016295Y018550D01*
X016256Y018534D01*
X016139Y018416D01*
X016075Y018263D01*
X016042Y018182D02*
X015875Y018182D01*
X015883Y018023D02*
X015716Y018023D01*
X015725Y017865D02*
X015558Y017865D01*
X015673Y017706D02*
X015399Y017706D01*
X015241Y017548D02*
X015673Y017548D01*
X015673Y017389D02*
X015082Y017389D01*
X014924Y017231D02*
X015673Y017231D01*
X015673Y017072D02*
X014765Y017072D01*
X014607Y016914D02*
X015673Y016914D01*
X015673Y016755D02*
X014448Y016755D01*
X014290Y016597D02*
X015673Y016597D01*
X015673Y016438D02*
X014131Y016438D01*
X013906Y016280D02*
X015673Y016280D01*
X015673Y016121D02*
X009988Y016121D01*
X009988Y016280D02*
X011335Y016280D01*
X011082Y015811D02*
X011046Y015832D01*
X011006Y015843D01*
X010501Y015843D01*
X010501Y015516D01*
X010484Y015516D01*
X010484Y015499D01*
X009842Y015499D01*
X009842Y015485D01*
X009501Y015485D01*
X009501Y015157D01*
X009501Y014875D01*
X009484Y014875D01*
X009484Y014858D01*
X009078Y014858D01*
X009078Y014729D01*
X009014Y014793D01*
X008926Y014829D01*
X007649Y014829D01*
X007561Y014793D01*
X007493Y014725D01*
X007457Y014637D01*
X007457Y013912D01*
X007493Y013823D01*
X007561Y013756D01*
X007649Y013719D01*
X008926Y013719D01*
X009011Y013755D01*
X009026Y013749D01*
X009099Y013718D01*
X009099Y013718D01*
X009100Y013718D01*
X009121Y013718D01*
X009153Y013641D01*
X009501Y013293D01*
X009648Y013232D01*
X009911Y013232D01*
X009953Y013215D01*
X011032Y013215D01*
X011121Y013252D01*
X011188Y013319D01*
X011225Y013407D01*
X011225Y013857D01*
X011188Y013945D01*
X011121Y014013D01*
X011032Y014049D01*
X010933Y014049D01*
X010933Y014330D01*
X010866Y014492D01*
X010840Y014517D01*
X011006Y014517D01*
X011046Y014528D01*
X011082Y014548D01*
X011112Y014578D01*
X011133Y014614D01*
X011143Y014655D01*
X011143Y014844D01*
X010501Y014844D01*
X010501Y014861D01*
X011143Y014861D01*
X011143Y015051D01*
X011133Y015091D01*
X011112Y015127D01*
X011082Y015157D01*
X011046Y015178D01*
X011038Y015180D01*
X011046Y015182D01*
X011082Y015203D01*
X011112Y015233D01*
X011133Y015269D01*
X011143Y015309D01*
X011143Y015499D01*
X010501Y015499D01*
X010501Y015516D01*
X011143Y015516D01*
X011143Y015705D01*
X011133Y015746D01*
X011112Y015782D01*
X011082Y015811D01*
X011089Y015804D02*
X013827Y015804D01*
X013900Y015877D02*
X013701Y015679D01*
X013561Y015435D01*
X013488Y015164D01*
X013488Y014883D01*
X013561Y014612D01*
X013701Y014369D01*
X013900Y014170D01*
X014143Y014030D01*
X014415Y013957D01*
X014695Y013957D01*
X014967Y014030D01*
X015210Y014170D01*
X015409Y014369D01*
X015549Y014612D01*
X015622Y014883D01*
X015622Y015164D01*
X015549Y015435D01*
X015409Y015679D01*
X015210Y015877D01*
X014967Y016018D01*
X014695Y016090D01*
X014415Y016090D01*
X014143Y016018D01*
X013900Y015877D01*
X014048Y015963D02*
X009966Y015963D01*
X009896Y015804D02*
X009834Y015804D01*
X009842Y015487D02*
X009501Y015487D01*
X009484Y015487D02*
X006832Y015487D01*
X006832Y015329D02*
X009078Y015329D01*
X009139Y015170D02*
X005533Y015170D01*
X005533Y015100D02*
X005533Y015260D01*
X006832Y015260D01*
X006832Y016343D01*
X006821Y016383D01*
X006800Y016419D01*
X006771Y016449D01*
X006734Y016470D01*
X006694Y016480D01*
X005533Y016480D01*
X005533Y015260D01*
X005373Y015260D01*
X005373Y016480D01*
X004211Y016480D01*
X004171Y016470D01*
X004135Y016449D01*
X004105Y016419D01*
X004084Y016383D01*
X004073Y016343D01*
X004073Y015260D01*
X005373Y015260D01*
X005373Y015100D01*
X005533Y015100D01*
X006832Y015100D01*
X006832Y014017D01*
X006821Y013977D01*
X006800Y013941D01*
X006771Y013911D01*
X006734Y013890D01*
X006694Y013879D01*
X005533Y013879D01*
X005533Y015100D01*
X005533Y015012D02*
X005373Y015012D01*
X005373Y015100D02*
X005373Y013879D01*
X004211Y013879D01*
X004171Y013890D01*
X004135Y013911D01*
X004105Y013941D01*
X004084Y013977D01*
X004073Y014017D01*
X004073Y015100D01*
X005373Y015100D01*
X005373Y015170D02*
X004062Y015170D01*
X004062Y015012D02*
X004073Y015012D01*
X004062Y014853D02*
X004073Y014853D01*
X004062Y014695D02*
X004073Y014695D01*
X004062Y014536D02*
X004073Y014536D01*
X004062Y014378D02*
X004073Y014378D01*
X004062Y014219D02*
X004073Y014219D01*
X004062Y014061D02*
X004073Y014061D01*
X004062Y013938D02*
X004062Y020244D01*
X004014Y020361D01*
X003924Y020451D01*
X003924Y020451D01*
X001250Y023125D01*
X001250Y028735D01*
X001875Y029360D01*
X005811Y029360D01*
X005874Y029297D01*
X006073Y029215D01*
X006287Y029215D01*
X006486Y029297D01*
X006638Y029449D01*
X006720Y029648D01*
X006720Y030462D01*
X006638Y030661D01*
X006486Y030813D01*
X006287Y030895D01*
X006073Y030895D01*
X005874Y030813D01*
X005722Y030661D01*
X005640Y030462D01*
X005640Y030000D01*
X001679Y030000D01*
X001561Y029951D01*
X000659Y029049D01*
X000610Y028931D01*
X000610Y022929D01*
X000659Y022811D01*
X003423Y020047D01*
X003423Y013741D01*
X003471Y013624D01*
X004534Y012561D01*
X004624Y012471D01*
X004741Y012422D01*
X011360Y012422D01*
X012431Y011352D01*
X012431Y011281D01*
X012497Y011120D01*
X012620Y010997D01*
X012781Y010931D01*
X012954Y010931D01*
X013115Y010997D01*
X013238Y011120D01*
X013304Y011281D01*
X013304Y011454D01*
X013238Y011615D01*
X013115Y011738D01*
X012954Y011804D01*
X012883Y011804D01*
X011674Y013014D01*
X011556Y013062D01*
X004938Y013062D01*
X004062Y013938D01*
X004098Y013902D02*
X004150Y013902D01*
X004256Y013744D02*
X007590Y013744D01*
X007461Y013902D02*
X006756Y013902D01*
X006832Y014061D02*
X007457Y014061D01*
X007457Y014219D02*
X006832Y014219D01*
X006832Y014378D02*
X007457Y014378D01*
X007457Y014536D02*
X006832Y014536D01*
X006832Y014695D02*
X007481Y014695D01*
X006832Y014853D02*
X009078Y014853D01*
X009078Y015012D02*
X006832Y015012D01*
X006832Y015646D02*
X007489Y015646D01*
X007457Y015804D02*
X006832Y015804D01*
X006832Y015963D02*
X007457Y015963D01*
X007457Y016121D02*
X006832Y016121D01*
X006832Y016280D02*
X007457Y016280D01*
X007457Y016438D02*
X006781Y016438D01*
X007554Y016597D02*
X004062Y016597D01*
X004062Y016755D02*
X009190Y016755D01*
X009348Y016914D02*
X004062Y016914D01*
X004062Y017072D02*
X009515Y017072D01*
X010077Y017527D02*
X010003Y017707D01*
X010003Y017865D02*
X004062Y017865D01*
X004062Y018023D02*
X010003Y018023D01*
X010003Y018182D02*
X004062Y018182D01*
X004062Y018340D02*
X010003Y018340D01*
X010003Y018499D02*
X004062Y018499D01*
X004062Y018657D02*
X010003Y018657D01*
X010003Y018816D02*
X004062Y018816D01*
X004062Y018974D02*
X010003Y018974D01*
X010003Y019133D02*
X004062Y019133D01*
X004062Y019291D02*
X010003Y019291D01*
X010003Y019450D02*
X004062Y019450D01*
X004062Y019608D02*
X010003Y019608D01*
X010003Y019767D02*
X004062Y019767D01*
X004062Y019925D02*
X010003Y019925D01*
X010003Y020084D02*
X004062Y020084D01*
X004062Y020242D02*
X010003Y020242D01*
X010003Y020401D02*
X003974Y020401D01*
X003816Y020559D02*
X010003Y020559D01*
X010003Y020718D02*
X003657Y020718D01*
X003499Y020876D02*
X010003Y020876D01*
X010003Y021035D02*
X003340Y021035D01*
X003182Y021193D02*
X010003Y021193D01*
X010003Y021352D02*
X003023Y021352D01*
X002865Y021510D02*
X010003Y021510D01*
X009998Y021669D02*
X002706Y021669D01*
X002548Y021827D02*
X009840Y021827D01*
X009681Y021986D02*
X002389Y021986D01*
X002231Y022144D02*
X009523Y022144D01*
X009364Y022303D02*
X002072Y022303D01*
X001914Y022461D02*
X009206Y022461D01*
X009047Y022620D02*
X008768Y022620D01*
X008680Y022930D02*
X003055Y022930D01*
X003055Y024742D01*
X005055Y024742D01*
X006368Y023430D01*
X008680Y023430D01*
X008680Y022930D01*
X008680Y022937D02*
X003055Y022937D01*
X003055Y023095D02*
X008680Y023095D01*
X008680Y023180D02*
X007993Y023180D01*
X007961Y023180D01*
X007993Y023180D02*
X007993Y023180D01*
X008680Y023180D02*
X010993Y025493D01*
X012680Y025493D01*
X012376Y025116D02*
X012984Y025116D01*
X013072Y025152D01*
X013139Y025220D01*
X013176Y025308D01*
X013176Y025679D01*
X013139Y025767D01*
X013072Y025835D01*
X012993Y025867D01*
X013072Y025900D01*
X013139Y025968D01*
X013176Y026056D01*
X013176Y026427D01*
X013139Y026515D01*
X013100Y026555D01*
X013139Y026595D01*
X013176Y026683D01*
X013176Y027054D01*
X013139Y027142D01*
X013072Y027210D01*
X012984Y027246D01*
X012376Y027246D01*
X012288Y027210D01*
X012221Y027142D01*
X012184Y027054D01*
X012184Y026683D01*
X012221Y026595D01*
X012260Y026555D01*
X012251Y026546D01*
X012143Y026546D01*
X012143Y026707D01*
X012107Y026795D01*
X012039Y026862D01*
X011951Y026899D01*
X011824Y026899D01*
X011824Y027287D01*
X011135Y027287D01*
X011135Y026889D01*
X011071Y026862D01*
X011055Y026847D01*
X011039Y026862D01*
X010975Y026889D01*
X010975Y027287D01*
X011135Y027287D01*
X011135Y027447D01*
X011824Y027447D01*
X011824Y027836D01*
X011951Y027836D01*
X012039Y027873D01*
X012107Y027940D01*
X012143Y028028D01*
X012143Y028990D01*
X012107Y029078D01*
X012039Y029146D01*
X011951Y029182D01*
X011659Y029182D01*
X011571Y029146D01*
X011503Y029078D01*
X011500Y029070D01*
X011465Y029090D01*
X011424Y029101D01*
X011305Y029101D01*
X011186Y029101D01*
X011165Y029095D01*
X011165Y029204D01*
X011187Y029226D01*
X011223Y029314D01*
X011223Y029322D01*
X011229Y029300D01*
X011250Y029264D01*
X011279Y029235D01*
X011316Y029214D01*
X011356Y029203D01*
X011545Y029203D01*
X011545Y029609D01*
X011563Y029609D01*
X011563Y029626D01*
X011890Y029626D01*
X011890Y029894D01*
X011879Y029935D01*
X011858Y029971D01*
X011829Y030000D01*
X011792Y030021D01*
X011752Y030032D01*
X011563Y030032D01*
X011563Y029626D01*
X011545Y029626D01*
X011545Y030032D01*
X011356Y030032D01*
X011316Y030021D01*
X011279Y030000D01*
X011250Y029971D01*
X011229Y029935D01*
X011223Y029913D01*
X011223Y029921D01*
X011187Y030009D01*
X011119Y030077D01*
X011060Y030101D01*
X011060Y033429D01*
X012070Y034440D01*
X019852Y034440D01*
X020440Y033852D01*
X020440Y033193D01*
X020278Y033032D01*
X020251Y032965D01*
X020108Y033109D01*
X019940Y033109D01*
X019940Y032690D01*
X019920Y032690D01*
X019920Y033109D01*
X019752Y033109D01*
X019501Y032858D01*
X019501Y032690D01*
X019920Y032690D01*
X019920Y032670D01*
X019501Y032670D01*
X019501Y032502D01*
X019752Y032251D01*
X019920Y032251D01*
X019920Y032670D01*
X019940Y032670D01*
X019940Y032251D01*
X020108Y032251D01*
X020218Y032361D01*
X020218Y031999D01*
X020108Y032109D01*
X019940Y032109D01*
X019940Y031690D01*
X019920Y031690D01*
X019920Y032109D01*
X019752Y032109D01*
X019501Y031858D01*
X019501Y031690D01*
X019920Y031690D01*
X019920Y031670D01*
X019501Y031670D01*
X019501Y031502D01*
X019752Y031251D01*
X019920Y031251D01*
X019920Y031670D01*
X019940Y031670D01*
X019940Y031251D01*
X020108Y031251D01*
X020218Y031361D01*
X020218Y029600D01*
X020278Y029453D01*
X020391Y029341D01*
X022453Y027278D01*
X022600Y027217D01*
X029764Y027217D01*
X030593Y026389D01*
X030593Y024158D01*
X028278Y021844D01*
X028272Y021827D02*
X018298Y021827D01*
X018208Y022015D02*
X018345Y022152D01*
X018420Y022333D01*
X018420Y031449D01*
X018440Y031469D01*
X018440Y031891D01*
X018151Y032180D01*
X018440Y032469D01*
X018440Y032891D01*
X018250Y033081D01*
X018725Y033081D01*
X018752Y033109D02*
X018501Y032858D01*
X018501Y032690D01*
X018920Y032690D01*
X018920Y033109D01*
X018752Y033109D01*
X018920Y033081D02*
X018940Y033081D01*
X018940Y033109D02*
X019108Y033109D01*
X019359Y032858D01*
X019359Y032690D01*
X018940Y032690D01*
X018920Y032690D01*
X018920Y032670D01*
X018501Y032670D01*
X018501Y032502D01*
X018752Y032251D01*
X018920Y032251D01*
X018920Y032670D01*
X018940Y032670D01*
X018940Y032690D01*
X018940Y033109D01*
X018940Y032923D02*
X018920Y032923D01*
X018920Y032764D02*
X018940Y032764D01*
X018940Y032670D02*
X019359Y032670D01*
X019359Y032502D01*
X019108Y032251D01*
X018940Y032251D01*
X018940Y032670D01*
X018940Y032606D02*
X018920Y032606D01*
X018920Y032447D02*
X018940Y032447D01*
X018940Y032289D02*
X018920Y032289D01*
X018920Y032109D02*
X018752Y032109D01*
X018501Y031858D01*
X018501Y031690D01*
X018920Y031690D01*
X018920Y032109D01*
X018940Y032109D02*
X019108Y032109D01*
X019359Y031858D01*
X019359Y031690D01*
X018940Y031690D01*
X018920Y031690D01*
X018920Y031670D01*
X018501Y031670D01*
X018501Y031502D01*
X018752Y031251D01*
X018920Y031251D01*
X018920Y031670D01*
X018940Y031670D01*
X018940Y031690D01*
X018940Y032109D01*
X018940Y031972D02*
X018920Y031972D01*
X018920Y031813D02*
X018940Y031813D01*
X018940Y031670D02*
X019359Y031670D01*
X019359Y031502D01*
X019108Y031251D01*
X018940Y031251D01*
X018940Y031670D01*
X018940Y031655D02*
X018920Y031655D01*
X018920Y031496D02*
X018940Y031496D01*
X018940Y031338D02*
X018920Y031338D01*
X018666Y031338D02*
X018420Y031338D01*
X018420Y031179D02*
X020218Y031179D01*
X020218Y031021D02*
X018420Y031021D01*
X018420Y030862D02*
X020218Y030862D01*
X020218Y030704D02*
X018420Y030704D01*
X018420Y030545D02*
X020218Y030545D01*
X020218Y030387D02*
X018420Y030387D01*
X018420Y030228D02*
X020218Y030228D01*
X020218Y030070D02*
X018420Y030070D01*
X018420Y029911D02*
X020218Y029911D01*
X020218Y029753D02*
X018420Y029753D01*
X018420Y029594D02*
X020220Y029594D01*
X020296Y029436D02*
X018420Y029436D01*
X018420Y029277D02*
X020455Y029277D01*
X020391Y029341D02*
X020391Y029341D01*
X020613Y029119D02*
X018420Y029119D01*
X018420Y028960D02*
X020772Y028960D01*
X020930Y028802D02*
X018420Y028802D01*
X018420Y028643D02*
X021089Y028643D01*
X021247Y028485D02*
X018420Y028485D01*
X018420Y028326D02*
X021406Y028326D01*
X021564Y028168D02*
X018420Y028168D01*
X018420Y028009D02*
X021723Y028009D01*
X021881Y027851D02*
X018420Y027851D01*
X018420Y027692D02*
X022040Y027692D01*
X022198Y027534D02*
X018420Y027534D01*
X018420Y027375D02*
X022357Y027375D01*
X022605Y027692D02*
X032793Y027692D01*
X032951Y027534D02*
X030014Y027534D01*
X029930Y027617D02*
X022680Y027617D01*
X020618Y029680D01*
X020618Y032805D01*
X020868Y033055D01*
X021993Y033055D01*
X022243Y032805D01*
X022243Y030305D01*
X023180Y029367D01*
X031118Y029367D01*
X033430Y027055D01*
X033430Y023867D01*
X035740Y023867D01*
X035740Y021242D01*
X031493Y021242D01*
X030242Y019992D01*
X029180Y019992D01*
X028618Y020555D01*
X028618Y021617D01*
X030993Y023992D01*
X030993Y026555D01*
X029930Y027617D01*
X030172Y027375D02*
X033110Y027375D01*
X033268Y027217D02*
X030331Y027217D01*
X030489Y027058D02*
X033427Y027058D01*
X033430Y026900D02*
X030648Y026900D01*
X030806Y026741D02*
X033430Y026741D01*
X033430Y026583D02*
X030965Y026583D01*
X030993Y026424D02*
X033430Y026424D01*
X033430Y026266D02*
X030993Y026266D01*
X030993Y026107D02*
X033430Y026107D01*
X033430Y025949D02*
X030993Y025949D01*
X030993Y025790D02*
X033430Y025790D01*
X033430Y025631D02*
X030993Y025631D01*
X030993Y025473D02*
X033430Y025473D01*
X033430Y025314D02*
X030993Y025314D01*
X030993Y025156D02*
X033430Y025156D01*
X033430Y024997D02*
X030993Y024997D01*
X030993Y024839D02*
X033430Y024839D01*
X033430Y024680D02*
X030993Y024680D01*
X030993Y024522D02*
X033430Y024522D01*
X033430Y024363D02*
X030993Y024363D01*
X030993Y024205D02*
X033430Y024205D01*
X033430Y024046D02*
X030993Y024046D01*
X030888Y023888D02*
X033430Y023888D01*
X033830Y024522D02*
X035820Y024522D01*
X035820Y024680D02*
X033830Y024680D01*
X033830Y024839D02*
X035820Y024839D01*
X035820Y024997D02*
X033830Y024997D01*
X033830Y025156D02*
X035820Y025156D01*
X035820Y025314D02*
X033830Y025314D01*
X033830Y025473D02*
X035820Y025473D01*
X035820Y025631D02*
X033830Y025631D01*
X033830Y025790D02*
X035820Y025790D01*
X035820Y025949D02*
X033830Y025949D01*
X033830Y026107D02*
X035820Y026107D01*
X035820Y026266D02*
X033830Y026266D01*
X033830Y026424D02*
X035820Y026424D01*
X035820Y026583D02*
X033830Y026583D01*
X033830Y026741D02*
X035820Y026741D01*
X035820Y026900D02*
X033830Y026900D01*
X033830Y027058D02*
X035820Y027058D01*
X035820Y027217D02*
X033796Y027217D01*
X033769Y027282D02*
X033769Y027282D01*
X033769Y027282D01*
X033676Y027375D02*
X035820Y027375D01*
X035820Y027534D02*
X033517Y027534D01*
X033359Y027692D02*
X035820Y027692D01*
X035820Y027851D02*
X033200Y027851D01*
X033042Y028009D02*
X035820Y028009D01*
X035820Y028168D02*
X032883Y028168D01*
X032725Y028326D02*
X035820Y028326D01*
X035820Y028485D02*
X032566Y028485D01*
X032408Y028643D02*
X035820Y028643D01*
X035820Y028802D02*
X032249Y028802D01*
X032091Y028960D02*
X035820Y028960D01*
X035820Y029119D02*
X031932Y029119D01*
X031774Y029277D02*
X035820Y029277D01*
X035820Y029753D02*
X031233Y029753D01*
X031344Y029707D02*
X031344Y029707D01*
X031038Y029767D02*
X031038Y029767D01*
X031208Y029277D02*
X021020Y029277D01*
X020862Y029436D02*
X023112Y029436D01*
X022953Y029594D02*
X020703Y029594D01*
X020618Y029753D02*
X022795Y029753D01*
X022636Y029911D02*
X020618Y029911D01*
X020618Y030070D02*
X022478Y030070D01*
X022319Y030228D02*
X020618Y030228D01*
X020618Y030387D02*
X022243Y030387D01*
X022243Y030545D02*
X020618Y030545D01*
X020618Y030704D02*
X022243Y030704D01*
X022243Y030862D02*
X020618Y030862D01*
X020618Y031021D02*
X022243Y031021D01*
X022243Y031179D02*
X020618Y031179D01*
X020618Y031338D02*
X022243Y031338D01*
X022243Y031496D02*
X020618Y031496D01*
X020618Y031655D02*
X022243Y031655D01*
X022243Y031813D02*
X020618Y031813D01*
X020618Y031972D02*
X022243Y031972D01*
X022243Y032130D02*
X020618Y032130D01*
X020618Y032289D02*
X022243Y032289D01*
X022243Y032447D02*
X020618Y032447D01*
X020618Y032606D02*
X022243Y032606D01*
X022243Y032764D02*
X020618Y032764D01*
X020735Y032923D02*
X022125Y032923D01*
X022374Y033240D02*
X033392Y033240D01*
X033361Y033265D02*
X033466Y033179D01*
X033578Y033104D01*
X033698Y033040D01*
X033823Y032988D01*
X033953Y032949D01*
X034086Y032922D01*
X034208Y032910D01*
X034208Y034208D01*
X032910Y034208D01*
X032922Y034086D01*
X032949Y033953D01*
X032988Y033823D01*
X033040Y033698D01*
X033104Y033578D01*
X033179Y033466D01*
X033265Y033361D01*
X033361Y033265D01*
X033235Y033398D02*
X022210Y033398D01*
X022532Y033081D02*
X033621Y033081D01*
X033118Y033557D02*
X021420Y033557D01*
X021420Y033715D02*
X033033Y033715D01*
X032930Y033715D02*
X035822Y033715D01*
X035820Y033715D02*
X035544Y033715D01*
X035537Y033698D02*
X035588Y033823D01*
X035628Y033953D01*
X035654Y034086D01*
X035666Y034208D01*
X034368Y034208D01*
X034368Y032910D01*
X034491Y032922D01*
X034624Y032949D01*
X034753Y032988D01*
X034879Y033040D01*
X034998Y033104D01*
X035111Y033179D01*
X035216Y033265D01*
X035311Y033361D01*
X035397Y033466D01*
X035473Y033578D01*
X035537Y033698D01*
X035458Y033557D02*
X035820Y033557D01*
X035822Y033557D02*
X032930Y033557D01*
X032930Y033398D02*
X035822Y033398D01*
X035820Y033398D02*
X035342Y033398D01*
X035184Y033240D02*
X035820Y033240D01*
X035822Y033240D02*
X032930Y033240D01*
X032930Y033081D02*
X035822Y033081D01*
X035820Y033081D02*
X034956Y033081D01*
X034492Y032923D02*
X035820Y032923D01*
X035822Y032930D02*
X032930Y032930D01*
X032930Y035822D01*
X035822Y035822D01*
X035822Y032930D01*
X035820Y032764D02*
X022642Y032764D01*
X022642Y032606D02*
X035820Y032606D01*
X035820Y032447D02*
X022642Y032447D01*
X022642Y032289D02*
X035820Y032289D01*
X035820Y032130D02*
X022642Y032130D01*
X022642Y031972D02*
X035820Y031972D01*
X035820Y031813D02*
X022642Y031813D01*
X022642Y031655D02*
X035820Y031655D01*
X035820Y031496D02*
X024134Y031496D01*
X024173Y031480D02*
X023853Y031612D01*
X023507Y031612D01*
X023187Y031480D01*
X022943Y031235D01*
X022810Y030916D01*
X022810Y030569D01*
X022943Y030250D01*
X023187Y030005D01*
X023507Y029873D01*
X023853Y029873D01*
X024173Y030005D01*
X024418Y030250D01*
X024550Y030569D01*
X024550Y030916D01*
X024418Y031235D01*
X024173Y031480D01*
X024315Y031338D02*
X035820Y031338D01*
X035820Y031179D02*
X024441Y031179D01*
X024506Y031021D02*
X035820Y031021D01*
X035820Y030862D02*
X024550Y030862D01*
X024550Y030704D02*
X035820Y030704D01*
X035820Y030545D02*
X024540Y030545D01*
X024474Y030387D02*
X035820Y030387D01*
X035820Y030228D02*
X024396Y030228D01*
X024237Y030070D02*
X035820Y030070D01*
X035820Y029911D02*
X023946Y029911D01*
X023414Y029911D02*
X023202Y029911D01*
X023123Y030070D02*
X023044Y030070D01*
X022964Y030228D02*
X022885Y030228D01*
X022886Y030387D02*
X022727Y030387D01*
X022642Y030545D02*
X022820Y030545D01*
X022810Y030704D02*
X022642Y030704D01*
X022642Y030862D02*
X022810Y030862D01*
X022854Y031021D02*
X022642Y031021D01*
X022642Y031179D02*
X022919Y031179D01*
X023045Y031338D02*
X022642Y031338D01*
X022642Y031496D02*
X023226Y031496D01*
X022627Y032923D02*
X034085Y032923D01*
X034208Y032923D02*
X034368Y032923D01*
X034368Y033081D02*
X034208Y033081D01*
X034208Y033240D02*
X034368Y033240D01*
X034368Y033398D02*
X034208Y033398D01*
X034208Y033557D02*
X034368Y033557D01*
X034368Y033715D02*
X034208Y033715D01*
X034208Y033874D02*
X034368Y033874D01*
X034368Y034032D02*
X034208Y034032D01*
X034208Y034191D02*
X034368Y034191D01*
X034368Y034208D02*
X034208Y034208D01*
X034208Y034368D01*
X032910Y034368D01*
X032922Y034491D01*
X032949Y034624D01*
X032988Y034753D01*
X033040Y034879D01*
X033104Y034998D01*
X033179Y035111D01*
X033265Y035216D01*
X033361Y035311D01*
X033466Y035397D01*
X033578Y035473D01*
X033698Y035537D01*
X033823Y035588D01*
X033953Y035628D01*
X034086Y035654D01*
X034208Y035666D01*
X034208Y034368D01*
X034368Y034368D01*
X034368Y035666D01*
X034491Y035654D01*
X034624Y035628D01*
X034753Y035588D01*
X034879Y035537D01*
X034998Y035473D01*
X035111Y035397D01*
X035216Y035311D01*
X035311Y035216D01*
X035397Y035111D01*
X035473Y034998D01*
X035537Y034879D01*
X035588Y034753D01*
X035628Y034624D01*
X035654Y034491D01*
X035666Y034368D01*
X034368Y034368D01*
X034368Y034208D01*
X034368Y034349D02*
X035820Y034349D01*
X035822Y034349D02*
X032930Y034349D01*
X032930Y034191D02*
X035822Y034191D01*
X035820Y034191D02*
X035665Y034191D01*
X035644Y034032D02*
X035820Y034032D01*
X035822Y034032D02*
X032930Y034032D01*
X032933Y034032D02*
X021420Y034032D01*
X021420Y033874D02*
X032973Y033874D01*
X032930Y033874D02*
X035822Y033874D01*
X035820Y033874D02*
X035604Y033874D01*
X035651Y034508D02*
X035820Y034508D01*
X035822Y034508D02*
X032930Y034508D01*
X032926Y034508D02*
X021170Y034508D01*
X021012Y034666D02*
X032962Y034666D01*
X032930Y034666D02*
X035822Y034666D01*
X035820Y034666D02*
X035615Y034666D01*
X035559Y034825D02*
X035820Y034825D01*
X035822Y034825D02*
X032930Y034825D01*
X033018Y034825D02*
X020853Y034825D01*
X020695Y034983D02*
X033096Y034983D01*
X032930Y034983D02*
X035822Y034983D01*
X035820Y034983D02*
X035481Y034983D01*
X035372Y035142D02*
X035820Y035142D01*
X035822Y035142D02*
X032930Y035142D01*
X032930Y035300D02*
X035822Y035300D01*
X035820Y035300D02*
X035227Y035300D01*
X035019Y035459D02*
X035820Y035459D01*
X035822Y035459D02*
X032930Y035459D01*
X032930Y035617D02*
X035822Y035617D01*
X035820Y035617D02*
X034659Y035617D01*
X034368Y035617D02*
X034208Y035617D01*
X034208Y035459D02*
X034368Y035459D01*
X034368Y035300D02*
X034208Y035300D01*
X034208Y035142D02*
X034368Y035142D01*
X034368Y034983D02*
X034208Y034983D01*
X034208Y034825D02*
X034368Y034825D01*
X034368Y034666D02*
X034208Y034666D01*
X034208Y034508D02*
X034368Y034508D01*
X034208Y034349D02*
X021329Y034349D01*
X021404Y034191D02*
X032912Y034191D01*
X033204Y035142D02*
X020536Y035142D01*
X020378Y035300D02*
X033350Y035300D01*
X033557Y035459D02*
X008544Y035459D01*
X008544Y035617D02*
X033917Y035617D01*
X032930Y035776D02*
X035822Y035776D01*
X035820Y035776D02*
X008544Y035776D01*
X008544Y035300D02*
X011545Y035300D01*
X011386Y035142D02*
X008544Y035142D01*
X008544Y034983D02*
X011228Y034983D01*
X011069Y034825D02*
X008541Y034825D01*
X008498Y034666D02*
X010911Y034666D01*
X010752Y034508D02*
X008456Y034508D01*
X008420Y034375D02*
X008420Y034375D01*
X008405Y034349D02*
X010594Y034349D01*
X010435Y034191D02*
X008314Y034191D01*
X008222Y034032D02*
X010277Y034032D01*
X010139Y033874D02*
X008094Y033874D01*
X007935Y033715D02*
X010080Y033715D01*
X010080Y033557D02*
X007728Y033557D01*
X007844Y033623D02*
X007844Y033623D01*
X007453Y033398D02*
X010080Y033398D01*
X010080Y033240D02*
X002901Y033240D01*
X002932Y033265D02*
X003028Y033361D01*
X003114Y033466D01*
X003189Y033578D01*
X003253Y033698D01*
X003305Y033823D01*
X003344Y033953D01*
X003371Y034086D01*
X003383Y034208D01*
X002085Y034208D01*
X002085Y034368D01*
X003383Y034368D01*
X003371Y034491D01*
X003344Y034624D01*
X003305Y034753D01*
X003253Y034879D01*
X003189Y034998D01*
X003114Y035111D01*
X003028Y035216D01*
X002932Y035311D01*
X002827Y035397D01*
X002715Y035473D01*
X002595Y035537D01*
X002470Y035588D01*
X002340Y035628D01*
X002207Y035654D01*
X002085Y035666D01*
X002085Y034368D01*
X001925Y034368D01*
X001925Y034208D01*
X002085Y034208D01*
X002085Y032910D01*
X002207Y032922D01*
X002340Y032949D01*
X002470Y032988D01*
X002595Y033040D01*
X002715Y033104D01*
X002827Y033179D01*
X002932Y033265D01*
X003058Y033398D02*
X006005Y033398D01*
X006029Y033385D02*
X006029Y033385D01*
X005731Y033557D02*
X003175Y033557D01*
X003260Y033715D02*
X005523Y033715D01*
X005615Y033623D02*
X005615Y033623D01*
X005365Y033874D02*
X003320Y033874D01*
X003367Y033874D02*
X000471Y033874D01*
X000473Y033874D02*
X000689Y033874D01*
X000705Y033823D02*
X000757Y033698D01*
X000820Y033578D01*
X000896Y033466D01*
X000982Y033361D01*
X001077Y033265D01*
X001182Y033179D01*
X001295Y033104D01*
X001414Y033040D01*
X001540Y032988D01*
X001669Y032949D01*
X001802Y032922D01*
X001925Y032910D01*
X001925Y034208D01*
X000627Y034208D01*
X000639Y034086D01*
X000665Y033953D01*
X000705Y033823D01*
X000749Y033715D02*
X000473Y033715D01*
X000471Y033715D02*
X003367Y033715D01*
X003367Y033557D02*
X000471Y033557D01*
X000473Y033557D02*
X000835Y033557D01*
X000951Y033398D02*
X000473Y033398D01*
X000471Y033398D02*
X003367Y033398D01*
X003367Y033240D02*
X000471Y033240D01*
X000473Y033240D02*
X001109Y033240D01*
X001338Y033081D02*
X000473Y033081D01*
X000471Y033081D02*
X003367Y033081D01*
X003367Y032930D02*
X003367Y035822D01*
X000471Y035822D01*
X000471Y032930D01*
X003367Y032930D01*
X002672Y033081D02*
X010080Y033081D01*
X010080Y032923D02*
X002208Y032923D01*
X002085Y032923D02*
X001925Y032923D01*
X001801Y032923D02*
X000473Y032923D01*
X000473Y032764D02*
X010080Y032764D01*
X010080Y032606D02*
X000473Y032606D01*
X000473Y032447D02*
X010080Y032447D01*
X010080Y032289D02*
X000473Y032289D01*
X000473Y032130D02*
X010080Y032130D01*
X010080Y031972D02*
X000473Y031972D01*
X000473Y031813D02*
X010080Y031813D01*
X010080Y031655D02*
X000473Y031655D01*
X000473Y031496D02*
X010080Y031496D01*
X010080Y031338D02*
X000473Y031338D01*
X000473Y031179D02*
X010080Y031179D01*
X010080Y031021D02*
X000473Y031021D01*
X000473Y030862D02*
X005993Y030862D01*
X005765Y030704D02*
X000473Y030704D01*
X000473Y030545D02*
X005674Y030545D01*
X005640Y030387D02*
X000473Y030387D01*
X000473Y030228D02*
X005640Y030228D01*
X005640Y030070D02*
X000473Y030070D01*
X000473Y029911D02*
X001521Y029911D01*
X001362Y029753D02*
X000473Y029753D01*
X000473Y029594D02*
X001204Y029594D01*
X001045Y029436D02*
X000473Y029436D01*
X000473Y029277D02*
X000887Y029277D01*
X000728Y029119D02*
X000473Y029119D01*
X000473Y028960D02*
X000622Y028960D01*
X000610Y028802D02*
X000473Y028802D01*
X000473Y028643D02*
X000610Y028643D01*
X000610Y028485D02*
X000473Y028485D01*
X000473Y028326D02*
X000610Y028326D01*
X000610Y028168D02*
X000473Y028168D01*
X000473Y028009D02*
X000610Y028009D01*
X000610Y027851D02*
X000473Y027851D01*
X000473Y027692D02*
X000610Y027692D01*
X000610Y027534D02*
X000473Y027534D01*
X000473Y027375D02*
X000610Y027375D01*
X000610Y027217D02*
X000473Y027217D01*
X000473Y027058D02*
X000610Y027058D01*
X000610Y026900D02*
X000473Y026900D01*
X000473Y026741D02*
X000610Y026741D01*
X000610Y026583D02*
X000473Y026583D01*
X000473Y026424D02*
X000610Y026424D01*
X000610Y026266D02*
X000473Y026266D01*
X000473Y026107D02*
X000610Y026107D01*
X000610Y025949D02*
X000473Y025949D01*
X000473Y025790D02*
X000610Y025790D01*
X000610Y025631D02*
X000473Y025631D01*
X000473Y025473D02*
X000610Y025473D01*
X000610Y025314D02*
X000473Y025314D01*
X000473Y025156D02*
X000610Y025156D01*
X000610Y024997D02*
X000473Y024997D01*
X000473Y024839D02*
X000610Y024839D01*
X000610Y024680D02*
X000473Y024680D01*
X000473Y024522D02*
X000610Y024522D01*
X000610Y024363D02*
X000473Y024363D01*
X000473Y024205D02*
X000610Y024205D01*
X000610Y024046D02*
X000473Y024046D01*
X000473Y023888D02*
X000610Y023888D01*
X000610Y023729D02*
X000473Y023729D01*
X000473Y023571D02*
X000610Y023571D01*
X000610Y023412D02*
X000473Y023412D01*
X000473Y023254D02*
X000610Y023254D01*
X000610Y023095D02*
X000473Y023095D01*
X000473Y022937D02*
X000610Y022937D01*
X000691Y022778D02*
X000473Y022778D01*
X000473Y022620D02*
X000850Y022620D01*
X001008Y022461D02*
X000473Y022461D01*
X000473Y022303D02*
X001167Y022303D01*
X001325Y022144D02*
X000473Y022144D01*
X000473Y021986D02*
X001484Y021986D01*
X001642Y021827D02*
X000473Y021827D01*
X000473Y021669D02*
X001801Y021669D01*
X001959Y021510D02*
X000473Y021510D01*
X000473Y021352D02*
X002118Y021352D01*
X002276Y021193D02*
X000473Y021193D01*
X000473Y021035D02*
X002435Y021035D01*
X002593Y020876D02*
X000473Y020876D01*
X000473Y020718D02*
X002752Y020718D01*
X002910Y020559D02*
X000473Y020559D01*
X000473Y020401D02*
X003069Y020401D01*
X003227Y020242D02*
X000473Y020242D01*
X000473Y020084D02*
X003386Y020084D01*
X003423Y019925D02*
X000473Y019925D01*
X000473Y019767D02*
X003423Y019767D01*
X003423Y019608D02*
X000473Y019608D01*
X000473Y019450D02*
X003423Y019450D01*
X003423Y019291D02*
X000473Y019291D01*
X000473Y019133D02*
X003423Y019133D01*
X003423Y018974D02*
X000473Y018974D01*
X000473Y018816D02*
X003423Y018816D01*
X003423Y018657D02*
X000473Y018657D01*
X000473Y018499D02*
X003423Y018499D01*
X003423Y018340D02*
X000473Y018340D01*
X000473Y018182D02*
X003423Y018182D01*
X003423Y018023D02*
X000473Y018023D01*
X000473Y017865D02*
X003423Y017865D01*
X003423Y017706D02*
X000473Y017706D01*
X000473Y017548D02*
X003423Y017548D01*
X003423Y017389D02*
X000473Y017389D01*
X000473Y017231D02*
X003423Y017231D01*
X003423Y017072D02*
X000473Y017072D01*
X000473Y016914D02*
X003423Y016914D01*
X003423Y016755D02*
X000473Y016755D01*
X000473Y016597D02*
X003423Y016597D01*
X003423Y016438D02*
X000473Y016438D01*
X000473Y016280D02*
X003423Y016280D01*
X003423Y016121D02*
X000473Y016121D01*
X000473Y015963D02*
X003423Y015963D01*
X003423Y015804D02*
X000473Y015804D01*
X000473Y015646D02*
X003423Y015646D01*
X003423Y015487D02*
X000473Y015487D01*
X000473Y015329D02*
X003423Y015329D01*
X003423Y015170D02*
X000473Y015170D01*
X000473Y015012D02*
X003423Y015012D01*
X003423Y014853D02*
X000473Y014853D01*
X000473Y014695D02*
X003423Y014695D01*
X003423Y014536D02*
X000473Y014536D01*
X000473Y014378D02*
X003423Y014378D01*
X003423Y014219D02*
X000473Y014219D01*
X000473Y014061D02*
X003423Y014061D01*
X003423Y013902D02*
X000473Y013902D01*
X000473Y013744D02*
X003423Y013744D01*
X003509Y013585D02*
X000473Y013585D01*
X000473Y013427D02*
X003668Y013427D01*
X003826Y013268D02*
X000473Y013268D01*
X000473Y013110D02*
X003985Y013110D01*
X004143Y012951D02*
X000473Y012951D01*
X000473Y012793D02*
X004302Y012793D01*
X004460Y012634D02*
X000473Y012634D01*
X000473Y012476D02*
X004619Y012476D01*
X004805Y012742D02*
X011493Y012742D01*
X012868Y011367D01*
X013274Y011208D02*
X013443Y011208D01*
X013304Y011366D02*
X013601Y011366D01*
X013760Y011525D02*
X013275Y011525D01*
X013169Y011683D02*
X013918Y011683D01*
X014077Y011842D02*
X012846Y011842D01*
X012687Y012000D02*
X014235Y012000D01*
X014394Y012159D02*
X012529Y012159D01*
X012370Y012317D02*
X012726Y012317D01*
X012737Y012311D02*
X013008Y012238D01*
X013289Y012238D01*
X013561Y012311D01*
X013804Y012451D01*
X014002Y012650D01*
X014143Y012893D01*
X014216Y013165D01*
X014216Y013445D01*
X014143Y013717D01*
X014002Y013960D01*
X013804Y014159D01*
X013561Y014299D01*
X013289Y014372D01*
X013008Y014372D01*
X012737Y014299D01*
X012494Y014159D01*
X012295Y013960D01*
X012155Y013717D01*
X012082Y013445D01*
X012082Y013165D01*
X012155Y012893D01*
X012295Y012650D01*
X012494Y012451D01*
X012737Y012311D01*
X012469Y012476D02*
X012212Y012476D01*
X012311Y012634D02*
X012053Y012634D01*
X011895Y012793D02*
X012213Y012793D01*
X012139Y012951D02*
X011736Y012951D01*
X012097Y013110D02*
X004890Y013110D01*
X004732Y013268D02*
X009561Y013268D01*
X009367Y013427D02*
X004573Y013427D01*
X004415Y013585D02*
X009209Y013585D01*
X009038Y013744D02*
X008985Y013744D01*
X009907Y014844D02*
X009907Y014858D01*
X009501Y014858D01*
X009501Y014875D01*
X009842Y014875D01*
X009842Y014861D01*
X010484Y014861D01*
X010484Y014844D01*
X009907Y014844D01*
X009907Y014853D02*
X010484Y014853D01*
X010484Y014861D02*
X010484Y015171D01*
X010484Y015499D01*
X010501Y015499D01*
X010501Y015189D01*
X010501Y014861D01*
X010484Y014861D01*
X010501Y014853D02*
X013496Y014853D01*
X013488Y015012D02*
X011143Y015012D01*
X011058Y015170D02*
X013490Y015170D01*
X013532Y015329D02*
X011143Y015329D01*
X011143Y015487D02*
X013591Y015487D01*
X013682Y015646D02*
X011143Y015646D01*
X010501Y015646D02*
X010484Y015646D01*
X010484Y015804D02*
X010501Y015804D01*
X010484Y015487D02*
X010501Y015487D01*
X010484Y015329D02*
X010501Y015329D01*
X010501Y015189D02*
X010501Y015189D01*
X010501Y015170D02*
X010484Y015170D01*
X010484Y015171D02*
X010484Y015171D01*
X010484Y015012D02*
X010501Y015012D01*
X011143Y014695D02*
X013539Y014695D01*
X013604Y014536D02*
X011061Y014536D01*
X010913Y014378D02*
X013696Y014378D01*
X013698Y014219D02*
X013851Y014219D01*
X013901Y014061D02*
X014089Y014061D01*
X014036Y013902D02*
X015673Y013902D01*
X015673Y013929D02*
X015673Y013929D01*
X015673Y014061D02*
X015021Y014061D01*
X015259Y014219D02*
X015673Y014219D01*
X015673Y014378D02*
X015414Y014378D01*
X015506Y014536D02*
X015673Y014536D01*
X015673Y014695D02*
X015571Y014695D01*
X015614Y014853D02*
X015673Y014853D01*
X015673Y015012D02*
X015622Y015012D01*
X015620Y015170D02*
X015673Y015170D01*
X015673Y015329D02*
X015578Y015329D01*
X015519Y015487D02*
X015673Y015487D01*
X015673Y015646D02*
X015428Y015646D01*
X015283Y015804D02*
X015673Y015804D01*
X015673Y015963D02*
X015062Y015963D01*
X013840Y016252D02*
X013840Y016252D01*
X013697Y017389D02*
X012525Y017389D01*
X012529Y017393D02*
X012580Y017444D01*
X012622Y017502D01*
X012655Y017566D01*
X012677Y017635D01*
X012689Y017706D01*
X012689Y017722D01*
X011950Y017722D01*
X011950Y017284D01*
X012266Y017284D01*
X012337Y017295D01*
X012406Y017317D01*
X012470Y017350D01*
X012529Y017393D01*
X012646Y017548D02*
X013855Y017548D01*
X014014Y017706D02*
X012689Y017706D01*
X012689Y017762D02*
X012689Y017779D01*
X012677Y017850D01*
X012655Y017919D01*
X012622Y017983D01*
X012580Y018041D01*
X012529Y018092D01*
X012470Y018135D01*
X012406Y018168D01*
X012337Y018190D01*
X012266Y018201D01*
X011950Y018201D01*
X011950Y017762D01*
X012689Y017762D01*
X012673Y017865D02*
X014172Y017865D01*
X014331Y018023D02*
X012593Y018023D01*
X012362Y018182D02*
X014489Y018182D01*
X014648Y018340D02*
X012452Y018340D01*
X012470Y018350D02*
X012529Y018393D01*
X012580Y018444D01*
X012622Y018502D01*
X012655Y018566D01*
X012677Y018635D01*
X012689Y018706D01*
X012689Y018722D01*
X011950Y018722D01*
X011950Y018284D01*
X012266Y018284D01*
X012337Y018295D01*
X012406Y018317D01*
X012470Y018350D01*
X012620Y018499D02*
X014806Y018499D01*
X014965Y018657D02*
X012681Y018657D01*
X012689Y018762D02*
X012689Y018779D01*
X012677Y018850D01*
X012655Y018919D01*
X012622Y018983D01*
X012580Y019041D01*
X012529Y019092D01*
X012470Y019135D01*
X012406Y019168D01*
X012337Y019190D01*
X012266Y019201D01*
X011950Y019201D01*
X011950Y018762D01*
X012689Y018762D01*
X012683Y018816D02*
X015123Y018816D01*
X015282Y018974D02*
X012627Y018974D01*
X012473Y019133D02*
X015440Y019133D01*
X015434Y019291D02*
X015599Y019291D01*
X015643Y019450D02*
X015817Y019450D01*
X015799Y019608D02*
X015717Y019608D01*
X015993Y019055D02*
X016243Y019055D01*
X016931Y018366D01*
X016929Y011680D01*
X016930Y013866D01*
X016930Y011742D01*
X016930Y006492D01*
X017250Y006790D02*
X017250Y010970D01*
X018234Y009986D01*
X018234Y009445D01*
X018173Y009384D01*
X018137Y009296D01*
X018137Y009288D01*
X018131Y009310D01*
X018110Y009346D01*
X018081Y009375D01*
X018044Y009396D01*
X018004Y009407D01*
X017815Y009407D01*
X017815Y009001D01*
X017797Y009001D01*
X017797Y008984D01*
X017470Y008984D01*
X017470Y008716D01*
X017481Y008675D01*
X017502Y008639D01*
X017531Y008610D01*
X017568Y008589D01*
X017608Y008578D01*
X017797Y008578D01*
X017797Y008984D01*
X017815Y008984D01*
X017815Y008578D01*
X018004Y008578D01*
X018044Y008589D01*
X018081Y008610D01*
X018110Y008639D01*
X018131Y008675D01*
X018137Y008697D01*
X018137Y008689D01*
X018173Y008601D01*
X018241Y008533D01*
X018329Y008497D01*
X018536Y008497D01*
X018811Y008221D01*
X018893Y008187D01*
X018363Y008187D01*
X018338Y008212D01*
X018250Y008249D01*
X017485Y008249D01*
X017397Y008212D01*
X017329Y008145D01*
X017293Y008057D01*
X017293Y007686D01*
X017329Y007597D01*
X017374Y007553D01*
X017374Y007399D01*
X017867Y007399D01*
X017867Y007399D01*
X017374Y007399D01*
X017374Y007245D01*
X017329Y007200D01*
X017293Y007112D01*
X017293Y006747D01*
X017250Y006790D01*
X017270Y006770D02*
X017293Y006770D01*
X017293Y006928D02*
X017250Y006928D01*
X017250Y007087D02*
X017293Y007087D01*
X017250Y007245D02*
X017374Y007245D01*
X017374Y007404D02*
X017250Y007404D01*
X017250Y007562D02*
X017364Y007562D01*
X017293Y007721D02*
X017250Y007721D01*
X017250Y007879D02*
X017293Y007879D01*
X017293Y008038D02*
X017250Y008038D01*
X017250Y008196D02*
X017381Y008196D01*
X017250Y008355D02*
X018677Y008355D01*
X018871Y008196D02*
X018354Y008196D01*
X018288Y008513D02*
X017250Y008513D01*
X017250Y008672D02*
X017483Y008672D01*
X017470Y008830D02*
X017250Y008830D01*
X017250Y008989D02*
X017797Y008989D01*
X017797Y009001D02*
X017470Y009001D01*
X017470Y009269D01*
X017481Y009310D01*
X017502Y009346D01*
X017531Y009375D01*
X017568Y009396D01*
X017608Y009407D01*
X017797Y009407D01*
X017797Y009001D01*
X017797Y009147D02*
X017815Y009147D01*
X017815Y009306D02*
X017797Y009306D01*
X017480Y009306D02*
X017250Y009306D01*
X017250Y009464D02*
X018234Y009464D01*
X018234Y009623D02*
X017250Y009623D01*
X017250Y009781D02*
X018234Y009781D01*
X018234Y009940D02*
X017250Y009940D01*
X017250Y010098D02*
X018121Y010098D01*
X017963Y010257D02*
X017250Y010257D01*
X017250Y010415D02*
X017804Y010415D01*
X017646Y010574D02*
X017250Y010574D01*
X017250Y010732D02*
X017487Y010732D01*
X017329Y010891D02*
X017250Y010891D01*
X016610Y010891D02*
X014031Y010891D01*
X013873Y010732D02*
X016610Y010732D01*
X016610Y010574D02*
X014245Y010574D01*
X014302Y010550D02*
X014142Y010617D01*
X013968Y010617D01*
X013808Y010550D01*
X013685Y010427D01*
X013618Y010267D01*
X013618Y010093D01*
X013685Y009933D01*
X013808Y009810D01*
X013968Y009743D01*
X014097Y009743D01*
X014116Y009735D01*
X015820Y009735D01*
X015870Y009685D01*
X016031Y009618D01*
X016204Y009618D01*
X016365Y009685D01*
X016488Y009808D01*
X016554Y009968D01*
X016554Y010142D01*
X016488Y010302D01*
X016365Y010425D01*
X016204Y010492D01*
X016031Y010492D01*
X015870Y010425D01*
X015820Y010375D01*
X014447Y010375D01*
X014425Y010427D01*
X014302Y010550D01*
X014430Y010415D02*
X015860Y010415D01*
X016118Y010055D02*
X014180Y010055D01*
X014055Y010180D01*
X013865Y010574D02*
X013714Y010574D01*
X013680Y010415D02*
X013556Y010415D01*
X013618Y010257D02*
X013397Y010257D01*
X013239Y010098D02*
X013618Y010098D01*
X013682Y009940D02*
X013080Y009940D01*
X012922Y009781D02*
X013875Y009781D01*
X013970Y009147D02*
X016610Y009147D01*
X016610Y008989D02*
X013994Y008989D01*
X013994Y008830D02*
X016610Y008830D01*
X016610Y008672D02*
X013994Y008672D01*
X013994Y008513D02*
X016610Y008513D01*
X016610Y008355D02*
X013994Y008355D01*
X013957Y008196D02*
X014152Y008196D01*
X014180Y007743D02*
X013872Y007435D01*
X013872Y006916D01*
X014467Y006928D02*
X014484Y006928D01*
X014467Y006770D02*
X014484Y006770D01*
X014467Y006611D02*
X014518Y006611D01*
X014458Y006453D02*
X016493Y006453D01*
X016506Y006611D02*
X015717Y006611D01*
X015751Y006770D02*
X016590Y006770D01*
X016610Y006928D02*
X015751Y006928D01*
X015751Y007087D02*
X016610Y007087D01*
X016610Y007245D02*
X015751Y007245D01*
X015741Y007404D02*
X016610Y007404D01*
X016610Y007562D02*
X015582Y007562D01*
X015557Y007721D02*
X016610Y007721D01*
X016610Y007879D02*
X015557Y007879D01*
X015557Y008038D02*
X016610Y008038D01*
X016610Y008196D02*
X015458Y008196D01*
X015179Y007743D02*
X015179Y007680D01*
X015180Y007680D01*
X015118Y007617D01*
X015118Y007037D01*
X014484Y007087D02*
X014467Y007087D01*
X014467Y007245D02*
X014484Y007245D01*
X014431Y007743D02*
X014180Y007743D01*
X014710Y008196D02*
X014900Y008196D01*
X016019Y009623D02*
X012763Y009623D01*
X012697Y009464D02*
X016610Y009464D01*
X016610Y009306D02*
X012673Y009306D01*
X012180Y008687D02*
X011055Y008687D01*
X011055Y008055D01*
X010425Y007425D01*
X010425Y006916D01*
X009831Y006928D02*
X000473Y006928D01*
X000473Y006770D02*
X009831Y006770D01*
X009831Y006611D02*
X000473Y006611D01*
X000473Y006453D02*
X009839Y006453D01*
X009993Y006294D02*
X000473Y006294D01*
X000473Y006136D02*
X011184Y006136D01*
X011184Y006294D02*
X010858Y006294D01*
X011011Y006453D02*
X011099Y006453D01*
X011091Y006611D02*
X011019Y006611D01*
X011019Y006770D02*
X011091Y006770D01*
X011091Y006928D02*
X011019Y006928D01*
X011019Y007087D02*
X011091Y007087D01*
X011091Y007245D02*
X011019Y007245D01*
X011000Y007404D02*
X011110Y007404D01*
X011015Y007562D02*
X012323Y007562D01*
X012456Y007721D02*
X011174Y007721D01*
X011329Y007879D02*
X012614Y007879D01*
X012596Y007861D02*
X012596Y007861D01*
X012686Y007951D02*
X012686Y007951D01*
X012773Y008038D02*
X011375Y008038D01*
X011770Y008196D02*
X012528Y008196D01*
X012491Y008355D02*
X011807Y008355D01*
X011650Y009306D02*
X011238Y009306D01*
X011277Y009464D02*
X011627Y009464D01*
X011627Y009623D02*
X011277Y009623D01*
X011277Y009873D02*
X010891Y009873D01*
X010891Y010357D01*
X011139Y010357D01*
X011180Y010347D01*
X011216Y010326D01*
X011246Y010296D01*
X011266Y010260D01*
X011277Y010220D01*
X011277Y009873D01*
X011277Y009940D02*
X011627Y009940D01*
X011627Y010098D02*
X011277Y010098D01*
X011267Y010257D02*
X011631Y010257D01*
X011763Y010415D02*
X000473Y010415D01*
X000473Y010257D02*
X010379Y010257D01*
X010369Y010098D02*
X000473Y010098D01*
X000473Y009940D02*
X010369Y009940D01*
X010369Y009623D02*
X000473Y009623D01*
X000473Y009781D02*
X010756Y009781D01*
X010891Y009781D02*
X011627Y009781D01*
X010891Y009940D02*
X010756Y009940D01*
X010756Y010098D02*
X010891Y010098D01*
X010891Y010257D02*
X010756Y010257D01*
X010369Y009464D02*
X000473Y009464D01*
X000473Y009306D02*
X010409Y009306D01*
X010327Y009147D02*
X000473Y009147D01*
X000473Y008989D02*
X010303Y008989D01*
X010303Y008830D02*
X000473Y008830D01*
X000473Y008672D02*
X010303Y008672D01*
X010303Y008513D02*
X000473Y008513D01*
X000473Y008355D02*
X010303Y008355D01*
X010340Y008196D02*
X000473Y008196D01*
X000473Y008038D02*
X010585Y008038D01*
X010427Y007879D02*
X000473Y007879D01*
X000473Y007721D02*
X010268Y007721D01*
X010136Y007562D02*
X000473Y007562D01*
X000473Y007404D02*
X009850Y007404D01*
X009831Y007245D02*
X000473Y007245D01*
X000473Y007087D02*
X009831Y007087D01*
X011217Y005977D02*
X000473Y005977D01*
X000473Y005819D02*
X011272Y005819D01*
X011184Y005660D02*
X000473Y005660D01*
X000473Y005502D02*
X011184Y005502D01*
X011184Y005343D02*
X000473Y005343D01*
X000473Y005185D02*
X011255Y005185D01*
X011680Y005492D02*
X011868Y005680D01*
X012573Y005680D01*
X011680Y005493D02*
X011680Y005492D01*
X011680Y005492D01*
X011680Y006241D02*
X011680Y006930D01*
X011680Y006930D01*
X011685Y006930D01*
X011685Y006916D01*
X012613Y006916D02*
X012613Y007425D01*
X012868Y007680D01*
X013180Y007992D01*
X013243Y008055D01*
X013243Y008687D02*
X013243Y008687D01*
X013243Y008687D01*
X012650Y010415D02*
X012561Y010415D01*
X012809Y010574D02*
X000473Y010574D01*
X000473Y010732D02*
X012967Y010732D01*
X013126Y010891D02*
X000473Y010891D01*
X000473Y011049D02*
X012568Y011049D01*
X012461Y011208D02*
X000473Y011208D01*
X000473Y011366D02*
X012416Y011366D01*
X012257Y011525D02*
X000473Y011525D01*
X000473Y011683D02*
X012099Y011683D01*
X011940Y011842D02*
X000473Y011842D01*
X000473Y012000D02*
X011782Y012000D01*
X011623Y012159D02*
X000473Y012159D01*
X000473Y012317D02*
X011465Y012317D01*
X011137Y013268D02*
X012082Y013268D01*
X012082Y013427D02*
X011225Y013427D01*
X011225Y013585D02*
X012120Y013585D01*
X012170Y013744D02*
X011225Y013744D01*
X011206Y013902D02*
X012262Y013902D01*
X012396Y014061D02*
X010933Y014061D01*
X010933Y014219D02*
X012599Y014219D01*
X014127Y013744D02*
X015673Y013744D01*
X015673Y013585D02*
X014178Y013585D01*
X014216Y013427D02*
X015662Y013427D01*
X015503Y013268D02*
X014216Y013268D01*
X014201Y013110D02*
X015345Y013110D01*
X015186Y012951D02*
X014158Y012951D01*
X014085Y012793D02*
X015028Y012793D01*
X014869Y012634D02*
X013987Y012634D01*
X013828Y012476D02*
X014711Y012476D01*
X014552Y012317D02*
X013572Y012317D01*
X013284Y011049D02*
X013167Y011049D01*
X014190Y011049D02*
X016610Y011049D01*
X016610Y011208D02*
X014348Y011208D01*
X014507Y011366D02*
X015855Y011366D01*
X015845Y011525D02*
X014665Y011525D01*
X014824Y011683D02*
X016172Y011683D01*
X016172Y011525D02*
X016190Y011525D01*
X016190Y011366D02*
X016172Y011366D01*
X016507Y011366D02*
X016516Y011366D01*
X016930Y011742D02*
X018554Y010118D01*
X018554Y008992D01*
X018618Y008867D01*
X018993Y008492D01*
X019553Y008492D01*
X020680Y008492D01*
X021618Y007555D01*
X022926Y007555D01*
X022933Y007549D01*
X023875Y007549D01*
X024056Y007367D01*
X024056Y006555D01*
X023743Y006555D01*
X023493Y006305D01*
X023181Y006611D02*
X022695Y006611D01*
X022695Y006453D02*
X023081Y006453D01*
X023056Y006392D02*
X023056Y006218D01*
X023122Y006058D01*
X023180Y006000D01*
X022813Y006000D01*
X022687Y006125D01*
X022687Y006331D01*
X022695Y006348D01*
X022695Y006884D01*
X023065Y006884D01*
X023122Y006745D01*
X023218Y006649D01*
X023122Y006552D01*
X023056Y006392D01*
X023056Y006294D02*
X022687Y006294D01*
X022687Y006136D02*
X023090Y006136D01*
X022680Y005680D02*
X023930Y005680D01*
X024430Y006180D01*
X024430Y008867D01*
X025055Y009555D01*
X025055Y010680D01*
X026430Y012055D01*
X027430Y012055D01*
X027780Y011683D02*
X028080Y011683D01*
X028209Y011555D02*
X027930Y011834D01*
X027651Y011555D01*
X027930Y011276D01*
X028209Y011555D01*
X028179Y011525D02*
X027681Y011525D01*
X027840Y011366D02*
X028020Y011366D01*
X028430Y011055D02*
X027930Y010555D01*
X027930Y009805D01*
X025430Y007305D01*
X025430Y005992D01*
X024305Y004867D01*
X025368Y003805D01*
X025368Y002930D01*
X025805Y002492D01*
X025805Y002492D01*
X026207Y002173D02*
X026403Y002173D01*
X026305Y002271D02*
X026594Y001982D01*
X027016Y001982D01*
X027305Y002271D01*
X027594Y001982D01*
X028016Y001982D01*
X027561Y002015D02*
X027049Y002015D01*
X027207Y002173D02*
X027403Y002173D01*
X027805Y002492D02*
X030493Y002492D01*
X030493Y002507D01*
X030945Y002507D01*
X032743Y004305D01*
X032743Y006387D01*
X031997Y007132D01*
X031921Y007055D01*
X031930Y007055D01*
X031180Y006305D01*
X026305Y006305D01*
X025994Y006611D02*
X025750Y006611D01*
X025750Y006453D02*
X025893Y006453D01*
X025868Y006294D02*
X025750Y006294D01*
X025750Y006136D02*
X025902Y006136D01*
X026015Y005977D02*
X025750Y005977D01*
X025705Y005819D02*
X030639Y005819D01*
X031368Y005367D02*
X031368Y005367D01*
X031368Y005360D01*
X031368Y005367D02*
X031430Y005305D01*
X031430Y005430D01*
X031368Y005367D01*
X028118Y005367D01*
X026805Y004055D01*
X026805Y003430D01*
X026805Y003430D01*
X026805Y003492D01*
X026805Y003492D01*
X027158Y003124D02*
X027567Y003124D01*
X027627Y003064D02*
X027795Y003064D01*
X027795Y003482D01*
X027815Y003482D01*
X027815Y003064D01*
X027983Y003064D01*
X028234Y003315D01*
X028234Y003482D01*
X027815Y003482D01*
X027815Y003502D01*
X028234Y003502D01*
X028234Y003670D01*
X027983Y003921D01*
X027815Y003921D01*
X027815Y003502D01*
X027795Y003502D01*
X027795Y003482D01*
X027376Y003482D01*
X027376Y003315D01*
X027627Y003064D01*
X027557Y002966D02*
X027053Y002966D01*
X027211Y002807D02*
X027399Y002807D01*
X027795Y003124D02*
X027815Y003124D01*
X027815Y003283D02*
X027795Y003283D01*
X027795Y003441D02*
X027815Y003441D01*
X027795Y003502D02*
X027376Y003502D01*
X027376Y003670D01*
X027627Y003921D01*
X027795Y003921D01*
X027795Y003502D01*
X027795Y003600D02*
X027815Y003600D01*
X027815Y003758D02*
X027795Y003758D01*
X027795Y003917D02*
X027815Y003917D01*
X027987Y003917D02*
X030019Y003917D01*
X030019Y003926D02*
X030019Y003736D01*
X030484Y003736D01*
X030484Y003719D01*
X030501Y003719D01*
X030501Y003392D01*
X030828Y003392D01*
X030869Y003403D01*
X030905Y003424D01*
X030935Y003453D01*
X030955Y003489D01*
X030966Y003530D01*
X030966Y003719D01*
X030501Y003719D01*
X030501Y003736D01*
X030966Y003736D01*
X030966Y003926D01*
X030955Y003966D01*
X030935Y004002D01*
X030905Y004032D01*
X030869Y004053D01*
X030828Y004064D01*
X030501Y004064D01*
X030501Y003736D01*
X030484Y003736D01*
X030484Y004064D01*
X030157Y004064D01*
X030116Y004053D01*
X030080Y004032D01*
X030051Y004002D01*
X030030Y003966D01*
X030019Y003926D01*
X030019Y003758D02*
X028145Y003758D01*
X028234Y003600D02*
X030019Y003600D01*
X030019Y003530D02*
X030030Y003489D01*
X030051Y003453D01*
X030080Y003424D01*
X030116Y003403D01*
X030157Y003392D01*
X030484Y003392D01*
X030484Y003719D01*
X030019Y003719D01*
X030019Y003530D01*
X030062Y003441D02*
X028234Y003441D01*
X028202Y003283D02*
X031268Y003283D01*
X031426Y003441D02*
X030923Y003441D01*
X030966Y003600D02*
X031585Y003600D01*
X031743Y003758D02*
X030966Y003758D01*
X030966Y003917D02*
X031902Y003917D01*
X032060Y004075D02*
X027278Y004075D01*
X027125Y003917D02*
X027623Y003917D01*
X027465Y003758D02*
X027260Y003758D01*
X027315Y003600D02*
X027376Y003600D01*
X027376Y003441D02*
X027315Y003441D01*
X027315Y003283D02*
X027408Y003283D01*
X028043Y003124D02*
X031109Y003124D01*
X030951Y002966D02*
X028053Y002966D01*
X027437Y004234D02*
X032219Y004234D01*
X032377Y004392D02*
X027595Y004392D01*
X027754Y004551D02*
X032423Y004551D01*
X032423Y004709D02*
X027912Y004709D01*
X028071Y004868D02*
X030654Y004868D01*
X030616Y005026D02*
X028229Y005026D01*
X027641Y005343D02*
X026742Y005343D01*
X026722Y005502D02*
X027799Y005502D01*
X027989Y005660D02*
X026630Y005660D01*
X026595Y005977D02*
X032423Y005977D01*
X032423Y005819D02*
X032096Y005819D01*
X032119Y005660D02*
X032423Y005660D01*
X032423Y005502D02*
X032119Y005502D01*
X032119Y005343D02*
X032423Y005343D01*
X032423Y005185D02*
X032119Y005185D01*
X032119Y005026D02*
X032423Y005026D01*
X032423Y004868D02*
X032081Y004868D01*
X032966Y004075D02*
X035820Y004075D01*
X035820Y003917D02*
X032807Y003917D01*
X032649Y003758D02*
X035820Y003758D01*
X035820Y003600D02*
X032490Y003600D01*
X032332Y003441D02*
X035820Y003441D01*
X035820Y003283D02*
X034806Y003283D01*
X035095Y003124D02*
X035820Y003124D01*
X035822Y003124D02*
X032930Y003124D01*
X032930Y002966D02*
X035822Y002966D01*
X035820Y002966D02*
X035278Y002966D01*
X035411Y002807D02*
X035820Y002807D01*
X035822Y002807D02*
X032930Y002807D01*
X032930Y002649D02*
X035822Y002649D01*
X035820Y002649D02*
X035508Y002649D01*
X035580Y002490D02*
X035820Y002490D01*
X035822Y002490D02*
X032930Y002490D01*
X032997Y002490D02*
X031381Y002490D01*
X031222Y002332D02*
X032947Y002332D01*
X032930Y002332D02*
X035822Y002332D01*
X035820Y002332D02*
X035629Y002332D01*
X035658Y002173D02*
X035820Y002173D01*
X035822Y002173D02*
X032930Y002173D01*
X032919Y002173D02*
X030990Y002173D01*
X030555Y002492D02*
X030507Y002492D01*
X030493Y002507D01*
X030555Y002492D01*
X030555Y002492D01*
X030493Y002507D02*
X030493Y002507D01*
X030484Y003441D02*
X030501Y003441D01*
X030484Y003600D02*
X030501Y003600D01*
X030484Y003758D02*
X030501Y003758D01*
X030484Y003917D02*
X030501Y003917D01*
X031698Y002807D02*
X033166Y002807D01*
X033069Y002649D02*
X031539Y002649D01*
X031856Y002966D02*
X033299Y002966D01*
X033482Y003124D02*
X032015Y003124D01*
X032173Y003283D02*
X033770Y003283D01*
X034208Y003283D02*
X034368Y003283D01*
X034368Y003124D02*
X034208Y003124D01*
X034208Y002966D02*
X034368Y002966D01*
X034368Y002807D02*
X034208Y002807D01*
X034208Y002649D02*
X034368Y002649D01*
X034368Y002490D02*
X034208Y002490D01*
X034208Y002332D02*
X034368Y002332D01*
X034368Y001856D02*
X034208Y001856D01*
X034208Y001698D02*
X034368Y001698D01*
X034368Y001539D02*
X034208Y001539D01*
X034208Y001381D02*
X034368Y001381D01*
X034368Y001222D02*
X034208Y001222D01*
X034208Y001064D02*
X034368Y001064D01*
X034368Y000905D02*
X034208Y000905D01*
X034208Y000747D02*
X034368Y000747D01*
X032930Y003283D02*
X035822Y003283D01*
X035820Y004234D02*
X033059Y004234D01*
X033062Y004392D02*
X035820Y004392D01*
X035820Y004551D02*
X033062Y004551D01*
X033062Y004709D02*
X035820Y004709D01*
X035820Y004868D02*
X033062Y004868D01*
X033062Y005026D02*
X035820Y005026D01*
X035820Y005185D02*
X033062Y005185D01*
X033062Y005343D02*
X035820Y005343D01*
X035820Y005502D02*
X033062Y005502D01*
X033062Y005660D02*
X035820Y005660D01*
X035820Y005819D02*
X033062Y005819D01*
X033062Y005977D02*
X035820Y005977D01*
X035820Y006136D02*
X033062Y006136D01*
X033062Y006294D02*
X035820Y006294D01*
X035820Y006453D02*
X033061Y006453D01*
X032970Y006611D02*
X035820Y006611D01*
X035820Y006770D02*
X032812Y006770D01*
X032653Y006928D02*
X035820Y006928D01*
X035820Y007087D02*
X032592Y007087D01*
X032592Y007245D02*
X035820Y007245D01*
X035820Y007404D02*
X032592Y007404D01*
X032592Y007562D02*
X035820Y007562D01*
X035820Y007721D02*
X032496Y007721D01*
X031553Y008583D02*
X031606Y008656D01*
X031647Y008736D01*
X031675Y008821D01*
X031689Y008910D01*
X031689Y009310D01*
X031175Y009310D01*
X031175Y009425D01*
X031060Y009425D01*
X031060Y010349D01*
X030984Y010337D01*
X030898Y010309D01*
X030818Y010269D01*
X030745Y010216D01*
X030682Y010152D01*
X030629Y010079D01*
X030588Y009999D01*
X030560Y009914D01*
X030546Y009825D01*
X030546Y009425D01*
X031060Y009425D01*
X031060Y009310D01*
X030546Y009310D01*
X030546Y008910D01*
X030560Y008821D01*
X030588Y008736D01*
X030629Y008656D01*
X030682Y008583D01*
X030745Y008519D01*
X030818Y008466D01*
X030898Y008426D01*
X030984Y008398D01*
X031060Y008386D01*
X031060Y009310D01*
X031175Y009310D01*
X031175Y008386D01*
X031251Y008398D01*
X031337Y008426D01*
X031417Y008466D01*
X031490Y008519D01*
X031553Y008583D01*
X031482Y008513D02*
X035820Y008513D01*
X035820Y008355D02*
X026933Y008355D01*
X027091Y008513D02*
X030753Y008513D01*
X030621Y008672D02*
X027250Y008672D01*
X027408Y008830D02*
X030559Y008830D01*
X030546Y008989D02*
X027567Y008989D01*
X027725Y009147D02*
X030546Y009147D01*
X030546Y009306D02*
X027884Y009306D01*
X028042Y009464D02*
X030546Y009464D01*
X030546Y009623D02*
X028201Y009623D01*
X028440Y009626D02*
X028440Y010045D01*
X028859Y010045D01*
X028859Y009877D01*
X028608Y009626D01*
X028440Y009626D01*
X028440Y009781D02*
X028420Y009781D01*
X028420Y009940D02*
X028440Y009940D01*
X028440Y010065D02*
X028859Y010065D01*
X028859Y010233D01*
X028608Y010484D01*
X028440Y010484D01*
X028440Y010065D01*
X028440Y010098D02*
X028420Y010098D01*
X028420Y010257D02*
X028440Y010257D01*
X028440Y010415D02*
X028420Y010415D01*
X028676Y010415D02*
X035820Y010415D01*
X035820Y010257D02*
X031433Y010257D01*
X031417Y010269D02*
X031337Y010309D01*
X031251Y010337D01*
X031175Y010349D01*
X031175Y009425D01*
X031689Y009425D01*
X031689Y009825D01*
X031675Y009914D01*
X031647Y009999D01*
X031606Y010079D01*
X031553Y010152D01*
X031490Y010216D01*
X031417Y010269D01*
X031175Y010257D02*
X031060Y010257D01*
X031060Y010098D02*
X031175Y010098D01*
X031175Y009940D02*
X031060Y009940D01*
X031060Y009781D02*
X031175Y009781D01*
X031175Y009623D02*
X031060Y009623D01*
X031060Y009464D02*
X031175Y009464D01*
X031175Y009306D02*
X031060Y009306D01*
X031060Y009147D02*
X031175Y009147D01*
X031175Y008989D02*
X031060Y008989D01*
X031060Y008830D02*
X031175Y008830D01*
X031175Y008672D02*
X031060Y008672D01*
X031060Y008513D02*
X031175Y008513D01*
X031614Y008672D02*
X035820Y008672D01*
X035820Y008830D02*
X031676Y008830D01*
X031689Y008989D02*
X035820Y008989D01*
X035820Y009147D02*
X031689Y009147D01*
X031689Y009306D02*
X035820Y009306D01*
X035820Y009464D02*
X031689Y009464D01*
X031689Y009623D02*
X035820Y009623D01*
X035820Y009781D02*
X031689Y009781D01*
X031666Y009940D02*
X035820Y009940D01*
X035820Y010098D02*
X031592Y010098D01*
X030802Y010257D02*
X028834Y010257D01*
X028859Y010098D02*
X030643Y010098D01*
X030569Y009940D02*
X028859Y009940D01*
X028763Y009781D02*
X030546Y009781D01*
X028940Y010891D02*
X035820Y010891D01*
X035820Y011049D02*
X028940Y011049D01*
X028940Y011208D02*
X035820Y011208D01*
X035820Y011366D02*
X028840Y011366D01*
X028750Y011525D02*
X034094Y011525D01*
X034144Y011474D02*
X034538Y011474D01*
X034538Y012537D01*
X034698Y012537D01*
X034698Y012697D01*
X035761Y012697D01*
X035761Y013091D01*
X035091Y013760D01*
X034698Y013760D01*
X034698Y012697D01*
X034538Y012697D01*
X034538Y012537D01*
X033475Y012537D01*
X033475Y012144D01*
X034144Y011474D01*
X033935Y011683D02*
X028780Y011683D01*
X028938Y011842D02*
X032173Y011842D01*
X032183Y011832D02*
X032256Y011779D01*
X032336Y011738D01*
X032421Y011710D01*
X032497Y011698D01*
X032497Y012622D01*
X031984Y012622D01*
X031984Y012223D01*
X031998Y012134D01*
X032026Y012048D01*
X032066Y011968D01*
X032119Y011895D01*
X032183Y011832D01*
X032050Y012000D02*
X028940Y012000D01*
X028940Y012159D02*
X031994Y012159D01*
X031984Y012317D02*
X028889Y012317D01*
X028750Y012476D02*
X031984Y012476D01*
X031984Y012737D02*
X032497Y012737D01*
X032497Y012622D01*
X032613Y012622D01*
X032613Y012737D01*
X033126Y012737D01*
X033126Y013137D01*
X033112Y013226D01*
X033084Y013312D01*
X033044Y013392D01*
X032991Y013465D01*
X032927Y013528D01*
X032854Y013581D01*
X032774Y013622D01*
X032689Y013650D01*
X032613Y013662D01*
X032613Y012737D01*
X032497Y012737D01*
X032497Y013662D01*
X032421Y013650D01*
X032336Y013622D01*
X032256Y013581D01*
X032183Y013528D01*
X032119Y013465D01*
X032066Y013392D01*
X032026Y013312D01*
X031998Y013226D01*
X031984Y013137D01*
X031984Y012737D01*
X031984Y012793D02*
X028750Y012793D01*
X028750Y012951D02*
X031984Y012951D01*
X031984Y013110D02*
X028750Y013110D01*
X028750Y013268D02*
X032012Y013268D01*
X032092Y013427D02*
X028726Y013427D01*
X028602Y013585D02*
X032264Y013585D01*
X032497Y013585D02*
X032613Y013585D01*
X032613Y013427D02*
X032497Y013427D01*
X032497Y013268D02*
X032613Y013268D01*
X032613Y013110D02*
X032497Y013110D01*
X032497Y012951D02*
X032613Y012951D01*
X032613Y012793D02*
X032497Y012793D01*
X032497Y012634D02*
X028750Y012634D01*
X028430Y012055D02*
X028430Y013305D01*
X027118Y014617D01*
X027055Y014617D01*
X026874Y014219D02*
X026562Y014219D01*
X026562Y014061D02*
X027221Y014061D01*
X027380Y013902D02*
X026562Y013902D01*
X026562Y013744D02*
X027538Y013744D01*
X027697Y013585D02*
X026562Y013585D01*
X026562Y013427D02*
X027855Y013427D01*
X028014Y013268D02*
X026562Y013268D01*
X026562Y013110D02*
X028110Y013110D01*
X028110Y012951D02*
X026520Y012951D01*
X026371Y012793D02*
X028110Y012793D01*
X028110Y012634D02*
X026212Y012634D01*
X026054Y012476D02*
X027130Y012476D01*
X027730Y012476D02*
X028110Y012476D01*
X027110Y011654D02*
X027110Y011456D01*
X027029Y011375D01*
X026203Y011375D01*
X026563Y011735D01*
X027029Y011735D01*
X027110Y011654D01*
X027080Y011683D02*
X026511Y011683D01*
X026353Y011525D02*
X027110Y011525D01*
X027430Y011055D02*
X026055Y011055D01*
X025493Y010492D01*
X025929Y010477D02*
X026188Y010735D01*
X027029Y010735D01*
X027209Y010555D01*
X026920Y010266D01*
X026920Y009844D01*
X027218Y009546D01*
X025249Y007576D01*
X025159Y007486D01*
X025140Y007441D01*
X025140Y007644D01*
X025129Y007685D01*
X025108Y007721D01*
X025393Y007721D01*
X025235Y007562D02*
X025140Y007562D01*
X025108Y007721D02*
X025079Y007750D01*
X025042Y007771D01*
X025033Y007774D01*
X025042Y007776D01*
X025079Y007797D01*
X025108Y007827D01*
X025129Y007863D01*
X025140Y007903D01*
X025140Y008171D01*
X024813Y008171D01*
X024813Y008189D01*
X024795Y008189D01*
X024795Y008595D01*
X024750Y008595D01*
X024750Y008744D01*
X025287Y009334D01*
X025326Y009374D01*
X025329Y009381D01*
X025335Y009387D01*
X025354Y009440D01*
X025375Y009491D01*
X025375Y009499D01*
X025378Y009507D01*
X025375Y009563D01*
X025375Y010068D01*
X025406Y010056D01*
X025579Y010056D01*
X025740Y010122D01*
X025863Y010245D01*
X025929Y010406D01*
X025929Y010477D01*
X025929Y010415D02*
X027069Y010415D01*
X027190Y010574D02*
X026027Y010574D01*
X026185Y010732D02*
X027031Y010732D01*
X026920Y010257D02*
X025868Y010257D01*
X025683Y010098D02*
X026920Y010098D01*
X026920Y009940D02*
X025375Y009940D01*
X025375Y009781D02*
X026982Y009781D01*
X027141Y009623D02*
X025375Y009623D01*
X025364Y009464D02*
X027137Y009464D01*
X026978Y009306D02*
X025261Y009306D01*
X025117Y009147D02*
X026820Y009147D01*
X026661Y008989D02*
X024973Y008989D01*
X024829Y008830D02*
X026503Y008830D01*
X026344Y008672D02*
X024750Y008672D01*
X024813Y008595D02*
X024813Y008189D01*
X025140Y008189D01*
X025140Y008457D01*
X025129Y008497D01*
X025108Y008533D01*
X025079Y008563D01*
X025042Y008584D01*
X025002Y008595D01*
X024813Y008595D01*
X024813Y008513D02*
X024795Y008513D01*
X024795Y008355D02*
X024813Y008355D01*
X024813Y008196D02*
X024795Y008196D01*
X024795Y008171D02*
X024813Y008171D01*
X024813Y007376D01*
X024795Y007376D01*
X024795Y007765D01*
X024795Y008171D01*
X024795Y008038D02*
X024813Y008038D01*
X024813Y007879D02*
X024795Y007879D01*
X024795Y007721D02*
X024813Y007721D01*
X024813Y007562D02*
X024795Y007562D01*
X024795Y007404D02*
X024813Y007404D01*
X024813Y007359D02*
X024813Y006953D01*
X024813Y006564D01*
X024795Y006564D01*
X024795Y006970D01*
X024795Y007359D01*
X024813Y007359D01*
X024813Y007245D02*
X024795Y007245D01*
X024795Y007087D02*
X024813Y007087D01*
X024795Y006970D02*
X024795Y006970D01*
X024813Y006953D02*
X024813Y006953D01*
X024813Y006928D02*
X024795Y006928D01*
X024795Y006770D02*
X024813Y006770D01*
X024813Y006611D02*
X024795Y006611D01*
X024795Y006546D02*
X024813Y006546D01*
X024813Y006140D01*
X025002Y006140D01*
X025042Y006151D01*
X025079Y006172D01*
X025108Y006202D01*
X025110Y006205D01*
X025110Y006125D01*
X024172Y005187D01*
X023000Y005187D01*
X022828Y005360D01*
X023632Y005360D01*
X023683Y005310D01*
X023843Y005243D01*
X024017Y005243D01*
X024177Y005310D01*
X024300Y005433D01*
X024367Y005593D01*
X024367Y005664D01*
X024701Y005999D01*
X024750Y006116D01*
X024750Y006140D01*
X024795Y006140D01*
X024795Y006546D01*
X024795Y006453D02*
X024813Y006453D01*
X024813Y006294D02*
X024795Y006294D01*
X024750Y006136D02*
X025110Y006136D01*
X024962Y005977D02*
X024680Y005977D01*
X024804Y005819D02*
X024522Y005819D01*
X024645Y005660D02*
X024367Y005660D01*
X024329Y005502D02*
X024487Y005502D01*
X024328Y005343D02*
X024211Y005343D01*
X024305Y004867D02*
X022868Y004867D01*
X022055Y005680D01*
X022055Y006617D01*
X022030Y006643D01*
X022030Y006646D01*
X022345Y006624D02*
X022345Y006646D01*
X022345Y006624D02*
X022368Y006624D01*
X022368Y005992D01*
X022680Y005680D01*
X022844Y005343D02*
X023649Y005343D01*
X024172Y004547D02*
X023103Y004547D01*
X023125Y004494D01*
X023125Y003894D01*
X023206Y003812D01*
X023404Y003812D01*
X023594Y004002D01*
X024016Y004002D01*
X024206Y003812D01*
X024404Y003812D01*
X024594Y004002D01*
X024717Y004002D01*
X024172Y004547D01*
X024327Y004392D02*
X023125Y004392D01*
X023125Y004234D02*
X024486Y004234D01*
X024644Y004075D02*
X023125Y004075D01*
X023125Y003917D02*
X023508Y003917D01*
X023305Y003271D02*
X023026Y002992D01*
X023305Y002714D01*
X023584Y002992D01*
X023305Y003271D01*
X023158Y003124D02*
X023452Y003124D01*
X023557Y002966D02*
X023053Y002966D01*
X023211Y002807D02*
X023399Y002807D01*
X022868Y002430D02*
X022867Y002430D01*
X022805Y002492D01*
X022868Y002430D02*
X022305Y002992D01*
X022305Y004492D01*
X021400Y005397D01*
X021400Y006646D01*
X021715Y006646D02*
X021715Y005520D01*
X022805Y004430D01*
X022805Y003492D01*
X022805Y003430D01*
X021805Y003430D02*
X021805Y003492D01*
X021805Y004555D01*
X021085Y005275D01*
X021085Y006646D01*
X020770Y006646D02*
X020770Y005152D01*
X020760Y004709D02*
X019600Y004709D01*
X019441Y004551D02*
X020919Y004551D01*
X020985Y004392D02*
X019283Y004392D01*
X018730Y004075D02*
X020985Y004075D01*
X020985Y004234D02*
X018576Y004234D01*
X018738Y003917D02*
X020508Y003917D01*
X020350Y003758D02*
X018738Y003758D01*
X018704Y003600D02*
X020295Y003600D01*
X020295Y003441D02*
X018678Y003441D01*
X018678Y003283D02*
X020295Y003283D01*
X020452Y003124D02*
X018678Y003124D01*
X018678Y002966D02*
X020557Y002966D01*
X020403Y002173D02*
X018501Y002173D01*
X018290Y002015D02*
X020561Y002015D01*
X018242Y003238D02*
X018243Y003364D01*
X018243Y003868D01*
X017555Y003868D02*
X017242Y003868D01*
X016930Y004180D01*
X016930Y004742D01*
X017430Y005242D01*
X017422Y005234D01*
X016999Y005343D02*
X015746Y005343D01*
X015612Y005185D02*
X016920Y005185D01*
X016761Y005026D02*
X000473Y005026D01*
X000473Y004868D02*
X016636Y004868D01*
X016610Y004709D02*
X000473Y004709D01*
X000473Y004551D02*
X016610Y004551D01*
X016610Y004392D02*
X000473Y004392D01*
X000473Y004234D02*
X016610Y004234D01*
X016627Y004075D02*
X000473Y004075D01*
X000473Y003917D02*
X016740Y003917D01*
X016899Y003758D02*
X000473Y003758D01*
X000473Y003600D02*
X017057Y003600D01*
X017475Y003124D02*
X017512Y003124D01*
X017512Y002966D02*
X017475Y002966D01*
X017475Y002807D02*
X017491Y002807D01*
X017431Y002649D02*
X004761Y002649D01*
X004828Y002490D02*
X017431Y002490D01*
X017262Y002807D02*
X004621Y002807D01*
X003805Y002173D02*
X003374Y002173D01*
X003367Y000588D02*
X000471Y000588D01*
X004805Y012742D02*
X003743Y013805D01*
X003743Y020180D01*
X000930Y022992D01*
X000930Y028867D01*
X001743Y029680D01*
X006180Y029680D01*
X006180Y030055D01*
X006720Y030070D02*
X007160Y030070D01*
X007160Y030075D02*
X007160Y030035D01*
X006721Y030035D01*
X006721Y029719D01*
X006733Y029648D01*
X006755Y029579D01*
X006788Y029515D01*
X006830Y029456D01*
X006881Y029405D01*
X006940Y029363D01*
X007004Y029330D01*
X007073Y029308D01*
X007144Y029296D01*
X007160Y029296D01*
X007160Y030035D01*
X007200Y030035D01*
X007200Y030075D01*
X007160Y030075D01*
X007160Y030814D01*
X007144Y030814D01*
X007073Y030802D01*
X007004Y030780D01*
X006940Y030747D01*
X006881Y030705D01*
X006830Y030654D01*
X006788Y030595D01*
X006755Y030531D01*
X006733Y030462D01*
X006721Y030391D01*
X006721Y030075D01*
X007160Y030075D01*
X007200Y030075D02*
X007200Y030814D01*
X007216Y030814D01*
X007287Y030802D01*
X007356Y030780D01*
X007420Y030747D01*
X007479Y030705D01*
X007530Y030654D01*
X007572Y030595D01*
X007605Y030531D01*
X007627Y030462D01*
X007639Y030391D01*
X007639Y030075D01*
X007200Y030075D01*
X007200Y030070D02*
X010080Y030070D01*
X010080Y030228D02*
X007639Y030228D01*
X007639Y030387D02*
X010080Y030387D01*
X010080Y030545D02*
X007598Y030545D01*
X007480Y030704D02*
X010080Y030704D01*
X010080Y030862D02*
X006367Y030862D01*
X006595Y030704D02*
X006880Y030704D01*
X006762Y030545D02*
X006686Y030545D01*
X006720Y030387D02*
X006721Y030387D01*
X006720Y030228D02*
X006721Y030228D01*
X006720Y029911D02*
X006721Y029911D01*
X006720Y029753D02*
X006721Y029753D01*
X006698Y029594D02*
X006750Y029594D01*
X006851Y029436D02*
X006624Y029436D01*
X006437Y029277D02*
X010265Y029277D01*
X010135Y029436D02*
X007509Y029436D01*
X007530Y029456D02*
X007572Y029515D01*
X007605Y029579D01*
X007627Y029648D01*
X007639Y029719D01*
X007639Y030035D01*
X007200Y030035D01*
X007200Y029296D01*
X007216Y029296D01*
X007287Y029308D01*
X007356Y029330D01*
X007420Y029363D01*
X007479Y029405D01*
X007530Y029456D01*
X007610Y029594D02*
X010080Y029594D01*
X010080Y029753D02*
X007639Y029753D01*
X007639Y029911D02*
X010080Y029911D01*
X010570Y030680D02*
X010570Y030742D01*
X011060Y030704D02*
X011454Y030704D01*
X011454Y030734D02*
X011454Y030229D01*
X011465Y030189D01*
X011486Y030153D01*
X011516Y030123D01*
X011552Y030102D01*
X011592Y030092D01*
X011782Y030092D01*
X011782Y030734D01*
X011799Y030734D01*
X011799Y030751D01*
X012126Y030751D01*
X012126Y031256D01*
X012115Y031296D01*
X012094Y031332D01*
X012065Y031362D01*
X012029Y031383D01*
X011988Y031393D01*
X011799Y031393D01*
X011799Y030751D01*
X011782Y030751D01*
X011782Y031393D01*
X011592Y031393D01*
X011552Y031383D01*
X011516Y031362D01*
X011486Y031332D01*
X011465Y031296D01*
X011454Y031256D01*
X011454Y030751D01*
X011782Y030751D01*
X011782Y030734D01*
X011454Y030734D01*
X011454Y030862D02*
X011060Y030862D01*
X011060Y031021D02*
X011454Y031021D01*
X011454Y031179D02*
X011060Y031179D01*
X011060Y031338D02*
X011491Y031338D01*
X011782Y031338D02*
X011799Y031338D01*
X011782Y031179D02*
X011799Y031179D01*
X011782Y031021D02*
X011799Y031021D01*
X011782Y030862D02*
X011799Y030862D01*
X011799Y030734D02*
X012126Y030734D01*
X012126Y030229D01*
X012115Y030189D01*
X012094Y030153D01*
X012065Y030123D01*
X012029Y030102D01*
X011988Y030092D01*
X011799Y030092D01*
X011799Y030734D01*
X011799Y030704D02*
X011782Y030704D01*
X011782Y030545D02*
X011799Y030545D01*
X011782Y030387D02*
X011799Y030387D01*
X011782Y030228D02*
X011799Y030228D01*
X012126Y030228D02*
X014110Y030228D01*
X014110Y030070D02*
X011126Y030070D01*
X011060Y030228D02*
X011455Y030228D01*
X011454Y030387D02*
X011060Y030387D01*
X011060Y030545D02*
X011454Y030545D01*
X011545Y029911D02*
X011563Y029911D01*
X011563Y029753D02*
X011545Y029753D01*
X011563Y029609D02*
X011890Y029609D01*
X011890Y029341D01*
X011879Y029300D01*
X011858Y029264D01*
X011829Y029235D01*
X011792Y029214D01*
X011752Y029203D01*
X011563Y029203D01*
X011563Y029609D01*
X011563Y029594D02*
X011545Y029594D01*
X011545Y029436D02*
X011563Y029436D01*
X011563Y029277D02*
X011545Y029277D01*
X011543Y029119D02*
X011165Y029119D01*
X011305Y029101D02*
X011305Y028509D01*
X011305Y028509D01*
X011305Y029101D01*
X011305Y028960D02*
X011305Y028960D01*
X011305Y028802D02*
X011305Y028802D01*
X011305Y028643D02*
X011305Y028643D01*
X011242Y029277D02*
X011208Y029277D01*
X011866Y029277D02*
X014110Y029277D01*
X014110Y029119D02*
X012067Y029119D01*
X012143Y028960D02*
X014110Y028960D01*
X014110Y028802D02*
X012143Y028802D01*
X012143Y028643D02*
X014110Y028643D01*
X014110Y028485D02*
X012143Y028485D01*
X012143Y028326D02*
X014110Y028326D01*
X014110Y028168D02*
X012143Y028168D01*
X012135Y028009D02*
X014110Y028009D01*
X014110Y027851D02*
X013064Y027851D01*
X013063Y027852D02*
X013033Y027881D01*
X012997Y027902D01*
X012957Y027913D01*
X012680Y027913D01*
X012403Y027913D01*
X012363Y027902D01*
X012327Y027881D01*
X012297Y027852D01*
X012276Y027816D01*
X012265Y027775D01*
X012265Y027617D01*
X012680Y027617D01*
X012680Y027913D01*
X012680Y027617D01*
X012680Y027617D01*
X012680Y027616D01*
X012680Y027320D01*
X012957Y027320D01*
X012997Y027331D01*
X013033Y027352D01*
X013063Y027381D01*
X013084Y027417D01*
X013095Y027458D01*
X013095Y027616D01*
X012680Y027616D01*
X012680Y027616D01*
X012680Y027320D01*
X012403Y027320D01*
X012363Y027331D01*
X012327Y027352D01*
X012297Y027381D01*
X012276Y027417D01*
X012265Y027458D01*
X012265Y027616D01*
X012680Y027616D01*
X012680Y027617D01*
X013095Y027617D01*
X013095Y027775D01*
X013084Y027816D01*
X013063Y027852D01*
X013095Y027692D02*
X014110Y027692D01*
X014110Y027534D02*
X013095Y027534D01*
X013057Y027375D02*
X014110Y027375D01*
X014110Y027217D02*
X013055Y027217D01*
X013174Y027058D02*
X014110Y027058D01*
X014110Y026900D02*
X013176Y026900D01*
X013176Y026741D02*
X014110Y026741D01*
X014110Y026583D02*
X013127Y026583D01*
X013176Y026424D02*
X014110Y026424D01*
X014110Y026266D02*
X013176Y026266D01*
X013176Y026107D02*
X014110Y026107D01*
X014110Y025949D02*
X013120Y025949D01*
X013117Y025790D02*
X014110Y025790D01*
X014110Y025631D02*
X013176Y025631D01*
X013176Y025473D02*
X014110Y025473D01*
X014110Y025314D02*
X013176Y025314D01*
X013076Y025156D02*
X014110Y025156D01*
X014110Y024997D02*
X010950Y024997D01*
X010792Y024839D02*
X014110Y024839D01*
X014110Y024680D02*
X010633Y024680D01*
X010475Y024522D02*
X014110Y024522D01*
X014110Y024363D02*
X010316Y024363D01*
X010158Y024205D02*
X014110Y024205D01*
X014110Y024046D02*
X009999Y024046D01*
X009841Y023888D02*
X014110Y023888D01*
X014110Y023729D02*
X009682Y023729D01*
X009524Y023571D02*
X010983Y023571D01*
X010984Y023573D02*
X010963Y023537D01*
X010952Y023496D01*
X010952Y023248D01*
X011831Y023248D01*
X011831Y023634D01*
X011090Y023634D01*
X011050Y023623D01*
X011014Y023602D01*
X010984Y023573D01*
X010952Y023412D02*
X009641Y023412D01*
X009503Y023550D02*
X011126Y025173D01*
X012267Y025173D01*
X012288Y025152D01*
X012376Y025116D01*
X012284Y025156D02*
X011109Y025156D01*
X010617Y025570D02*
X008782Y023734D01*
X008744Y023750D01*
X006875Y023750D01*
X006875Y027797D01*
X010286Y027797D01*
X010286Y027447D01*
X010975Y027447D01*
X010975Y027287D01*
X010286Y027287D01*
X010286Y026899D01*
X010159Y026899D01*
X010071Y026862D01*
X010003Y026795D01*
X009967Y026707D01*
X009967Y026546D01*
X009829Y026546D01*
X009751Y026624D01*
X009756Y026627D01*
X009823Y026694D01*
X009860Y026782D01*
X009860Y027232D01*
X009823Y027320D01*
X009756Y027388D01*
X009668Y027424D01*
X008942Y027424D01*
X008854Y027388D01*
X008787Y027320D01*
X008750Y027232D01*
X008750Y026782D01*
X008787Y026694D01*
X008854Y026627D01*
X008942Y026590D01*
X008985Y026590D01*
X008985Y026554D01*
X009034Y026436D01*
X009124Y026346D01*
X009516Y025954D01*
X009633Y025906D01*
X009967Y025906D01*
X009967Y025745D01*
X010003Y025657D01*
X010071Y025589D01*
X010159Y025553D01*
X010451Y025553D01*
X010539Y025589D01*
X010555Y025605D01*
X010571Y025589D01*
X010617Y025570D01*
X010520Y025473D02*
X006875Y025473D01*
X006875Y025631D02*
X010028Y025631D01*
X009967Y025790D02*
X006875Y025790D01*
X006875Y025949D02*
X009530Y025949D01*
X009363Y026107D02*
X006875Y026107D01*
X006875Y026266D02*
X007223Y026266D01*
X007215Y026270D02*
X007252Y026249D01*
X007292Y026238D01*
X007725Y026238D01*
X007725Y026711D01*
X007154Y026711D01*
X007154Y026376D01*
X007165Y026336D01*
X007186Y026300D01*
X007215Y026270D01*
X007154Y026424D02*
X006875Y026424D01*
X006875Y026583D02*
X007154Y026583D01*
X007154Y026871D02*
X007725Y026871D01*
X007725Y027343D01*
X007292Y027343D01*
X007252Y027332D01*
X007215Y027311D01*
X007186Y027282D01*
X007165Y027246D01*
X007154Y027205D01*
X007154Y026871D01*
X007154Y026900D02*
X006875Y026900D01*
X006875Y027058D02*
X007154Y027058D01*
X007157Y027217D02*
X006875Y027217D01*
X006875Y027375D02*
X008841Y027375D01*
X008750Y027217D02*
X008453Y027217D01*
X008456Y027205D02*
X008445Y027246D01*
X008424Y027282D01*
X008395Y027311D01*
X008358Y027332D01*
X008318Y027343D01*
X007885Y027343D01*
X007885Y026871D01*
X007725Y026871D01*
X007725Y026711D01*
X007885Y026711D01*
X007885Y026871D01*
X008456Y026871D01*
X008456Y027205D01*
X008456Y027058D02*
X008750Y027058D01*
X008750Y026900D02*
X008456Y026900D01*
X008456Y026711D02*
X008456Y026376D01*
X008445Y026336D01*
X008424Y026300D01*
X008395Y026270D01*
X008358Y026249D01*
X008318Y026238D01*
X007885Y026238D01*
X007885Y026711D01*
X008456Y026711D01*
X008456Y026583D02*
X008985Y026583D01*
X009046Y026424D02*
X008456Y026424D01*
X008387Y026266D02*
X009204Y026266D01*
X009305Y026618D02*
X009305Y027007D01*
X009305Y026618D02*
X009697Y026226D01*
X010305Y026226D01*
X009967Y026583D02*
X009793Y026583D01*
X009843Y026741D02*
X009981Y026741D01*
X009860Y026900D02*
X010286Y026900D01*
X010286Y027058D02*
X009860Y027058D01*
X009860Y027217D02*
X010286Y027217D01*
X010286Y027534D02*
X006875Y027534D01*
X006875Y027692D02*
X010286Y027692D01*
X010305Y028117D02*
X006055Y028117D01*
X005180Y027242D01*
X003055Y027242D01*
X003055Y028867D01*
X010305Y028867D01*
X010305Y028117D01*
X010305Y028168D02*
X003055Y028168D01*
X003055Y028326D02*
X010305Y028326D01*
X010305Y028485D02*
X003055Y028485D01*
X003055Y028643D02*
X010305Y028643D01*
X010305Y028802D02*
X003055Y028802D01*
X002735Y028802D02*
X001317Y028802D01*
X001250Y028643D02*
X002735Y028643D01*
X002747Y028960D02*
X001475Y028960D01*
X001634Y029119D02*
X002853Y029119D01*
X001792Y029277D02*
X005923Y029277D01*
X007160Y029436D02*
X007200Y029436D01*
X007200Y029594D02*
X007160Y029594D01*
X007160Y029753D02*
X007200Y029753D01*
X007200Y029911D02*
X007160Y029911D01*
X007160Y030228D02*
X007200Y030228D01*
X007200Y030387D02*
X007160Y030387D01*
X007160Y030545D02*
X007200Y030545D01*
X007200Y030704D02*
X007160Y030704D01*
X005947Y028009D02*
X003055Y028009D01*
X003055Y027851D02*
X005788Y027851D01*
X005630Y027692D02*
X003055Y027692D01*
X003055Y027534D02*
X005471Y027534D01*
X005313Y027375D02*
X003055Y027375D01*
X001298Y027375D02*
X001250Y027375D01*
X001250Y027217D02*
X001298Y027217D01*
X001298Y027058D02*
X001250Y027058D01*
X001250Y026900D02*
X001298Y026900D01*
X001298Y026741D02*
X001250Y026741D01*
X001250Y026583D02*
X001298Y026583D01*
X001298Y026424D02*
X001250Y026424D01*
X001250Y026266D02*
X001298Y026266D01*
X001298Y026107D02*
X001250Y026107D01*
X001250Y025949D02*
X001298Y025949D01*
X001297Y025790D02*
X001250Y025790D01*
X001250Y025631D02*
X001297Y025631D01*
X001297Y025473D02*
X001250Y025473D01*
X001250Y025314D02*
X001297Y025314D01*
X001297Y025156D02*
X001250Y025156D01*
X001250Y024997D02*
X001297Y024997D01*
X001297Y024839D02*
X001250Y024839D01*
X001250Y024680D02*
X001297Y024680D01*
X001297Y024522D02*
X001250Y024522D01*
X001250Y024363D02*
X001297Y024363D01*
X001297Y024205D02*
X001250Y024205D01*
X001250Y024046D02*
X001297Y024046D01*
X001297Y023888D02*
X001250Y023888D01*
X001250Y023729D02*
X001297Y023729D01*
X001316Y023571D02*
X001250Y023571D01*
X001250Y023412D02*
X001432Y023412D01*
X001250Y023254D02*
X002735Y023254D01*
X002735Y023095D02*
X001280Y023095D01*
X001438Y022937D02*
X002735Y022937D01*
X002771Y022778D02*
X001597Y022778D01*
X001755Y022620D02*
X002967Y022620D01*
X003055Y023254D02*
X008680Y023254D01*
X008680Y023412D02*
X003055Y023412D01*
X003055Y023571D02*
X006227Y023571D01*
X006068Y023729D02*
X003055Y023729D01*
X003055Y023888D02*
X005910Y023888D01*
X005751Y024046D02*
X003055Y024046D01*
X003055Y024205D02*
X005592Y024205D01*
X005434Y024363D02*
X003055Y024363D01*
X003055Y024522D02*
X005275Y024522D01*
X005117Y024680D02*
X003055Y024680D01*
X001298Y027534D02*
X001250Y027534D01*
X001250Y027692D02*
X001298Y027692D01*
X001298Y027851D02*
X001250Y027851D01*
X001250Y028009D02*
X001298Y028009D01*
X001298Y028168D02*
X001250Y028168D01*
X001250Y028326D02*
X001298Y028326D01*
X001250Y028485D02*
X001346Y028485D01*
X001346Y028486D02*
X001346Y028486D01*
X001436Y028576D02*
X001436Y028576D01*
X001436Y028576D01*
X001925Y033081D02*
X002085Y033081D01*
X002085Y033240D02*
X001925Y033240D01*
X001925Y033398D02*
X002085Y033398D01*
X002085Y033557D02*
X001925Y033557D01*
X001925Y033715D02*
X002085Y033715D01*
X002085Y033874D02*
X001925Y033874D01*
X001925Y034032D02*
X002085Y034032D01*
X002085Y034191D02*
X001925Y034191D01*
X001925Y034349D02*
X000473Y034349D01*
X000471Y034349D02*
X003367Y034349D01*
X003367Y034191D02*
X000471Y034191D01*
X000473Y034191D02*
X000629Y034191D01*
X000650Y034032D02*
X000473Y034032D01*
X000471Y034032D02*
X003367Y034032D01*
X003360Y034032D02*
X005236Y034032D01*
X005277Y033961D02*
X005277Y033961D01*
X005145Y034191D02*
X003381Y034191D01*
X003367Y034508D02*
X000471Y034508D01*
X000473Y034508D02*
X000642Y034508D01*
X000639Y034491D02*
X000627Y034368D01*
X001925Y034368D01*
X001925Y035666D01*
X001802Y035654D01*
X001669Y035628D01*
X001540Y035588D01*
X001414Y035537D01*
X001295Y035473D01*
X001182Y035397D01*
X001077Y035311D01*
X000982Y035216D01*
X000896Y035111D01*
X000820Y034998D01*
X000757Y034879D01*
X000705Y034753D01*
X000665Y034624D01*
X000639Y034491D01*
X000678Y034666D02*
X000473Y034666D01*
X000471Y034666D02*
X003367Y034666D01*
X003331Y034666D02*
X004960Y034666D01*
X004918Y034825D02*
X003276Y034825D01*
X003367Y034825D02*
X000471Y034825D01*
X000473Y034825D02*
X000734Y034825D01*
X000812Y034983D02*
X000473Y034983D01*
X000471Y034983D02*
X003367Y034983D01*
X003367Y035142D02*
X000471Y035142D01*
X000473Y035142D02*
X000921Y035142D01*
X001066Y035300D02*
X000473Y035300D01*
X000471Y035300D02*
X003367Y035300D01*
X003367Y035459D02*
X000471Y035459D01*
X000473Y035459D02*
X001274Y035459D01*
X001634Y035617D02*
X000473Y035617D01*
X000471Y035617D02*
X003367Y035617D01*
X003367Y035776D02*
X000471Y035776D01*
X000473Y035776D02*
X004914Y035776D01*
X004914Y035617D02*
X002376Y035617D01*
X002085Y035617D02*
X001925Y035617D01*
X001925Y035459D02*
X002085Y035459D01*
X002085Y035300D02*
X001925Y035300D01*
X001925Y035142D02*
X002085Y035142D01*
X002085Y034983D02*
X001925Y034983D01*
X001925Y034825D02*
X002085Y034825D01*
X002085Y034666D02*
X001925Y034666D01*
X001925Y034508D02*
X002085Y034508D01*
X002085Y034349D02*
X005053Y034349D01*
X005038Y034375D02*
X005038Y034375D01*
X005003Y034508D02*
X003367Y034508D01*
X003197Y034983D02*
X004914Y034983D01*
X004914Y035142D02*
X003089Y035142D01*
X002944Y035300D02*
X004914Y035300D01*
X004914Y035459D02*
X002736Y035459D01*
X007430Y033385D02*
X007430Y033385D01*
X011060Y033398D02*
X015258Y033398D01*
X015159Y033299D02*
X015534Y033674D01*
X015624Y033764D01*
X015741Y033812D01*
X015747Y033812D01*
X015777Y033884D01*
X015845Y033952D01*
X015933Y033988D01*
X016304Y033988D01*
X016392Y033952D01*
X016460Y033884D01*
X016493Y033805D01*
X016525Y033884D01*
X016593Y033952D01*
X016681Y033988D01*
X017052Y033988D01*
X017140Y033952D01*
X017208Y033884D01*
X017238Y033812D01*
X017619Y033812D01*
X017736Y033764D01*
X017826Y033674D01*
X018201Y033299D01*
X018250Y033181D01*
X018250Y033081D01*
X018226Y033240D02*
X020440Y033240D01*
X020440Y033398D02*
X018102Y033398D01*
X017944Y033557D02*
X020440Y033557D01*
X020440Y033715D02*
X017785Y033715D01*
X017555Y033492D02*
X016867Y033492D01*
X017212Y033874D02*
X020418Y033874D01*
X020260Y034032D02*
X011663Y034032D01*
X011821Y034191D02*
X020101Y034191D01*
X019943Y034349D02*
X011980Y034349D01*
X011504Y033874D02*
X015773Y033874D01*
X015575Y033715D02*
X011346Y033715D01*
X011187Y033557D02*
X015416Y033557D01*
X015159Y033299D02*
X015114Y033190D01*
X014719Y033190D01*
X014420Y032891D01*
X014420Y032469D01*
X014437Y032452D01*
X014249Y032264D01*
X014249Y032264D01*
X014159Y032174D01*
X014110Y032056D01*
X014110Y021366D01*
X014159Y021249D01*
X015175Y020232D01*
X012458Y020232D01*
X012337Y020282D01*
X011523Y020282D01*
X011402Y020232D01*
X010983Y020232D01*
X010983Y021965D01*
X010908Y022145D01*
X010770Y022283D01*
X009503Y023550D01*
X009799Y023254D02*
X010952Y023254D01*
X010952Y023112D02*
X010952Y022864D01*
X010963Y022823D01*
X010984Y022787D01*
X011014Y022758D01*
X011050Y022737D01*
X011090Y022726D01*
X011831Y022726D01*
X011831Y023112D01*
X011966Y023112D01*
X011966Y022726D01*
X012707Y022726D01*
X012747Y022737D01*
X012783Y022758D01*
X012813Y022787D01*
X012834Y022823D01*
X012845Y022864D01*
X012845Y023112D01*
X011966Y023112D01*
X011966Y023248D01*
X011831Y023248D01*
X011831Y023112D01*
X010952Y023112D01*
X010952Y023095D02*
X009958Y023095D01*
X010116Y022937D02*
X010952Y022937D01*
X010993Y022778D02*
X010275Y022778D01*
X010433Y022620D02*
X014110Y022620D01*
X014110Y022778D02*
X012804Y022778D01*
X012845Y022937D02*
X014110Y022937D01*
X014110Y023095D02*
X012845Y023095D01*
X012845Y023248D02*
X012845Y023496D01*
X012834Y023537D01*
X012813Y023573D01*
X012783Y023602D01*
X012747Y023623D01*
X012707Y023634D01*
X011966Y023634D01*
X011966Y023248D01*
X012845Y023248D01*
X012845Y023254D02*
X014110Y023254D01*
X014110Y023412D02*
X012845Y023412D01*
X012814Y023571D02*
X014110Y023571D01*
X014110Y022461D02*
X010592Y022461D01*
X010750Y022303D02*
X014110Y022303D01*
X014110Y022144D02*
X010908Y022144D01*
X010974Y021986D02*
X014110Y021986D01*
X014110Y021827D02*
X010983Y021827D01*
X010983Y021669D02*
X014110Y021669D01*
X014110Y021510D02*
X010983Y021510D01*
X010983Y021352D02*
X014116Y021352D01*
X014214Y021193D02*
X010983Y021193D01*
X010983Y021035D02*
X014372Y021035D01*
X014531Y020876D02*
X010983Y020876D01*
X010983Y020718D02*
X014689Y020718D01*
X014848Y020559D02*
X010983Y020559D01*
X010983Y020401D02*
X015006Y020401D01*
X015165Y020242D02*
X012434Y020242D01*
X011426Y020242D02*
X010983Y020242D01*
X010983Y019133D02*
X011387Y019133D01*
X011390Y019135D02*
X011331Y019092D01*
X011280Y019041D01*
X011238Y018983D01*
X011205Y018919D01*
X011183Y018850D01*
X011171Y018779D01*
X011171Y018762D01*
X011910Y018762D01*
X011910Y018722D01*
X011950Y018722D01*
X011950Y018762D01*
X011910Y018762D01*
X011910Y019201D01*
X011594Y019201D01*
X011523Y019190D01*
X011454Y019168D01*
X011390Y019135D01*
X011233Y018974D02*
X010983Y018974D01*
X010983Y018816D02*
X011177Y018816D01*
X011171Y018722D02*
X011171Y018706D01*
X011183Y018635D01*
X011205Y018566D01*
X011238Y018502D01*
X011280Y018444D01*
X011331Y018393D01*
X011390Y018350D01*
X011454Y018317D01*
X011523Y018295D01*
X011594Y018284D01*
X011910Y018284D01*
X011910Y018722D01*
X011171Y018722D01*
X011179Y018657D02*
X010983Y018657D01*
X010983Y018499D02*
X011240Y018499D01*
X011408Y018340D02*
X010983Y018340D01*
X010983Y018182D02*
X011498Y018182D01*
X011523Y018190D02*
X011454Y018168D01*
X011390Y018135D01*
X011331Y018092D01*
X011280Y018041D01*
X011238Y017983D01*
X011205Y017919D01*
X011183Y017850D01*
X011171Y017779D01*
X011171Y017762D01*
X011910Y017762D01*
X011910Y017722D01*
X011950Y017722D01*
X011950Y017762D01*
X011910Y017762D01*
X011910Y018201D01*
X011594Y018201D01*
X011523Y018190D01*
X011267Y018023D02*
X010983Y018023D01*
X010983Y017865D02*
X011188Y017865D01*
X011171Y017722D02*
X011171Y017706D01*
X011183Y017635D01*
X011205Y017566D01*
X011238Y017502D01*
X011280Y017444D01*
X011331Y017393D01*
X011390Y017350D01*
X011454Y017317D01*
X011523Y017295D01*
X011594Y017284D01*
X011910Y017284D01*
X011910Y017722D01*
X011171Y017722D01*
X011171Y017706D02*
X010982Y017706D01*
X010916Y017548D02*
X011214Y017548D01*
X011335Y017389D02*
X010770Y017389D01*
X010215Y017389D02*
X004062Y017389D01*
X004062Y017231D02*
X011398Y017231D01*
X011910Y017389D02*
X011950Y017389D01*
X011950Y017548D02*
X011910Y017548D01*
X011910Y017706D02*
X011950Y017706D01*
X011950Y017865D02*
X011910Y017865D01*
X011910Y018023D02*
X011950Y018023D01*
X011950Y018182D02*
X011910Y018182D01*
X011910Y018340D02*
X011950Y018340D01*
X011950Y018499D02*
X011910Y018499D01*
X011910Y018657D02*
X011950Y018657D01*
X011950Y018816D02*
X011910Y018816D01*
X011910Y018974D02*
X011950Y018974D01*
X011950Y019133D02*
X011910Y019133D01*
X014430Y021430D02*
X017368Y018492D01*
X017368Y012867D01*
X017485Y012443D02*
X017485Y011640D01*
X017346Y011779D01*
X017346Y011984D01*
X017310Y012072D01*
X017250Y012131D01*
X017250Y012443D01*
X017281Y012431D01*
X017454Y012431D01*
X017485Y012443D01*
X017485Y012317D02*
X017250Y012317D01*
X017250Y012159D02*
X017485Y012159D01*
X017485Y012000D02*
X017339Y012000D01*
X017346Y011842D02*
X017485Y011842D01*
X017485Y011683D02*
X017442Y011683D01*
X017805Y011305D02*
X017805Y015493D01*
X017805Y015618D01*
X018118Y015992D02*
X018197Y016025D01*
X018264Y016093D01*
X018279Y016128D01*
X018721Y015686D01*
X018811Y015596D01*
X018929Y015547D01*
X019244Y015547D01*
X019310Y015575D01*
X018125Y014390D01*
X018125Y015247D01*
X018197Y015277D01*
X018264Y015345D01*
X018301Y015433D01*
X018301Y015804D01*
X018264Y015892D01*
X018197Y015960D01*
X018118Y015992D01*
X018189Y015963D02*
X018444Y015963D01*
X018301Y015804D02*
X018603Y015804D01*
X018761Y015646D02*
X018301Y015646D01*
X018301Y015487D02*
X019222Y015487D01*
X019064Y015329D02*
X018249Y015329D01*
X018125Y015170D02*
X018905Y015170D01*
X018747Y015012D02*
X018125Y015012D01*
X018125Y014853D02*
X018588Y014853D01*
X018430Y014695D02*
X018125Y014695D01*
X018125Y014536D02*
X018271Y014536D01*
X018118Y013930D02*
X019805Y015617D01*
X020134Y015329D02*
X020397Y015329D01*
X020414Y015312D02*
X020546Y015257D01*
X021508Y015257D01*
X021508Y013959D01*
X021410Y013861D01*
X021367Y013759D01*
X021325Y013861D01*
X021173Y014013D01*
X020975Y014095D01*
X020760Y014095D01*
X020562Y014013D01*
X020410Y013861D01*
X020367Y013759D01*
X020325Y013861D01*
X020173Y014013D01*
X019975Y014095D01*
X019760Y014095D01*
X019562Y014013D01*
X019410Y013861D01*
X019367Y013759D01*
X019325Y013861D01*
X019173Y014013D01*
X018975Y014095D01*
X018760Y014095D01*
X018717Y014077D01*
X019821Y015181D01*
X019892Y015181D01*
X020052Y015247D01*
X020175Y015370D01*
X020228Y015498D01*
X020312Y015414D01*
X020414Y015312D01*
X020238Y015487D02*
X020224Y015487D01*
X019811Y015170D02*
X021508Y015170D01*
X021508Y015012D02*
X019652Y015012D01*
X019494Y014853D02*
X021508Y014853D01*
X021508Y014695D02*
X019335Y014695D01*
X019177Y014536D02*
X021508Y014536D01*
X021508Y014378D02*
X019018Y014378D01*
X018860Y014219D02*
X021508Y014219D01*
X021508Y014061D02*
X021057Y014061D01*
X021284Y013902D02*
X021451Y013902D01*
X021868Y013555D02*
X021868Y012805D01*
X021555Y012492D01*
X021555Y011866D01*
X021555Y011805D01*
X021875Y012237D02*
X021875Y012360D01*
X022139Y012624D01*
X022187Y012741D01*
X022187Y013111D01*
X022325Y013249D01*
X022407Y013448D01*
X022407Y013662D01*
X022325Y013861D01*
X022227Y013959D01*
X022227Y014742D01*
X022624Y014346D01*
X022741Y014297D01*
X024257Y014297D01*
X024308Y014247D01*
X024468Y014181D01*
X024642Y014181D01*
X024802Y014247D01*
X024925Y014370D01*
X024992Y014531D01*
X024992Y014704D01*
X024925Y014865D01*
X024802Y014988D01*
X024642Y015054D01*
X024468Y015054D01*
X024308Y014988D01*
X024257Y014937D01*
X022938Y014937D01*
X022363Y015512D01*
X022363Y015804D01*
X022327Y015892D01*
X022259Y015960D01*
X022187Y015989D01*
X022187Y015995D01*
X022259Y016025D01*
X022327Y016093D01*
X022363Y016181D01*
X022363Y016552D01*
X022327Y016640D01*
X022259Y016708D01*
X022171Y016744D01*
X021564Y016744D01*
X021476Y016708D01*
X021455Y016687D01*
X020853Y016687D01*
X020802Y016738D01*
X020642Y016804D01*
X020571Y016804D01*
X020569Y016806D01*
X020642Y016806D01*
X020802Y016872D01*
X020853Y016922D01*
X024235Y016922D01*
X025048Y016110D01*
X025048Y014063D01*
X023561Y012576D01*
X023471Y012486D01*
X023423Y012369D01*
X023423Y012202D01*
X023314Y012202D01*
X023314Y011875D01*
X023296Y011875D01*
X023296Y011858D01*
X022890Y011858D01*
X022890Y011668D01*
X022901Y011628D01*
X022922Y011592D01*
X022952Y011562D01*
X022988Y011541D01*
X023009Y011536D01*
X023001Y011536D01*
X022913Y011499D01*
X022867Y011453D01*
X022822Y011499D01*
X022734Y011536D01*
X022726Y011536D01*
X022747Y011541D01*
X022783Y011562D01*
X022813Y011592D01*
X022834Y011628D01*
X022845Y011668D01*
X022845Y011858D01*
X022439Y011858D01*
X022439Y011875D01*
X022845Y011875D01*
X022845Y012065D01*
X022834Y012105D01*
X022813Y012141D01*
X022783Y012171D01*
X022747Y012192D01*
X022707Y012202D01*
X022439Y012202D01*
X022439Y011875D01*
X022421Y011875D01*
X022421Y012202D01*
X022153Y012202D01*
X022113Y012192D01*
X022077Y012171D01*
X022047Y012141D01*
X022028Y012108D01*
X022014Y012140D01*
X021947Y012208D01*
X021875Y012237D01*
X021875Y012317D02*
X023423Y012317D01*
X023467Y012476D02*
X021991Y012476D01*
X022143Y012634D02*
X023619Y012634D01*
X023778Y012793D02*
X022187Y012793D01*
X022187Y012951D02*
X023936Y012951D01*
X023904Y013096D02*
X023975Y013108D01*
X024044Y013130D01*
X024108Y013163D01*
X024166Y013205D01*
X024217Y013256D01*
X024260Y013315D01*
X024293Y013379D01*
X024315Y013448D01*
X024326Y013519D01*
X024326Y013535D01*
X023888Y013535D01*
X023888Y013575D01*
X024326Y013575D01*
X024326Y013591D01*
X024315Y013662D01*
X024293Y013731D01*
X024260Y013795D01*
X024217Y013854D01*
X024166Y013905D01*
X024108Y013947D01*
X024044Y013980D01*
X023975Y014002D01*
X023904Y014014D01*
X023888Y014014D01*
X023888Y013575D01*
X023847Y013575D01*
X023847Y013535D01*
X023409Y013535D01*
X023409Y013519D01*
X023420Y013448D01*
X023442Y013379D01*
X023475Y013315D01*
X023518Y013256D01*
X023569Y013205D01*
X023627Y013163D01*
X023691Y013130D01*
X023760Y013108D01*
X023831Y013096D01*
X023847Y013096D01*
X023847Y013535D01*
X023888Y013535D01*
X023888Y013096D01*
X023904Y013096D01*
X023888Y013110D02*
X023847Y013110D01*
X023752Y013110D02*
X022983Y013110D01*
X022975Y013108D02*
X023044Y013130D01*
X023108Y013163D01*
X023166Y013205D01*
X023217Y013256D01*
X023260Y013315D01*
X023293Y013379D01*
X023315Y013448D01*
X023326Y013519D01*
X023326Y013535D01*
X022888Y013535D01*
X022888Y013575D01*
X023326Y013575D01*
X023326Y013591D01*
X023315Y013662D01*
X023293Y013731D01*
X023260Y013795D01*
X023217Y013854D01*
X023166Y013905D01*
X023108Y013947D01*
X023044Y013980D01*
X022975Y014002D01*
X022904Y014014D01*
X022888Y014014D01*
X022888Y013575D01*
X022847Y013575D01*
X022847Y013535D01*
X022409Y013535D01*
X022409Y013519D01*
X022420Y013448D01*
X022442Y013379D01*
X022475Y013315D01*
X022518Y013256D01*
X022569Y013205D01*
X022627Y013163D01*
X022691Y013130D01*
X022760Y013108D01*
X022831Y013096D01*
X022847Y013096D01*
X022847Y013535D01*
X022888Y013535D01*
X022888Y013096D01*
X022904Y013096D01*
X022975Y013108D01*
X022888Y013110D02*
X022847Y013110D01*
X022752Y013110D02*
X022187Y013110D01*
X022333Y013268D02*
X022509Y013268D01*
X022427Y013427D02*
X022399Y013427D01*
X022409Y013575D02*
X022847Y013575D01*
X022847Y014014D01*
X022831Y014014D01*
X022760Y014002D01*
X022691Y013980D01*
X022627Y013947D01*
X022569Y013905D01*
X022518Y013854D01*
X022475Y013795D01*
X022442Y013731D01*
X022420Y013662D01*
X022409Y013591D01*
X022409Y013575D01*
X022407Y013585D02*
X022409Y013585D01*
X022374Y013744D02*
X022449Y013744D01*
X022566Y013902D02*
X022284Y013902D01*
X022227Y014061D02*
X025046Y014061D01*
X025048Y014219D02*
X024736Y014219D01*
X024929Y014378D02*
X025048Y014378D01*
X025048Y014536D02*
X024992Y014536D01*
X024992Y014695D02*
X025048Y014695D01*
X025048Y014853D02*
X024930Y014853D01*
X025048Y015012D02*
X024744Y015012D01*
X025048Y015170D02*
X024213Y015170D01*
X024173Y015130D02*
X024417Y015375D01*
X024550Y015694D01*
X024550Y016041D01*
X024417Y016360D01*
X024173Y016605D01*
X023853Y016737D01*
X023507Y016737D01*
X023187Y016605D01*
X022942Y016360D01*
X022810Y016041D01*
X022810Y015694D01*
X022942Y015375D01*
X023187Y015130D01*
X023507Y014998D01*
X023853Y014998D01*
X024173Y015130D01*
X024366Y015012D02*
X023888Y015012D01*
X023472Y015012D02*
X022863Y015012D01*
X022705Y015170D02*
X023147Y015170D01*
X022988Y015329D02*
X022546Y015329D01*
X022388Y015487D02*
X022896Y015487D01*
X022830Y015646D02*
X022363Y015646D01*
X022363Y015804D02*
X022810Y015804D01*
X022810Y015963D02*
X022251Y015963D01*
X022339Y016121D02*
X022844Y016121D01*
X022909Y016280D02*
X022363Y016280D01*
X022363Y016438D02*
X023021Y016438D01*
X023179Y016597D02*
X022345Y016597D01*
X021868Y016366D02*
X021743Y016367D01*
X021680Y016367D01*
X020618Y016367D01*
X020555Y016367D01*
X019180Y017742D01*
X019180Y020493D01*
X017430Y022242D01*
X017430Y031930D01*
X017930Y032430D01*
X017930Y032680D01*
X017930Y033117D01*
X017555Y033492D01*
X016930Y032680D02*
X016930Y032430D01*
X016430Y031930D01*
X016430Y021742D01*
X018368Y019805D01*
X018368Y017055D01*
X018993Y016430D01*
X019368Y016055D02*
X019180Y015867D01*
X018993Y015867D01*
X018055Y016805D01*
X018055Y018930D01*
X015430Y021555D01*
X015430Y031930D01*
X015930Y032430D01*
X015930Y032680D01*
X015430Y032367D02*
X015430Y033117D01*
X015805Y033492D01*
X016119Y033492D01*
X016464Y033874D02*
X016521Y033874D01*
X015134Y033240D02*
X011060Y033240D01*
X011060Y033081D02*
X014610Y033081D01*
X014451Y032923D02*
X011060Y032923D01*
X011060Y032764D02*
X014420Y032764D01*
X014420Y032606D02*
X011060Y032606D01*
X011060Y032447D02*
X014432Y032447D01*
X014274Y032289D02*
X011060Y032289D01*
X011060Y032130D02*
X014141Y032130D01*
X014110Y031972D02*
X011060Y031972D01*
X011060Y031813D02*
X014110Y031813D01*
X014110Y031655D02*
X011060Y031655D01*
X011060Y031496D02*
X014110Y031496D01*
X014110Y031338D02*
X012089Y031338D01*
X012126Y031179D02*
X014110Y031179D01*
X014110Y031021D02*
X012126Y031021D01*
X012126Y030862D02*
X014110Y030862D01*
X014110Y030704D02*
X012126Y030704D01*
X012126Y030545D02*
X014110Y030545D01*
X014110Y030387D02*
X012126Y030387D01*
X011885Y029911D02*
X014110Y029911D01*
X014110Y029753D02*
X011890Y029753D01*
X011890Y029594D02*
X014110Y029594D01*
X014110Y029436D02*
X011890Y029436D01*
X011110Y027948D02*
X011135Y027934D01*
X011135Y027447D01*
X010975Y027447D01*
X010975Y027846D01*
X011039Y027873D01*
X011107Y027940D01*
X011110Y027948D01*
X011135Y027851D02*
X010986Y027851D01*
X010975Y027692D02*
X011135Y027692D01*
X011135Y027534D02*
X010975Y027534D01*
X010975Y027375D02*
X009769Y027375D01*
X008767Y026741D02*
X007885Y026741D01*
X007885Y026583D02*
X007725Y026583D01*
X007725Y026741D02*
X006875Y026741D01*
X007725Y026900D02*
X007885Y026900D01*
X007885Y027058D02*
X007725Y027058D01*
X007725Y027217D02*
X007885Y027217D01*
X007885Y026424D02*
X007725Y026424D01*
X007725Y026266D02*
X007885Y026266D01*
X006875Y025314D02*
X010362Y025314D01*
X010203Y025156D02*
X006875Y025156D01*
X006875Y024997D02*
X010045Y024997D01*
X009886Y024839D02*
X006875Y024839D01*
X006875Y024680D02*
X009728Y024680D01*
X009569Y024522D02*
X006875Y024522D01*
X006875Y024363D02*
X009411Y024363D01*
X009252Y024205D02*
X006875Y024205D01*
X006875Y024046D02*
X009094Y024046D01*
X008935Y023888D02*
X006875Y023888D01*
X010975Y026900D02*
X011135Y026900D01*
X011135Y027058D02*
X010975Y027058D01*
X010975Y027217D02*
X011135Y027217D01*
X011135Y027375D02*
X012303Y027375D01*
X012305Y027217D02*
X011824Y027217D01*
X011824Y027058D02*
X012186Y027058D01*
X012184Y026900D02*
X011824Y026900D01*
X012129Y026741D02*
X012184Y026741D01*
X012143Y026583D02*
X012233Y026583D01*
X012680Y026868D02*
X012680Y026241D01*
X012680Y026243D01*
X012663Y026226D01*
X011805Y026226D01*
X011824Y027534D02*
X012265Y027534D01*
X012265Y027692D02*
X011824Y027692D01*
X011986Y027851D02*
X012296Y027851D01*
X012680Y027851D02*
X012680Y027851D01*
X012680Y027692D02*
X012680Y027692D01*
X012680Y027534D02*
X012680Y027534D01*
X012680Y027375D02*
X012680Y027375D01*
X011966Y023571D02*
X011831Y023571D01*
X011831Y023412D02*
X011966Y023412D01*
X011966Y023254D02*
X011831Y023254D01*
X011831Y023095D02*
X011966Y023095D01*
X011966Y022937D02*
X011831Y022937D01*
X011831Y022778D02*
X011966Y022778D01*
X014430Y021430D02*
X014430Y031992D01*
X014930Y032492D01*
X014930Y032680D01*
X015430Y032367D02*
X014930Y031867D01*
X014930Y031680D01*
X014930Y021492D01*
X017680Y018743D01*
X017680Y016367D01*
X017680Y016366D01*
X017805Y016366D01*
X018276Y016121D02*
X018286Y016121D01*
X019743Y017632D02*
X019500Y017875D01*
X019500Y018023D02*
X020019Y018023D01*
X019810Y017865D02*
X019743Y017704D01*
X019743Y017632D01*
X019744Y017706D02*
X019669Y017706D01*
X020180Y017617D02*
X020493Y017930D01*
X024680Y017930D01*
X026243Y016367D01*
X026243Y013117D01*
X024243Y011117D01*
X024180Y011055D01*
X024243Y011117D02*
X024243Y011118D01*
X024243Y009930D01*
X023436Y009124D01*
X022933Y009124D01*
X022933Y009439D02*
X022933Y009807D01*
X023305Y010180D01*
X023305Y011055D01*
X023743Y011492D01*
X023743Y012305D01*
X025368Y013930D01*
X025368Y016242D01*
X024368Y017242D01*
X020555Y017242D01*
X020844Y016914D02*
X024243Y016914D01*
X024402Y016755D02*
X020760Y016755D01*
X020853Y016047D02*
X021453Y016047D01*
X021476Y016025D01*
X021555Y015992D01*
X021519Y015977D01*
X020767Y015977D01*
X020763Y015981D01*
X020802Y015997D01*
X020853Y016047D01*
X021868Y015618D02*
X021868Y015555D01*
X022805Y014617D01*
X024555Y014617D01*
X024374Y014219D02*
X022227Y014219D01*
X022227Y014378D02*
X022592Y014378D01*
X022433Y014536D02*
X022227Y014536D01*
X022227Y014695D02*
X022275Y014695D01*
X022847Y013902D02*
X022888Y013902D01*
X022888Y013744D02*
X022847Y013744D01*
X022847Y013585D02*
X022888Y013585D01*
X022888Y013427D02*
X022847Y013427D01*
X022847Y013268D02*
X022888Y013268D01*
X023226Y013268D02*
X023509Y013268D01*
X023427Y013427D02*
X023308Y013427D01*
X023326Y013585D02*
X023409Y013585D01*
X023409Y013591D02*
X023409Y013575D01*
X023847Y013575D01*
X023847Y014014D01*
X023831Y014014D01*
X023760Y014002D01*
X023691Y013980D01*
X023627Y013947D01*
X023569Y013905D01*
X023518Y013854D01*
X023475Y013795D01*
X023442Y013731D01*
X023420Y013662D01*
X023409Y013591D01*
X023449Y013744D02*
X023286Y013744D01*
X023169Y013902D02*
X023566Y013902D01*
X023847Y013902D02*
X023888Y013902D01*
X023888Y013744D02*
X023847Y013744D01*
X023847Y013585D02*
X023888Y013585D01*
X023888Y013427D02*
X023847Y013427D01*
X023847Y013268D02*
X023888Y013268D01*
X023983Y013110D02*
X024095Y013110D01*
X024226Y013268D02*
X024253Y013268D01*
X024308Y013427D02*
X024412Y013427D01*
X024326Y013585D02*
X024570Y013585D01*
X024729Y013744D02*
X024286Y013744D01*
X024169Y013902D02*
X024887Y013902D01*
X025317Y013427D02*
X025923Y013427D01*
X025923Y013585D02*
X025476Y013585D01*
X025634Y013744D02*
X025923Y013744D01*
X025923Y013902D02*
X025687Y013902D01*
X025687Y013866D02*
X025687Y016306D01*
X025639Y016424D01*
X025549Y016514D01*
X024549Y017514D01*
X024431Y017562D01*
X020853Y017562D01*
X020805Y017610D01*
X024547Y017610D01*
X025923Y016235D01*
X025923Y013250D01*
X024657Y011985D01*
X024657Y012065D01*
X024646Y012105D01*
X024625Y012141D01*
X024596Y012171D01*
X024560Y012192D01*
X024519Y012202D01*
X024251Y012202D01*
X024251Y011875D01*
X024234Y011875D01*
X024234Y012202D01*
X024092Y012202D01*
X025639Y013749D01*
X025687Y013866D01*
X025687Y014061D02*
X025923Y014061D01*
X025923Y014219D02*
X025687Y014219D01*
X025687Y014378D02*
X025923Y014378D01*
X025923Y014536D02*
X025687Y014536D01*
X025687Y014695D02*
X025923Y014695D01*
X025923Y014853D02*
X025687Y014853D01*
X025687Y015012D02*
X025923Y015012D01*
X025923Y015170D02*
X025687Y015170D01*
X025687Y015329D02*
X025923Y015329D01*
X025923Y015487D02*
X025687Y015487D01*
X025687Y015646D02*
X025923Y015646D01*
X025923Y015804D02*
X025687Y015804D01*
X025687Y015963D02*
X025923Y015963D01*
X025923Y016121D02*
X025687Y016121D01*
X025687Y016280D02*
X025877Y016280D01*
X025719Y016438D02*
X025624Y016438D01*
X025560Y016597D02*
X025466Y016597D01*
X025402Y016755D02*
X025307Y016755D01*
X025243Y016914D02*
X025149Y016914D01*
X025085Y017072D02*
X024990Y017072D01*
X024926Y017231D02*
X024832Y017231D01*
X024768Y017389D02*
X024673Y017389D01*
X024609Y017548D02*
X024466Y017548D01*
X025039Y018023D02*
X029084Y018023D01*
X029084Y018060D02*
X029084Y017558D01*
X029095Y017517D01*
X029115Y017481D01*
X029145Y017451D01*
X029181Y017431D01*
X029222Y017420D01*
X029724Y017420D01*
X029724Y018060D01*
X029084Y018060D01*
X029084Y018182D02*
X024881Y018182D01*
X025198Y017865D02*
X029084Y017865D01*
X029084Y017706D02*
X025356Y017706D01*
X025515Y017548D02*
X029086Y017548D01*
X029724Y017548D02*
X029761Y017548D01*
X029761Y017706D02*
X029724Y017706D01*
X029724Y017865D02*
X029761Y017865D01*
X029761Y018023D02*
X029724Y018023D01*
X029724Y018182D02*
X029761Y018182D01*
X029761Y018340D02*
X029724Y018340D01*
X029724Y018499D02*
X029761Y018499D01*
X029761Y018657D02*
X029724Y018657D01*
X030305Y018816D02*
X019500Y018816D01*
X019500Y018974D02*
X030305Y018974D01*
X030305Y019133D02*
X019500Y019133D01*
X019500Y019291D02*
X030305Y019291D01*
X030305Y019450D02*
X019500Y019450D01*
X019500Y019608D02*
X029062Y019608D01*
X028840Y019767D02*
X019500Y019767D01*
X019500Y019925D02*
X028681Y019925D01*
X028523Y020084D02*
X019500Y020084D01*
X019500Y020242D02*
X028364Y020242D01*
X028248Y020401D02*
X019500Y020401D01*
X019500Y020429D02*
X019500Y020429D01*
X019499Y020559D02*
X028218Y020559D01*
X028218Y020718D02*
X019407Y020718D01*
X019361Y020764D02*
X019361Y020764D01*
X019249Y020876D02*
X028218Y020876D01*
X028218Y021035D02*
X019090Y021035D01*
X018932Y021193D02*
X028218Y021193D01*
X028218Y021352D02*
X018773Y021352D01*
X018615Y021510D02*
X028218Y021510D01*
X028218Y021669D02*
X018456Y021669D01*
X018208Y022015D02*
X018139Y021986D01*
X018337Y022144D02*
X028579Y022144D01*
X028737Y022303D02*
X018408Y022303D01*
X018420Y022461D02*
X023443Y022461D01*
X023507Y022435D02*
X023853Y022435D01*
X024173Y022568D01*
X024417Y022812D01*
X024550Y023132D01*
X024550Y023478D01*
X024417Y023798D01*
X024173Y024042D01*
X023853Y024175D01*
X023507Y024175D01*
X023187Y024042D01*
X022942Y023798D01*
X022810Y023478D01*
X022810Y023132D01*
X022942Y022812D01*
X023187Y022568D01*
X023507Y022435D01*
X023135Y022620D02*
X018420Y022620D01*
X018420Y022778D02*
X022976Y022778D01*
X022891Y022937D02*
X018420Y022937D01*
X018420Y023095D02*
X022825Y023095D01*
X022810Y023254D02*
X018420Y023254D01*
X018420Y023412D02*
X022810Y023412D01*
X022849Y023571D02*
X018420Y023571D01*
X018420Y023729D02*
X022914Y023729D01*
X023033Y023888D02*
X018420Y023888D01*
X018420Y024046D02*
X023197Y024046D01*
X024163Y024046D02*
X030481Y024046D01*
X030593Y024205D02*
X018420Y024205D01*
X018420Y024363D02*
X030593Y024363D01*
X030593Y024522D02*
X018420Y024522D01*
X018420Y024680D02*
X030593Y024680D01*
X030593Y024839D02*
X018420Y024839D01*
X018420Y024997D02*
X029106Y024997D01*
X029116Y024981D02*
X029145Y024951D01*
X029181Y024931D01*
X029222Y024920D01*
X029724Y024920D01*
X029724Y025560D01*
X029084Y025560D01*
X029084Y025058D01*
X029095Y025017D01*
X029116Y024981D01*
X029084Y025156D02*
X018420Y025156D01*
X018420Y025314D02*
X029084Y025314D01*
X029084Y025473D02*
X018420Y025473D01*
X018420Y025631D02*
X029084Y025631D01*
X029084Y025597D02*
X029724Y025597D01*
X029724Y025560D01*
X029761Y025560D01*
X029761Y024920D01*
X030263Y024920D01*
X030304Y024931D01*
X030340Y024951D01*
X030370Y024981D01*
X030391Y025017D01*
X030401Y025058D01*
X030401Y025560D01*
X029761Y025560D01*
X029761Y025597D01*
X029724Y025597D01*
X029724Y026237D01*
X029222Y026237D01*
X029181Y026226D01*
X029145Y026205D01*
X029116Y026176D01*
X029095Y026140D01*
X029084Y026099D01*
X029084Y025597D01*
X029084Y025790D02*
X018420Y025790D01*
X018420Y025949D02*
X029084Y025949D01*
X029086Y026107D02*
X018420Y026107D01*
X018420Y026266D02*
X030593Y026266D01*
X030593Y026107D02*
X030399Y026107D01*
X030401Y026099D02*
X030391Y026140D01*
X030370Y026176D01*
X030340Y026205D01*
X030304Y026226D01*
X030263Y026237D01*
X029761Y026237D01*
X029761Y025597D01*
X030401Y025597D01*
X030401Y026099D01*
X030401Y025949D02*
X030593Y025949D01*
X030593Y025790D02*
X030401Y025790D01*
X030401Y025631D02*
X030593Y025631D01*
X030593Y025473D02*
X030401Y025473D01*
X030401Y025314D02*
X030593Y025314D01*
X030593Y025156D02*
X030401Y025156D01*
X030379Y024997D02*
X030593Y024997D01*
X029761Y024997D02*
X029724Y024997D01*
X029724Y025156D02*
X029761Y025156D01*
X029761Y025314D02*
X029724Y025314D01*
X029724Y025473D02*
X029761Y025473D01*
X029761Y025631D02*
X029724Y025631D01*
X029724Y025790D02*
X029761Y025790D01*
X029761Y025949D02*
X029724Y025949D01*
X029724Y026107D02*
X029761Y026107D01*
X030241Y026741D02*
X018420Y026741D01*
X018420Y026583D02*
X030399Y026583D01*
X030558Y026424D02*
X018420Y026424D01*
X018420Y026900D02*
X030082Y026900D01*
X029924Y027058D02*
X018420Y027058D01*
X018420Y027217D02*
X029765Y027217D01*
X031525Y028960D02*
X021337Y028960D01*
X021179Y029119D02*
X031366Y029119D01*
X031683Y028802D02*
X021496Y028802D01*
X021654Y028643D02*
X031842Y028643D01*
X032000Y028485D02*
X021813Y028485D01*
X021971Y028326D02*
X032159Y028326D01*
X032317Y028168D02*
X022130Y028168D01*
X022288Y028009D02*
X032476Y028009D01*
X032634Y027851D02*
X022447Y027851D01*
X020218Y031338D02*
X020194Y031338D01*
X019940Y031338D02*
X019920Y031338D01*
X019920Y031496D02*
X019940Y031496D01*
X019940Y031655D02*
X019920Y031655D01*
X019920Y031813D02*
X019940Y031813D01*
X019940Y031972D02*
X019920Y031972D01*
X019615Y031972D02*
X019245Y031972D01*
X019359Y031813D02*
X019501Y031813D01*
X019501Y031655D02*
X019359Y031655D01*
X019352Y031496D02*
X019508Y031496D01*
X019666Y031338D02*
X019194Y031338D01*
X018508Y031496D02*
X018440Y031496D01*
X018440Y031655D02*
X018501Y031655D01*
X018501Y031813D02*
X018440Y031813D01*
X018360Y031972D02*
X018615Y031972D01*
X018715Y032289D02*
X018260Y032289D01*
X018201Y032130D02*
X020218Y032130D01*
X020218Y032289D02*
X020145Y032289D01*
X019940Y032289D02*
X019920Y032289D01*
X019920Y032447D02*
X019940Y032447D01*
X019940Y032606D02*
X019920Y032606D01*
X019920Y032764D02*
X019940Y032764D01*
X019940Y032923D02*
X019920Y032923D01*
X019920Y033081D02*
X019940Y033081D01*
X020135Y033081D02*
X020328Y033081D01*
X019725Y033081D02*
X019135Y033081D01*
X019294Y032923D02*
X019566Y032923D01*
X019501Y032764D02*
X019359Y032764D01*
X019359Y032606D02*
X019501Y032606D01*
X019557Y032447D02*
X019303Y032447D01*
X019145Y032289D02*
X019715Y032289D01*
X018557Y032447D02*
X018418Y032447D01*
X018440Y032606D02*
X018501Y032606D01*
X018501Y032764D02*
X018440Y032764D01*
X018409Y032923D02*
X018566Y032923D01*
X015930Y031680D02*
X015930Y021617D01*
X015930Y021617D01*
X016993Y020555D01*
X017930Y019617D01*
X016993Y020555D02*
X016993Y020555D01*
X015930Y021617D02*
X015930Y021617D01*
X015083Y019252D02*
X015083Y019252D01*
X015993Y019055D02*
X015993Y018992D01*
X016192Y018499D02*
X016222Y018499D01*
X016472Y017706D02*
X016611Y017706D01*
X016611Y017548D02*
X016313Y017548D01*
X016312Y017389D02*
X016611Y017389D01*
X016611Y017231D02*
X016312Y017231D01*
X016312Y017072D02*
X016611Y017072D01*
X016611Y016914D02*
X016312Y016914D01*
X016312Y016755D02*
X016611Y016755D01*
X016610Y016597D02*
X016312Y016597D01*
X016312Y016438D02*
X016610Y016438D01*
X016610Y016280D02*
X016312Y016280D01*
X016312Y016121D02*
X016610Y016121D01*
X016610Y015963D02*
X016312Y015963D01*
X016312Y015804D02*
X016610Y015804D01*
X016610Y015646D02*
X016312Y015646D01*
X016312Y015487D02*
X016610Y015487D01*
X016610Y015329D02*
X016312Y015329D01*
X016312Y015170D02*
X016610Y015170D01*
X016610Y015012D02*
X016312Y015012D01*
X016312Y014853D02*
X016610Y014853D01*
X016610Y014695D02*
X016312Y014695D01*
X016312Y014536D02*
X016610Y014536D01*
X016610Y014378D02*
X016312Y014378D01*
X016312Y014219D02*
X016610Y014219D01*
X016610Y014061D02*
X016312Y014061D01*
X016313Y013902D02*
X016610Y013902D01*
X016610Y013744D02*
X016313Y013744D01*
X016313Y013585D02*
X016610Y013585D01*
X016610Y013427D02*
X016313Y013427D01*
X016313Y013268D02*
X016609Y013268D01*
X016609Y013110D02*
X016250Y013110D01*
X016313Y013241D02*
X016313Y013241D01*
X016092Y012951D02*
X016609Y012951D01*
X016609Y012793D02*
X015933Y012793D01*
X015775Y012634D02*
X016609Y012634D01*
X016609Y012476D02*
X015616Y012476D01*
X015458Y012317D02*
X016609Y012317D01*
X016609Y012159D02*
X015299Y012159D01*
X015141Y012000D02*
X015858Y012000D01*
X015845Y011842D02*
X014982Y011842D01*
X016172Y011842D02*
X016190Y011842D01*
X016190Y012000D02*
X016172Y012000D01*
X016504Y012000D02*
X016519Y012000D01*
X017805Y011305D02*
X018868Y010242D01*
X018868Y009367D01*
X019111Y009124D01*
X019553Y009124D01*
X019553Y009439D02*
X019305Y009439D01*
X019180Y009555D01*
X019178Y010370D01*
X018118Y011430D01*
X018118Y013930D01*
X018437Y013221D02*
X018548Y013111D01*
X018548Y012945D01*
X018488Y012884D01*
X018451Y012796D01*
X018451Y012189D01*
X018481Y012117D01*
X018437Y012117D01*
X018437Y013221D01*
X018437Y013110D02*
X018548Y013110D01*
X018548Y012951D02*
X018437Y012951D01*
X018437Y012793D02*
X018451Y012793D01*
X018437Y012634D02*
X018451Y012634D01*
X018437Y012476D02*
X018451Y012476D01*
X018437Y012317D02*
X018451Y012317D01*
X018437Y012159D02*
X018464Y012159D01*
X018555Y011680D02*
X019618Y010617D01*
X019633Y011054D02*
X018992Y011696D01*
X018992Y011767D01*
X018979Y011797D01*
X018994Y011797D01*
X019111Y011846D01*
X019201Y011936D01*
X019250Y012054D01*
X019250Y012086D01*
X019303Y012033D01*
X019392Y011997D01*
X019841Y011997D01*
X019930Y012033D01*
X019957Y012060D01*
X019968Y012056D01*
X020135Y012056D01*
X020135Y010516D01*
X020048Y010516D01*
X020054Y010531D01*
X020054Y010704D01*
X019988Y010865D01*
X019865Y010988D01*
X019704Y011054D01*
X019633Y011054D01*
X019716Y011049D02*
X020135Y011049D01*
X020135Y010891D02*
X019962Y010891D01*
X020043Y010732D02*
X020135Y010732D01*
X020135Y010574D02*
X020054Y010574D01*
X020135Y011208D02*
X019480Y011208D01*
X019321Y011366D02*
X020135Y011366D01*
X020135Y011525D02*
X019163Y011525D01*
X019004Y011683D02*
X020135Y011683D01*
X020135Y011842D02*
X019101Y011842D01*
X019228Y012000D02*
X019382Y012000D01*
X019851Y012000D02*
X020135Y012000D01*
X020055Y012492D02*
X019617Y012492D01*
X019760Y013015D02*
X019868Y013015D01*
X019868Y012978D01*
X019841Y012988D01*
X019392Y012988D01*
X019303Y012952D01*
X019242Y012891D01*
X019188Y012945D01*
X019188Y013112D01*
X019325Y013249D01*
X019367Y013351D01*
X019410Y013249D01*
X019562Y013097D01*
X019760Y013015D01*
X019955Y013015D01*
X020041Y012929D01*
X019968Y012929D01*
X019957Y012925D01*
X019930Y012952D01*
X019841Y012988D01*
X019392Y012988D01*
X019303Y012952D01*
X019250Y012898D01*
X019250Y013174D01*
X019325Y013249D01*
X019367Y013351D01*
X019410Y013249D01*
X019562Y013097D01*
X019760Y013015D01*
X019930Y012951D02*
X020018Y012951D01*
X020455Y012967D02*
X019868Y013555D01*
X020057Y014061D02*
X020678Y014061D01*
X020451Y013902D02*
X020284Y013902D01*
X019678Y014061D02*
X019057Y014061D01*
X019284Y013902D02*
X019451Y013902D01*
X018868Y013555D02*
X018868Y012492D01*
X018868Y012492D01*
X019188Y012951D02*
X019303Y012951D01*
X019250Y012951D01*
X019250Y013110D02*
X019549Y013110D01*
X019188Y013110D01*
X019333Y013268D02*
X019402Y013268D01*
X019333Y013268D01*
X020455Y012967D02*
X020455Y010026D01*
X020151Y010026D02*
X020118Y010055D01*
X019618Y010055D01*
X020140Y010026D02*
X020151Y010026D01*
X020042Y009536D02*
X020298Y009536D01*
X020613Y009536D01*
X022443Y009536D01*
X022443Y008651D01*
X022479Y008563D01*
X022524Y008518D01*
X022524Y008494D01*
X022550Y008494D01*
X022550Y008494D01*
X022524Y008494D01*
X022524Y008469D01*
X022479Y008425D01*
X022443Y008336D01*
X022443Y007875D01*
X021750Y007875D01*
X020861Y008764D01*
X020744Y008812D01*
X020042Y008812D01*
X020042Y009536D01*
X020042Y009464D02*
X022443Y009464D01*
X022443Y009306D02*
X020042Y009306D01*
X020042Y009147D02*
X022443Y009147D01*
X022443Y008989D02*
X020042Y008989D01*
X020042Y008830D02*
X022443Y008830D01*
X022443Y008672D02*
X020953Y008672D01*
X021112Y008513D02*
X022524Y008513D01*
X022550Y008494D02*
X022550Y008494D01*
X022450Y008355D02*
X021270Y008355D01*
X021429Y008196D02*
X022443Y008196D01*
X022443Y008038D02*
X021587Y008038D01*
X021746Y007879D02*
X022443Y007879D01*
X022933Y008179D02*
X024056Y008179D01*
X024056Y008180D01*
X023679Y007899D02*
X023679Y007841D01*
X023691Y007829D01*
X023382Y007829D01*
X023382Y007899D01*
X023679Y007899D01*
X023679Y007879D02*
X023382Y007879D01*
X023430Y008492D02*
X022933Y008492D01*
X022305Y008492D01*
X022933Y008494D02*
X022933Y008492D01*
X023341Y008513D02*
X023651Y008513D01*
X023822Y008672D02*
X023422Y008672D01*
X023565Y008830D02*
X024110Y008830D01*
X024134Y008989D02*
X023754Y008989D01*
X023913Y009147D02*
X024252Y009147D01*
X024396Y009306D02*
X024071Y009306D01*
X024230Y009464D02*
X024540Y009464D01*
X024684Y009623D02*
X024388Y009623D01*
X024424Y009659D02*
X024424Y009659D01*
X024527Y009781D02*
X024735Y009781D01*
X024735Y009940D02*
X024562Y009940D01*
X024562Y010098D02*
X024735Y010098D01*
X024735Y010257D02*
X024562Y010257D01*
X024562Y010415D02*
X024735Y010415D01*
X024735Y010574D02*
X024562Y010574D01*
X024621Y010732D02*
X024735Y010732D01*
X024737Y010891D02*
X024813Y010891D01*
X024738Y011049D02*
X024972Y011049D01*
X025130Y011208D02*
X024786Y011208D01*
X024944Y011366D02*
X025289Y011366D01*
X025447Y011525D02*
X025103Y011525D01*
X025261Y011683D02*
X025606Y011683D01*
X025764Y011842D02*
X025420Y011842D01*
X025578Y012000D02*
X025923Y012000D01*
X026081Y012159D02*
X025737Y012159D01*
X025895Y012317D02*
X026240Y012317D01*
X025624Y012951D02*
X024842Y012951D01*
X024683Y012793D02*
X025465Y012793D01*
X025307Y012634D02*
X024525Y012634D01*
X024366Y012476D02*
X025148Y012476D01*
X024990Y012317D02*
X024208Y012317D01*
X024234Y012159D02*
X024251Y012159D01*
X024234Y012000D02*
X024251Y012000D01*
X024608Y012159D02*
X024831Y012159D01*
X024673Y012000D02*
X024657Y012000D01*
X025000Y013110D02*
X025782Y013110D01*
X025923Y013268D02*
X025159Y013268D01*
X026562Y014378D02*
X026681Y014378D01*
X026618Y014536D02*
X026562Y014536D01*
X026562Y014695D02*
X026618Y014695D01*
X026562Y014853D02*
X026680Y014853D01*
X026562Y015012D02*
X026866Y015012D01*
X026562Y015170D02*
X030305Y015170D01*
X030305Y015012D02*
X027244Y015012D01*
X027430Y014853D02*
X030305Y014853D01*
X030305Y014695D02*
X027493Y014695D01*
X027651Y014536D02*
X030305Y014536D01*
X030305Y014378D02*
X027810Y014378D01*
X027968Y014219D02*
X030305Y014219D01*
X030305Y014061D02*
X028127Y014061D01*
X028285Y013902D02*
X035820Y013902D01*
X035820Y013744D02*
X035107Y013744D01*
X035266Y013585D02*
X035820Y013585D01*
X035820Y013427D02*
X035424Y013427D01*
X035583Y013268D02*
X035820Y013268D01*
X035820Y013110D02*
X035741Y013110D01*
X035761Y012951D02*
X035820Y012951D01*
X035820Y012793D02*
X035761Y012793D01*
X035820Y012634D02*
X034698Y012634D01*
X034698Y012537D02*
X035761Y012537D01*
X035761Y012144D01*
X035091Y011474D01*
X034698Y011474D01*
X034698Y012537D01*
X034698Y012476D02*
X034538Y012476D01*
X034538Y012634D02*
X032613Y012634D01*
X032613Y012622D02*
X033126Y012622D01*
X033126Y012223D01*
X033112Y012134D01*
X033084Y012048D01*
X033044Y011968D01*
X032991Y011895D01*
X032927Y011832D01*
X032854Y011779D01*
X032774Y011738D01*
X032689Y011710D01*
X032613Y011698D01*
X032613Y012622D01*
X032613Y012476D02*
X032497Y012476D01*
X032497Y012317D02*
X032613Y012317D01*
X032613Y012159D02*
X032497Y012159D01*
X032497Y012000D02*
X032613Y012000D01*
X032613Y011842D02*
X032497Y011842D01*
X032937Y011842D02*
X033777Y011842D01*
X033618Y012000D02*
X033060Y012000D01*
X033116Y012159D02*
X033475Y012159D01*
X033475Y012317D02*
X033126Y012317D01*
X033126Y012476D02*
X033475Y012476D01*
X033475Y012697D02*
X034538Y012697D01*
X034538Y013760D01*
X034144Y013760D01*
X033475Y013091D01*
X033475Y012697D01*
X033475Y012793D02*
X033126Y012793D01*
X033126Y012951D02*
X033475Y012951D01*
X033494Y013110D02*
X033126Y013110D01*
X033098Y013268D02*
X033652Y013268D01*
X033811Y013427D02*
X033018Y013427D01*
X032846Y013585D02*
X033969Y013585D01*
X034128Y013744D02*
X028444Y013744D01*
X030305Y015329D02*
X026562Y015329D01*
X026562Y015487D02*
X030305Y015487D01*
X030305Y015646D02*
X026562Y015646D01*
X026562Y015804D02*
X030305Y015804D01*
X030305Y015963D02*
X026562Y015963D01*
X026562Y016121D02*
X030305Y016121D01*
X030305Y016280D02*
X026562Y016280D01*
X026559Y016438D02*
X030305Y016438D01*
X030305Y016597D02*
X026466Y016597D01*
X026307Y016755D02*
X030305Y016755D01*
X030305Y016914D02*
X026149Y016914D01*
X025990Y017072D02*
X030305Y017072D01*
X030305Y017231D02*
X025832Y017231D01*
X025673Y017389D02*
X030305Y017389D01*
X030743Y017242D02*
X030743Y016742D01*
X030743Y015117D01*
X030743Y014617D01*
X035740Y014617D01*
X035740Y017242D01*
X033180Y017242D01*
X033180Y017242D01*
X032555Y017242D01*
X032430Y017242D01*
X032430Y017242D01*
X030743Y017242D01*
X030743Y017231D02*
X035740Y017231D01*
X035740Y017072D02*
X030743Y017072D01*
X030743Y016914D02*
X035740Y016914D01*
X035740Y016755D02*
X030743Y016755D01*
X030743Y016597D02*
X035740Y016597D01*
X035740Y016438D02*
X030743Y016438D01*
X030743Y016280D02*
X035740Y016280D01*
X035740Y016121D02*
X030743Y016121D01*
X030743Y015963D02*
X035740Y015963D01*
X035740Y015804D02*
X030743Y015804D01*
X030743Y015646D02*
X035740Y015646D01*
X035740Y015487D02*
X030743Y015487D01*
X030743Y015329D02*
X035740Y015329D01*
X035740Y015170D02*
X030743Y015170D01*
X030743Y015012D02*
X035740Y015012D01*
X035740Y014853D02*
X030743Y014853D01*
X030743Y014695D02*
X035740Y014695D01*
X034698Y013744D02*
X034538Y013744D01*
X034538Y013585D02*
X034698Y013585D01*
X034698Y013427D02*
X034538Y013427D01*
X034538Y013268D02*
X034698Y013268D01*
X034698Y013110D02*
X034538Y013110D01*
X034538Y012951D02*
X034698Y012951D01*
X034698Y012793D02*
X034538Y012793D01*
X034538Y012317D02*
X034698Y012317D01*
X034698Y012159D02*
X034538Y012159D01*
X034538Y012000D02*
X034698Y012000D01*
X034698Y011842D02*
X034538Y011842D01*
X034538Y011683D02*
X034698Y011683D01*
X034698Y011525D02*
X034538Y011525D01*
X035141Y011525D02*
X035820Y011525D01*
X035820Y011683D02*
X035300Y011683D01*
X035458Y011842D02*
X035820Y011842D01*
X035820Y012000D02*
X035617Y012000D01*
X035761Y012159D02*
X035820Y012159D01*
X035820Y012317D02*
X035761Y012317D01*
X035761Y012476D02*
X035820Y012476D01*
X035820Y010732D02*
X028829Y010732D01*
X028670Y010574D02*
X035820Y010574D01*
X035820Y008196D02*
X026774Y008196D01*
X026616Y008038D02*
X035820Y008038D01*
X035820Y007879D02*
X026457Y007879D01*
X026299Y007721D02*
X031499Y007721D01*
X031403Y007562D02*
X031246Y007562D01*
X031251Y007404D02*
X031403Y007404D01*
X031403Y007245D02*
X031251Y007245D01*
X031403Y007087D02*
X030818Y007087D01*
X030818Y007245D02*
X030658Y007245D01*
X030658Y007087D02*
X025750Y007087D01*
X025750Y006928D02*
X030225Y006928D01*
X030225Y006770D02*
X025750Y006770D01*
X025823Y007245D02*
X030225Y007245D01*
X030225Y007404D02*
X025982Y007404D01*
X026140Y007562D02*
X030229Y007562D01*
X030658Y007562D02*
X030818Y007562D01*
X030818Y007404D02*
X030658Y007404D01*
X031251Y006928D02*
X031351Y006928D01*
X031781Y006453D02*
X032224Y006453D01*
X032382Y006294D02*
X031622Y006294D01*
X031464Y006136D02*
X032423Y006136D01*
X027482Y005185D02*
X026702Y005185D01*
X026625Y005026D02*
X027324Y005026D01*
X027165Y004868D02*
X026625Y004868D01*
X026625Y004709D02*
X027007Y004709D01*
X026848Y004551D02*
X026625Y004551D01*
X026625Y004392D02*
X026690Y004392D01*
X025985Y004392D02*
X025233Y004392D01*
X025391Y004234D02*
X025985Y004234D01*
X025985Y004075D02*
X025550Y004075D01*
X025795Y003917D02*
X025815Y003917D01*
X025815Y003758D02*
X025795Y003758D01*
X025795Y003600D02*
X025815Y003600D01*
X025815Y003482D02*
X025815Y003064D01*
X025983Y003064D01*
X025985Y003066D01*
X025985Y003002D01*
X025748Y003002D01*
X025687Y003063D01*
X025687Y003064D01*
X025795Y003064D01*
X025795Y003482D01*
X025815Y003482D01*
X025815Y003441D02*
X025795Y003441D01*
X025795Y003283D02*
X025815Y003283D01*
X025815Y003124D02*
X025795Y003124D01*
X026305Y002930D02*
X026305Y005367D01*
X025908Y005185D02*
X025075Y005185D01*
X024917Y005026D02*
X025985Y005026D01*
X025985Y004868D02*
X024758Y004868D01*
X024916Y004709D02*
X025985Y004709D01*
X025985Y004551D02*
X025074Y004551D01*
X025234Y005343D02*
X025868Y005343D01*
X025888Y005502D02*
X025392Y005502D01*
X025551Y005660D02*
X025980Y005660D01*
X024056Y006555D02*
X024056Y006555D01*
X023493Y006992D02*
X023251Y007234D01*
X022933Y007234D01*
X023112Y006770D02*
X022695Y006770D01*
X022443Y007136D02*
X022443Y007235D01*
X021554Y007235D01*
X021436Y007284D01*
X021346Y007374D01*
X021346Y007374D01*
X020547Y008172D01*
X019961Y008172D01*
X019961Y008154D01*
X020006Y008110D01*
X020042Y008022D01*
X020042Y007136D01*
X022443Y007136D01*
X021528Y007245D02*
X020042Y007245D01*
X020042Y007404D02*
X021316Y007404D01*
X021157Y007562D02*
X020042Y007562D01*
X020042Y007721D02*
X020999Y007721D01*
X020840Y007879D02*
X020042Y007879D01*
X020036Y008038D02*
X020682Y008038D01*
X020305Y008180D02*
X020305Y007368D01*
X019790Y006770D02*
X019272Y006770D01*
X018935Y006611D02*
X019790Y006611D01*
X019790Y006453D02*
X017367Y006453D01*
X017354Y006611D02*
X017370Y006611D01*
X017321Y006294D02*
X019716Y006294D01*
X019555Y006136D02*
X017191Y006136D01*
X016669Y006136D02*
X015708Y006136D01*
X016539Y006294D02*
X014305Y006294D01*
X014441Y006136D02*
X014527Y006136D01*
X014489Y005343D02*
X014447Y005343D01*
X014425Y005185D02*
X014623Y005185D01*
X017868Y006926D02*
X018114Y006930D01*
X018868Y006930D01*
X018868Y007025D01*
X018805Y007025D01*
X018868Y006930D02*
X019171Y007234D01*
X019553Y007234D01*
X019553Y007549D02*
X019186Y007549D01*
X018868Y007867D01*
X018805Y007867D01*
X018805Y007773D01*
X018805Y007867D02*
X017993Y007867D01*
X017868Y007871D01*
X017868Y007399D02*
X018361Y007399D01*
X018361Y007484D01*
X018413Y007431D01*
X018492Y007399D01*
X018413Y007366D01*
X018361Y007314D01*
X018361Y007399D01*
X017868Y007399D01*
X017868Y007399D01*
X018361Y007404D02*
X018480Y007404D01*
X018868Y008180D02*
X019553Y008180D01*
X020305Y008180D01*
X019553Y008179D02*
X019553Y008180D01*
X019553Y008492D02*
X019553Y008494D01*
X018144Y008672D02*
X018129Y008672D01*
X017815Y008672D02*
X017797Y008672D01*
X017797Y008830D02*
X017815Y008830D01*
X017470Y009147D02*
X017250Y009147D01*
X016610Y009623D02*
X016216Y009623D01*
X016462Y009781D02*
X016610Y009781D01*
X016610Y009940D02*
X016543Y009940D01*
X016554Y010098D02*
X016610Y010098D01*
X016610Y010257D02*
X016507Y010257D01*
X016610Y010415D02*
X016375Y010415D01*
X018132Y009306D02*
X018141Y009306D01*
X020770Y010026D02*
X020770Y013458D01*
X020868Y013555D01*
X021367Y013351D02*
X021410Y013249D01*
X021548Y013111D01*
X021548Y012938D01*
X021450Y012840D01*
X021427Y012863D01*
X021267Y012929D01*
X021093Y012929D01*
X021090Y012928D01*
X021090Y013063D01*
X021173Y013097D01*
X021325Y013249D01*
X021367Y013351D01*
X021410Y013249D01*
X021548Y013111D01*
X021548Y012938D01*
X021450Y012840D01*
X021427Y012863D01*
X021267Y012929D01*
X021093Y012929D01*
X021090Y012928D01*
X021090Y013063D01*
X021173Y013097D01*
X021325Y013249D01*
X021367Y013351D01*
X021333Y013268D02*
X021402Y013268D01*
X021333Y013268D01*
X021186Y013110D02*
X021548Y013110D01*
X021186Y013110D01*
X021090Y012951D02*
X021548Y012951D01*
X021090Y012951D01*
X021180Y012492D02*
X021055Y012305D01*
X021055Y010555D01*
X021055Y010117D01*
X021085Y010087D01*
X021085Y010026D01*
X021055Y009992D02*
X021055Y010117D01*
X021055Y010555D02*
X021555Y010805D01*
X021555Y011118D01*
X021930Y010617D02*
X022157Y010617D01*
X022345Y010430D01*
X022345Y010532D01*
X022430Y010680D01*
X022430Y011118D01*
X022753Y010709D02*
X022822Y010738D01*
X022867Y010783D01*
X022913Y010738D01*
X022985Y010708D01*
X022985Y010313D01*
X022695Y010022D01*
X022695Y010324D01*
X022665Y010396D01*
X022665Y010447D01*
X022686Y010484D01*
X022701Y010499D01*
X022718Y010538D01*
X022739Y010575D01*
X022742Y010597D01*
X022750Y010616D01*
X022750Y010659D01*
X022756Y010701D01*
X022753Y010709D01*
X022809Y010732D02*
X022926Y010732D01*
X022985Y010574D02*
X022738Y010574D01*
X022665Y010415D02*
X022985Y010415D01*
X022929Y010257D02*
X022695Y010257D01*
X022695Y010098D02*
X022771Y010098D01*
X022345Y010026D02*
X022345Y010430D01*
X023305Y011055D02*
X023305Y011056D01*
X023305Y011117D01*
X023305Y011118D01*
X023305Y011118D01*
X023305Y011056D01*
X023625Y010708D02*
X023697Y010738D01*
X023764Y010805D01*
X023774Y010828D01*
X023783Y010805D01*
X023851Y010738D01*
X023923Y010708D01*
X023923Y010063D01*
X023422Y009563D01*
X023422Y009596D01*
X023386Y009685D01*
X023324Y009746D01*
X023486Y009909D01*
X023576Y009999D01*
X023625Y010116D01*
X023625Y010708D01*
X023684Y010732D02*
X023864Y010732D01*
X023923Y010574D02*
X023625Y010574D01*
X023625Y010415D02*
X023923Y010415D01*
X023923Y010257D02*
X023625Y010257D01*
X023618Y010098D02*
X023923Y010098D01*
X023800Y009940D02*
X023518Y009940D01*
X023641Y009781D02*
X023359Y009781D01*
X023411Y009623D02*
X023483Y009623D01*
X022976Y011525D02*
X022759Y011525D01*
X022845Y011683D02*
X022890Y011683D01*
X022890Y011842D02*
X022845Y011842D01*
X022890Y011875D02*
X023296Y011875D01*
X023296Y012202D01*
X023028Y012202D01*
X022988Y012192D01*
X022952Y012171D01*
X022922Y012141D01*
X022901Y012105D01*
X022890Y012065D01*
X022890Y011875D01*
X022890Y012000D02*
X022845Y012000D01*
X022795Y012159D02*
X022940Y012159D01*
X023296Y012159D02*
X023314Y012159D01*
X023314Y012000D02*
X023296Y012000D01*
X022439Y012000D02*
X022421Y012000D01*
X022421Y012159D02*
X022439Y012159D01*
X022065Y012159D02*
X021996Y012159D01*
X024372Y015329D02*
X025048Y015329D01*
X025048Y015487D02*
X024464Y015487D01*
X024530Y015646D02*
X025048Y015646D01*
X025048Y015804D02*
X024550Y015804D01*
X024550Y015963D02*
X025048Y015963D01*
X025036Y016121D02*
X024516Y016121D01*
X024451Y016280D02*
X024877Y016280D01*
X024719Y016438D02*
X024339Y016438D01*
X024181Y016597D02*
X024560Y016597D01*
X021868Y015618D02*
X021868Y015617D01*
X020292Y018182D02*
X019500Y018182D01*
X019500Y018340D02*
X029084Y018340D01*
X029084Y018499D02*
X019500Y018499D01*
X019500Y018657D02*
X029105Y018657D01*
X029088Y020084D02*
X030334Y020084D01*
X030493Y020242D02*
X028930Y020242D01*
X028771Y020401D02*
X030651Y020401D01*
X030810Y020559D02*
X028618Y020559D01*
X028618Y020718D02*
X030968Y020718D01*
X031127Y020876D02*
X028618Y020876D01*
X028618Y021035D02*
X031285Y021035D01*
X031444Y021193D02*
X028618Y021193D01*
X028618Y021352D02*
X035740Y021352D01*
X035740Y021510D02*
X028618Y021510D01*
X028669Y021669D02*
X035740Y021669D01*
X035740Y021827D02*
X028828Y021827D01*
X028986Y021986D02*
X035740Y021986D01*
X035740Y022144D02*
X029145Y022144D01*
X029303Y022303D02*
X035740Y022303D01*
X035740Y022461D02*
X029462Y022461D01*
X029620Y022620D02*
X035740Y022620D01*
X035740Y022778D02*
X029779Y022778D01*
X029937Y022937D02*
X035740Y022937D01*
X035740Y023095D02*
X030096Y023095D01*
X030254Y023254D02*
X035740Y023254D01*
X035740Y023412D02*
X030413Y023412D01*
X030571Y023571D02*
X035740Y023571D01*
X035740Y023729D02*
X030730Y023729D01*
X030322Y023888D02*
X024327Y023888D01*
X024446Y023729D02*
X030164Y023729D01*
X030005Y023571D02*
X024511Y023571D01*
X024550Y023412D02*
X029847Y023412D01*
X029688Y023254D02*
X024550Y023254D01*
X024535Y023095D02*
X029530Y023095D01*
X029371Y022937D02*
X024469Y022937D01*
X024384Y022778D02*
X029213Y022778D01*
X029054Y022620D02*
X024225Y022620D01*
X023917Y022461D02*
X028896Y022461D01*
X031118Y020242D02*
X035740Y020242D01*
X035740Y020084D02*
X030959Y020084D01*
X030801Y019925D02*
X035740Y019925D01*
X035740Y019767D02*
X030743Y019767D01*
X030743Y019867D02*
X031430Y020555D01*
X035740Y020555D01*
X035740Y017930D01*
X032868Y017930D01*
X032493Y017930D01*
X031930Y017930D01*
X031618Y017930D01*
X030743Y017930D01*
X030743Y019867D01*
X030743Y019608D02*
X035740Y019608D01*
X035740Y019450D02*
X030743Y019450D01*
X030743Y019291D02*
X035740Y019291D01*
X035740Y019133D02*
X030743Y019133D01*
X030743Y018974D02*
X035740Y018974D01*
X035740Y018816D02*
X030743Y018816D01*
X030743Y018657D02*
X035740Y018657D01*
X035740Y018499D02*
X030743Y018499D01*
X030743Y018340D02*
X035740Y018340D01*
X035740Y018182D02*
X030743Y018182D01*
X030743Y018023D02*
X035740Y018023D01*
X035740Y020401D02*
X031276Y020401D01*
X031930Y017930D02*
X031930Y017930D01*
X033830Y027135D02*
X033830Y027135D01*
X033830Y027135D01*
X026186Y008513D02*
X025120Y008513D01*
X025140Y008355D02*
X026027Y008355D01*
X025869Y008196D02*
X025140Y008196D01*
X025140Y008038D02*
X025710Y008038D01*
X025552Y007879D02*
X025134Y007879D01*
X024508Y003917D02*
X024102Y003917D01*
X024305Y003271D02*
X024026Y002992D01*
X024305Y002714D01*
X024584Y002992D01*
X024305Y003271D01*
X024158Y003124D02*
X024452Y003124D01*
X024557Y002966D02*
X024053Y002966D01*
X024211Y002807D02*
X024399Y002807D01*
X024561Y002015D02*
X024049Y002015D01*
X023561Y002015D02*
X023049Y002015D01*
X025016Y001982D02*
X025305Y002271D01*
X025594Y001982D01*
X026016Y001982D01*
X026305Y002271D01*
X026049Y002015D02*
X026561Y002015D01*
X026743Y002492D02*
X026805Y002492D01*
X026743Y002492D02*
X026305Y002930D01*
X025403Y002173D02*
X025207Y002173D01*
X025049Y002015D02*
X025561Y002015D01*
X009501Y015012D02*
X009484Y015012D01*
X009484Y015170D02*
X009501Y015170D01*
X009484Y015329D02*
X009501Y015329D01*
X005533Y015329D02*
X005373Y015329D01*
X005373Y015487D02*
X005533Y015487D01*
X005533Y015646D02*
X005373Y015646D01*
X005373Y015804D02*
X005533Y015804D01*
X005533Y015963D02*
X005373Y015963D01*
X005373Y016121D02*
X005533Y016121D01*
X005533Y016280D02*
X005373Y016280D01*
X005373Y016438D02*
X005533Y016438D01*
X004125Y016438D02*
X004062Y016438D01*
X004062Y016280D02*
X004073Y016280D01*
X004062Y016121D02*
X004073Y016121D01*
X004062Y015963D02*
X004073Y015963D01*
X004062Y015804D02*
X004073Y015804D01*
X004062Y015646D02*
X004073Y015646D01*
X004062Y015487D02*
X004073Y015487D01*
X004062Y015329D02*
X004073Y015329D01*
X005373Y014853D02*
X005533Y014853D01*
X005533Y014695D02*
X005373Y014695D01*
X005373Y014536D02*
X005533Y014536D01*
X005533Y014378D02*
X005373Y014378D01*
X005373Y014219D02*
X005533Y014219D01*
X005533Y014061D02*
X005373Y014061D01*
X005373Y013902D02*
X005533Y013902D01*
D46*
X010493Y017805D02*
X010493Y019742D01*
X011930Y019742D01*
X015180Y019742D01*
X015243Y019743D01*
X015993Y018992D02*
X013743Y016742D01*
X011930Y016742D01*
X011930Y019742D02*
X011930Y019742D01*
X010493Y019742D02*
X010493Y021868D01*
X009180Y023180D01*
X008680Y023180D01*
X007930Y023180D01*
X007961Y023180D01*
X007930Y023180D02*
X007930Y023180D01*
X010570Y029665D02*
X010570Y030680D01*
X010570Y033632D01*
X011868Y034930D01*
X020055Y034930D01*
X020930Y034055D01*
X020930Y032680D01*
X017930Y031680D02*
X017930Y022430D01*
X016930Y021930D02*
X017743Y021118D01*
X017930Y020930D01*
X016930Y021930D02*
X016930Y031680D01*
D47*
X010806Y029617D02*
X010618Y029617D01*
X010618Y029617D01*
X010570Y029665D01*
X010493Y014242D02*
X010493Y013742D01*
D48*
X010492Y013742D01*
X010492Y013632D01*
X009728Y013632D01*
X009493Y013867D01*
X009493Y014118D01*
X009179Y014118D01*
X009023Y014274D01*
X008287Y014274D01*
X008287Y016085D02*
X009023Y016085D01*
X009179Y016241D01*
X009493Y016241D01*
X009493Y016492D01*
X009728Y016728D01*
X010493Y016728D01*
X011915Y016728D01*
X011930Y016742D01*
D49*
X015243Y019743D03*
X015993Y018992D03*
X017930Y020930D03*
X017930Y022430D03*
M02*
