%
M48
M72
T01C0.0197
T02C0.0236
T03C0.0360
T04C0.0394
T05C0.0400
T06C0.0550
T07C0.0866
T08C0.1260
T09C0.1654
%
T01
X14367Y9492
X10055Y9867
X16430Y7930
X9743Y19118
X25742Y4805
X19555Y6430
X22180Y8305
X5805Y14430
X25492Y9930
X5805Y15430
X5492Y14680
X5492Y15180
X5805Y14930
X5492Y15680
X20305Y7368
X17367Y10618
X18368Y6118
X23774Y10368
X22868Y10368
X20305Y2055
X24930Y8743
X29117Y4868
X27305Y3930
X26805Y4805
X17367Y6118
X21305Y2055
X27305Y2055
X16430Y5180
X12117Y3868
X10117Y2305
X12617Y10680
X8055Y7930
X10117Y5868
X6367Y5868
X6367Y2305
X6367Y9868
X14367Y2243
X8055Y3868
X13555Y11680
X15430Y13618
X14367Y10930
X22180Y9305
X7055Y24180
X9867Y25493
X8805Y24180
X4055Y22430
X8742Y22430
X6992Y22430
X9805Y23555
X11242Y24993
X6992Y27618
X10805Y23180
X1555Y23180
X5805Y15930
X12992Y9492
X12117Y7930
X13242Y6242
X10992Y6117
X13680Y7930
X8055Y743
X12117Y743
X16492Y743
X21180Y743
X25305Y743
X29492Y743
X25742Y4243
X5180Y15430
X5180Y14930
X5180Y15930
X5180Y14430
X6117Y14680
X6117Y15180
X6117Y15680
X4867Y15680
X4867Y15180
X4867Y14680
X11242Y15492
X11242Y14867
X8992Y14930
X8992Y15430
X9742Y17368
X15117Y19055
X15430Y17430
X12492Y16055
X11242Y12055
X12492Y4868
X8055Y11805
X16461Y17430
X8992Y13430
X24680Y5867
X25368Y13117
X20993Y16805
X19680Y18680
X19305Y20993
X18617Y21680
X18617Y24992
X18617Y28617
X20367Y28992
X22242Y27117
X25742Y26867
X30117Y19180
X30118Y16992
X15055Y4930
X1742Y28930
X4367Y30243
X9305Y29368
X9867Y33493
X12117Y35618
X15930Y35618
X19930Y35618
X21617Y33680
X11742Y33805
X13930Y34180
X18055Y34243
X22805Y31493
X24430Y29930
X28055Y29930
X31742Y29555
X33992Y24555
X33617Y27680
X13930Y32118
X13930Y27430
X13867Y23243
X14742Y20430
X11180Y20430
X18305Y14868
X18743Y15305
X32117Y4493
X32180Y2930
X32117Y6243
X9805Y21493
X22867Y6493
X24649Y10368
X22305Y2055
X26305Y2055
X23368Y13055
X24368Y14055
X30492Y3118
X17368Y7399
X15117Y6367
X18617Y5180
X18867Y2992
X23242Y5305
X20305Y5180
X22868Y11555
X27930Y12492
X22743Y16805
X20430Y15118
X25868Y6868
X19867Y11243
X23368Y14055
X25805Y15055
X25930Y17555
X25805Y16055
X22743Y18367
X19680Y19742
X22368Y13055
X22368Y14055
X17367Y8993
X17367Y8368
X16461Y13618
X23242Y4430
X11117Y17368
X11117Y19118
X12680Y18243
X29993Y6868
X29993Y5868
X16430Y10930
X16430Y9493
X16430Y6118
X11680Y13493
X25805Y14180
X21055Y7368
X20305Y7993
X18368Y8368
X32867Y7055
X26992Y10555
X28867Y11555
X33242Y5305
X26992Y11555
X20993Y9305
X17367Y12243
X19368Y14055
X20368Y14055
X21368Y14055
X20305Y3930
X28305Y2055
X28305Y3930
X22743Y15367
X24868Y16055
X21368Y15118
X30118Y14242
X29180Y23305
X29680Y26867
X28055Y21055
X35617Y24555
X25868Y12117
X27930Y6868
X26992Y9555
X28867Y10555
X27180Y8368
X25867Y5868
X27930Y5868
X27305Y2993
X19368Y13055
X21368Y13055
X18368Y7399
X16493Y18180
X17930Y19617
T02
X11055Y27368
X7555Y26118
X8055Y26118
X11430Y27118
X11430Y27618
X10680Y27618
X10680Y27118
X12680Y28055
X11992Y29617
X12242Y30492
X12242Y30992
X11867Y22743
X12367Y22743
X11367Y22743
X11367Y23618
X11867Y23618
X12367Y23618
X11430Y9805
X15430Y16055
X4742Y7867
X4805Y3867
X4742Y11805
X8242Y15180
X4742Y18242
X2680Y30242
X28055Y33680
X1867Y21242
X17930Y22430
X15243Y19743
X10493Y17805
X10493Y14242
X17930Y20930
X15993Y18992
X27055Y14617
X23493Y6305
X26305Y6305
X17430Y5242
X16930Y6492
X24555Y14617
X17368Y12867
X18555Y11680
X19618Y10617
X21930Y10617
X19368Y16055
X20555Y17242
X18993Y16430
X20180Y17617
X19805Y15617
X20555Y16367
X21180Y12492
X20055Y12492
X23493Y6992
X25493Y10492
X19618Y10055
X12868Y11367
X14055Y10180
X16118Y10055
X26305Y5367
X23930Y5680
T03
X27805Y3492
X27805Y2492
X26805Y3492
X26805Y2492
X25805Y3492
X25805Y2492
X24805Y3492
X24805Y2492
X23805Y3492
X23805Y2492
X22805Y3492
X22805Y2492
X21805Y3492
X21805Y2492
X20805Y3492
X20805Y2492
X14930Y31680
X14930Y32680
X15930Y31680
X15930Y32680
X16930Y31680
X16930Y32680
X17930Y31680
X17930Y32680
X18930Y31680
X18930Y32680
X19930Y31680
X19930Y32680
X20930Y31680
X20930Y32680
X21930Y31680
X21930Y32680
X27430Y12055
X28430Y12055
X27430Y11055
X28430Y11055
X27430Y10055
X28430Y10055
T04
X29742Y18079
X29742Y21031
X29743Y25578
X29743Y28531
T05
X11930Y19742
X11930Y18742
X11930Y17742
X11930Y16742
X18868Y13555
X19868Y13555
X20868Y13555
X21868Y13555
X22868Y13555
X23868Y13555
X6180Y30055
X7180Y30055
T06
X31118Y15367
X31118Y9367
X31118Y22492
X31118Y16492
X32555Y18680
X32555Y12680
X32555Y25805
X32555Y19805
T07
X34618Y19242
X34618Y15930
X34618Y22555
X34618Y12617
T08
X23680Y30742
X23680Y15868
X23680Y23305
X34288Y34288
X34288Y2005
X2005Y34288
X2005Y2005
T09
X13149Y13305
X14555Y15024
M30
