G75*
G70*
%OFA0B0*%
%FSLAX24Y24*%
%IPPOS*%
%LPD*%
%AMOC8*
5,1,8,0,0,1.08239X$1,22.5*
%
%ADD10C,0.0000*%
D10*
X001930Y001930D02*
X001930Y037757D01*
X037757Y037757D01*
X037757Y001930D01*
X001930Y001930D01*
X018927Y011627D02*
X018927Y015627D01*
X018929Y015682D01*
X018934Y015736D01*
X018944Y015790D01*
X018957Y015843D01*
X018973Y015895D01*
X018993Y015946D01*
X019017Y015995D01*
X019043Y016043D01*
X019073Y016088D01*
X019106Y016132D01*
X019142Y016173D01*
X019181Y016212D01*
X019222Y016248D01*
X019266Y016281D01*
X019311Y016311D01*
X019359Y016337D01*
X019408Y016361D01*
X019459Y016381D01*
X019511Y016397D01*
X019564Y016410D01*
X019618Y016420D01*
X019672Y016425D01*
X019727Y016427D01*
X026227Y016427D01*
X026282Y016425D01*
X026336Y016420D01*
X026390Y016410D01*
X026443Y016397D01*
X026495Y016381D01*
X026546Y016361D01*
X026595Y016337D01*
X026643Y016311D01*
X026688Y016281D01*
X026732Y016248D01*
X026773Y016212D01*
X026812Y016173D01*
X026848Y016132D01*
X026881Y016088D01*
X026911Y016043D01*
X026937Y015995D01*
X026961Y015946D01*
X026981Y015895D01*
X026997Y015843D01*
X027010Y015790D01*
X027020Y015736D01*
X027025Y015682D01*
X027027Y015627D01*
X027027Y011627D01*
X027025Y011572D01*
X027020Y011518D01*
X027010Y011464D01*
X026997Y011411D01*
X026981Y011359D01*
X026961Y011308D01*
X026937Y011259D01*
X026911Y011211D01*
X026881Y011166D01*
X026848Y011122D01*
X026812Y011081D01*
X026773Y011042D01*
X026732Y011006D01*
X026688Y010973D01*
X026643Y010943D01*
X026595Y010917D01*
X026546Y010893D01*
X026495Y010873D01*
X026443Y010857D01*
X026390Y010844D01*
X026336Y010834D01*
X026282Y010829D01*
X026227Y010827D01*
X019727Y010827D01*
X019672Y010829D01*
X019618Y010834D01*
X019564Y010844D01*
X019511Y010857D01*
X019459Y010873D01*
X019408Y010893D01*
X019359Y010917D01*
X019311Y010943D01*
X019266Y010973D01*
X019222Y011006D01*
X019181Y011042D01*
X019142Y011081D01*
X019106Y011122D01*
X019073Y011166D01*
X019043Y011211D01*
X019017Y011259D01*
X018993Y011308D01*
X018973Y011359D01*
X018957Y011411D01*
X018944Y011464D01*
X018934Y011518D01*
X018929Y011572D01*
X018927Y011627D01*
X028528Y020314D02*
X028531Y020371D01*
X028538Y020428D01*
X028551Y020484D01*
X028569Y020538D01*
X028592Y020591D01*
X028620Y020641D01*
X028652Y020689D01*
X028688Y020733D01*
X028728Y020774D01*
X028772Y020812D01*
X028818Y020845D01*
X028868Y020873D01*
X028920Y020897D01*
X028974Y020917D01*
X029030Y020931D01*
X029086Y020940D01*
X029144Y020944D01*
X029201Y020943D01*
X029258Y020936D01*
X029314Y020924D01*
X029369Y020908D01*
X029422Y020886D01*
X029473Y020860D01*
X029521Y020829D01*
X029567Y020794D01*
X029609Y020754D01*
X029647Y020712D01*
X029681Y020665D01*
X029711Y020616D01*
X029736Y020565D01*
X029756Y020511D01*
X029772Y020456D01*
X029782Y020400D01*
X029787Y020343D01*
X029787Y020285D01*
X029782Y020228D01*
X029772Y020172D01*
X029756Y020117D01*
X029736Y020063D01*
X029711Y020012D01*
X029681Y019963D01*
X029647Y019916D01*
X029609Y019874D01*
X029567Y019834D01*
X029521Y019799D01*
X029473Y019768D01*
X029422Y019742D01*
X029369Y019720D01*
X029314Y019704D01*
X029258Y019692D01*
X029201Y019685D01*
X029144Y019684D01*
X029086Y019688D01*
X029030Y019697D01*
X028974Y019711D01*
X028920Y019731D01*
X028868Y019755D01*
X028818Y019783D01*
X028772Y019816D01*
X028728Y019854D01*
X028688Y019895D01*
X028652Y019939D01*
X028620Y019987D01*
X028592Y020037D01*
X028569Y020090D01*
X028551Y020144D01*
X028538Y020200D01*
X028531Y020257D01*
X028528Y020314D01*
M02*
