G75*
G70*
%OFA0B0*%
%FSLAX24Y24*%
%IPPOS*%
%LPD*%
%AMOC8*
5,1,8,0,0,1.08239X$1,22.5*
%
%ADD10C,0.0000*%
%ADD11C,0.0100*%
%ADD12C,0.1378*%
%ADD13C,0.0160*%
%ADD14R,0.1693X0.0709*%
%ADD15R,0.0868X0.2118*%
%ADD16R,0.2118X0.0868*%
%ADD17R,0.0748X0.0472*%
%ADD18R,0.0256X0.0689*%
%ADD19R,0.2319X0.2618*%
%ADD20R,0.0476X0.1067*%
%ADD21R,0.0472X0.0748*%
%ADD22R,0.1102X0.0906*%
%ADD23R,0.1693X0.2244*%
%ADD24R,0.0630X0.0394*%
%ADD25R,0.0394X0.0630*%
%ADD26R,0.2244X0.1693*%
%ADD27R,0.0630X0.0472*%
%ADD28R,0.1693X0.2087*%
%ADD29R,0.0709X0.0906*%
%ADD30R,0.0906X0.0709*%
%ADD31R,0.0472X0.0630*%
%ADD32C,0.2559*%
%ADD33R,0.0630X0.1535*%
%ADD34R,0.0472X0.1102*%
%ADD35R,0.0354X0.0728*%
%ADD36R,0.1118X0.0718*%
%ADD37R,0.0718X0.1118*%
%ADD38R,0.0984X0.2283*%
%ADD39R,0.0512X0.0669*%
%ADD40R,0.1102X0.0472*%
%ADD41R,0.0531X0.0354*%
%ADD42R,0.0748X0.0906*%
%ADD43R,0.0669X0.0512*%
%ADD44R,0.0827X0.0906*%
%ADD45R,0.1142X0.0827*%
D10*
X001930Y001930D02*
X001930Y037757D01*
X037757Y037757D01*
X037757Y001930D01*
X001930Y001930D01*
X018927Y011627D02*
X018927Y015627D01*
X018929Y015682D01*
X018934Y015736D01*
X018944Y015790D01*
X018957Y015843D01*
X018973Y015895D01*
X018993Y015946D01*
X019017Y015995D01*
X019043Y016043D01*
X019073Y016088D01*
X019106Y016132D01*
X019142Y016173D01*
X019181Y016212D01*
X019222Y016248D01*
X019266Y016281D01*
X019311Y016311D01*
X019359Y016337D01*
X019408Y016361D01*
X019459Y016381D01*
X019511Y016397D01*
X019564Y016410D01*
X019618Y016420D01*
X019672Y016425D01*
X019727Y016427D01*
X026227Y016427D01*
X026282Y016425D01*
X026336Y016420D01*
X026390Y016410D01*
X026443Y016397D01*
X026495Y016381D01*
X026546Y016361D01*
X026595Y016337D01*
X026643Y016311D01*
X026688Y016281D01*
X026732Y016248D01*
X026773Y016212D01*
X026812Y016173D01*
X026848Y016132D01*
X026881Y016088D01*
X026911Y016043D01*
X026937Y015995D01*
X026961Y015946D01*
X026981Y015895D01*
X026997Y015843D01*
X027010Y015790D01*
X027020Y015736D01*
X027025Y015682D01*
X027027Y015627D01*
X027027Y011627D01*
X027025Y011572D01*
X027020Y011518D01*
X027010Y011464D01*
X026997Y011411D01*
X026981Y011359D01*
X026961Y011308D01*
X026937Y011259D01*
X026911Y011211D01*
X026881Y011166D01*
X026848Y011122D01*
X026812Y011081D01*
X026773Y011042D01*
X026732Y011006D01*
X026688Y010973D01*
X026643Y010943D01*
X026595Y010917D01*
X026546Y010893D01*
X026495Y010873D01*
X026443Y010857D01*
X026390Y010844D01*
X026336Y010834D01*
X026282Y010829D01*
X026227Y010827D01*
X019727Y010827D01*
X019672Y010829D01*
X019618Y010834D01*
X019564Y010844D01*
X019511Y010857D01*
X019459Y010873D01*
X019408Y010893D01*
X019359Y010917D01*
X019311Y010943D01*
X019266Y010973D01*
X019222Y011006D01*
X019181Y011042D01*
X019142Y011081D01*
X019106Y011122D01*
X019073Y011166D01*
X019043Y011211D01*
X019017Y011259D01*
X018993Y011308D01*
X018973Y011359D01*
X018957Y011411D01*
X018944Y011464D01*
X018934Y011518D01*
X018929Y011572D01*
X018927Y011627D01*
X028528Y020314D02*
X028531Y020371D01*
X028538Y020428D01*
X028551Y020484D01*
X028569Y020538D01*
X028592Y020591D01*
X028620Y020641D01*
X028652Y020689D01*
X028688Y020733D01*
X028728Y020774D01*
X028772Y020812D01*
X028818Y020845D01*
X028868Y020873D01*
X028920Y020897D01*
X028974Y020917D01*
X029030Y020931D01*
X029086Y020940D01*
X029144Y020944D01*
X029201Y020943D01*
X029258Y020936D01*
X029314Y020924D01*
X029369Y020908D01*
X029422Y020886D01*
X029473Y020860D01*
X029521Y020829D01*
X029567Y020794D01*
X029609Y020754D01*
X029647Y020712D01*
X029681Y020665D01*
X029711Y020616D01*
X029736Y020565D01*
X029756Y020511D01*
X029772Y020456D01*
X029782Y020400D01*
X029787Y020343D01*
X029787Y020285D01*
X029782Y020228D01*
X029772Y020172D01*
X029756Y020117D01*
X029736Y020063D01*
X029711Y020012D01*
X029681Y019963D01*
X029647Y019916D01*
X029609Y019874D01*
X029567Y019834D01*
X029521Y019799D01*
X029473Y019768D01*
X029422Y019742D01*
X029369Y019720D01*
X029314Y019704D01*
X029258Y019692D01*
X029201Y019685D01*
X029144Y019684D01*
X029086Y019688D01*
X029030Y019697D01*
X028974Y019711D01*
X028920Y019731D01*
X028868Y019755D01*
X028818Y019783D01*
X028772Y019816D01*
X028728Y019854D01*
X028688Y019895D01*
X028652Y019939D01*
X028620Y019987D01*
X028592Y020037D01*
X028569Y020090D01*
X028551Y020144D01*
X028538Y020200D01*
X028531Y020257D01*
X028528Y020314D01*
D11*
X012089Y023870D02*
X011489Y023870D01*
X011489Y024170D01*
X011589Y024270D01*
X011789Y024270D01*
X011889Y024170D01*
X011889Y023870D01*
X011889Y023640D02*
X011889Y023440D01*
X011889Y023540D02*
X011489Y023540D01*
X011489Y023440D01*
X011289Y023540D02*
X011189Y023540D01*
X011289Y023111D02*
X011889Y023111D01*
X011889Y023211D02*
X011889Y023010D01*
X011889Y022766D02*
X011589Y022466D01*
X011689Y022366D02*
X011289Y022766D01*
X011289Y023010D02*
X011289Y023111D01*
X011289Y022366D02*
X011889Y022366D01*
X011889Y021477D02*
X011589Y021477D01*
X011489Y021377D01*
X011489Y021077D01*
X011889Y021077D01*
X011889Y020833D02*
X011889Y020532D01*
X011789Y020432D01*
X011689Y020532D01*
X011689Y020833D01*
X011589Y020833D02*
X011889Y020833D01*
X011589Y020833D02*
X011489Y020733D01*
X011489Y020532D01*
X011489Y020103D02*
X011889Y020103D01*
X011889Y020003D02*
X011889Y020203D01*
X011489Y020103D02*
X011489Y020003D01*
X011289Y020103D02*
X011189Y020103D01*
X011489Y019773D02*
X011489Y019573D01*
X011389Y019673D02*
X011789Y019673D01*
X011889Y019773D01*
X011789Y019329D02*
X011689Y019229D01*
X011689Y019029D01*
X011589Y018928D01*
X011489Y019029D01*
X011489Y019329D01*
X011789Y019329D02*
X011889Y019229D01*
X011889Y018928D01*
X011889Y018699D02*
X011889Y018499D01*
X011889Y018599D02*
X011489Y018599D01*
X011489Y018499D01*
X011289Y018599D02*
X011189Y018599D01*
X011489Y018262D02*
X011489Y018162D01*
X011689Y017962D01*
X011889Y017962D02*
X011489Y017962D01*
X011589Y017717D02*
X011489Y017617D01*
X011489Y017417D01*
X011589Y017317D01*
X011289Y017317D02*
X011889Y017317D01*
X011789Y017073D02*
X011889Y016973D01*
X011889Y016773D01*
X011789Y016673D01*
X011389Y016673D01*
X011289Y016773D01*
X011289Y016973D01*
X011389Y017073D01*
X011589Y017717D02*
X011889Y017717D01*
X011889Y015784D02*
X011889Y015384D01*
X011489Y015784D01*
X011389Y015784D01*
X011289Y015684D01*
X011289Y015484D01*
X011389Y015384D01*
X011289Y014939D02*
X011889Y014939D01*
X011889Y014739D02*
X011889Y015139D01*
X011489Y014739D02*
X011289Y014939D01*
X011389Y014495D02*
X011789Y014095D01*
X011889Y014195D01*
X011889Y014395D01*
X011789Y014495D01*
X011389Y014495D01*
X011289Y014395D01*
X011289Y014195D01*
X011389Y014095D01*
X011789Y014095D01*
X011889Y013850D02*
X011889Y013450D01*
X011489Y013850D01*
X011389Y013850D01*
X011289Y013750D01*
X011289Y013550D01*
X011389Y013450D01*
X011489Y012576D02*
X011289Y012376D01*
X011489Y012576D02*
X011689Y012576D01*
X011889Y012376D01*
X011889Y012132D02*
X011889Y011831D01*
X011789Y011731D01*
X011589Y011731D01*
X011489Y011831D01*
X011489Y012132D01*
X011289Y011502D02*
X011489Y011302D01*
X011689Y011302D01*
X011889Y011502D01*
X008389Y012489D02*
X008389Y012889D01*
X008389Y012689D02*
X007789Y012689D01*
X007989Y012489D01*
X007889Y013134D02*
X007789Y013234D01*
X007789Y013434D01*
X007889Y013534D01*
X007989Y013534D01*
X008089Y013434D01*
X008189Y013534D01*
X008289Y013534D01*
X008389Y013434D01*
X008389Y013234D01*
X008289Y013134D01*
X008089Y013334D02*
X008089Y013434D01*
X008289Y013778D02*
X008289Y013878D01*
X008389Y013878D01*
X008389Y013778D01*
X008289Y013778D01*
X008289Y014100D02*
X008389Y014200D01*
X008389Y014401D01*
X008289Y014501D01*
X008089Y014501D01*
X007989Y014401D01*
X007989Y014301D01*
X008089Y014100D01*
X007789Y014100D01*
X007789Y014501D01*
X008089Y014745D02*
X007889Y014945D01*
X007789Y015145D01*
X007789Y015389D02*
X007989Y015590D01*
X007789Y015790D01*
X008389Y015790D01*
X008389Y016034D02*
X007789Y016034D01*
X008089Y016034D02*
X008089Y016434D01*
X007989Y016679D02*
X007989Y017079D01*
X008389Y016679D01*
X008389Y017079D01*
X008389Y016434D02*
X007789Y016434D01*
X007789Y015389D02*
X008389Y015389D01*
X008289Y015145D02*
X008389Y015045D01*
X008389Y014845D01*
X008289Y014745D01*
X008089Y014745D01*
X008089Y015045D01*
X008189Y015145D01*
X008289Y015145D01*
X008289Y017968D02*
X007889Y017968D01*
X007789Y018068D01*
X007789Y018268D01*
X007889Y018368D01*
X008289Y018368D01*
X008389Y018268D01*
X008389Y018068D01*
X008289Y017968D01*
X008289Y018612D02*
X008389Y018712D01*
X008389Y019012D01*
X007989Y019012D01*
X007989Y019257D02*
X007989Y019457D01*
X007889Y019357D02*
X008289Y019357D01*
X008389Y019457D01*
X008389Y019686D02*
X008389Y019987D01*
X008289Y020087D01*
X008089Y020087D01*
X007989Y019987D01*
X007989Y019686D01*
X008589Y019686D01*
X008289Y020331D02*
X008389Y020431D01*
X008389Y020731D01*
X007989Y020731D01*
X007989Y020975D02*
X007989Y021176D01*
X007889Y021075D02*
X008289Y021075D01*
X008389Y021176D01*
X008289Y020331D02*
X007989Y020331D01*
X007989Y022050D02*
X007889Y022050D01*
X007789Y022150D01*
X007789Y022350D01*
X007889Y022450D01*
X008089Y022350D02*
X008089Y022150D01*
X007989Y022050D01*
X008289Y022050D02*
X008389Y022150D01*
X008389Y022350D01*
X008289Y022450D01*
X008189Y022450D01*
X008089Y022350D01*
X007989Y022694D02*
X007989Y022894D01*
X007889Y022794D02*
X008289Y022794D01*
X008389Y022894D01*
X008289Y023124D02*
X008189Y023224D01*
X008189Y023524D01*
X008089Y023524D02*
X008389Y023524D01*
X008389Y023224D01*
X008289Y023124D01*
X007989Y023224D02*
X007989Y023424D01*
X008089Y023524D01*
X008089Y023768D02*
X008289Y023768D01*
X008389Y023868D01*
X008389Y024169D01*
X008489Y024169D02*
X007989Y024169D01*
X007989Y023868D01*
X008089Y023768D01*
X008589Y023968D02*
X008589Y024069D01*
X008489Y024169D01*
X008289Y024413D02*
X008089Y024413D01*
X007989Y024513D01*
X007989Y024713D01*
X008089Y024813D01*
X008189Y024813D01*
X008189Y024413D01*
X008289Y024413D02*
X008389Y024513D01*
X008389Y024713D01*
X011289Y025803D02*
X011289Y025904D01*
X011889Y025904D01*
X011889Y026004D02*
X011889Y025803D01*
X011689Y025559D02*
X011689Y025159D01*
X011789Y025159D02*
X011589Y025159D01*
X011489Y025259D01*
X011489Y025459D01*
X011589Y025559D01*
X011689Y025559D01*
X011889Y025459D02*
X011889Y025259D01*
X011789Y025159D01*
X011789Y024915D02*
X011889Y024815D01*
X011889Y024514D01*
X012089Y024514D02*
X011489Y024514D01*
X011489Y024815D01*
X011589Y024915D01*
X011789Y024915D01*
X008289Y018612D02*
X007989Y018612D01*
X004889Y018524D02*
X004489Y018524D01*
X004489Y018824D01*
X004589Y018925D01*
X004889Y018925D01*
X004689Y018280D02*
X004689Y017880D01*
X004789Y017880D02*
X004589Y017880D01*
X004489Y017980D01*
X004489Y018180D01*
X004589Y018280D01*
X004689Y018280D01*
X004889Y018180D02*
X004889Y017980D01*
X004789Y017880D01*
X004789Y017636D02*
X004589Y017636D01*
X004589Y017435D01*
X004389Y017235D02*
X004789Y017235D01*
X004889Y017335D01*
X004889Y017535D01*
X004789Y017636D01*
X004389Y017636D02*
X004289Y017535D01*
X004289Y017335D01*
X004389Y017235D01*
X004589Y016991D02*
X004589Y016591D01*
X004289Y016346D02*
X004289Y015946D01*
X004889Y015946D01*
X004889Y015702D02*
X004689Y015502D01*
X004689Y015602D02*
X004689Y015302D01*
X004889Y015302D02*
X004289Y015302D01*
X004289Y015602D01*
X004389Y015702D01*
X004589Y015702D01*
X004689Y015602D01*
X004589Y015946D02*
X004589Y016146D01*
X004689Y019813D02*
X004289Y019813D01*
X004689Y019813D02*
X004889Y020013D01*
X004689Y020214D01*
X004289Y020214D01*
X004389Y020458D02*
X004289Y020558D01*
X004289Y020758D01*
X004389Y020858D01*
X004789Y020458D01*
X004889Y020558D01*
X004889Y020758D01*
X004789Y020858D01*
X004389Y020858D01*
X004389Y020458D02*
X004789Y020458D01*
X004789Y021102D02*
X004789Y021202D01*
X004889Y021202D01*
X004889Y021102D01*
X004789Y021102D01*
X004789Y021425D02*
X004889Y021525D01*
X004889Y021725D01*
X004789Y021825D01*
X004689Y021825D01*
X004589Y021725D01*
X004589Y021625D01*
X004589Y021725D02*
X004489Y021825D01*
X004389Y021825D01*
X004289Y021725D01*
X004289Y021525D01*
X004389Y021425D01*
D12*
X029158Y020314D03*
D13*
X027814Y020359D02*
X026564Y020359D01*
X026564Y020252D02*
X026564Y020627D01*
X027564Y020627D01*
X027814Y020877D01*
X027814Y019877D01*
X027314Y019877D01*
X026939Y020252D01*
X027064Y020252D01*
X026564Y020252D01*
X026564Y020518D02*
X027814Y020518D01*
X027814Y020676D02*
X027614Y020676D01*
X027772Y020835D02*
X027814Y020835D01*
X027814Y020201D02*
X026990Y020201D01*
X027149Y020042D02*
X027814Y020042D01*
X027814Y019883D02*
X027307Y019883D01*
D14*
X031783Y019627D03*
X035720Y019627D03*
X035720Y024064D03*
X031783Y024064D03*
X029329Y014627D03*
X029329Y013627D03*
X029329Y012627D03*
X027783Y034627D03*
X031720Y034627D03*
D15*
X031296Y011537D03*
X026405Y005233D03*
X022474Y008020D03*
X014261Y006426D03*
X011117Y003702D03*
D16*
X017420Y002617D03*
X020208Y005761D03*
X029796Y006847D03*
X032796Y006847D03*
D17*
X032377Y006049D03*
X033252Y006049D03*
X034127Y006049D03*
X034127Y004829D03*
X033252Y004829D03*
X032377Y004829D03*
X027439Y003799D03*
X026564Y003799D03*
X026564Y002579D03*
X027439Y002579D03*
X017127Y007266D03*
X017127Y008487D03*
X026564Y016931D03*
X026564Y018072D03*
X027814Y018072D03*
X027814Y016931D03*
X024564Y018454D03*
X024564Y019674D03*
X010127Y033141D03*
X010127Y034362D03*
D18*
X026805Y021426D03*
X027061Y021426D03*
X027317Y021426D03*
X027573Y021426D03*
X027573Y019202D03*
X027317Y019202D03*
X027061Y019202D03*
X026805Y019202D03*
D19*
X026127Y025937D03*
D20*
X026127Y029559D03*
X025627Y029559D03*
X025127Y029559D03*
X024627Y029559D03*
X026627Y029559D03*
X027127Y029559D03*
X027627Y029559D03*
D21*
X027737Y030752D03*
X026516Y030752D03*
X018237Y012314D03*
X017016Y012314D03*
X017016Y010314D03*
X018237Y010314D03*
X020516Y010252D03*
X020516Y009377D03*
X020516Y008502D03*
X020516Y007627D03*
X020516Y006752D03*
X021737Y006752D03*
X021737Y007627D03*
X021737Y008502D03*
X021737Y009377D03*
X021737Y010252D03*
X016112Y007502D03*
X016112Y006627D03*
X016112Y005752D03*
X015674Y004877D03*
X014891Y005752D03*
X014891Y006627D03*
X014891Y007502D03*
X014454Y004877D03*
X010424Y004814D03*
X010424Y003939D03*
X010424Y003064D03*
X009204Y003064D03*
X009204Y003939D03*
X009204Y004814D03*
X028204Y004814D03*
X028204Y005689D03*
X029424Y005689D03*
X030141Y005689D03*
X030141Y004814D03*
X029424Y004814D03*
X029424Y003939D03*
X030141Y003939D03*
X031362Y003939D03*
X031362Y004814D03*
X031362Y005689D03*
X028204Y003939D03*
D22*
X029627Y027050D03*
X029627Y028703D03*
D23*
X031438Y029127D03*
X035690Y029127D03*
D24*
X025252Y023126D03*
X025252Y022378D03*
X022627Y022438D03*
X022627Y021690D03*
X020252Y022001D03*
X020252Y021253D03*
X019627Y024003D03*
X019627Y024751D03*
X019127Y026878D03*
X019127Y027626D03*
X022314Y029878D03*
X022314Y030626D03*
X024127Y030565D03*
X024127Y031313D03*
X015377Y027626D03*
X015377Y026878D03*
X011127Y033128D03*
X011127Y033876D03*
X016189Y011313D03*
X016189Y010565D03*
D25*
X015501Y010377D03*
X014753Y010377D03*
X014753Y011377D03*
X015501Y011377D03*
X010626Y009564D03*
X009878Y009564D03*
X016378Y017627D03*
X017126Y017627D03*
X017126Y018627D03*
X016378Y018627D03*
X016251Y021064D03*
X015503Y021064D03*
X015503Y022002D03*
X016251Y022002D03*
X020003Y022627D03*
X020751Y022627D03*
X021378Y019127D03*
X022126Y019127D03*
X022126Y018252D03*
X021378Y018252D03*
X027878Y015689D03*
X028626Y015689D03*
X023001Y026314D03*
X022253Y026314D03*
X024878Y030627D03*
X025626Y030627D03*
X025501Y031502D03*
X024753Y031502D03*
X014501Y027127D03*
X013753Y027127D03*
X013878Y026002D03*
X014626Y026002D03*
X008251Y033252D03*
X007503Y033252D03*
X006376Y030627D03*
X005628Y030627D03*
X012003Y035002D03*
X012751Y035002D03*
D26*
X034877Y016315D03*
X034877Y012063D03*
D27*
X025377Y019940D03*
X025377Y020688D03*
X024502Y020315D03*
X024502Y021063D03*
X023127Y020313D03*
X023127Y019565D03*
X019377Y021253D03*
X019377Y022001D03*
X002877Y032878D03*
X002877Y033626D03*
D28*
X007127Y036564D03*
X009877Y036564D03*
D29*
X016957Y011314D03*
X018296Y011314D03*
X018483Y009314D03*
X017145Y009314D03*
X014108Y009689D03*
X012770Y009689D03*
D30*
X016189Y009858D03*
X016189Y008520D03*
X018377Y020582D03*
X018377Y021921D03*
X018002Y026582D03*
X018002Y027921D03*
X016502Y027921D03*
X016502Y026582D03*
X009002Y033207D03*
X009002Y034546D03*
X002877Y031796D03*
X002877Y030457D03*
D31*
X007503Y034252D03*
X008251Y034252D03*
X013878Y024877D03*
X014626Y024877D03*
X016753Y021564D03*
X017501Y021564D03*
X019440Y019877D03*
X020188Y019877D03*
X021378Y017377D03*
X022126Y017377D03*
X015501Y012377D03*
X014753Y012377D03*
X014126Y010689D03*
X013378Y010689D03*
X026378Y031877D03*
X027126Y031877D03*
D32*
X035985Y035985D03*
X035985Y003701D03*
X003701Y003701D03*
X003701Y035985D03*
D33*
X016627Y035152D03*
X017627Y035152D03*
X018627Y035152D03*
X019627Y035152D03*
X020627Y035152D03*
X021627Y035152D03*
X022627Y035152D03*
X023627Y035152D03*
X023627Y032601D03*
X022627Y032601D03*
X021627Y032601D03*
X020627Y032601D03*
X019627Y032601D03*
X018627Y032601D03*
X017627Y032601D03*
X016627Y032601D03*
D34*
X025891Y032877D03*
X027112Y032877D03*
D35*
X018752Y025467D03*
X018252Y025467D03*
X017752Y025467D03*
X017252Y025467D03*
X016752Y025467D03*
X016252Y025467D03*
X015752Y025467D03*
X015752Y023286D03*
X016252Y023286D03*
X016752Y023286D03*
X017252Y023286D03*
X017752Y023286D03*
X018252Y023286D03*
X018752Y023286D03*
D36*
X017752Y019127D03*
X017752Y017127D03*
X015752Y018127D03*
D37*
X016252Y015502D03*
X017252Y013502D03*
X015252Y013502D03*
D38*
X006657Y032502D03*
X004846Y032502D03*
D39*
X012003Y033319D03*
X012751Y033319D03*
X012377Y034185D03*
D40*
X025064Y035391D03*
X025064Y036612D03*
X026377Y036612D03*
X026377Y035391D03*
D41*
X022283Y020688D03*
X022283Y020314D03*
X022283Y019940D03*
X021220Y019940D03*
X021220Y020314D03*
X021220Y020688D03*
D42*
X020661Y019000D03*
X019717Y019000D03*
X019717Y017504D03*
X020661Y017504D03*
D43*
X023569Y022003D03*
X023569Y022751D03*
X024435Y022377D03*
D44*
X023257Y027175D03*
X021997Y027175D03*
D45*
X022627Y028946D03*
M02*
