%
M48
M72
T01C0.0197
T02C0.0236
T03C0.1260
%
T01
X6377Y8627
X6377Y10127
X6377Y11627
X6377Y13127
X6377Y14627
X6377Y19127
X6377Y20627
X6377Y22127
X6377Y23627
X6377Y25127
X6377Y26627
X6377Y28127
X9877Y26627
X9877Y28127
X9877Y25127
X9877Y23627
X9877Y22127
X9877Y20627
X9877Y19127
X9877Y14627
X9877Y13127
X9877Y11627
X9877Y10127
X9877Y8627
X2877Y8627
X13377Y11627
X2877Y10127
X2877Y11627
X2877Y13127
X2877Y14627
X2877Y19127
X2877Y20627
X2877Y22127
X2877Y23627
X2877Y25127
X2877Y26627
X2877Y28127
X2877Y29627
X13377Y13127
X13377Y14627
X13377Y16127
X13377Y17627
X13377Y19127
X13377Y20627
X13377Y22127
X13377Y23627
X13377Y25127
X13377Y26627
X13377Y28127
X6377Y5127
X6643Y29466
X7402Y30601
X12351Y30601
X13110Y29466
X8851Y6152
X7716Y5393
X5037Y5393
X3902Y6152
X3143Y7287
X17939Y9314
X17752Y10314
X17752Y11314
X17752Y12314
X15252Y14252
X16752Y21002
X14252Y12377
X14252Y11377
X19377Y20814
X17252Y24877
X17252Y26127
X17252Y27877
X3643Y31216
X3643Y32716
X8518Y35716
X8518Y36216
X8518Y36716
X8518Y37216
X11216Y35735
X11216Y36235
X11216Y36735
X11216Y37235
X25502Y32877
X24314Y33314
X26002Y31502
X27877Y32502
X27877Y33252
X27877Y31502
X30877Y31502
X30877Y32502
X25627Y28752
X26127Y28752
X27877Y28627
X15814Y28127
X17252Y27252
X18627Y22627
X20189Y23345
X16377Y14627
X16502Y13002
X16877Y16377
X18814Y10689
X18502Y13502
X16314Y12064
X15439Y8502
X36439Y16752
X32564Y14564
X34877Y14564
X37189Y14564
X37127Y19127
X34502Y19064
X33377Y16752
X28939Y17314
X18502Y18127
X34502Y26189
X32377Y26189
X34502Y21814
X34502Y24064
X14627Y27752
X14627Y31377
X14627Y29627
X14627Y33252
X15877Y35752
X18127Y34127
X8537Y31360
X9877Y31627
X11216Y31360
X19627Y33877
X5777Y31601
X5777Y33351
X6527Y34226
X11152Y34476
X10152Y34851
X12502Y32502
X13689Y37314
X18627Y37314
X16002Y37314
X13627Y35502
X21064Y23564
X18189Y24814
X20252Y24564
X19127Y31627
X17502Y31002
X24314Y32064
X20627Y31627
X23127Y31439
X27189Y18564
X16127Y19189
X15877Y22564
X15814Y26127
X15127Y25439
X19189Y26064
X18564Y27252
X15814Y30502
X17752Y28564
X9627Y32564
X9002Y33877
X18252Y19814
X18064Y21252
X15189Y17439
X15502Y15502
X15189Y23502
X15064Y21564
X15064Y19502
X18814Y16502
X18502Y15314
X15127Y9877
X18127Y36064
X13002Y8627
X19127Y6627
X16502Y9127
X9610Y7287
X21627Y31627
X23064Y30689
X2877Y16127
X2877Y17627
X6377Y17627
X6377Y16127
X9877Y16127
X9877Y17627
X17877Y6627
X17877Y7877
X27189Y20564
X25939Y21939
X22252Y21252
X20752Y20314
X29689Y23314
X23189Y24314
X27377Y20252
X34502Y20064
X32627Y21814
X21314Y22127
X11252Y5752
X7412Y32673
X19127Y30689
X21502Y30689
X19002Y19877
X22564Y17377
X23127Y19127
X24127Y21877
X26814Y20564
X23877Y20939
X23189Y23314
X25377Y21064
X20189Y18252
X21314Y21127
X24564Y28377
X25877Y30189
X20189Y16814
X21752Y16814
X23502Y16814
X25627Y19377
X26002Y23314
X27564Y20564
X27002Y20252
X36564Y30689
X36752Y20189
X36689Y23439
X36689Y24689
X27752Y20252
X23439Y28314
X22314Y28002
X23564Y26377
X20127Y30689
X18127Y29939
X20314Y29752
X21564Y29689
X25564Y16814
X26314Y33314
X21564Y26064
X28189Y32002
X25502Y32002
X21127Y22627
X23752Y23814
X22564Y25439
X18502Y24314
X20939Y24564
X17439Y22439
X2877Y32377
X7814Y32127
X20502Y30252
X19127Y30127
X16627Y31627
X20502Y31127
X17627Y31627
T02
X15689Y5752
X15689Y6627
X15689Y7502
X9689Y4814
X9689Y3939
X9689Y3064
X21002Y8502
X21002Y7627
X21002Y6752
X21002Y10252
X21002Y9377
X26564Y3064
X27439Y3064
X34127Y5252
X32377Y5252
X33252Y5252
X32814Y5252
X30502Y14627
X31002Y14627
X29002Y15127
X29502Y15127
X30002Y15127
X30502Y15127
X31002Y15127
X29252Y15627
X29752Y15627
X30252Y15627
X30752Y15627
X20627Y34127
X20627Y33627
X21627Y33627
X21627Y34127
X21127Y33627
X21127Y34127
X31252Y19189
X31752Y19189
X32252Y19189
X31252Y20064
X31752Y20064
X32252Y20064
X31252Y23627
X31752Y23627
X32252Y23627
X31252Y24502
X31752Y24502
X32252Y24502
X26127Y26252
X26502Y25877
X26127Y25502
X26502Y26627
X25752Y25877
X25752Y26627
X26877Y25502
X26877Y26252
X26877Y27002
X25377Y27002
X25377Y26252
X25377Y25502
X32252Y34189
X31752Y34189
X31252Y34189
X32252Y35064
X31752Y35064
X31252Y35064
X29377Y27689
X29877Y27689
X30377Y27689
X28877Y27689
X20627Y36127
X21127Y36127
X21627Y36127
X21127Y35627
X21127Y35127
X21127Y34627
X26127Y27002
X24814Y37002
X25314Y37002
X26127Y37002
X26627Y37002
X24564Y18002
X33689Y5252
X22627Y23002
X23939Y19689
T03
X29158Y20314
X35985Y35985
X35985Y3701
X3701Y35985
X3701Y3701
M30
