G75*
G70*
%OFA0B0*%
%FSLAX24Y24*%
%IPPOS*%
%LPD*%
%AMOC8*
5,1,8,0,0,1.08239X$1,22.5*
%
%ADD10C,0.0130*%
%ADD11C,0.0000*%
%ADD12R,0.1575X0.0591*%
%ADD13R,0.0750X0.2000*%
%ADD14R,0.2000X0.0750*%
%ADD15R,0.0630X0.0354*%
%ADD16R,0.0138X0.0571*%
%ADD17R,0.2201X0.2500*%
%ADD18R,0.0358X0.0949*%
%ADD19R,0.0354X0.0630*%
%ADD20R,0.0984X0.0787*%
%ADD21R,0.1575X0.2126*%
%ADD22R,0.0512X0.0276*%
%ADD23R,0.0276X0.0512*%
%ADD24R,0.2126X0.1575*%
%ADD25R,0.0512X0.0354*%
%ADD26R,0.1575X0.1969*%
%ADD27R,0.0591X0.0787*%
%ADD28R,0.0787X0.0591*%
%ADD29R,0.0354X0.0512*%
%ADD30C,0.2441*%
%ADD31R,0.0512X0.1417*%
%ADD32R,0.0354X0.0984*%
%ADD33R,0.0236X0.0610*%
%ADD34R,0.1000X0.0600*%
%ADD35R,0.0600X0.1000*%
%ADD36R,0.0866X0.2165*%
%ADD37R,0.0394X0.0551*%
%ADD38R,0.0984X0.0354*%
%ADD39R,0.0413X0.0236*%
%ADD40R,0.0630X0.0787*%
%ADD41R,0.0551X0.0394*%
%ADD42R,0.0709X0.0787*%
%ADD43R,0.1024X0.0709*%
%ADD44C,0.0160*%
%ADD45C,0.0354*%
%ADD46C,0.0394*%
%ADD47C,0.0140*%
%ADD48C,0.0120*%
%ADD49C,0.0320*%
%ADD50C,0.0560*%
%ADD51C,0.0240*%
%ADD52C,0.1000*%
%ADD53C,0.0660*%
%ADD54C,0.0760*%
D10*
X005366Y002879D02*
X005366Y003259D01*
X005366Y003069D02*
X005937Y003069D01*
X005842Y003524D02*
X005937Y003619D01*
X005937Y003809D01*
X005842Y003904D01*
X005651Y003904D01*
X005556Y003809D01*
X005556Y003619D01*
X005651Y003524D01*
X005842Y003524D01*
X005937Y004168D02*
X005937Y004453D01*
X005842Y004548D01*
X005651Y004548D01*
X005556Y004453D01*
X005556Y004168D01*
X006127Y004168D01*
D11*
X001930Y001930D02*
X001930Y037757D01*
X037757Y037757D01*
X037757Y001930D01*
X001930Y001930D01*
X018927Y011627D02*
X018927Y015627D01*
X018929Y015682D01*
X018934Y015736D01*
X018944Y015790D01*
X018957Y015843D01*
X018973Y015895D01*
X018993Y015946D01*
X019017Y015995D01*
X019043Y016043D01*
X019073Y016088D01*
X019106Y016132D01*
X019142Y016173D01*
X019181Y016212D01*
X019222Y016248D01*
X019266Y016281D01*
X019311Y016311D01*
X019359Y016337D01*
X019408Y016361D01*
X019459Y016381D01*
X019511Y016397D01*
X019564Y016410D01*
X019618Y016420D01*
X019672Y016425D01*
X019727Y016427D01*
X026227Y016427D01*
X026282Y016425D01*
X026336Y016420D01*
X026390Y016410D01*
X026443Y016397D01*
X026495Y016381D01*
X026546Y016361D01*
X026595Y016337D01*
X026643Y016311D01*
X026688Y016281D01*
X026732Y016248D01*
X026773Y016212D01*
X026812Y016173D01*
X026848Y016132D01*
X026881Y016088D01*
X026911Y016043D01*
X026937Y015995D01*
X026961Y015946D01*
X026981Y015895D01*
X026997Y015843D01*
X027010Y015790D01*
X027020Y015736D01*
X027025Y015682D01*
X027027Y015627D01*
X027027Y011627D01*
X027025Y011572D01*
X027020Y011518D01*
X027010Y011464D01*
X026997Y011411D01*
X026981Y011359D01*
X026961Y011308D01*
X026937Y011259D01*
X026911Y011211D01*
X026881Y011166D01*
X026848Y011122D01*
X026812Y011081D01*
X026773Y011042D01*
X026732Y011006D01*
X026688Y010973D01*
X026643Y010943D01*
X026595Y010917D01*
X026546Y010893D01*
X026495Y010873D01*
X026443Y010857D01*
X026390Y010844D01*
X026336Y010834D01*
X026282Y010829D01*
X026227Y010827D01*
X019727Y010827D01*
X019672Y010829D01*
X019618Y010834D01*
X019564Y010844D01*
X019511Y010857D01*
X019459Y010873D01*
X019408Y010893D01*
X019359Y010917D01*
X019311Y010943D01*
X019266Y010973D01*
X019222Y011006D01*
X019181Y011042D01*
X019142Y011081D01*
X019106Y011122D01*
X019073Y011166D01*
X019043Y011211D01*
X019017Y011259D01*
X018993Y011308D01*
X018973Y011359D01*
X018957Y011411D01*
X018944Y011464D01*
X018934Y011518D01*
X018929Y011572D01*
X018927Y011627D01*
X028528Y020314D02*
X028531Y020371D01*
X028538Y020428D01*
X028551Y020484D01*
X028569Y020538D01*
X028592Y020591D01*
X028620Y020641D01*
X028652Y020689D01*
X028688Y020733D01*
X028728Y020774D01*
X028772Y020812D01*
X028818Y020845D01*
X028868Y020873D01*
X028920Y020897D01*
X028974Y020917D01*
X029030Y020931D01*
X029086Y020940D01*
X029144Y020944D01*
X029201Y020943D01*
X029258Y020936D01*
X029314Y020924D01*
X029369Y020908D01*
X029422Y020886D01*
X029473Y020860D01*
X029521Y020829D01*
X029567Y020794D01*
X029609Y020754D01*
X029647Y020712D01*
X029681Y020665D01*
X029711Y020616D01*
X029736Y020565D01*
X029756Y020511D01*
X029772Y020456D01*
X029782Y020400D01*
X029787Y020343D01*
X029787Y020285D01*
X029782Y020228D01*
X029772Y020172D01*
X029756Y020117D01*
X029736Y020063D01*
X029711Y020012D01*
X029681Y019963D01*
X029647Y019916D01*
X029609Y019874D01*
X029567Y019834D01*
X029521Y019799D01*
X029473Y019768D01*
X029422Y019742D01*
X029369Y019720D01*
X029314Y019704D01*
X029258Y019692D01*
X029201Y019685D01*
X029144Y019684D01*
X029086Y019688D01*
X029030Y019697D01*
X028974Y019711D01*
X028920Y019731D01*
X028868Y019755D01*
X028818Y019783D01*
X028772Y019816D01*
X028728Y019854D01*
X028688Y019895D01*
X028652Y019939D01*
X028620Y019987D01*
X028592Y020037D01*
X028569Y020090D01*
X028551Y020144D01*
X028538Y020200D01*
X028531Y020257D01*
X028528Y020314D01*
D12*
X031783Y019627D03*
X035720Y019627D03*
X035720Y024064D03*
X031783Y024064D03*
X029329Y014627D03*
X029329Y013627D03*
X029329Y012627D03*
X027783Y034627D03*
X031720Y034627D03*
D13*
X031296Y011537D03*
X026405Y005233D03*
X022474Y008020D03*
X014261Y006426D03*
X011117Y003702D03*
D14*
X017420Y002617D03*
X020208Y005761D03*
X029796Y006847D03*
X032796Y006847D03*
D15*
X032377Y006049D03*
X033252Y006049D03*
X034127Y006049D03*
X034127Y004829D03*
X033252Y004829D03*
X032377Y004829D03*
X027439Y003799D03*
X026564Y003799D03*
X026564Y002579D03*
X027439Y002579D03*
X017127Y007266D03*
X017127Y008487D03*
X026564Y016931D03*
X026564Y018072D03*
X027814Y018072D03*
X027814Y016931D03*
X024564Y018454D03*
X024564Y019674D03*
X010127Y033141D03*
X010127Y034362D03*
D16*
X026805Y021426D03*
X027061Y021426D03*
X027317Y021426D03*
X027573Y021426D03*
X027573Y019202D03*
X027317Y019202D03*
X027061Y019202D03*
X026805Y019202D03*
D17*
X026127Y025937D03*
D18*
X026127Y029559D03*
X025627Y029559D03*
X025127Y029559D03*
X024627Y029559D03*
X026627Y029559D03*
X027127Y029559D03*
X027627Y029559D03*
D19*
X027737Y030752D03*
X026516Y030752D03*
X018237Y012314D03*
X017016Y012314D03*
X017016Y010314D03*
X018237Y010314D03*
X020516Y010252D03*
X020516Y009377D03*
X020516Y008502D03*
X020516Y007627D03*
X020516Y006752D03*
X021737Y006752D03*
X021737Y007627D03*
X021737Y008502D03*
X021737Y009377D03*
X021737Y010252D03*
X016112Y007502D03*
X016112Y006627D03*
X016112Y005752D03*
X015674Y004877D03*
X014891Y005752D03*
X014891Y006627D03*
X014891Y007502D03*
X014454Y004877D03*
X010424Y004814D03*
X010424Y003939D03*
X010424Y003064D03*
X009204Y003064D03*
X009204Y003939D03*
X009204Y004814D03*
X028204Y004814D03*
X028204Y005689D03*
X029424Y005689D03*
X030141Y005689D03*
X030141Y004814D03*
X029424Y004814D03*
X029424Y003939D03*
X030141Y003939D03*
X031362Y003939D03*
X031362Y004814D03*
X031362Y005689D03*
X028204Y003939D03*
D20*
X029627Y027050D03*
X029627Y028703D03*
D21*
X031438Y029127D03*
X035690Y029127D03*
D22*
X025252Y023126D03*
X025252Y022378D03*
X022627Y022438D03*
X022627Y021690D03*
X020252Y022001D03*
X020252Y021253D03*
X019627Y024003D03*
X019627Y024751D03*
X019127Y026878D03*
X019127Y027626D03*
X022314Y029878D03*
X022314Y030626D03*
X024127Y030565D03*
X024127Y031313D03*
X015377Y027626D03*
X015377Y026878D03*
X011127Y033128D03*
X011127Y033876D03*
X016189Y011313D03*
X016189Y010565D03*
D23*
X015501Y010377D03*
X014753Y010377D03*
X014753Y011377D03*
X015501Y011377D03*
X010626Y009564D03*
X009878Y009564D03*
X016378Y017627D03*
X017126Y017627D03*
X017126Y018627D03*
X016378Y018627D03*
X016251Y021064D03*
X015503Y021064D03*
X015503Y022002D03*
X016251Y022002D03*
X020003Y022627D03*
X020751Y022627D03*
X021378Y019127D03*
X022126Y019127D03*
X022126Y018252D03*
X021378Y018252D03*
X027878Y015689D03*
X028626Y015689D03*
X023001Y026314D03*
X022253Y026314D03*
X024878Y030627D03*
X025626Y030627D03*
X025501Y031502D03*
X024753Y031502D03*
X014501Y027127D03*
X013753Y027127D03*
X013878Y026002D03*
X014626Y026002D03*
X008251Y033252D03*
X007503Y033252D03*
X006376Y030627D03*
X005628Y030627D03*
X012003Y035002D03*
X012751Y035002D03*
D24*
X034877Y016315D03*
X034877Y012063D03*
D25*
X025377Y019940D03*
X025377Y020688D03*
X024502Y020315D03*
X024502Y021063D03*
X023127Y020313D03*
X023127Y019565D03*
X019377Y021253D03*
X019377Y022001D03*
X002877Y032878D03*
X002877Y033626D03*
D26*
X007127Y036564D03*
X009877Y036564D03*
D27*
X016957Y011314D03*
X018296Y011314D03*
X018483Y009314D03*
X017145Y009314D03*
X014108Y009689D03*
X012770Y009689D03*
D28*
X016189Y009858D03*
X016189Y008520D03*
X018377Y020582D03*
X018377Y021921D03*
X018002Y026582D03*
X018002Y027921D03*
X016502Y027921D03*
X016502Y026582D03*
X009002Y033207D03*
X009002Y034546D03*
X002877Y031796D03*
X002877Y030457D03*
D29*
X007503Y034252D03*
X008251Y034252D03*
X013878Y024877D03*
X014626Y024877D03*
X016753Y021564D03*
X017501Y021564D03*
X019440Y019877D03*
X020188Y019877D03*
X021378Y017377D03*
X022126Y017377D03*
X015501Y012377D03*
X014753Y012377D03*
X014126Y010689D03*
X013378Y010689D03*
X026378Y031877D03*
X027126Y031877D03*
D30*
X035985Y035985D03*
X035985Y003701D03*
X003701Y003701D03*
X003701Y035985D03*
D31*
X016627Y035152D03*
X017627Y035152D03*
X018627Y035152D03*
X019627Y035152D03*
X020627Y035152D03*
X021627Y035152D03*
X022627Y035152D03*
X023627Y035152D03*
X023627Y032601D03*
X022627Y032601D03*
X021627Y032601D03*
X020627Y032601D03*
X019627Y032601D03*
X018627Y032601D03*
X017627Y032601D03*
X016627Y032601D03*
D32*
X025891Y032877D03*
X027112Y032877D03*
D33*
X018752Y025467D03*
X018252Y025467D03*
X017752Y025467D03*
X017252Y025467D03*
X016752Y025467D03*
X016252Y025467D03*
X015752Y025467D03*
X015752Y023286D03*
X016252Y023286D03*
X016752Y023286D03*
X017252Y023286D03*
X017752Y023286D03*
X018252Y023286D03*
X018752Y023286D03*
D34*
X017752Y019127D03*
X017752Y017127D03*
X015752Y018127D03*
D35*
X016252Y015502D03*
X017252Y013502D03*
X015252Y013502D03*
D36*
X006657Y032502D03*
X004846Y032502D03*
D37*
X012003Y033319D03*
X012751Y033319D03*
X012377Y034185D03*
D38*
X025064Y035391D03*
X025064Y036612D03*
X026377Y036612D03*
X026377Y035391D03*
D39*
X022283Y020688D03*
X022283Y020314D03*
X022283Y019940D03*
X021220Y019940D03*
X021220Y020314D03*
X021220Y020688D03*
D40*
X020661Y019000D03*
X019717Y019000D03*
X019717Y017504D03*
X020661Y017504D03*
D41*
X023569Y022003D03*
X023569Y022751D03*
X024435Y022377D03*
D42*
X023257Y027175D03*
X021997Y027175D03*
D43*
X022627Y028946D03*
D44*
X022627Y028877D01*
X022627Y028946D01*
X022439Y028814D01*
X022627Y028814D01*
X022627Y028877D01*
X022627Y028877D01*
X022627Y028877D01*
X022627Y028814D02*
X025002Y028814D01*
X025127Y028939D01*
X025127Y029559D01*
X025127Y030252D01*
X024877Y030502D01*
X024878Y030502D01*
X024878Y030627D01*
X024878Y030876D01*
X024752Y031002D01*
X024753Y031502D01*
X025110Y031457D02*
X025143Y031457D01*
X025143Y031299D02*
X025110Y031299D01*
X025110Y031155D02*
X025110Y031849D01*
X024981Y031977D01*
X024524Y031977D01*
X024395Y031849D01*
X024395Y031155D01*
X024452Y031098D01*
X024452Y030923D01*
X023779Y030923D01*
X023651Y030794D01*
X023651Y030552D01*
X022790Y030552D01*
X022790Y030854D01*
X022661Y030983D01*
X022614Y030983D01*
X022614Y031063D01*
X022438Y031239D01*
X022251Y031427D01*
X022002Y031427D01*
X020763Y031427D01*
X020727Y031463D01*
X020581Y031524D01*
X020423Y031524D01*
X020277Y031463D01*
X020165Y031352D01*
X020104Y031206D01*
X020104Y031048D01*
X020165Y030902D01*
X020277Y030790D01*
X020423Y030729D01*
X020581Y030729D01*
X020727Y030790D01*
X020763Y030827D01*
X021838Y030827D01*
X021838Y030552D01*
X020763Y030552D01*
X020727Y030588D01*
X020581Y030649D01*
X020423Y030649D01*
X020277Y030588D01*
X020165Y030477D01*
X020104Y030331D01*
X020104Y030173D01*
X020165Y030027D01*
X020277Y029915D01*
X020423Y029854D01*
X020581Y029854D01*
X020727Y029915D01*
X020763Y029952D01*
X021838Y029952D01*
X021838Y029649D01*
X021967Y029520D01*
X022014Y029520D01*
X022014Y029511D01*
X021895Y029392D01*
X021895Y028501D01*
X022024Y028372D01*
X022327Y028372D01*
X022327Y028252D01*
X022502Y028077D01*
X022801Y027778D01*
X022682Y027660D01*
X022682Y026701D01*
X022571Y026701D01*
X022571Y027660D01*
X022442Y027789D01*
X021551Y027789D01*
X021422Y027660D01*
X021422Y026690D01*
X021551Y026561D01*
X021702Y026561D01*
X021702Y026501D01*
X021702Y026252D01*
X021764Y026190D01*
X021764Y026190D01*
X021846Y026108D01*
X021852Y026102D01*
X021895Y026059D01*
X021895Y025967D01*
X022024Y025838D01*
X022481Y025838D01*
X022610Y025967D01*
X022610Y026661D01*
X022571Y026701D01*
X022591Y026709D02*
X022591Y027668D01*
X022450Y027809D01*
X021543Y027809D01*
X021402Y027668D01*
X021402Y026682D01*
X021543Y026541D01*
X021682Y026541D01*
X021682Y026509D01*
X021682Y026244D01*
X021744Y026182D01*
X021744Y026182D01*
X021834Y026092D01*
X021838Y026088D01*
X021875Y026051D01*
X021875Y025959D01*
X022015Y025818D01*
X022390Y025818D01*
X022328Y025793D01*
X022211Y025675D01*
X022147Y025522D01*
X022147Y025356D01*
X022211Y025203D01*
X022328Y025085D01*
X022481Y025022D01*
X022647Y025022D01*
X022800Y025085D01*
X022918Y025203D01*
X022981Y025356D01*
X022981Y025404D01*
X023134Y025556D01*
X023322Y025744D01*
X023322Y025876D01*
X023322Y025882D01*
X023322Y025902D01*
X023378Y025959D01*
X023378Y026541D01*
X023710Y026541D01*
X023851Y026682D01*
X023851Y027668D01*
X023710Y027809D01*
X023577Y027809D01*
X023577Y027879D01*
X023104Y028352D01*
X023238Y028352D01*
X023378Y028493D01*
X023378Y028494D01*
X024869Y028494D01*
X025134Y028494D01*
X025447Y028807D01*
X025447Y028886D01*
X025546Y028985D01*
X025546Y030133D01*
X025447Y030232D01*
X025447Y030384D01*
X025255Y030575D01*
X025255Y030982D01*
X025115Y031122D01*
X025107Y031122D01*
X025127Y031143D01*
X025263Y031006D01*
X025738Y031006D01*
X025878Y031146D01*
X025878Y031821D01*
X025919Y031919D01*
X025919Y032085D01*
X025855Y032238D01*
X025738Y032355D01*
X025585Y032419D01*
X025419Y032419D01*
X025265Y032355D01*
X025148Y032238D01*
X025084Y032085D01*
X025084Y031919D01*
X025096Y031892D01*
X024990Y031997D01*
X024515Y031997D01*
X024375Y031857D01*
X024375Y031146D01*
X024432Y031089D01*
X024432Y030943D01*
X023771Y030943D01*
X023631Y030802D01*
X023631Y030572D01*
X022810Y030572D01*
X022810Y030863D01*
X022669Y031003D01*
X022634Y031003D01*
X022634Y031072D01*
X022447Y031259D01*
X022259Y031447D01*
X021994Y031447D01*
X020772Y031447D01*
X020738Y031480D01*
X020585Y031544D01*
X020419Y031544D01*
X020265Y031480D01*
X020252Y031467D01*
X020252Y037517D01*
X037517Y037517D01*
X037517Y024627D01*
X037447Y024627D01*
X037446Y030744D01*
X037447Y030744D01*
X037447Y031009D01*
X037446Y031009D01*
X037259Y031197D01*
X036322Y032134D01*
X036134Y032322D01*
X028459Y032322D01*
X028425Y032355D01*
X028272Y032419D01*
X028106Y032419D01*
X027953Y032355D01*
X027835Y032238D01*
X027772Y032085D01*
X027772Y031919D01*
X027835Y031765D01*
X027953Y031648D01*
X028106Y031584D01*
X028272Y031584D01*
X028425Y031648D01*
X028459Y031682D01*
X035869Y031682D01*
X036807Y030744D01*
X036807Y024627D01*
X036697Y024627D01*
X036697Y027943D01*
X036717Y027964D01*
X036717Y030289D01*
X036577Y030430D01*
X036526Y030430D01*
X036509Y030447D01*
X036302Y030447D01*
X036302Y030940D01*
X036302Y031188D01*
X036052Y031438D01*
X035876Y031614D01*
X031688Y031614D01*
X031440Y031614D01*
X031264Y031438D01*
X031264Y031322D01*
X027759Y031322D01*
X027697Y031322D01*
X027697Y031384D01*
X027697Y033244D01*
X027884Y033432D01*
X028509Y033432D01*
X028697Y033619D01*
X029072Y033994D01*
X029072Y034259D01*
X029072Y035634D01*
X028884Y035822D01*
X028509Y036197D01*
X028244Y036197D01*
X022307Y036197D01*
X022119Y036009D01*
X022119Y035744D01*
X022119Y032009D01*
X022119Y031744D01*
X022307Y031557D01*
X024009Y031557D01*
X024197Y031744D01*
X024197Y032009D01*
X024197Y033432D01*
X026369Y033432D01*
X026557Y033244D01*
X026557Y031287D01*
X026248Y031287D01*
X026119Y031158D01*
X026119Y030346D01*
X026202Y030263D01*
X026202Y030127D01*
X026227Y030102D01*
X026227Y028993D01*
X026356Y028864D01*
X026897Y028864D01*
X027397Y028864D01*
X027436Y028864D01*
X027494Y028807D01*
X027759Y028807D01*
X028244Y028807D01*
X029057Y027994D01*
X029132Y027919D01*
X029150Y027900D01*
X029202Y027849D01*
X029244Y027807D01*
X030827Y027807D01*
X030827Y027627D01*
X030827Y026751D01*
X030827Y026502D01*
X031002Y026327D01*
X034502Y026327D01*
X034682Y026327D01*
X034682Y019864D01*
X034251Y019864D01*
X030001Y024114D01*
X029752Y024114D01*
X024013Y024114D01*
X023977Y024151D01*
X023831Y024211D01*
X023673Y024211D01*
X023527Y024151D01*
X023415Y024039D01*
X023354Y023893D01*
X023354Y023735D01*
X023415Y023589D01*
X023527Y023477D01*
X023673Y023417D01*
X023831Y023417D01*
X023977Y023477D01*
X024013Y023514D01*
X029752Y023514D01*
X033941Y019326D01*
X034002Y019264D01*
X034682Y019264D01*
X034682Y018322D01*
X033744Y017384D01*
X033557Y017197D01*
X033557Y015432D01*
X033744Y015244D01*
X034009Y015244D01*
X034009Y015244D01*
X035807Y015244D01*
X036072Y015244D01*
X036259Y015432D01*
X036259Y016932D01*
X036509Y017182D01*
X036697Y017369D01*
X036697Y019209D01*
X036727Y019240D01*
X036727Y019327D01*
X037001Y019327D01*
X037177Y019502D01*
X037427Y019752D01*
X037427Y019860D01*
X037427Y019877D01*
X037427Y019885D01*
X037427Y020001D01*
X037426Y030752D01*
X037427Y030752D01*
X037427Y031001D01*
X037426Y031001D01*
X037251Y031177D01*
X036302Y032126D01*
X036126Y032302D01*
X028451Y032302D01*
X028414Y032338D01*
X028268Y032399D01*
X028110Y032399D01*
X027964Y032338D01*
X027852Y032227D01*
X027792Y032081D01*
X027792Y031923D01*
X027852Y031777D01*
X027964Y031665D01*
X028110Y031604D01*
X028268Y031604D01*
X028414Y031665D01*
X028451Y031702D01*
X035877Y031702D01*
X036827Y030752D01*
X036827Y020001D01*
X036752Y019927D01*
X036727Y019927D01*
X036727Y020013D01*
X036697Y020044D01*
X036697Y023647D01*
X036727Y023678D01*
X036727Y024451D01*
X036697Y024481D01*
X036827Y024481D01*
X036697Y024481D02*
X036697Y027972D01*
X036697Y027972D01*
X036697Y030281D01*
X036569Y030410D01*
X036546Y030410D01*
X036509Y030447D01*
X036322Y030447D01*
X036322Y030932D01*
X036322Y031197D01*
X036072Y031447D01*
X035884Y031634D01*
X031697Y031634D01*
X031432Y031634D01*
X031244Y031447D01*
X031244Y031322D01*
X027759Y031322D01*
X027697Y031322D01*
X027697Y031384D01*
X027697Y033244D01*
X027884Y033432D01*
X028509Y033432D01*
X028697Y033619D01*
X029072Y033994D01*
X029072Y034259D01*
X029072Y035634D01*
X028884Y035822D01*
X028509Y036197D01*
X028244Y036197D01*
X022307Y036197D01*
X022119Y036009D01*
X022119Y035744D01*
X022119Y032009D01*
X022119Y031744D01*
X022307Y031557D01*
X024009Y031557D01*
X024197Y031744D01*
X024197Y032009D01*
X024197Y033432D01*
X026369Y033432D01*
X026557Y033244D01*
X026557Y031307D01*
X026240Y031307D01*
X026099Y031166D01*
X026099Y030337D01*
X026182Y030255D01*
X026182Y030119D01*
X026207Y030093D01*
X026207Y028985D01*
X026348Y028844D01*
X026905Y028844D01*
X027405Y028844D01*
X027456Y028844D01*
X027494Y028807D01*
X027759Y028807D01*
X028244Y028807D01*
X029057Y027994D01*
X029132Y027919D01*
X029150Y027900D01*
X029202Y027849D01*
X029244Y027807D01*
X030807Y027807D01*
X030807Y027619D01*
X030807Y026759D01*
X030807Y026494D01*
X030994Y026307D01*
X034494Y026307D01*
X034682Y026307D01*
X034682Y024627D01*
X022692Y024627D01*
X021402Y025917D01*
X021402Y028480D01*
X021167Y028714D01*
X020252Y029630D01*
X020252Y029912D01*
X020265Y029898D01*
X020419Y029834D01*
X020585Y029834D01*
X020738Y029898D01*
X020772Y029932D01*
X021818Y029932D01*
X021818Y029640D01*
X021959Y029500D01*
X021974Y029500D01*
X021875Y029400D01*
X021875Y028493D01*
X022015Y028352D01*
X022307Y028352D01*
X022307Y028244D01*
X022494Y028057D01*
X022773Y027778D01*
X022662Y027668D01*
X022662Y026709D01*
X022627Y026673D01*
X022591Y026709D01*
X022599Y026701D02*
X022654Y026701D01*
X022682Y026701D02*
X022643Y026661D01*
X022643Y025967D01*
X022655Y025955D01*
X022537Y025836D01*
X022485Y025836D01*
X022339Y025776D01*
X022227Y025664D01*
X022167Y025518D01*
X022167Y025360D01*
X022227Y025214D01*
X022339Y025102D01*
X022485Y025042D01*
X022643Y025042D01*
X022789Y025102D01*
X022901Y025214D01*
X022961Y025360D01*
X022961Y025412D01*
X023126Y025576D01*
X023302Y025752D01*
X023302Y025876D01*
X023302Y025882D01*
X023302Y025910D01*
X023358Y025967D01*
X023358Y026561D01*
X023702Y026561D01*
X023831Y026690D01*
X023831Y027660D01*
X023702Y027789D01*
X023557Y027789D01*
X023557Y027871D01*
X023055Y028372D01*
X023230Y028372D01*
X023358Y028501D01*
X023358Y028514D01*
X024877Y028514D01*
X025126Y028514D01*
X025427Y028815D01*
X025427Y028894D01*
X025526Y028993D01*
X025526Y030124D01*
X025427Y030223D01*
X025427Y030376D01*
X025235Y030567D01*
X025235Y030974D01*
X025106Y031102D01*
X025075Y031102D01*
X025067Y031111D01*
X025110Y031155D01*
X025124Y031140D02*
X025129Y031140D01*
X025143Y031155D02*
X025272Y031026D01*
X025730Y031026D01*
X025858Y031155D01*
X025858Y031825D01*
X025899Y031923D01*
X025899Y032081D01*
X025838Y032227D01*
X025727Y032338D01*
X025581Y032399D01*
X025423Y032399D01*
X025277Y032338D01*
X025165Y032227D01*
X025104Y032081D01*
X025104Y031923D01*
X025143Y031830D01*
X025143Y031155D01*
X025157Y031140D02*
X025096Y031140D01*
X025227Y030981D02*
X026119Y030981D01*
X026099Y030981D02*
X025255Y030981D01*
X025255Y030823D02*
X026099Y030823D01*
X026119Y030823D02*
X025235Y030823D01*
X025235Y030664D02*
X026119Y030664D01*
X026099Y030664D02*
X025255Y030664D01*
X025297Y030506D02*
X026119Y030506D01*
X026099Y030506D02*
X025325Y030506D01*
X025427Y030347D02*
X026119Y030347D01*
X026099Y030347D02*
X025447Y030347D01*
X025461Y030189D02*
X026202Y030189D01*
X026182Y030189D02*
X025489Y030189D01*
X025526Y030030D02*
X026227Y030030D01*
X026207Y030030D02*
X025546Y030030D01*
X025546Y029872D02*
X026207Y029872D01*
X026227Y029872D02*
X025526Y029872D01*
X025526Y029713D02*
X026227Y029713D01*
X026207Y029713D02*
X025546Y029713D01*
X025546Y029555D02*
X026207Y029555D01*
X026227Y029555D02*
X025526Y029555D01*
X025627Y029559D02*
X025627Y028752D01*
X026127Y028752D01*
X026127Y030377D01*
X025877Y030627D01*
X026002Y030752D01*
X026002Y031752D01*
X026127Y031877D01*
X026378Y031877D01*
X026557Y031933D02*
X025899Y031933D01*
X025919Y031933D02*
X026557Y031933D01*
X026557Y032091D02*
X025894Y032091D01*
X025916Y032091D02*
X026557Y032091D01*
X026557Y032250D02*
X025815Y032250D01*
X025843Y032250D02*
X026557Y032250D01*
X026557Y032408D02*
X024197Y032408D01*
X025394Y032408D01*
X025610Y032408D02*
X026557Y032408D01*
X026557Y032567D02*
X024197Y032567D01*
X026557Y032567D01*
X026557Y032725D02*
X024197Y032725D01*
X026557Y032725D01*
X026557Y032884D02*
X024197Y032884D01*
X026557Y032884D01*
X026557Y033043D02*
X024197Y033043D01*
X026557Y033043D01*
X026557Y033201D02*
X024197Y033201D01*
X026557Y033201D01*
X026441Y033360D02*
X024197Y033360D01*
X026441Y033360D01*
X026735Y033518D02*
X027518Y033518D01*
X027377Y033377D02*
X027752Y033752D01*
X028377Y033752D01*
X028752Y034127D01*
X028752Y035502D01*
X028377Y035877D01*
X022439Y035877D01*
X022439Y031877D01*
X023877Y031877D01*
X023877Y033752D01*
X026502Y033752D01*
X026877Y033377D01*
X026877Y031252D01*
X027377Y031252D01*
X027377Y033377D01*
X027377Y033360D02*
X026877Y033360D01*
X026877Y033201D02*
X027377Y033201D01*
X027377Y033043D02*
X026877Y033043D01*
X026877Y032884D02*
X027377Y032884D01*
X027377Y032725D02*
X026877Y032725D01*
X026877Y032567D02*
X027377Y032567D01*
X027377Y032408D02*
X026877Y032408D01*
X026877Y032250D02*
X027377Y032250D01*
X027377Y032091D02*
X026877Y032091D01*
X026877Y031933D02*
X027377Y031933D01*
X027377Y031774D02*
X026877Y031774D01*
X026877Y031616D02*
X027377Y031616D01*
X027377Y031457D02*
X026877Y031457D01*
X026877Y031299D02*
X027377Y031299D01*
X027697Y031457D02*
X031283Y031457D01*
X031255Y031457D02*
X027697Y031457D01*
X027697Y031616D02*
X028083Y031616D01*
X028031Y031616D02*
X027697Y031616D01*
X027697Y031774D02*
X027855Y031774D01*
X027832Y031774D02*
X027697Y031774D01*
X027697Y031933D02*
X027792Y031933D01*
X027772Y031933D02*
X027697Y031933D01*
X027697Y032091D02*
X027796Y032091D01*
X027775Y032091D02*
X027697Y032091D01*
X027697Y032250D02*
X027876Y032250D01*
X027847Y032250D02*
X027697Y032250D01*
X027697Y032408D02*
X037519Y032408D01*
X037517Y032408D02*
X028297Y032408D01*
X028081Y032408D02*
X027697Y032408D01*
X027697Y032567D02*
X037519Y032567D01*
X037517Y032567D02*
X027697Y032567D01*
X027697Y032725D02*
X037519Y032725D01*
X037517Y032725D02*
X027697Y032725D01*
X027697Y032884D02*
X037519Y032884D01*
X037517Y032884D02*
X027697Y032884D01*
X027697Y033043D02*
X037519Y033043D01*
X037517Y033043D02*
X027697Y033043D01*
X027697Y033201D02*
X037519Y033201D01*
X037517Y033201D02*
X027697Y033201D01*
X027812Y033360D02*
X037519Y033360D01*
X037517Y033360D02*
X027812Y033360D01*
X027677Y033677D02*
X026576Y033677D01*
X027112Y032877D02*
X027127Y032877D01*
X026557Y031774D02*
X025858Y031774D01*
X025878Y031774D02*
X026557Y031774D01*
X026557Y031616D02*
X025858Y031616D01*
X025878Y031616D02*
X026557Y031616D01*
X026557Y031457D02*
X025858Y031457D01*
X025878Y031457D02*
X026557Y031457D01*
X026557Y031299D02*
X025858Y031299D01*
X025878Y031299D02*
X026232Y031299D01*
X026119Y031140D02*
X025844Y031140D01*
X025872Y031140D02*
X026099Y031140D01*
X026502Y030877D02*
X026502Y030252D01*
X026627Y030127D01*
X026627Y029559D01*
X026227Y029396D02*
X025526Y029396D01*
X025546Y029396D02*
X026207Y029396D01*
X026207Y029238D02*
X025546Y029238D01*
X025526Y029238D02*
X026227Y029238D01*
X026227Y029079D02*
X025526Y029079D01*
X025546Y029079D02*
X026207Y029079D01*
X026272Y028920D02*
X025481Y028920D01*
X025453Y028920D02*
X026300Y028920D01*
X025402Y028762D02*
X028289Y028762D01*
X025374Y028762D01*
X025243Y028603D02*
X028447Y028603D01*
X025215Y028603D01*
X024627Y029559D02*
X024627Y029564D01*
X024314Y029564D01*
X024127Y029752D01*
X024127Y030252D01*
X024127Y030252D01*
X024127Y030252D01*
X020502Y030252D01*
X020622Y029872D02*
X021838Y029872D01*
X021818Y029872D02*
X020675Y029872D01*
X020381Y029872D02*
X020007Y029872D01*
X020007Y029846D02*
X020007Y031705D01*
X020102Y031801D01*
X020102Y033401D01*
X019974Y033530D01*
X019280Y033530D01*
X019151Y033401D01*
X019151Y031801D01*
X019247Y031705D01*
X019247Y030507D01*
X019206Y030524D01*
X019048Y030524D01*
X019007Y030507D01*
X019007Y031705D01*
X019102Y031801D01*
X019102Y033401D01*
X019026Y033477D01*
X019251Y033702D01*
X019427Y033877D01*
X019427Y034224D01*
X019974Y034224D01*
X020102Y034352D01*
X020102Y035952D01*
X019974Y036081D01*
X019927Y036081D01*
X019927Y036626D01*
X019751Y036802D01*
X019376Y037177D01*
X019127Y037177D01*
X013502Y037177D01*
X013327Y037001D01*
X012077Y035751D01*
X012077Y035502D01*
X012077Y035477D01*
X011774Y035477D01*
X011645Y035349D01*
X011645Y035069D01*
X011577Y035001D01*
X011577Y034752D01*
X011577Y033428D01*
X011531Y033428D01*
X011474Y033485D01*
X010780Y033485D01*
X010722Y033428D01*
X010644Y033428D01*
X010533Y033539D01*
X009721Y033539D01*
X009623Y033441D01*
X009615Y033441D01*
X009615Y033594D01*
X009486Y033723D01*
X008517Y033723D01*
X008501Y033706D01*
X008480Y033727D01*
X008022Y033727D01*
X007893Y033599D01*
X007893Y032905D01*
X008022Y032776D01*
X008433Y032776D01*
X008517Y032692D01*
X009486Y032692D01*
X009615Y032821D01*
X009615Y032841D01*
X009623Y032841D01*
X009721Y032744D01*
X010533Y032744D01*
X010616Y032828D01*
X010722Y032828D01*
X010780Y032770D01*
X011474Y032770D01*
X011531Y032828D01*
X011710Y032828D01*
X011715Y032823D01*
X012291Y032823D01*
X012419Y032952D01*
X012419Y033685D01*
X012416Y033689D01*
X012665Y033689D01*
X012793Y033818D01*
X012793Y034526D01*
X012980Y034526D01*
X013108Y034655D01*
X013108Y035349D01*
X013066Y035391D01*
X013876Y036202D01*
X018690Y036202D01*
X018811Y036081D01*
X018280Y036081D01*
X018151Y035952D01*
X018151Y034352D01*
X018280Y034224D01*
X018327Y034224D01*
X018327Y034126D01*
X018127Y033927D01*
X017601Y033927D01*
X017751Y034077D01*
X017898Y034224D01*
X017974Y034224D01*
X018102Y034352D01*
X018102Y035952D01*
X017974Y036081D01*
X017280Y036081D01*
X017151Y035952D01*
X017151Y034427D01*
X017102Y034427D01*
X017102Y035952D01*
X016974Y036081D01*
X016280Y036081D01*
X016151Y035952D01*
X016151Y035325D01*
X015077Y034251D01*
X015077Y034002D01*
X015077Y027983D01*
X015030Y027983D01*
X014901Y027855D01*
X014901Y027397D01*
X015030Y027268D01*
X015724Y027268D01*
X015852Y027397D01*
X015852Y027855D01*
X015724Y027983D01*
X015677Y027983D01*
X015677Y030840D01*
X018656Y027860D01*
X018651Y027855D01*
X018651Y027397D01*
X018780Y027268D01*
X019327Y027268D01*
X019327Y027235D01*
X018780Y027235D01*
X018651Y027106D01*
X018651Y026649D01*
X018688Y026612D01*
X018615Y026539D01*
X018615Y026969D01*
X018486Y027098D01*
X017517Y027098D01*
X017388Y026969D01*
X017388Y026196D01*
X017517Y026067D01*
X017518Y026067D01*
X017452Y026001D01*
X017452Y025901D01*
X017414Y025863D01*
X017414Y025071D01*
X017452Y025033D01*
X017452Y024876D01*
X017127Y024552D01*
X015127Y024552D01*
X014952Y024376D01*
X014327Y023751D01*
X014327Y023502D01*
X014327Y015377D01*
X014502Y015202D01*
X015702Y014002D01*
X015702Y012852D01*
X015232Y012852D01*
X015103Y012724D01*
X015103Y012030D01*
X015201Y011932D01*
X015201Y011781D01*
X015143Y011724D01*
X015143Y011030D01*
X015201Y010972D01*
X015201Y010781D01*
X015143Y010724D01*
X015143Y010030D01*
X015272Y009901D01*
X015575Y009901D01*
X015575Y009472D01*
X015704Y009343D01*
X016629Y009343D01*
X016629Y009035D01*
X015704Y009035D01*
X015575Y008906D01*
X015575Y008377D01*
X013127Y008377D01*
X013127Y009075D01*
X013156Y009075D01*
X013285Y009204D01*
X013285Y010174D01*
X013156Y010303D01*
X013127Y010303D01*
X013127Y030002D01*
X011377Y031627D01*
X007310Y031627D01*
X007310Y032776D01*
X007731Y032776D01*
X007860Y032905D01*
X007860Y033599D01*
X007803Y033656D01*
X007803Y033807D01*
X007900Y033905D01*
X007900Y034599D01*
X007771Y034727D01*
X007234Y034727D01*
X007105Y034599D01*
X007105Y033905D01*
X007203Y033807D01*
X007203Y033783D01*
X007181Y033804D01*
X006133Y033804D01*
X006004Y033675D01*
X006004Y031627D01*
X005752Y031627D01*
X005752Y033502D01*
X007252Y035002D01*
X008502Y035002D01*
X008502Y037519D01*
X037519Y037519D01*
X037519Y014377D01*
X028627Y014377D01*
X028627Y019189D01*
X027939Y019939D01*
X027217Y019939D01*
X027217Y019955D01*
X027117Y020055D01*
X027036Y020135D01*
X026955Y020216D01*
X026955Y020217D01*
X026673Y020217D01*
X026673Y020216D02*
X026022Y020217D01*
X026434Y020608D01*
X027315Y020608D01*
X027421Y020608D01*
X027439Y020608D01*
X027563Y020608D01*
X027739Y020784D01*
X027873Y020917D01*
X027873Y021166D01*
X027873Y021302D01*
X027873Y022119D01*
X027873Y022367D01*
X027785Y022455D01*
X027754Y022486D01*
X027697Y022543D01*
X027189Y023051D01*
X027038Y023051D01*
X025813Y023051D01*
X025727Y023138D01*
X025727Y023355D01*
X025599Y023483D01*
X024905Y023483D01*
X024776Y023355D01*
X024776Y022897D01*
X024905Y022768D01*
X025249Y022768D01*
X025281Y022735D01*
X024905Y022735D01*
X024882Y022713D01*
X024801Y022793D01*
X024068Y022793D01*
X024064Y022790D01*
X024064Y023039D01*
X023935Y023167D01*
X023202Y023167D01*
X023073Y023039D01*
X023073Y022872D01*
X022990Y022789D01*
X023044Y022919D01*
X023044Y023085D01*
X023007Y023173D01*
X023007Y024284D01*
X022916Y024374D01*
X022895Y024395D01*
X022895Y024396D01*
X022784Y024507D01*
X022702Y024589D01*
X021382Y025909D01*
X021382Y028471D01*
X021159Y028694D01*
X020007Y029846D01*
X020007Y030030D02*
X020163Y030030D01*
X020104Y030189D02*
X020007Y030189D01*
X020007Y030347D02*
X020111Y030347D01*
X020194Y030506D02*
X020007Y030506D01*
X020007Y030664D02*
X021838Y030664D01*
X021818Y030664D02*
X020595Y030664D01*
X020585Y030669D02*
X020419Y030669D01*
X020265Y030605D01*
X020252Y030591D01*
X020252Y030787D01*
X020265Y030773D01*
X020419Y030709D01*
X020585Y030709D01*
X020738Y030773D01*
X020772Y030807D01*
X021818Y030807D01*
X021818Y030572D01*
X020772Y030572D01*
X020738Y030605D01*
X020585Y030669D01*
X020408Y030664D02*
X020252Y030664D01*
X020244Y030823D02*
X020007Y030823D01*
X020007Y030981D02*
X020132Y030981D01*
X020104Y031140D02*
X020007Y031140D01*
X020007Y031299D02*
X020143Y031299D01*
X020270Y031457D02*
X020007Y031457D01*
X020007Y031616D02*
X022248Y031616D01*
X020252Y031616D01*
X020252Y031774D02*
X022119Y031774D01*
X020075Y031774D01*
X020102Y031933D02*
X022119Y031933D01*
X020252Y031933D01*
X020252Y032091D02*
X022119Y032091D01*
X020102Y032091D01*
X020102Y032250D02*
X022119Y032250D01*
X020252Y032250D01*
X020252Y032408D02*
X022119Y032408D01*
X020102Y032408D01*
X020102Y032567D02*
X022119Y032567D01*
X020252Y032567D01*
X020252Y032725D02*
X022119Y032725D01*
X020102Y032725D01*
X020102Y032884D02*
X022119Y032884D01*
X020252Y032884D01*
X020252Y033043D02*
X022119Y033043D01*
X020102Y033043D01*
X020102Y033201D02*
X022119Y033201D01*
X020252Y033201D01*
X020252Y033360D02*
X022119Y033360D01*
X020102Y033360D01*
X019985Y033518D02*
X022119Y033518D01*
X020252Y033518D01*
X020252Y033677D02*
X022119Y033677D01*
X019226Y033677D01*
X019268Y033518D02*
X019067Y033518D01*
X019102Y033360D02*
X019151Y033360D01*
X019151Y033201D02*
X019102Y033201D01*
X019102Y033043D02*
X019151Y033043D01*
X019151Y032884D02*
X019102Y032884D01*
X019102Y032725D02*
X019151Y032725D01*
X019151Y032567D02*
X019102Y032567D01*
X019102Y032408D02*
X019151Y032408D01*
X019151Y032250D02*
X019102Y032250D01*
X019102Y032091D02*
X019151Y032091D01*
X019151Y031933D02*
X019102Y031933D01*
X019075Y031774D02*
X019178Y031774D01*
X019247Y031616D02*
X019007Y031616D01*
X019007Y031457D02*
X019247Y031457D01*
X019247Y031299D02*
X019007Y031299D01*
X019007Y031140D02*
X019247Y031140D01*
X019247Y030981D02*
X019007Y030981D01*
X019007Y030823D02*
X019247Y030823D01*
X019247Y030664D02*
X019007Y030664D01*
X019127Y030127D02*
X019127Y029564D01*
X020564Y028127D01*
X020564Y025564D01*
X021688Y024440D01*
X022127Y024002D01*
X022127Y022814D01*
X022502Y022439D01*
X022627Y022439D01*
X022627Y022438D01*
X023063Y022438D01*
X023377Y022752D01*
X023377Y022751D01*
X023569Y022751D01*
X023383Y022334D02*
X023935Y022334D01*
X023939Y022338D01*
X023939Y022089D01*
X024068Y021960D01*
X024801Y021960D01*
X024883Y022041D01*
X024905Y022020D01*
X025599Y022020D01*
X025656Y022078D01*
X026876Y022078D01*
X027017Y021937D01*
X027017Y021932D01*
X026965Y021932D01*
X026645Y021932D01*
X026516Y021803D01*
X026516Y021801D01*
X025252Y021802D01*
X025127Y021802D01*
X025127Y021802D01*
X024313Y021802D01*
X023127Y021802D01*
X022952Y021626D01*
X022352Y021026D01*
X022092Y021026D01*
X022092Y022361D01*
X022092Y022425D01*
X022151Y022366D01*
X022151Y022209D01*
X022280Y022080D01*
X022974Y022080D01*
X023031Y022138D01*
X023187Y022138D01*
X023383Y022334D01*
X023311Y022262D02*
X023939Y022262D01*
X023939Y022103D02*
X022996Y022103D01*
X023112Y021786D02*
X022092Y021786D01*
X022092Y021627D02*
X022953Y021627D01*
X022795Y021469D02*
X022092Y021469D01*
X022092Y021310D02*
X022636Y021310D01*
X022627Y021377D02*
X022502Y021252D01*
X022252Y021252D01*
X022252Y021252D01*
X022092Y021152D02*
X022478Y021152D01*
X022627Y021377D02*
X022627Y021690D01*
X022257Y022103D02*
X022092Y022103D01*
X022092Y021945D02*
X027009Y021945D01*
X027317Y022061D02*
X027001Y022378D01*
X025252Y022378D01*
X025252Y022377D01*
X025252Y022377D01*
X024435Y022377D01*
X024858Y022737D02*
X025279Y022737D01*
X025252Y023126D02*
X025315Y023126D01*
X025689Y022752D01*
X027065Y022751D01*
X027573Y022243D01*
X027573Y021426D01*
X027573Y021042D01*
X027439Y020908D01*
X026314Y020908D01*
X025689Y020314D01*
X024627Y020314D01*
X024947Y020614D02*
X024849Y020712D01*
X024155Y020712D01*
X024096Y020654D01*
X023530Y020654D01*
X023474Y020710D01*
X022884Y020710D01*
X023376Y021202D01*
X024313Y021202D01*
X025252Y021202D01*
X025376Y021202D01*
X026184Y021202D01*
X026105Y021123D01*
X025569Y020614D01*
X024947Y020614D01*
X024885Y020676D02*
X025635Y020676D01*
X025802Y020835D02*
X023009Y020835D01*
X023167Y020993D02*
X025969Y020993D01*
X026134Y021152D02*
X023326Y021152D01*
X023252Y021502D02*
X024189Y021502D01*
X025252Y021502D01*
X026752Y021502D01*
X026814Y021426D01*
X026805Y021426D01*
X026805Y021439D01*
X026814Y021439D01*
X026827Y021426D01*
X027317Y021426D02*
X027317Y022061D01*
X027661Y022579D02*
X030688Y022579D01*
X030529Y022737D02*
X027503Y022737D01*
X027344Y022896D02*
X030371Y022896D01*
X030212Y023054D02*
X025811Y023054D01*
X025727Y023213D02*
X030054Y023213D01*
X029895Y023371D02*
X025711Y023371D01*
X024793Y023371D02*
X023007Y023371D01*
X023007Y023213D02*
X024776Y023213D01*
X024776Y023054D02*
X024048Y023054D01*
X024064Y022896D02*
X024777Y022896D01*
X024001Y022003D02*
X024127Y021877D01*
X024127Y021877D01*
X024127Y021877D01*
X024001Y022003D02*
X023569Y022003D01*
X023252Y021502D02*
X022438Y020688D01*
X022283Y020688D01*
X022252Y019940D02*
X022283Y019940D01*
X022252Y019940D02*
X022252Y019877D01*
X022126Y019751D01*
X022126Y019127D01*
X022127Y019127D01*
X022126Y019126D01*
X022126Y018252D01*
X022483Y018298D02*
X025689Y018298D01*
X025689Y018139D02*
X022483Y018139D01*
X022483Y017981D02*
X025689Y017981D01*
X025689Y017822D02*
X022401Y017822D01*
X022354Y017776D02*
X022483Y017904D01*
X022483Y018599D01*
X022426Y018656D01*
X022426Y018722D01*
X022483Y018779D01*
X022483Y019474D01*
X022426Y019531D01*
X022426Y019602D01*
X022581Y019602D01*
X022710Y019731D01*
X022710Y019974D01*
X022721Y019974D01*
X022780Y019916D01*
X023474Y019916D01*
X023532Y019974D01*
X023635Y019974D01*
X023586Y019925D01*
X023522Y019772D01*
X023522Y019606D01*
X023586Y019453D01*
X023703Y019336D01*
X023856Y019272D01*
X024022Y019272D01*
X024122Y019314D01*
X024158Y019277D01*
X024970Y019277D01*
X025027Y019334D01*
X025034Y019334D01*
X025315Y019334D01*
X025415Y019434D01*
X025429Y019448D01*
X025514Y019534D01*
X025517Y019537D01*
X026037Y019537D01*
X025689Y019189D01*
X025689Y016664D01*
X019645Y016664D01*
X019645Y016664D01*
X019628Y016664D01*
X019625Y016661D01*
X019484Y016639D01*
X019328Y016588D01*
X019183Y016514D01*
X019183Y016514D01*
X019051Y016418D01*
X019051Y016418D01*
X018935Y016302D01*
X018839Y016170D01*
X018765Y016025D01*
X018765Y016025D01*
X018715Y015870D01*
X018715Y015869D01*
X018692Y015728D01*
X018689Y015725D01*
X018689Y015544D01*
X018689Y015528D01*
X018689Y011528D01*
X018692Y011525D01*
X018715Y011384D01*
X018715Y011384D01*
X018715Y011384D01*
X018692Y011525D01*
X018689Y011528D01*
X018689Y012689D01*
X017752Y012689D01*
X017752Y006502D01*
X021002Y006502D01*
X021127Y006627D01*
X021127Y010589D01*
X019825Y010589D01*
X019790Y010589D01*
X019645Y010589D01*
X019628Y010589D01*
X019625Y010592D01*
X019484Y010615D01*
X019484Y010615D01*
X019328Y010665D01*
X019328Y010665D01*
X019183Y010739D01*
X019183Y010739D01*
X019051Y010835D01*
X019051Y010835D01*
X019127Y010780D01*
X019127Y008377D01*
X017662Y008377D01*
X017662Y008755D01*
X017624Y008793D01*
X017660Y008829D01*
X017660Y009799D01*
X017531Y009928D01*
X017413Y009928D01*
X017413Y010720D01*
X017388Y010745D01*
X017473Y010829D01*
X017473Y011799D01*
X017388Y011883D01*
X017413Y011908D01*
X017413Y012677D01*
X017518Y012782D01*
X017643Y012782D01*
X017772Y012910D01*
X017772Y014093D01*
X017643Y014222D01*
X016860Y014222D01*
X016732Y014093D01*
X016732Y012910D01*
X016765Y012877D01*
X016716Y012828D01*
X016716Y012817D01*
X016619Y012720D01*
X016619Y011928D01*
X016571Y011928D01*
X016442Y011799D01*
X016442Y011671D01*
X015858Y011671D01*
X015858Y011724D01*
X015801Y011781D01*
X015801Y011932D01*
X015898Y012030D01*
X015898Y012099D01*
X016126Y012327D01*
X016302Y012502D01*
X016302Y014002D01*
X016302Y014251D01*
X014927Y015626D01*
X014927Y023502D01*
X015376Y023952D01*
X015590Y023952D01*
X015452Y023813D01*
X015452Y023720D01*
X015414Y023682D01*
X015414Y023275D01*
X015377Y023239D01*
X015202Y023063D01*
X015202Y022405D01*
X015145Y022349D01*
X015145Y021655D01*
X015267Y021533D01*
X015145Y021411D01*
X015145Y020717D01*
X015203Y020659D01*
X015203Y018647D01*
X015160Y018647D01*
X015032Y018518D01*
X015032Y017735D01*
X015160Y017607D01*
X016020Y017607D01*
X016020Y017280D01*
X016149Y017151D01*
X016452Y017151D01*
X016452Y017126D01*
X016127Y016802D01*
X015952Y016626D01*
X015952Y016222D01*
X015860Y016222D01*
X015732Y016093D01*
X015732Y014910D01*
X015860Y014782D01*
X016643Y014782D01*
X016772Y014910D01*
X016772Y016093D01*
X016643Y016222D01*
X016552Y016222D01*
X016552Y016377D01*
X016876Y016702D01*
X016938Y016764D01*
X016964Y016789D01*
X017052Y016877D01*
X017052Y017126D01*
X017052Y018151D01*
X017354Y018151D01*
X017483Y018280D01*
X017483Y018607D01*
X018343Y018607D01*
X018472Y018735D01*
X018472Y019518D01*
X018343Y019647D01*
X018092Y019647D01*
X018092Y019736D01*
X018092Y020017D01*
X017841Y020268D01*
X017841Y021160D01*
X017898Y021217D01*
X017898Y021406D01*
X018861Y021406D01*
X018990Y021534D01*
X018990Y021643D01*
X019030Y021603D01*
X019724Y021603D01*
X019822Y021702D01*
X019846Y021702D01*
X019905Y021643D01*
X020599Y021643D01*
X020727Y021772D01*
X020727Y022151D01*
X020980Y022151D01*
X021058Y022229D01*
X021206Y022229D01*
X021352Y022290D01*
X021412Y022350D01*
X021412Y021026D01*
X020922Y021026D01*
X020793Y020897D01*
X020793Y020479D01*
X020922Y020350D01*
X021485Y020350D01*
X021611Y020224D01*
X021856Y019979D01*
X021856Y019906D01*
X021826Y019875D01*
X021826Y019626D01*
X021826Y019531D01*
X021768Y019474D01*
X021768Y018779D01*
X021826Y018722D01*
X021826Y018656D01*
X021768Y018599D01*
X021768Y017904D01*
X021897Y017776D01*
X022354Y017776D01*
X021850Y017822D02*
X021678Y017822D01*
X021678Y017821D02*
X021678Y017847D01*
X021735Y017904D01*
X021735Y018599D01*
X021645Y018689D01*
X021735Y018779D01*
X021735Y019474D01*
X021678Y019531D01*
X021678Y019626D01*
X021678Y019875D01*
X021647Y019906D01*
X021647Y020149D01*
X021518Y020278D01*
X020922Y020278D01*
X020884Y020240D01*
X020569Y020240D01*
X020456Y020353D01*
X019920Y020353D01*
X019791Y020224D01*
X019791Y019903D01*
X019502Y019613D01*
X019310Y019613D01*
X019182Y019484D01*
X019182Y018515D01*
X019310Y018386D01*
X020123Y018386D01*
X020189Y018452D01*
X020255Y018386D01*
X021020Y018386D01*
X021020Y018117D01*
X020255Y018117D01*
X020189Y018051D01*
X020123Y018117D01*
X019310Y018117D01*
X019182Y017988D01*
X019182Y017019D01*
X019310Y016890D01*
X020123Y016890D01*
X020189Y016956D01*
X020255Y016890D01*
X021068Y016890D01*
X021094Y016916D01*
X021109Y016901D01*
X021646Y016901D01*
X021775Y017029D01*
X021775Y017724D01*
X021678Y017821D01*
X021735Y017981D02*
X021768Y017981D01*
X021768Y018139D02*
X021735Y018139D01*
X021735Y018298D02*
X021768Y018298D01*
X021768Y018457D02*
X021735Y018457D01*
X021719Y018615D02*
X021784Y018615D01*
X021774Y018774D02*
X021729Y018774D01*
X021735Y018932D02*
X021768Y018932D01*
X021768Y019091D02*
X021735Y019091D01*
X021735Y019249D02*
X021768Y019249D01*
X021768Y019408D02*
X021735Y019408D01*
X021678Y019566D02*
X021826Y019566D01*
X021826Y019725D02*
X021678Y019725D01*
X021669Y019883D02*
X021834Y019883D01*
X021793Y020042D02*
X021647Y020042D01*
X021634Y020201D02*
X021596Y020201D01*
X021220Y020314D02*
X020752Y020314D01*
X020752Y020314D01*
X020752Y020314D01*
X020752Y020314D01*
X020913Y020359D02*
X017841Y020359D01*
X017841Y020518D02*
X020793Y020518D01*
X020793Y020676D02*
X017841Y020676D01*
X017841Y020835D02*
X020793Y020835D01*
X020889Y020993D02*
X017841Y020993D01*
X017841Y021152D02*
X021412Y021152D01*
X021412Y021310D02*
X017898Y021310D01*
X017501Y021564D02*
X017501Y021627D01*
X017502Y021627D01*
X017127Y022127D02*
X016752Y022502D01*
X016752Y023286D01*
X017252Y023286D02*
X017252Y022627D01*
X017439Y022439D01*
X017127Y022127D02*
X017127Y020627D01*
X016752Y020252D01*
X016752Y017002D01*
X016252Y016502D01*
X016252Y015502D01*
X015732Y015444D02*
X015108Y015444D01*
X015267Y015286D02*
X015732Y015286D01*
X015732Y015127D02*
X015425Y015127D01*
X015584Y014969D02*
X015732Y014969D01*
X015742Y014810D02*
X015832Y014810D01*
X015901Y014652D02*
X018689Y014652D01*
X018689Y014810D02*
X016671Y014810D01*
X016772Y014969D02*
X018689Y014969D01*
X018689Y015127D02*
X016772Y015127D01*
X016772Y015286D02*
X018689Y015286D01*
X018689Y015444D02*
X016772Y015444D01*
X016772Y015603D02*
X018689Y015603D01*
X018698Y015761D02*
X016772Y015761D01*
X016772Y015920D02*
X018731Y015920D01*
X018792Y016078D02*
X016772Y016078D01*
X016552Y016237D02*
X018888Y016237D01*
X018935Y016302D02*
X018935Y016302D01*
X019028Y016396D02*
X016570Y016396D01*
X016728Y016554D02*
X019262Y016554D01*
X019328Y016588D02*
X019328Y016588D01*
X019484Y016639D02*
X019484Y016639D01*
X019182Y017030D02*
X017052Y017030D01*
X017052Y017188D02*
X019182Y017188D01*
X019182Y017347D02*
X017052Y017347D01*
X017052Y017505D02*
X019182Y017505D01*
X019182Y017664D02*
X017052Y017664D01*
X017052Y017822D02*
X019182Y017822D01*
X019182Y017981D02*
X017052Y017981D01*
X017052Y018139D02*
X021020Y018139D01*
X021020Y018298D02*
X017483Y018298D01*
X017483Y018457D02*
X019240Y018457D01*
X019182Y018615D02*
X018351Y018615D01*
X018472Y018774D02*
X019182Y018774D01*
X019182Y018932D02*
X018472Y018932D01*
X018472Y019091D02*
X019182Y019091D01*
X019182Y019249D02*
X018472Y019249D01*
X018472Y019408D02*
X019182Y019408D01*
X019264Y019566D02*
X018423Y019566D01*
X018092Y019725D02*
X019613Y019725D01*
X019772Y019883D02*
X018092Y019883D01*
X018067Y020042D02*
X019791Y020042D01*
X019791Y020201D02*
X017908Y020201D01*
X018377Y020582D02*
X018377Y020939D01*
X018690Y021253D01*
X019377Y021253D01*
X019377Y021252D01*
X019378Y021253D01*
X020252Y021253D01*
X020727Y021786D02*
X021412Y021786D01*
X021412Y021627D02*
X019748Y021627D01*
X019502Y022002D02*
X019377Y022001D01*
X018378Y022001D01*
X018377Y022002D01*
X018377Y021921D01*
X018377Y022002D02*
X018377Y022127D01*
X017752Y022752D01*
X017752Y023286D01*
X018166Y022761D02*
X018461Y022761D01*
X018502Y022802D01*
X018542Y022761D01*
X018961Y022761D01*
X019090Y022890D01*
X019090Y022986D01*
X019412Y022986D01*
X019657Y022986D01*
X019645Y022974D01*
X019645Y022398D01*
X019030Y022398D01*
X018965Y022333D01*
X018861Y022436D01*
X018491Y022436D01*
X018166Y022761D01*
X018190Y022737D02*
X019645Y022737D01*
X019645Y022579D02*
X018349Y022579D01*
X018877Y022420D02*
X019645Y022420D01*
X020003Y022313D02*
X020003Y022627D01*
X020003Y022313D02*
X020252Y022064D01*
X020252Y022001D01*
X020314Y022001D01*
X020314Y022002D01*
X019502Y022002D01*
X019006Y021627D02*
X018990Y021627D01*
X018925Y021469D02*
X021412Y021469D01*
X021412Y021945D02*
X020727Y021945D01*
X020727Y022103D02*
X021412Y022103D01*
X021412Y022262D02*
X021283Y022262D01*
X021127Y022627D02*
X020751Y022627D01*
X020393Y022579D02*
X020360Y022579D01*
X020360Y022737D02*
X020393Y022737D01*
X020393Y022896D02*
X020360Y022896D01*
X020360Y022974D02*
X020232Y023102D01*
X019777Y023102D01*
X019927Y023252D01*
X019927Y023645D01*
X019974Y023645D01*
X020102Y023774D01*
X020102Y024231D01*
X019974Y024360D01*
X019280Y024360D01*
X019151Y024231D01*
X019151Y023774D01*
X019280Y023645D01*
X019327Y023645D01*
X019327Y023586D01*
X019090Y023586D01*
X019090Y023682D01*
X018961Y023811D01*
X018542Y023811D01*
X018502Y023770D01*
X018461Y023811D01*
X018423Y023811D01*
X018529Y023917D01*
X018581Y023917D01*
X018727Y023977D01*
X018838Y024089D01*
X018899Y024235D01*
X018899Y024393D01*
X018838Y024539D01*
X018727Y024651D01*
X018581Y024711D01*
X018423Y024711D01*
X018277Y024651D01*
X018165Y024539D01*
X018104Y024393D01*
X018104Y024341D01*
X017940Y024177D01*
X017601Y024177D01*
X017876Y024452D01*
X018052Y024627D01*
X018052Y024942D01*
X018461Y024942D01*
X018502Y024983D01*
X018542Y024942D01*
X018961Y024942D01*
X019090Y025071D01*
X019090Y025863D01*
X019052Y025901D01*
X019052Y026127D01*
X019251Y026327D01*
X019327Y026402D01*
X019327Y025108D01*
X019280Y025108D01*
X019151Y024980D01*
X019151Y024522D01*
X019280Y024393D01*
X019974Y024393D01*
X020102Y024522D01*
X020102Y024863D01*
X020497Y024469D01*
X020585Y024381D01*
X020602Y024339D01*
X020714Y024227D01*
X020756Y024210D01*
X020782Y024184D01*
X020819Y024184D01*
X020852Y024170D01*
X021412Y023611D01*
X021412Y022903D01*
X021352Y022963D01*
X021206Y023024D01*
X021058Y023024D01*
X020980Y023102D01*
X020522Y023102D01*
X020393Y022974D01*
X020393Y022358D01*
X020381Y022358D01*
X020360Y022379D01*
X020360Y022974D01*
X020280Y023054D02*
X020474Y023054D01*
X021028Y023054D02*
X021412Y023054D01*
X021412Y023213D02*
X019887Y023213D01*
X019927Y023371D02*
X021412Y023371D01*
X021412Y023530D02*
X019927Y023530D01*
X020017Y023689D02*
X021334Y023689D01*
X021175Y023847D02*
X020102Y023847D01*
X020102Y024006D02*
X021017Y024006D01*
X020858Y024164D02*
X020102Y024164D01*
X020011Y024323D02*
X020619Y024323D01*
X020497Y024469D02*
X020497Y024469D01*
X020485Y024481D02*
X020062Y024481D01*
X020102Y024640D02*
X020326Y024640D01*
X020168Y024798D02*
X020102Y024798D01*
X019627Y024751D02*
X019627Y027814D01*
X016127Y031314D01*
X016127Y033377D01*
X016377Y033627D01*
X018252Y033627D01*
X018627Y034002D01*
X018627Y035152D01*
X018151Y035104D02*
X018102Y035104D01*
X018102Y035262D02*
X018151Y035262D01*
X018151Y035421D02*
X018102Y035421D01*
X018102Y035579D02*
X018151Y035579D01*
X018151Y035738D02*
X018102Y035738D01*
X018102Y035896D02*
X018151Y035896D01*
X018254Y036055D02*
X018000Y036055D01*
X017254Y036055D02*
X017000Y036055D01*
X017102Y035896D02*
X017151Y035896D01*
X017151Y035738D02*
X017102Y035738D01*
X017102Y035579D02*
X017151Y035579D01*
X017151Y035421D02*
X017102Y035421D01*
X017102Y035262D02*
X017151Y035262D01*
X017151Y035104D02*
X017102Y035104D01*
X017102Y034945D02*
X017151Y034945D01*
X017151Y034787D02*
X017102Y034787D01*
X017102Y034628D02*
X017151Y034628D01*
X017151Y034469D02*
X017102Y034469D01*
X017377Y034127D02*
X017627Y034377D01*
X017627Y035152D01*
X018102Y034945D02*
X018151Y034945D01*
X018151Y034787D02*
X018102Y034787D01*
X018102Y034628D02*
X018151Y034628D01*
X018151Y034469D02*
X018102Y034469D01*
X018061Y034311D02*
X018192Y034311D01*
X018327Y034152D02*
X017827Y034152D01*
X017668Y033994D02*
X018195Y033994D01*
X018627Y033502D02*
X019127Y034002D01*
X019127Y036189D01*
X018814Y036502D01*
X013752Y036502D01*
X012752Y035502D01*
X012752Y035002D01*
X012751Y035002D01*
X013108Y034945D02*
X015771Y034945D01*
X015929Y035104D02*
X013108Y035104D01*
X013108Y035262D02*
X016088Y035262D01*
X016151Y035421D02*
X013095Y035421D01*
X013253Y035579D02*
X016151Y035579D01*
X016151Y035738D02*
X013412Y035738D01*
X013571Y035896D02*
X016151Y035896D01*
X016254Y036055D02*
X013729Y036055D01*
X013627Y036877D02*
X019252Y036877D01*
X019627Y036502D01*
X019627Y035152D01*
X019627Y035127D01*
X020102Y035104D02*
X022119Y035104D01*
X020252Y035104D01*
X020252Y035262D02*
X022119Y035262D01*
X020102Y035262D01*
X020102Y035421D02*
X022119Y035421D01*
X020252Y035421D01*
X020252Y035579D02*
X022119Y035579D01*
X020102Y035579D01*
X020102Y035738D02*
X022119Y035738D01*
X020252Y035738D01*
X020252Y035896D02*
X022119Y035896D01*
X020102Y035896D01*
X020000Y036055D02*
X022165Y036055D01*
X020252Y036055D01*
X020252Y036213D02*
X037517Y036213D01*
X034627Y036213D01*
X034627Y036055D02*
X037517Y036055D01*
X028651Y036055D01*
X037519Y036055D01*
X037519Y036213D02*
X019927Y036213D01*
X019927Y036372D02*
X037519Y036372D01*
X037517Y036372D02*
X020252Y036372D01*
X020252Y036531D02*
X037517Y036531D01*
X034627Y036531D01*
X034627Y036689D02*
X037517Y036689D01*
X020252Y036689D01*
X020252Y036848D02*
X037517Y036848D01*
X034627Y036848D01*
X034627Y037006D02*
X037517Y037006D01*
X020252Y037006D01*
X020252Y037165D02*
X037517Y037165D01*
X034627Y037165D01*
X034627Y037323D02*
X037517Y037323D01*
X020252Y037323D01*
X020252Y037482D02*
X037517Y037482D01*
X034627Y037482D01*
X034627Y037517D02*
X037517Y037517D01*
X037517Y034627D01*
X034627Y034627D01*
X034627Y037517D01*
X034627Y036372D02*
X037517Y036372D01*
X037519Y036531D02*
X019927Y036531D01*
X019863Y036689D02*
X037519Y036689D01*
X037519Y036848D02*
X019705Y036848D01*
X019546Y037006D02*
X037519Y037006D01*
X037519Y037165D02*
X019388Y037165D01*
X020102Y034945D02*
X022119Y034945D01*
X020252Y034945D01*
X020252Y034787D02*
X022119Y034787D01*
X020102Y034787D01*
X020102Y034628D02*
X022119Y034628D01*
X020252Y034628D01*
X020252Y034469D02*
X022119Y034469D01*
X020102Y034469D01*
X020061Y034311D02*
X022119Y034311D01*
X020252Y034311D01*
X020252Y034152D02*
X022119Y034152D01*
X019427Y034152D01*
X019427Y033994D02*
X022119Y033994D01*
X020252Y033994D01*
X020252Y033835D02*
X022119Y033835D01*
X019384Y033835D01*
X018627Y033502D02*
X018627Y032601D01*
X018151Y032567D02*
X018102Y032567D01*
X018102Y032725D02*
X018151Y032725D01*
X018151Y032884D02*
X018102Y032884D01*
X018102Y033043D02*
X018151Y033043D01*
X018151Y033201D02*
X018102Y033201D01*
X018102Y033327D02*
X018127Y033327D01*
X018151Y033327D01*
X018151Y031801D01*
X018247Y031705D01*
X018247Y029618D01*
X016635Y031229D01*
X016706Y031229D01*
X016852Y031290D01*
X016963Y031402D01*
X017024Y031548D01*
X017024Y031706D01*
X017019Y031718D01*
X017102Y031801D01*
X017102Y033327D01*
X017151Y033327D01*
X017151Y031801D01*
X017234Y031718D01*
X017229Y031706D01*
X017229Y031548D01*
X017290Y031402D01*
X017402Y031290D01*
X017548Y031229D01*
X017706Y031229D01*
X017852Y031290D01*
X017963Y031402D01*
X018024Y031548D01*
X018024Y031706D01*
X018019Y031718D01*
X018102Y031801D01*
X018102Y033327D01*
X017627Y032601D02*
X017627Y031627D01*
X018024Y031616D02*
X018247Y031616D01*
X018247Y031457D02*
X017986Y031457D01*
X017860Y031299D02*
X018247Y031299D01*
X018247Y031140D02*
X016725Y031140D01*
X016860Y031299D02*
X017393Y031299D01*
X017267Y031457D02*
X016986Y031457D01*
X017024Y031616D02*
X017229Y031616D01*
X017178Y031774D02*
X017075Y031774D01*
X017102Y031933D02*
X017151Y031933D01*
X017151Y032091D02*
X017102Y032091D01*
X017102Y032250D02*
X017151Y032250D01*
X017151Y032408D02*
X017102Y032408D01*
X017102Y032567D02*
X017151Y032567D01*
X017151Y032725D02*
X017102Y032725D01*
X017102Y032884D02*
X017151Y032884D01*
X017151Y033043D02*
X017102Y033043D01*
X017102Y033201D02*
X017151Y033201D01*
X016627Y032601D02*
X016627Y031627D01*
X016627Y031564D01*
X016883Y030981D02*
X018247Y030981D01*
X018247Y030823D02*
X017042Y030823D01*
X017200Y030664D02*
X018247Y030664D01*
X018247Y030506D02*
X017359Y030506D01*
X017518Y030347D02*
X018247Y030347D01*
X018247Y030189D02*
X017676Y030189D01*
X017835Y030030D02*
X018247Y030030D01*
X018247Y029872D02*
X017993Y029872D01*
X018152Y029713D02*
X018247Y029713D01*
X017596Y028920D02*
X015677Y028920D01*
X015677Y028762D02*
X017755Y028762D01*
X017913Y028603D02*
X015677Y028603D01*
X015677Y028445D02*
X018072Y028445D01*
X018230Y028286D02*
X015677Y028286D01*
X015677Y028128D02*
X018389Y028128D01*
X018547Y027969D02*
X015738Y027969D01*
X015852Y027811D02*
X018651Y027811D01*
X018651Y027652D02*
X015852Y027652D01*
X015852Y027494D02*
X018651Y027494D01*
X018712Y027335D02*
X015791Y027335D01*
X015724Y027235D02*
X015030Y027235D01*
X014901Y027106D01*
X014901Y026649D01*
X015030Y026520D01*
X015077Y026520D01*
X015077Y025752D01*
X015252Y025577D01*
X015414Y025415D01*
X015414Y025177D01*
X015023Y025177D01*
X015023Y025224D01*
X014926Y025321D01*
X014926Y025597D01*
X014983Y025655D01*
X014983Y026349D01*
X014855Y026477D01*
X014801Y026477D01*
X014801Y026722D01*
X014858Y026780D01*
X014858Y027474D01*
X014730Y027602D01*
X014272Y027602D01*
X014177Y027507D01*
X014177Y030126D01*
X014001Y030302D01*
X011876Y032427D01*
X011627Y032427D01*
X008076Y032427D01*
X008039Y032463D01*
X007893Y032524D01*
X007735Y032524D01*
X007589Y032463D01*
X007477Y032352D01*
X007417Y032206D01*
X007417Y032048D01*
X007477Y031902D01*
X007589Y031790D01*
X007735Y031729D01*
X007893Y031729D01*
X008039Y031790D01*
X008076Y031827D01*
X011627Y031827D01*
X013577Y029877D01*
X013577Y027602D01*
X013524Y027602D01*
X013395Y027474D01*
X013395Y026780D01*
X013524Y026651D01*
X013981Y026651D01*
X014110Y026780D01*
X014110Y026935D01*
X014143Y026968D01*
X014143Y026780D01*
X014201Y026722D01*
X014201Y026127D01*
X014201Y025878D01*
X014268Y025811D01*
X014268Y025655D01*
X014326Y025597D01*
X014326Y025321D01*
X014228Y025224D01*
X014228Y024530D01*
X014357Y024401D01*
X014894Y024401D01*
X015023Y024530D01*
X015023Y024577D01*
X016502Y024577D01*
X016751Y024577D01*
X016876Y024702D01*
X017052Y024877D01*
X017052Y025033D01*
X017090Y025071D01*
X017090Y025863D01*
X017052Y025901D01*
X017052Y026001D01*
X016985Y026067D01*
X016986Y026067D01*
X017517Y026067D01*
X017452Y025908D02*
X017052Y025908D01*
X017090Y025750D02*
X017414Y025750D01*
X017414Y025591D02*
X017090Y025591D01*
X017090Y025432D02*
X017414Y025432D01*
X017414Y025274D02*
X017090Y025274D01*
X017090Y025115D02*
X017414Y025115D01*
X017452Y024957D02*
X017052Y024957D01*
X016973Y024798D02*
X017374Y024798D01*
X017252Y024877D02*
X017252Y025467D01*
X017252Y025502D02*
X017252Y027877D01*
X017296Y027921D01*
X018002Y027921D01*
X017252Y027877D02*
X017207Y027921D01*
X016502Y027921D01*
X016986Y027098D02*
X016017Y027098D01*
X015888Y026969D01*
X015888Y026196D01*
X016017Y026067D01*
X016202Y026067D01*
X016202Y026002D01*
X016212Y025992D01*
X016042Y025992D01*
X016002Y025951D01*
X015961Y025992D01*
X015685Y025992D01*
X015677Y026001D01*
X015677Y026520D01*
X015724Y026520D01*
X015852Y026649D01*
X015852Y027106D01*
X015724Y027235D01*
X015783Y027176D02*
X018721Y027176D01*
X018651Y027018D02*
X018566Y027018D01*
X018615Y026859D02*
X018651Y026859D01*
X018651Y026701D02*
X018615Y026701D01*
X018615Y026542D02*
X018618Y026542D01*
X018752Y026252D02*
X019127Y026627D01*
X019127Y026878D01*
X019308Y026384D02*
X019327Y026384D01*
X019327Y026225D02*
X019149Y026225D01*
X019052Y026067D02*
X019327Y026067D01*
X019327Y025908D02*
X019052Y025908D01*
X019090Y025750D02*
X019327Y025750D01*
X019327Y025591D02*
X019090Y025591D01*
X019090Y025432D02*
X019327Y025432D01*
X019327Y025274D02*
X019090Y025274D01*
X019090Y025115D02*
X019327Y025115D01*
X019151Y024957D02*
X018976Y024957D01*
X019151Y024798D02*
X018052Y024798D01*
X018052Y024640D02*
X018266Y024640D01*
X018141Y024481D02*
X017905Y024481D01*
X017747Y024323D02*
X018086Y024323D01*
X018502Y024314D02*
X018064Y023877D01*
X015939Y023877D01*
X015752Y023689D01*
X015752Y023286D01*
X015752Y023189D01*
X015502Y022939D01*
X015502Y021877D01*
X015503Y022002D01*
X015860Y021945D02*
X015893Y021945D01*
X015893Y022103D02*
X015860Y022103D01*
X015860Y022262D02*
X015893Y022262D01*
X015893Y022349D02*
X015893Y021655D01*
X015951Y021597D01*
X015951Y021469D01*
X015803Y021469D01*
X015860Y021411D02*
X015739Y021533D01*
X015860Y021655D01*
X015860Y022349D01*
X015802Y022407D01*
X015802Y022761D01*
X015952Y022761D01*
X015952Y022407D01*
X015893Y022349D01*
X015952Y022420D02*
X015802Y022420D01*
X015802Y022579D02*
X015952Y022579D01*
X015952Y022737D02*
X015802Y022737D01*
X015202Y022737D02*
X014927Y022737D01*
X014927Y022579D02*
X015202Y022579D01*
X015202Y022420D02*
X014927Y022420D01*
X014927Y022262D02*
X015145Y022262D01*
X015145Y022103D02*
X014927Y022103D01*
X014927Y021945D02*
X015145Y021945D01*
X015145Y021786D02*
X014927Y021786D01*
X014927Y021627D02*
X015172Y021627D01*
X015203Y021469D02*
X014927Y021469D01*
X014927Y021310D02*
X015145Y021310D01*
X015145Y021152D02*
X014927Y021152D01*
X014927Y020993D02*
X015145Y020993D01*
X015145Y020835D02*
X014927Y020835D01*
X014927Y020676D02*
X015186Y020676D01*
X015203Y020518D02*
X014927Y020518D01*
X014927Y020359D02*
X015203Y020359D01*
X015203Y020201D02*
X014927Y020201D01*
X014927Y020042D02*
X015203Y020042D01*
X015203Y019883D02*
X014927Y019883D01*
X014927Y019725D02*
X015203Y019725D01*
X015203Y019566D02*
X014927Y019566D01*
X014927Y019408D02*
X015203Y019408D01*
X015203Y019249D02*
X014927Y019249D01*
X014927Y019091D02*
X015203Y019091D01*
X015203Y018932D02*
X014927Y018932D01*
X014927Y018774D02*
X015203Y018774D01*
X015129Y018615D02*
X014927Y018615D01*
X014927Y018457D02*
X015032Y018457D01*
X015032Y018298D02*
X014927Y018298D01*
X014927Y018139D02*
X015032Y018139D01*
X015032Y017981D02*
X014927Y017981D01*
X014927Y017822D02*
X015032Y017822D01*
X015103Y017664D02*
X014927Y017664D01*
X014927Y017505D02*
X016020Y017505D01*
X016020Y017347D02*
X014927Y017347D01*
X014927Y017188D02*
X016111Y017188D01*
X016356Y017030D02*
X014927Y017030D01*
X014927Y016871D02*
X016197Y016871D01*
X016127Y016802D02*
X016127Y016802D01*
X016038Y016713D02*
X014927Y016713D01*
X014927Y016554D02*
X015952Y016554D01*
X015952Y016396D02*
X014927Y016396D01*
X014927Y016237D02*
X015952Y016237D01*
X015732Y016078D02*
X014927Y016078D01*
X014927Y015920D02*
X015732Y015920D01*
X015732Y015761D02*
X014927Y015761D01*
X014950Y015603D02*
X015732Y015603D01*
X014894Y014810D02*
X013127Y014810D01*
X012982Y014810D01*
X012982Y014652D02*
X013127Y014652D01*
X015052Y014652D01*
X015211Y014493D02*
X013127Y014493D01*
X012982Y014493D01*
X012982Y014334D02*
X013127Y014334D01*
X015370Y014334D01*
X015252Y014252D02*
X015252Y013502D01*
X015702Y013542D02*
X013127Y013542D01*
X012982Y013542D01*
X012982Y013700D02*
X013127Y013700D01*
X015702Y013700D01*
X015702Y013859D02*
X013127Y013859D01*
X012982Y013859D01*
X012982Y014017D02*
X013127Y014017D01*
X015687Y014017D01*
X015528Y014176D02*
X013127Y014176D01*
X012982Y014176D01*
X012982Y014969D02*
X013127Y014969D01*
X014735Y014969D01*
X014577Y015127D02*
X013127Y015127D01*
X012982Y015127D01*
X012982Y015286D02*
X013127Y015286D01*
X014418Y015286D01*
X014327Y015444D02*
X013127Y015444D01*
X012982Y015444D01*
X012982Y015603D02*
X013127Y015603D01*
X014327Y015603D01*
X014327Y015761D02*
X013127Y015761D01*
X012982Y015761D01*
X012982Y015920D02*
X013127Y015920D01*
X014327Y015920D01*
X014327Y016078D02*
X013127Y016078D01*
X012982Y016078D01*
X012982Y016237D02*
X013127Y016237D01*
X014327Y016237D01*
X014327Y016396D02*
X013127Y016396D01*
X012982Y016396D01*
X012982Y016554D02*
X013127Y016554D01*
X014327Y016554D01*
X014327Y016713D02*
X013127Y016713D01*
X012982Y016713D01*
X012982Y016871D02*
X013127Y016871D01*
X014327Y016871D01*
X014327Y017030D02*
X013127Y017030D01*
X012982Y017030D01*
X012982Y017188D02*
X013127Y017188D01*
X014327Y017188D01*
X014327Y017347D02*
X013127Y017347D01*
X012982Y017347D01*
X012982Y017505D02*
X013127Y017505D01*
X014327Y017505D01*
X014327Y017664D02*
X013127Y017664D01*
X012982Y017664D01*
X012982Y017822D02*
X013127Y017822D01*
X014327Y017822D01*
X014327Y017981D02*
X013127Y017981D01*
X012982Y017981D01*
X012982Y018139D02*
X013127Y018139D01*
X014327Y018139D01*
X014327Y018298D02*
X013127Y018298D01*
X012982Y018298D01*
X012982Y018457D02*
X013127Y018457D01*
X014327Y018457D01*
X014327Y018615D02*
X013127Y018615D01*
X012982Y018615D01*
X012982Y018774D02*
X013127Y018774D01*
X014327Y018774D01*
X014327Y018932D02*
X013127Y018932D01*
X012982Y018932D01*
X012982Y019091D02*
X013127Y019091D01*
X014327Y019091D01*
X014327Y019249D02*
X013127Y019249D01*
X012982Y019249D01*
X012982Y019408D02*
X013127Y019408D01*
X014327Y019408D01*
X014327Y019566D02*
X013127Y019566D01*
X012982Y019566D01*
X012982Y019725D02*
X013127Y019725D01*
X014327Y019725D01*
X014327Y019883D02*
X013127Y019883D01*
X012982Y019883D01*
X012982Y020042D02*
X013127Y020042D01*
X014327Y020042D01*
X014327Y020201D02*
X013127Y020201D01*
X012982Y020201D01*
X012982Y020359D02*
X013127Y020359D01*
X014327Y020359D01*
X014327Y020518D02*
X013127Y020518D01*
X012982Y020518D01*
X012982Y020676D02*
X013127Y020676D01*
X014327Y020676D01*
X014327Y020835D02*
X013127Y020835D01*
X012982Y020835D01*
X012982Y020993D02*
X013127Y020993D01*
X014327Y020993D01*
X014327Y021152D02*
X013127Y021152D01*
X012982Y021152D01*
X012982Y021310D02*
X013127Y021310D01*
X014327Y021310D01*
X014327Y021469D02*
X013127Y021469D01*
X012982Y021469D01*
X012982Y021627D02*
X013127Y021627D01*
X014327Y021627D01*
X014327Y021786D02*
X013127Y021786D01*
X012982Y021786D01*
X012982Y021945D02*
X013127Y021945D01*
X014327Y021945D01*
X014327Y022103D02*
X013127Y022103D01*
X012982Y022103D01*
X012982Y022262D02*
X013127Y022262D01*
X014327Y022262D01*
X014327Y022420D02*
X013127Y022420D01*
X012982Y022420D01*
X012982Y022579D02*
X013127Y022579D01*
X014327Y022579D01*
X014327Y022737D02*
X013127Y022737D01*
X012982Y022737D01*
X012982Y022896D02*
X013127Y022896D01*
X014327Y022896D01*
X014327Y023054D02*
X013127Y023054D01*
X012982Y023054D01*
X012982Y023213D02*
X013127Y023213D01*
X014327Y023213D01*
X014327Y023371D02*
X013127Y023371D01*
X012982Y023371D01*
X012982Y023530D02*
X013127Y023530D01*
X014327Y023530D01*
X014327Y023689D02*
X013127Y023689D01*
X012982Y023689D01*
X012982Y023847D02*
X013127Y023847D01*
X014423Y023847D01*
X014581Y024006D02*
X013127Y024006D01*
X012982Y024006D01*
X012982Y024164D02*
X013127Y024164D01*
X014740Y024164D01*
X014898Y024323D02*
X013127Y024323D01*
X012982Y024323D01*
X012982Y024481D02*
X013127Y024481D01*
X014277Y024481D01*
X014228Y024640D02*
X013127Y024640D01*
X012982Y024640D01*
X012982Y024798D02*
X013127Y024798D01*
X014228Y024798D01*
X014228Y024957D02*
X013127Y024957D01*
X012982Y024957D01*
X012982Y025115D02*
X013127Y025115D01*
X014228Y025115D01*
X014279Y025274D02*
X013127Y025274D01*
X012982Y025274D01*
X012982Y025432D02*
X013127Y025432D01*
X014326Y025432D01*
X014326Y025591D02*
X013127Y025591D01*
X012982Y025591D01*
X012982Y025750D02*
X013127Y025750D01*
X014268Y025750D01*
X014201Y025908D02*
X013127Y025908D01*
X012982Y025908D01*
X012982Y026067D02*
X013127Y026067D01*
X014201Y026067D01*
X014201Y026225D02*
X013127Y026225D01*
X012982Y026225D01*
X012982Y026384D02*
X013127Y026384D01*
X014201Y026384D01*
X014201Y026542D02*
X013127Y026542D01*
X012982Y026542D01*
X012982Y026701D02*
X013127Y026701D01*
X013474Y026701D01*
X013395Y026859D02*
X013127Y026859D01*
X012982Y026859D01*
X012982Y027018D02*
X013127Y027018D01*
X013395Y027018D01*
X013395Y027176D02*
X013127Y027176D01*
X012982Y027176D01*
X012982Y027335D02*
X013127Y027335D01*
X013395Y027335D01*
X013415Y027494D02*
X013127Y027494D01*
X012982Y027494D01*
X012982Y027652D02*
X013127Y027652D01*
X013577Y027652D01*
X013577Y027811D02*
X013127Y027811D01*
X012982Y027811D01*
X012982Y027969D02*
X013127Y027969D01*
X013577Y027969D01*
X013577Y028128D02*
X013127Y028128D01*
X012982Y028128D01*
X012982Y028286D02*
X013127Y028286D01*
X013577Y028286D01*
X013577Y028445D02*
X013127Y028445D01*
X012965Y028445D01*
X012976Y028330D02*
X012952Y028583D01*
X012892Y028882D01*
X012804Y029174D01*
X012687Y029456D01*
X012543Y029725D01*
X012374Y029978D01*
X012180Y030214D01*
X012180Y030214D01*
X011964Y030430D01*
X011728Y030624D01*
X011475Y030793D01*
X011475Y030793D01*
X011206Y030937D01*
X011206Y030937D01*
X010924Y031054D01*
X010632Y031142D01*
X010333Y031202D01*
X010333Y031202D01*
X010080Y031226D01*
X010075Y031232D01*
X009935Y031232D01*
X009877Y031232D01*
X009678Y031232D01*
X009673Y031226D01*
X009420Y031202D01*
X009121Y031142D01*
X008829Y031054D01*
X008547Y030937D01*
X008278Y030793D01*
X008025Y030624D01*
X007789Y030430D01*
X007789Y030430D01*
X007573Y030214D01*
X007380Y029978D01*
X007210Y029725D01*
X007066Y029456D01*
X006950Y029174D01*
X006861Y028882D01*
X006802Y028583D01*
X006777Y028330D01*
X006772Y028325D01*
X006772Y028279D01*
X006772Y028127D01*
X006772Y027928D01*
X006772Y008825D01*
X006772Y008627D01*
X005982Y008627D01*
X005982Y008825D01*
X005982Y030021D01*
X006165Y030205D01*
X006165Y031019D01*
X007256Y031019D01*
X007490Y031253D01*
X007490Y031627D01*
X007513Y031627D01*
X007699Y031549D01*
X007929Y031549D01*
X008115Y031627D01*
X011502Y031627D01*
X013127Y030002D01*
X013127Y010483D01*
X012982Y010483D01*
X012982Y028325D01*
X012976Y028330D01*
X012948Y028603D02*
X013127Y028603D01*
X013577Y028603D01*
X013577Y028762D02*
X013127Y028762D01*
X012916Y028762D01*
X012892Y028882D02*
X012892Y028882D01*
X012881Y028920D02*
X013127Y028920D01*
X013577Y028920D01*
X013577Y029079D02*
X013127Y029079D01*
X012832Y029079D01*
X012804Y029174D02*
X012804Y029174D01*
X012777Y029238D02*
X013127Y029238D01*
X013577Y029238D01*
X013577Y029396D02*
X013127Y029396D01*
X012712Y029396D01*
X012687Y029456D02*
X012687Y029456D01*
X012634Y029555D02*
X013127Y029555D01*
X013577Y029555D01*
X013577Y029713D02*
X013127Y029713D01*
X012549Y029713D01*
X012543Y029725D02*
X012543Y029725D01*
X012445Y029872D02*
X013127Y029872D01*
X013577Y029872D01*
X013424Y030030D02*
X013096Y030030D01*
X013098Y030030D02*
X012331Y030030D01*
X012374Y029978D02*
X012374Y029978D01*
X012201Y030189D02*
X012939Y030189D01*
X012925Y030189D02*
X013265Y030189D01*
X013107Y030347D02*
X012754Y030347D01*
X012781Y030347D02*
X012047Y030347D01*
X011964Y030430D02*
X011964Y030430D01*
X011872Y030506D02*
X012622Y030506D01*
X012584Y030506D02*
X012948Y030506D01*
X012790Y030664D02*
X012413Y030664D01*
X012464Y030664D02*
X011667Y030664D01*
X011728Y030624D02*
X011728Y030624D01*
X011419Y030823D02*
X012305Y030823D01*
X012242Y030823D02*
X012631Y030823D01*
X012472Y030981D02*
X012071Y030981D01*
X012147Y030981D02*
X011098Y030981D01*
X010924Y031054D02*
X010924Y031054D01*
X010639Y031140D02*
X011988Y031140D01*
X011901Y031140D02*
X012314Y031140D01*
X012155Y031299D02*
X011730Y031299D01*
X011830Y031299D02*
X007490Y031299D01*
X007490Y031457D02*
X011671Y031457D01*
X011559Y031457D02*
X011997Y031457D01*
X011838Y031616D02*
X011388Y031616D01*
X011513Y031616D02*
X008089Y031616D01*
X008001Y031774D02*
X011680Y031774D01*
X011752Y032127D02*
X013877Y030002D01*
X013877Y027127D01*
X013753Y027127D01*
X013877Y027127D02*
X013878Y027127D01*
X014110Y026859D02*
X014143Y026859D01*
X014201Y026701D02*
X014032Y026701D01*
X014501Y027127D02*
X014501Y026003D01*
X014627Y026002D01*
X014626Y026002D01*
X014626Y024878D01*
X014627Y024877D01*
X016627Y024877D01*
X016752Y025002D01*
X016752Y025467D01*
X016752Y025877D01*
X016502Y026127D01*
X016502Y026582D01*
X016202Y026067D02*
X015677Y026067D01*
X015677Y026225D02*
X015888Y026225D01*
X015888Y026384D02*
X015677Y026384D01*
X015746Y026542D02*
X015888Y026542D01*
X015888Y026701D02*
X015852Y026701D01*
X015852Y026859D02*
X015888Y026859D01*
X015852Y027018D02*
X015937Y027018D01*
X015377Y026878D02*
X015377Y025877D01*
X015752Y025502D01*
X015786Y025467D01*
X016252Y025467D01*
X015752Y025467D02*
X015752Y025502D01*
X015396Y025432D02*
X014926Y025432D01*
X014926Y025591D02*
X015238Y025591D01*
X015079Y025750D02*
X014983Y025750D01*
X014983Y025908D02*
X015077Y025908D01*
X015077Y026067D02*
X014983Y026067D01*
X014983Y026225D02*
X015077Y026225D01*
X015077Y026384D02*
X014948Y026384D01*
X015007Y026542D02*
X014801Y026542D01*
X014801Y026701D02*
X014901Y026701D01*
X014901Y026859D02*
X014858Y026859D01*
X014858Y027018D02*
X014901Y027018D01*
X014858Y027176D02*
X014971Y027176D01*
X014962Y027335D02*
X014858Y027335D01*
X014838Y027494D02*
X014901Y027494D01*
X014901Y027652D02*
X014177Y027652D01*
X014177Y027811D02*
X014901Y027811D01*
X015015Y027969D02*
X014177Y027969D01*
X014177Y028128D02*
X015077Y028128D01*
X015077Y028286D02*
X014177Y028286D01*
X014177Y028445D02*
X015077Y028445D01*
X015077Y028603D02*
X014177Y028603D01*
X014177Y028762D02*
X015077Y028762D01*
X015077Y028920D02*
X014177Y028920D01*
X014177Y029079D02*
X015077Y029079D01*
X015077Y029238D02*
X014177Y029238D01*
X014177Y029396D02*
X015077Y029396D01*
X015077Y029555D02*
X014177Y029555D01*
X014177Y029713D02*
X015077Y029713D01*
X015077Y029872D02*
X014177Y029872D01*
X014177Y030030D02*
X015077Y030030D01*
X015077Y030189D02*
X014114Y030189D01*
X013955Y030347D02*
X015077Y030347D01*
X015077Y030506D02*
X013797Y030506D01*
X013638Y030664D02*
X015077Y030664D01*
X015077Y030823D02*
X013479Y030823D01*
X013321Y030981D02*
X015077Y030981D01*
X015077Y031140D02*
X013162Y031140D01*
X013004Y031299D02*
X015077Y031299D01*
X015077Y031457D02*
X012845Y031457D01*
X012687Y031616D02*
X015077Y031616D01*
X015077Y031774D02*
X012528Y031774D01*
X012370Y031933D02*
X015077Y031933D01*
X015077Y032091D02*
X012211Y032091D01*
X012053Y032250D02*
X015077Y032250D01*
X015077Y032408D02*
X011894Y032408D01*
X011752Y032127D02*
X007814Y032127D01*
X007534Y032408D02*
X007310Y032408D01*
X007310Y032250D02*
X007435Y032250D01*
X007417Y032091D02*
X007310Y032091D01*
X007310Y031933D02*
X007465Y031933D01*
X007310Y031774D02*
X007627Y031774D01*
X007539Y031616D02*
X007490Y031616D01*
X007377Y031140D02*
X009114Y031140D01*
X009121Y031142D02*
X009121Y031142D01*
X008829Y031054D02*
X008829Y031054D01*
X008655Y030981D02*
X006165Y030981D01*
X006165Y030823D02*
X008334Y030823D01*
X008278Y030793D02*
X008278Y030793D01*
X008086Y030664D02*
X006165Y030664D01*
X006165Y030506D02*
X007881Y030506D01*
X007789Y030430D02*
X007789Y030430D01*
X007706Y030347D02*
X006165Y030347D01*
X006149Y030189D02*
X007552Y030189D01*
X007422Y030030D02*
X005991Y030030D01*
X005982Y029872D02*
X007308Y029872D01*
X007204Y029713D02*
X005982Y029713D01*
X005982Y029555D02*
X007119Y029555D01*
X007042Y029396D02*
X005982Y029396D01*
X005982Y029238D02*
X006976Y029238D01*
X006921Y029079D02*
X005982Y029079D01*
X005982Y028920D02*
X006873Y028920D01*
X006837Y028762D02*
X005982Y028762D01*
X005982Y028603D02*
X006806Y028603D01*
X006788Y028445D02*
X005982Y028445D01*
X005982Y028286D02*
X006772Y028286D01*
X006772Y028279D02*
X006772Y028279D01*
X006772Y028128D02*
X005982Y028128D01*
X005982Y027969D02*
X006772Y027969D01*
X006772Y027928D02*
X006772Y027928D01*
X006772Y027811D02*
X005982Y027811D01*
X005982Y027652D02*
X006772Y027652D01*
X006772Y027494D02*
X005982Y027494D01*
X005982Y027335D02*
X006772Y027335D01*
X006772Y027176D02*
X005982Y027176D01*
X005982Y027018D02*
X006772Y027018D01*
X006772Y026859D02*
X005982Y026859D01*
X005982Y026701D02*
X006772Y026701D01*
X006772Y026542D02*
X005982Y026542D01*
X005982Y026384D02*
X006772Y026384D01*
X006772Y026225D02*
X005982Y026225D01*
X005982Y026067D02*
X006772Y026067D01*
X006772Y025908D02*
X005982Y025908D01*
X005982Y025750D02*
X006772Y025750D01*
X006772Y025591D02*
X005982Y025591D01*
X005982Y025432D02*
X006772Y025432D01*
X006772Y025274D02*
X005982Y025274D01*
X005982Y025115D02*
X006772Y025115D01*
X006772Y024957D02*
X005982Y024957D01*
X005982Y024798D02*
X006772Y024798D01*
X006772Y024640D02*
X005982Y024640D01*
X005982Y024481D02*
X006772Y024481D01*
X006772Y024323D02*
X005982Y024323D01*
X005982Y024164D02*
X006772Y024164D01*
X006772Y024006D02*
X005982Y024006D01*
X005982Y023847D02*
X006772Y023847D01*
X006772Y023689D02*
X005982Y023689D01*
X005982Y023530D02*
X006772Y023530D01*
X006772Y023371D02*
X005982Y023371D01*
X005982Y023213D02*
X006772Y023213D01*
X006772Y023054D02*
X005982Y023054D01*
X005982Y022896D02*
X006772Y022896D01*
X006772Y022737D02*
X005982Y022737D01*
X005982Y022579D02*
X006772Y022579D01*
X006772Y022420D02*
X005982Y022420D01*
X005982Y022262D02*
X006772Y022262D01*
X006772Y022103D02*
X005982Y022103D01*
X005982Y021945D02*
X006772Y021945D01*
X006772Y021786D02*
X005982Y021786D01*
X005982Y021627D02*
X006772Y021627D01*
X006772Y021469D02*
X005982Y021469D01*
X005982Y021310D02*
X006772Y021310D01*
X006772Y021152D02*
X005982Y021152D01*
X005982Y020993D02*
X006772Y020993D01*
X006772Y020835D02*
X005982Y020835D01*
X005982Y020676D02*
X006772Y020676D01*
X006772Y020518D02*
X005982Y020518D01*
X005982Y020359D02*
X006772Y020359D01*
X006772Y020201D02*
X005982Y020201D01*
X005982Y020042D02*
X006772Y020042D01*
X006772Y019883D02*
X005982Y019883D01*
X005982Y019725D02*
X006772Y019725D01*
X006772Y019566D02*
X005982Y019566D01*
X005982Y019408D02*
X006772Y019408D01*
X006772Y019249D02*
X005982Y019249D01*
X005982Y019091D02*
X006772Y019091D01*
X006772Y018932D02*
X005982Y018932D01*
X005982Y018774D02*
X006772Y018774D01*
X006772Y018615D02*
X005982Y018615D01*
X005982Y018457D02*
X006772Y018457D01*
X006772Y018298D02*
X005982Y018298D01*
X005982Y018139D02*
X006772Y018139D01*
X006772Y017981D02*
X005982Y017981D01*
X005982Y017822D02*
X006772Y017822D01*
X006772Y017664D02*
X005982Y017664D01*
X005982Y017505D02*
X006772Y017505D01*
X006772Y017347D02*
X005982Y017347D01*
X005982Y017188D02*
X006772Y017188D01*
X006772Y017030D02*
X005982Y017030D01*
X005982Y016871D02*
X006772Y016871D01*
X006772Y016713D02*
X005982Y016713D01*
X005982Y016554D02*
X006772Y016554D01*
X006772Y016396D02*
X005982Y016396D01*
X005982Y016237D02*
X006772Y016237D01*
X006772Y016078D02*
X005982Y016078D01*
X005982Y015920D02*
X006772Y015920D01*
X006772Y015761D02*
X005982Y015761D01*
X005982Y015603D02*
X006772Y015603D01*
X006772Y015444D02*
X005982Y015444D01*
X005982Y015286D02*
X006772Y015286D01*
X006772Y015127D02*
X005982Y015127D01*
X005982Y014969D02*
X006772Y014969D01*
X006772Y014810D02*
X005982Y014810D01*
X005982Y014652D02*
X006772Y014652D01*
X006772Y014493D02*
X005982Y014493D01*
X005982Y014334D02*
X006772Y014334D01*
X006772Y014176D02*
X005982Y014176D01*
X005982Y014017D02*
X006772Y014017D01*
X006772Y013859D02*
X005982Y013859D01*
X005982Y013700D02*
X006772Y013700D01*
X006772Y013542D02*
X005982Y013542D01*
X005982Y013383D02*
X006772Y013383D01*
X006772Y013225D02*
X005982Y013225D01*
X005982Y013066D02*
X006772Y013066D01*
X006772Y012908D02*
X005982Y012908D01*
X005982Y012749D02*
X006772Y012749D01*
X006772Y012590D02*
X005982Y012590D01*
X005982Y012432D02*
X006772Y012432D01*
X006772Y012273D02*
X005982Y012273D01*
X005982Y012115D02*
X006772Y012115D01*
X006772Y011956D02*
X005982Y011956D01*
X005982Y011798D02*
X006772Y011798D01*
X006772Y011639D02*
X005982Y011639D01*
X005982Y011481D02*
X006772Y011481D01*
X006772Y011322D02*
X005982Y011322D01*
X005982Y011164D02*
X006772Y011164D01*
X006772Y011005D02*
X005982Y011005D01*
X005982Y010846D02*
X006772Y010846D01*
X006772Y010688D02*
X005982Y010688D01*
X005982Y010529D02*
X006772Y010529D01*
X006772Y010371D02*
X005982Y010371D01*
X005982Y010212D02*
X006772Y010212D01*
X006772Y010054D02*
X005982Y010054D01*
X005982Y009895D02*
X006772Y009895D01*
X006772Y009737D02*
X005982Y009737D01*
X005982Y009578D02*
X006772Y009578D01*
X006772Y009420D02*
X005982Y009420D01*
X005982Y009261D02*
X006772Y009261D01*
X006772Y009103D02*
X005982Y009103D01*
X005982Y008944D02*
X006772Y008944D01*
X006772Y008825D02*
X006772Y008825D01*
X006772Y008785D02*
X005982Y008785D01*
X005982Y008627D02*
X005983Y008598D01*
X005991Y008543D01*
X006006Y008489D01*
X006030Y008437D01*
X006060Y008390D01*
X006097Y008347D01*
X006140Y008310D01*
X006187Y008280D01*
X006239Y008256D01*
X006293Y008241D01*
X006348Y008233D01*
X006376Y008232D01*
X006377Y008232D01*
X006405Y008233D01*
X006461Y008241D01*
X006515Y008256D01*
X006566Y008280D01*
X006613Y008310D01*
X006141Y008310D01*
X006016Y008468D02*
X006738Y008468D01*
X006747Y008489D02*
X006723Y008437D01*
X006693Y008390D01*
X006656Y008347D01*
X006613Y008310D01*
X006747Y008489D02*
X006763Y008543D01*
X006771Y008598D01*
X006772Y008627D01*
X007252Y008627D02*
X007250Y008570D01*
X007245Y008513D01*
X007235Y008456D01*
X007222Y008401D01*
X007206Y008346D01*
X007185Y008292D01*
X007162Y008240D01*
X007135Y008190D01*
X007105Y008141D01*
X007071Y008094D01*
X007035Y008050D01*
X006996Y008008D01*
X006954Y007969D01*
X006910Y007933D01*
X006863Y007899D01*
X006814Y007869D01*
X006764Y007842D01*
X006712Y007819D01*
X006658Y007798D01*
X006603Y007782D01*
X006548Y007769D01*
X006491Y007759D01*
X006434Y007754D01*
X006377Y007752D01*
X006320Y007754D01*
X006263Y007759D01*
X006206Y007769D01*
X006151Y007782D01*
X006096Y007798D01*
X006042Y007819D01*
X005990Y007842D01*
X005940Y007869D01*
X005891Y007899D01*
X005844Y007933D01*
X005800Y007969D01*
X005758Y008008D01*
X005719Y008050D01*
X005683Y008094D01*
X005649Y008141D01*
X005619Y008190D01*
X005592Y008240D01*
X005569Y008292D01*
X005548Y008346D01*
X005532Y008401D01*
X005519Y008456D01*
X005509Y008513D01*
X005504Y008570D01*
X005502Y008627D01*
X005502Y030752D01*
X005628Y030627D01*
X005679Y031282D02*
X005679Y033531D01*
X005824Y033676D01*
X005824Y033574D01*
X005752Y033502D01*
X005752Y031627D01*
X005824Y031627D01*
X005824Y031282D01*
X005679Y031282D01*
X005679Y031299D02*
X005824Y031299D01*
X005824Y031457D02*
X005679Y031457D01*
X005679Y031616D02*
X005824Y031616D01*
X005752Y031774D02*
X006004Y031774D01*
X006004Y031933D02*
X005752Y031933D01*
X005679Y031933D01*
X005679Y032091D02*
X005752Y032091D01*
X006004Y032091D01*
X006004Y032250D02*
X005752Y032250D01*
X005679Y032250D01*
X005679Y032408D02*
X005752Y032408D01*
X006004Y032408D01*
X006004Y032567D02*
X005752Y032567D01*
X005679Y032567D01*
X005679Y032725D02*
X005752Y032725D01*
X006004Y032725D01*
X006004Y032884D02*
X005752Y032884D01*
X005679Y032884D01*
X005679Y033043D02*
X005752Y033043D01*
X006004Y033043D01*
X006004Y033201D02*
X005752Y033201D01*
X005679Y033201D01*
X005679Y033360D02*
X005752Y033360D01*
X006004Y033360D01*
X006004Y033518D02*
X005768Y033518D01*
X005679Y033518D01*
X005927Y033677D02*
X006005Y033677D01*
X006085Y033835D02*
X007175Y033835D01*
X007105Y033994D02*
X006244Y033994D01*
X006142Y033994D01*
X006132Y033984D02*
X007328Y035180D01*
X008080Y035180D01*
X008314Y035414D01*
X008314Y037357D01*
X008502Y037357D01*
X008502Y035002D01*
X007252Y035002D01*
X006234Y033984D01*
X006132Y033984D01*
X006300Y034152D02*
X006402Y034152D01*
X007105Y034152D01*
X007105Y034311D02*
X006561Y034311D01*
X006459Y034311D01*
X006617Y034469D02*
X006719Y034469D01*
X007105Y034469D01*
X007135Y034628D02*
X006878Y034628D01*
X006776Y034628D01*
X006934Y034787D02*
X007037Y034787D01*
X011577Y034787D01*
X011577Y034945D02*
X007195Y034945D01*
X007093Y034945D01*
X007251Y035104D02*
X008502Y035104D01*
X011645Y035104D01*
X011645Y035262D02*
X008502Y035262D01*
X008162Y035262D01*
X008314Y035421D02*
X008502Y035421D01*
X011717Y035421D01*
X012077Y035579D02*
X008502Y035579D01*
X008314Y035579D01*
X008314Y035738D02*
X008502Y035738D01*
X012077Y035738D01*
X012222Y035896D02*
X008502Y035896D01*
X008314Y035896D01*
X008314Y036055D02*
X008502Y036055D01*
X012381Y036055D01*
X012539Y036213D02*
X008502Y036213D01*
X008314Y036213D01*
X008314Y036372D02*
X008502Y036372D01*
X012698Y036372D01*
X012856Y036531D02*
X008502Y036531D01*
X008314Y036531D01*
X008314Y036689D02*
X008502Y036689D01*
X013015Y036689D01*
X013173Y036848D02*
X008502Y036848D01*
X008314Y036848D01*
X008314Y037006D02*
X008502Y037006D01*
X013332Y037006D01*
X013490Y037165D02*
X008502Y037165D01*
X008314Y037165D01*
X008314Y037323D02*
X008502Y037323D01*
X037519Y037323D01*
X037519Y037482D02*
X008502Y037482D01*
X005939Y037357D02*
X005939Y036337D01*
X003720Y034118D01*
X003720Y033372D01*
X003720Y032874D01*
X003720Y032501D01*
X003720Y032453D01*
X003720Y032128D01*
X003720Y031107D01*
X003553Y031107D01*
X003482Y031107D01*
X003462Y031127D01*
X003670Y031335D01*
X003670Y032257D01*
X003462Y032465D01*
X003532Y032535D01*
X003532Y033220D01*
X003298Y033455D01*
X002455Y033455D01*
X002330Y033329D01*
X002330Y035002D01*
X004002Y035002D01*
X002167Y035002D01*
X002167Y037519D01*
X005752Y037519D01*
X005752Y036752D01*
X004002Y035002D01*
X005752Y036752D01*
X005752Y037357D01*
X005939Y037357D01*
X005939Y037323D02*
X005752Y037323D01*
X002167Y037323D01*
X002167Y037165D02*
X005752Y037165D01*
X005939Y037165D01*
X005939Y037006D02*
X005752Y037006D01*
X002167Y037006D01*
X002167Y036848D02*
X005752Y036848D01*
X005939Y036848D01*
X005939Y036689D02*
X005689Y036689D01*
X002167Y036689D01*
X002167Y036531D02*
X005531Y036531D01*
X005939Y036531D01*
X005939Y036372D02*
X005372Y036372D01*
X002167Y036372D01*
X002167Y036213D02*
X005213Y036213D01*
X005816Y036213D01*
X005657Y036055D02*
X005055Y036055D01*
X002167Y036055D01*
X002167Y035896D02*
X004896Y035896D01*
X005499Y035896D01*
X005340Y035738D02*
X004738Y035738D01*
X002167Y035738D01*
X002167Y035579D02*
X004579Y035579D01*
X005181Y035579D01*
X005023Y035421D02*
X004421Y035421D01*
X002167Y035421D01*
X002167Y035262D02*
X004262Y035262D01*
X004864Y035262D01*
X004706Y035104D02*
X004104Y035104D01*
X002167Y035104D01*
X002330Y034945D02*
X004547Y034945D01*
X004389Y034787D02*
X002330Y034787D01*
X002330Y034628D02*
X004230Y034628D01*
X004072Y034469D02*
X002330Y034469D01*
X002330Y034311D02*
X003913Y034311D01*
X003755Y034152D02*
X002330Y034152D01*
X002330Y033994D02*
X003720Y033994D01*
X003720Y033835D02*
X002330Y033835D01*
X002330Y033677D02*
X003720Y033677D01*
X003720Y033518D02*
X002330Y033518D01*
X002330Y033360D02*
X002360Y033360D01*
X002877Y032878D02*
X002877Y032377D01*
X002877Y031796D01*
X003519Y032408D02*
X003720Y032408D01*
X003720Y032250D02*
X003670Y032250D01*
X003720Y032128D02*
X003720Y032128D01*
X003720Y032091D02*
X003670Y032091D01*
X003670Y031933D02*
X003720Y031933D01*
X003720Y031774D02*
X003670Y031774D01*
X003670Y031616D02*
X003720Y031616D01*
X003720Y031457D02*
X003670Y031457D01*
X003634Y031299D02*
X003720Y031299D01*
X003720Y031140D02*
X003475Y031140D01*
X003752Y030627D02*
X003127Y030627D01*
X002877Y030457D01*
X003272Y029762D02*
X003272Y008825D01*
X003272Y008825D01*
X003272Y008627D01*
X002330Y008627D01*
X002330Y008785D02*
X003272Y008785D01*
X003272Y008627D02*
X003272Y008474D01*
X003272Y008474D01*
X003272Y008428D01*
X003277Y008423D01*
X003302Y008170D01*
X003361Y007871D01*
X003450Y007579D01*
X003566Y007297D01*
X003710Y007028D01*
X003880Y006775D01*
X004073Y006539D01*
X004289Y006323D01*
X004525Y006130D01*
X004778Y005960D01*
X004778Y005960D01*
X005047Y005816D01*
X005048Y005816D02*
X005329Y005700D01*
X005329Y005700D01*
X005621Y005611D01*
X005621Y005611D01*
X005920Y005551D01*
X005921Y005551D01*
X006173Y005527D01*
X006178Y005522D01*
X006377Y005522D01*
X006575Y005522D01*
X006581Y005527D01*
X006833Y005551D01*
X007132Y005611D01*
X007424Y005700D01*
X007706Y005816D01*
X007975Y005960D01*
X008228Y006130D01*
X008229Y006130D02*
X008464Y006323D01*
X008464Y006323D01*
X008464Y006323D01*
X008680Y006539D01*
X008874Y006775D01*
X009043Y007028D01*
X009187Y007297D01*
X009304Y007579D01*
X009392Y007871D01*
X009452Y008170D01*
X009477Y008423D01*
X009482Y008428D01*
X009482Y008627D01*
X010727Y008627D01*
X010727Y008785D02*
X009482Y008785D01*
X009482Y008627D02*
X009482Y027928D01*
X009482Y028127D01*
X009483Y028155D01*
X009491Y028211D01*
X009506Y028265D01*
X009530Y028316D01*
X009560Y028363D01*
X009597Y028406D01*
X009640Y028443D01*
X009687Y028473D01*
X009739Y028497D01*
X009793Y028513D01*
X009848Y028521D01*
X009877Y028522D01*
X009905Y028521D01*
X009961Y028513D01*
X010015Y028497D01*
X010066Y028473D01*
X010113Y028443D01*
X010156Y028406D01*
X010193Y028363D01*
X010223Y028316D01*
X010247Y028265D01*
X010263Y028211D01*
X010271Y028155D01*
X010272Y028127D01*
X010272Y028127D01*
X010272Y010169D01*
X010088Y009986D01*
X010088Y009142D01*
X010322Y008908D01*
X010727Y008908D01*
X010727Y008129D01*
X011254Y007602D01*
X011439Y007416D01*
X011439Y005564D01*
X009814Y005564D01*
X009814Y002330D01*
X002330Y002330D01*
X002330Y029762D01*
X003272Y029762D01*
X003272Y029713D02*
X002330Y029713D01*
X002330Y029555D02*
X003272Y029555D01*
X003272Y029396D02*
X002330Y029396D01*
X002330Y029238D02*
X003272Y029238D01*
X003272Y029079D02*
X002330Y029079D01*
X002330Y028920D02*
X003272Y028920D01*
X003272Y028762D02*
X002330Y028762D01*
X002330Y028603D02*
X003272Y028603D01*
X003272Y028445D02*
X002330Y028445D01*
X002330Y028286D02*
X003272Y028286D01*
X003272Y028128D02*
X002330Y028128D01*
X002330Y027969D02*
X003272Y027969D01*
X003272Y027811D02*
X002330Y027811D01*
X002330Y027652D02*
X003272Y027652D01*
X003272Y027494D02*
X002330Y027494D01*
X002330Y027335D02*
X003272Y027335D01*
X003272Y027176D02*
X002330Y027176D01*
X002330Y027018D02*
X003272Y027018D01*
X003272Y026859D02*
X002330Y026859D01*
X002330Y026701D02*
X003272Y026701D01*
X003272Y026542D02*
X002330Y026542D01*
X002330Y026384D02*
X003272Y026384D01*
X003272Y026225D02*
X002330Y026225D01*
X002330Y026067D02*
X003272Y026067D01*
X003272Y025908D02*
X002330Y025908D01*
X002330Y025750D02*
X003272Y025750D01*
X003272Y025591D02*
X002330Y025591D01*
X002330Y025432D02*
X003272Y025432D01*
X003272Y025274D02*
X002330Y025274D01*
X002330Y025115D02*
X003272Y025115D01*
X003272Y024957D02*
X002330Y024957D01*
X002330Y024798D02*
X003272Y024798D01*
X003272Y024640D02*
X002330Y024640D01*
X002330Y024481D02*
X003272Y024481D01*
X003272Y024323D02*
X002330Y024323D01*
X002330Y024164D02*
X003272Y024164D01*
X003272Y024006D02*
X002330Y024006D01*
X002330Y023847D02*
X003272Y023847D01*
X003272Y023689D02*
X002330Y023689D01*
X002330Y023530D02*
X003272Y023530D01*
X003272Y023371D02*
X002330Y023371D01*
X002330Y023213D02*
X003272Y023213D01*
X003272Y023054D02*
X002330Y023054D01*
X002330Y022896D02*
X003272Y022896D01*
X003272Y022737D02*
X002330Y022737D01*
X002330Y022579D02*
X003272Y022579D01*
X003272Y022420D02*
X002330Y022420D01*
X002330Y022262D02*
X003272Y022262D01*
X003272Y022103D02*
X002330Y022103D01*
X002330Y021945D02*
X003272Y021945D01*
X003272Y021786D02*
X002330Y021786D01*
X002330Y021627D02*
X003272Y021627D01*
X003272Y021469D02*
X002330Y021469D01*
X002330Y021310D02*
X003272Y021310D01*
X003272Y021152D02*
X002330Y021152D01*
X002330Y020993D02*
X003272Y020993D01*
X003272Y020835D02*
X002330Y020835D01*
X002330Y020676D02*
X003272Y020676D01*
X003272Y020518D02*
X002330Y020518D01*
X002330Y020359D02*
X003272Y020359D01*
X003272Y020201D02*
X002330Y020201D01*
X002330Y020042D02*
X003272Y020042D01*
X003272Y019883D02*
X002330Y019883D01*
X002330Y019725D02*
X003272Y019725D01*
X003272Y019566D02*
X002330Y019566D01*
X002330Y019408D02*
X003272Y019408D01*
X003272Y019249D02*
X002330Y019249D01*
X002330Y019091D02*
X003272Y019091D01*
X003272Y018932D02*
X002330Y018932D01*
X002330Y018774D02*
X003272Y018774D01*
X003272Y018615D02*
X002330Y018615D01*
X002330Y018457D02*
X003272Y018457D01*
X003272Y018298D02*
X002330Y018298D01*
X002330Y018139D02*
X003272Y018139D01*
X003272Y017981D02*
X002330Y017981D01*
X002330Y017822D02*
X003272Y017822D01*
X003272Y017664D02*
X002330Y017664D01*
X002330Y017505D02*
X003272Y017505D01*
X003272Y017347D02*
X002330Y017347D01*
X002330Y017188D02*
X003272Y017188D01*
X003272Y017030D02*
X002330Y017030D01*
X002330Y016871D02*
X003272Y016871D01*
X003272Y016713D02*
X002330Y016713D01*
X002330Y016554D02*
X003272Y016554D01*
X003272Y016396D02*
X002330Y016396D01*
X002330Y016237D02*
X003272Y016237D01*
X003272Y016078D02*
X002330Y016078D01*
X002330Y015920D02*
X003272Y015920D01*
X003272Y015761D02*
X002330Y015761D01*
X002330Y015603D02*
X003272Y015603D01*
X003272Y015444D02*
X002330Y015444D01*
X002330Y015286D02*
X003272Y015286D01*
X003272Y015127D02*
X002330Y015127D01*
X002330Y014969D02*
X003272Y014969D01*
X003272Y014810D02*
X002330Y014810D01*
X002330Y014652D02*
X003272Y014652D01*
X003272Y014493D02*
X002330Y014493D01*
X002330Y014334D02*
X003272Y014334D01*
X003272Y014176D02*
X002330Y014176D01*
X002330Y014017D02*
X003272Y014017D01*
X003272Y013859D02*
X002330Y013859D01*
X002330Y013700D02*
X003272Y013700D01*
X003272Y013542D02*
X002330Y013542D01*
X002330Y013383D02*
X003272Y013383D01*
X003272Y013225D02*
X002330Y013225D01*
X002330Y013066D02*
X003272Y013066D01*
X003272Y012908D02*
X002330Y012908D01*
X002330Y012749D02*
X003272Y012749D01*
X003272Y012590D02*
X002330Y012590D01*
X002330Y012432D02*
X003272Y012432D01*
X003272Y012273D02*
X002330Y012273D01*
X002330Y012115D02*
X003272Y012115D01*
X003272Y011956D02*
X002330Y011956D01*
X002330Y011798D02*
X003272Y011798D01*
X003272Y011639D02*
X002330Y011639D01*
X002330Y011481D02*
X003272Y011481D01*
X003272Y011322D02*
X002330Y011322D01*
X002330Y011164D02*
X003272Y011164D01*
X003272Y011005D02*
X002330Y011005D01*
X002330Y010846D02*
X003272Y010846D01*
X003272Y010688D02*
X002330Y010688D01*
X002330Y010529D02*
X003272Y010529D01*
X003272Y010371D02*
X002330Y010371D01*
X002330Y010212D02*
X003272Y010212D01*
X003272Y010054D02*
X002330Y010054D01*
X002330Y009895D02*
X003272Y009895D01*
X003272Y009737D02*
X002330Y009737D01*
X002330Y009578D02*
X003272Y009578D01*
X003272Y009420D02*
X002330Y009420D01*
X002330Y009261D02*
X003272Y009261D01*
X003272Y009103D02*
X002330Y009103D01*
X002330Y008944D02*
X003272Y008944D01*
X003272Y008468D02*
X002330Y008468D01*
X002330Y008310D02*
X003288Y008310D01*
X003302Y008170D02*
X003302Y008170D01*
X003305Y008151D02*
X002330Y008151D01*
X002330Y007993D02*
X003337Y007993D01*
X003361Y007871D02*
X003361Y007871D01*
X003372Y007834D02*
X002330Y007834D01*
X002330Y007676D02*
X003420Y007676D01*
X003450Y007579D02*
X003450Y007579D01*
X003475Y007517D02*
X002330Y007517D01*
X002330Y007359D02*
X003541Y007359D01*
X003566Y007297D02*
X003566Y007297D01*
X003618Y007200D02*
X002330Y007200D01*
X002330Y007041D02*
X003703Y007041D01*
X003710Y007028D02*
X003710Y007028D01*
X003807Y006883D02*
X002330Y006883D01*
X002330Y006724D02*
X003921Y006724D01*
X003880Y006775D02*
X003880Y006775D01*
X004051Y006566D02*
X002330Y006566D01*
X002330Y006407D02*
X004205Y006407D01*
X004289Y006323D02*
X004289Y006323D01*
X004380Y006249D02*
X002330Y006249D01*
X002330Y006090D02*
X004584Y006090D01*
X004525Y006130D02*
X004525Y006130D01*
X004832Y005932D02*
X002330Y005932D01*
X002330Y005773D02*
X005152Y005773D01*
X005048Y005816D02*
X005047Y005816D01*
X005610Y005615D02*
X002330Y005615D01*
X002330Y005456D02*
X009814Y005456D01*
X009814Y005297D02*
X002330Y005297D01*
X002330Y005139D02*
X009814Y005139D01*
X009689Y005064D02*
X008939Y005064D01*
X008939Y002814D01*
X009689Y002814D01*
X009814Y002939D01*
X009814Y004939D01*
X009689Y005064D01*
X009773Y004980D02*
X008939Y004980D01*
X008939Y004822D02*
X009814Y004822D01*
X006226Y004822D01*
X006129Y004918D02*
X006034Y005013D01*
X005649Y005013D01*
X005459Y005013D01*
X005186Y004741D01*
X005091Y004646D01*
X005091Y004261D01*
X005091Y003976D01*
X005091Y003811D01*
X005091Y003642D01*
X004901Y003452D01*
X004901Y002686D01*
X005174Y002414D01*
X005559Y002414D01*
X005749Y002604D01*
X006129Y002604D01*
X006402Y002877D01*
X006402Y003262D01*
X006319Y003344D01*
X006402Y003426D01*
X006402Y003785D01*
X006592Y003976D01*
X006592Y004361D01*
X006402Y004551D01*
X006402Y004646D01*
X006129Y004918D01*
X006067Y004980D02*
X009814Y004980D01*
X009814Y004663D02*
X008939Y004663D01*
X008939Y004505D02*
X009814Y004505D01*
X006448Y004505D01*
X006384Y004663D02*
X009814Y004663D01*
X009814Y004346D02*
X008939Y004346D01*
X008939Y004188D02*
X009814Y004188D01*
X006592Y004188D01*
X006592Y004346D02*
X009814Y004346D01*
X009814Y004029D02*
X008939Y004029D01*
X008939Y003871D02*
X009814Y003871D01*
X006487Y003871D01*
X006402Y003712D02*
X009814Y003712D01*
X008939Y003712D01*
X008939Y003554D02*
X009814Y003554D01*
X006402Y003554D01*
X006370Y003395D02*
X009814Y003395D01*
X008939Y003395D01*
X008939Y003236D02*
X009814Y003236D01*
X006402Y003236D01*
X006402Y003078D02*
X009814Y003078D01*
X008939Y003078D01*
X008939Y002919D02*
X009794Y002919D01*
X009814Y002919D02*
X006402Y002919D01*
X006286Y002761D02*
X009814Y002761D01*
X009814Y002602D02*
X005747Y002602D01*
X005588Y002444D02*
X009814Y002444D01*
X010314Y002814D02*
X010814Y002314D01*
X018377Y002314D01*
X018377Y002939D01*
X012064Y002939D01*
X011439Y003564D01*
X011439Y005064D01*
X010314Y005064D01*
X010314Y002814D01*
X010367Y002761D02*
X018377Y002761D01*
X018377Y002919D02*
X010314Y002919D01*
X010314Y003078D02*
X011925Y003078D01*
X011767Y003236D02*
X010314Y003236D01*
X010314Y003395D02*
X011608Y003395D01*
X011450Y003554D02*
X010314Y003554D01*
X010314Y003712D02*
X011439Y003712D01*
X011439Y003871D02*
X010314Y003871D01*
X010314Y004029D02*
X011439Y004029D01*
X011439Y004188D02*
X010314Y004188D01*
X010314Y004346D02*
X011439Y004346D01*
X011439Y004505D02*
X010314Y004505D01*
X010314Y004663D02*
X011439Y004663D01*
X011439Y004822D02*
X010314Y004822D01*
X010314Y004980D02*
X011439Y004980D01*
X011439Y005615D02*
X007144Y005615D01*
X007132Y005611D02*
X007132Y005611D01*
X007424Y005700D02*
X007424Y005700D01*
X007601Y005773D02*
X011439Y005773D01*
X011439Y005932D02*
X007921Y005932D01*
X007975Y005960D02*
X007975Y005960D01*
X008169Y006090D02*
X011439Y006090D01*
X011439Y006249D02*
X008374Y006249D01*
X008229Y006130D02*
X008228Y006130D01*
X008548Y006407D02*
X011439Y006407D01*
X011439Y006566D02*
X008702Y006566D01*
X008680Y006539D02*
X008680Y006539D01*
X008832Y006724D02*
X011439Y006724D01*
X011439Y006883D02*
X008946Y006883D01*
X009050Y007041D02*
X011439Y007041D01*
X011439Y007200D02*
X009135Y007200D01*
X009212Y007359D02*
X011439Y007359D01*
X011338Y007517D02*
X009278Y007517D01*
X009333Y007676D02*
X011180Y007676D01*
X011254Y007602D02*
X011254Y007602D01*
X011021Y007834D02*
X009381Y007834D01*
X009416Y007993D02*
X010863Y007993D01*
X010727Y008151D02*
X009448Y008151D01*
X009465Y008310D02*
X010727Y008310D01*
X010727Y008468D02*
X009482Y008468D01*
X009482Y008944D02*
X010286Y008944D01*
X010128Y009103D02*
X009482Y009103D01*
X009482Y009261D02*
X010088Y009261D01*
X010088Y009420D02*
X009482Y009420D01*
X009482Y009578D02*
X010088Y009578D01*
X010088Y009737D02*
X009482Y009737D01*
X009482Y009895D02*
X010088Y009895D01*
X010156Y010054D02*
X009482Y010054D01*
X009482Y010212D02*
X010272Y010212D01*
X010272Y010371D02*
X009482Y010371D01*
X009482Y010529D02*
X010272Y010529D01*
X010272Y010688D02*
X009482Y010688D01*
X009482Y010846D02*
X010272Y010846D01*
X010272Y011005D02*
X009482Y011005D01*
X009482Y011164D02*
X010272Y011164D01*
X010272Y011322D02*
X009482Y011322D01*
X009482Y011481D02*
X010272Y011481D01*
X010272Y011639D02*
X009482Y011639D01*
X009482Y011798D02*
X010272Y011798D01*
X010272Y011956D02*
X009482Y011956D01*
X009482Y012115D02*
X010272Y012115D01*
X010272Y012273D02*
X009482Y012273D01*
X009482Y012432D02*
X010272Y012432D01*
X010272Y012590D02*
X009482Y012590D01*
X009482Y012749D02*
X010272Y012749D01*
X010272Y012908D02*
X009482Y012908D01*
X009482Y013066D02*
X010272Y013066D01*
X010272Y013225D02*
X009482Y013225D01*
X009482Y013383D02*
X010272Y013383D01*
X010272Y013542D02*
X009482Y013542D01*
X009482Y013700D02*
X010272Y013700D01*
X010272Y013859D02*
X009482Y013859D01*
X009482Y014017D02*
X010272Y014017D01*
X010272Y014176D02*
X009482Y014176D01*
X009482Y014334D02*
X010272Y014334D01*
X010272Y014493D02*
X009482Y014493D01*
X009482Y014652D02*
X010272Y014652D01*
X010272Y014810D02*
X009482Y014810D01*
X009482Y014969D02*
X010272Y014969D01*
X010272Y015127D02*
X009482Y015127D01*
X009482Y015286D02*
X010272Y015286D01*
X010272Y015444D02*
X009482Y015444D01*
X009482Y015603D02*
X010272Y015603D01*
X010272Y015761D02*
X009482Y015761D01*
X009482Y015920D02*
X010272Y015920D01*
X010272Y016078D02*
X009482Y016078D01*
X009482Y016237D02*
X010272Y016237D01*
X010272Y016396D02*
X009482Y016396D01*
X009482Y016554D02*
X010272Y016554D01*
X010272Y016713D02*
X009482Y016713D01*
X009482Y016871D02*
X010272Y016871D01*
X010272Y017030D02*
X009482Y017030D01*
X009482Y017188D02*
X010272Y017188D01*
X010272Y017347D02*
X009482Y017347D01*
X009482Y017505D02*
X010272Y017505D01*
X010272Y017664D02*
X009482Y017664D01*
X009482Y017822D02*
X010272Y017822D01*
X010272Y017981D02*
X009482Y017981D01*
X009482Y018139D02*
X010272Y018139D01*
X010272Y018298D02*
X009482Y018298D01*
X009482Y018457D02*
X010272Y018457D01*
X010272Y018615D02*
X009482Y018615D01*
X009482Y018774D02*
X010272Y018774D01*
X010272Y018932D02*
X009482Y018932D01*
X009482Y019091D02*
X010272Y019091D01*
X010272Y019249D02*
X009482Y019249D01*
X009482Y019408D02*
X010272Y019408D01*
X010272Y019566D02*
X009482Y019566D01*
X009482Y019725D02*
X010272Y019725D01*
X010272Y019883D02*
X009482Y019883D01*
X009482Y020042D02*
X010272Y020042D01*
X010272Y020201D02*
X009482Y020201D01*
X009482Y020359D02*
X010272Y020359D01*
X010272Y020518D02*
X009482Y020518D01*
X009482Y020676D02*
X010272Y020676D01*
X010272Y020835D02*
X009482Y020835D01*
X009482Y020993D02*
X010272Y020993D01*
X010272Y021152D02*
X009482Y021152D01*
X009482Y021310D02*
X010272Y021310D01*
X010272Y021469D02*
X009482Y021469D01*
X009482Y021627D02*
X010272Y021627D01*
X010272Y021786D02*
X009482Y021786D01*
X009482Y021945D02*
X010272Y021945D01*
X010272Y022103D02*
X009482Y022103D01*
X009482Y022262D02*
X010272Y022262D01*
X010272Y022420D02*
X009482Y022420D01*
X009482Y022579D02*
X010272Y022579D01*
X010272Y022737D02*
X009482Y022737D01*
X009482Y022896D02*
X010272Y022896D01*
X010272Y023054D02*
X009482Y023054D01*
X009482Y023213D02*
X010272Y023213D01*
X010272Y023371D02*
X009482Y023371D01*
X009482Y023530D02*
X010272Y023530D01*
X010272Y023689D02*
X009482Y023689D01*
X009482Y023847D02*
X010272Y023847D01*
X010272Y024006D02*
X009482Y024006D01*
X009482Y024164D02*
X010272Y024164D01*
X010272Y024323D02*
X009482Y024323D01*
X009482Y024481D02*
X010272Y024481D01*
X010272Y024640D02*
X009482Y024640D01*
X009482Y024798D02*
X010272Y024798D01*
X010272Y024957D02*
X009482Y024957D01*
X009482Y025115D02*
X010272Y025115D01*
X010272Y025274D02*
X009482Y025274D01*
X009482Y025432D02*
X010272Y025432D01*
X010272Y025591D02*
X009482Y025591D01*
X009482Y025750D02*
X010272Y025750D01*
X010272Y025908D02*
X009482Y025908D01*
X009482Y026067D02*
X010272Y026067D01*
X010272Y026225D02*
X009482Y026225D01*
X009482Y026384D02*
X010272Y026384D01*
X010272Y026542D02*
X009482Y026542D01*
X009482Y026701D02*
X010272Y026701D01*
X010272Y026859D02*
X009482Y026859D01*
X009482Y027018D02*
X010272Y027018D01*
X010272Y027176D02*
X009482Y027176D01*
X009482Y027335D02*
X010272Y027335D01*
X010272Y027494D02*
X009482Y027494D01*
X009482Y027652D02*
X010272Y027652D01*
X010272Y027811D02*
X009482Y027811D01*
X009482Y027928D02*
X009482Y027928D01*
X009482Y027969D02*
X010272Y027969D01*
X010272Y028128D02*
X009482Y028128D01*
X009516Y028286D02*
X010237Y028286D01*
X010110Y028445D02*
X009643Y028445D01*
X009877Y028522D02*
X009877Y028522D01*
X009877Y030752D02*
X009978Y030750D01*
X010078Y030744D01*
X010178Y030735D01*
X010278Y030721D01*
X010377Y030704D01*
X010475Y030683D01*
X010573Y030658D01*
X010669Y030630D01*
X010764Y030597D01*
X010858Y030562D01*
X010951Y030522D01*
X011042Y030479D01*
X011131Y030433D01*
X011218Y030383D01*
X011304Y030330D01*
X011387Y030274D01*
X011468Y030215D01*
X011547Y030152D01*
X011623Y030087D01*
X011697Y030018D01*
X011768Y029947D01*
X011837Y029873D01*
X011902Y029797D01*
X011965Y029718D01*
X012024Y029637D01*
X012080Y029554D01*
X012133Y029468D01*
X012183Y029381D01*
X012229Y029292D01*
X012272Y029201D01*
X012312Y029108D01*
X012347Y029014D01*
X012380Y028919D01*
X012408Y028823D01*
X012433Y028725D01*
X012454Y028627D01*
X012471Y028528D01*
X012485Y028428D01*
X012494Y028328D01*
X012500Y028228D01*
X012502Y028127D01*
X012502Y009627D01*
X012689Y009627D01*
X012770Y009689D01*
X013285Y009737D02*
X013593Y009737D01*
X013593Y009895D02*
X013285Y009895D01*
X013285Y010054D02*
X013593Y010054D01*
X013593Y010174D02*
X013593Y009204D01*
X013722Y009075D01*
X014495Y009075D01*
X014624Y009204D01*
X014624Y009901D01*
X014981Y009901D01*
X015110Y010030D01*
X015110Y010724D01*
X014981Y010852D01*
X014524Y010852D01*
X014523Y010852D01*
X014523Y011036D01*
X014394Y011165D01*
X013857Y011165D01*
X013729Y011036D01*
X013729Y010342D01*
X013768Y010303D01*
X013722Y010303D01*
X013593Y010174D01*
X013632Y010212D02*
X013247Y010212D01*
X013127Y010371D02*
X013729Y010371D01*
X013729Y010529D02*
X013127Y010529D01*
X012982Y010529D01*
X012982Y010688D02*
X013127Y010688D01*
X013729Y010688D01*
X013729Y010846D02*
X013127Y010846D01*
X012982Y010846D01*
X012982Y011005D02*
X013127Y011005D01*
X013729Y011005D01*
X013856Y011164D02*
X013127Y011164D01*
X012982Y011164D01*
X012982Y011322D02*
X013127Y011322D01*
X015143Y011322D01*
X015143Y011164D02*
X014395Y011164D01*
X014523Y011005D02*
X015167Y011005D01*
X015201Y010846D02*
X014987Y010846D01*
X015110Y010688D02*
X015143Y010688D01*
X015143Y010529D02*
X015110Y010529D01*
X015110Y010371D02*
X015143Y010371D01*
X015143Y010212D02*
X015110Y010212D01*
X015110Y010054D02*
X015143Y010054D01*
X015575Y009895D02*
X014624Y009895D01*
X014624Y009737D02*
X015575Y009737D01*
X015575Y009578D02*
X014624Y009578D01*
X014624Y009420D02*
X015628Y009420D01*
X015613Y008944D02*
X013127Y008944D01*
X013127Y008895D02*
X012527Y008895D01*
X012527Y008874D01*
X013127Y008274D01*
X013127Y008895D01*
X013127Y008785D02*
X015575Y008785D01*
X015575Y008627D02*
X013127Y008627D01*
X012774Y008627D01*
X012615Y008785D02*
X013127Y008785D01*
X013127Y008468D02*
X012933Y008468D01*
X013127Y008468D02*
X015575Y008468D01*
X016189Y008520D02*
X016858Y008520D01*
X017064Y008502D01*
X017064Y008549D01*
X017127Y008487D01*
X017127Y009252D01*
X017127Y009252D01*
X017145Y009252D01*
X017145Y009314D01*
X017660Y009261D02*
X019127Y009261D01*
X019127Y009103D02*
X017660Y009103D01*
X017752Y009103D02*
X021127Y009103D01*
X021127Y009261D02*
X017752Y009261D01*
X017752Y009420D02*
X021127Y009420D01*
X021127Y009578D02*
X017752Y009578D01*
X017660Y009578D02*
X019127Y009578D01*
X019127Y009420D02*
X017660Y009420D01*
X017660Y009737D02*
X019127Y009737D01*
X019127Y009895D02*
X017564Y009895D01*
X017752Y009895D02*
X021127Y009895D01*
X021127Y009737D02*
X017752Y009737D01*
X017752Y010054D02*
X021127Y010054D01*
X021127Y010212D02*
X017752Y010212D01*
X017752Y010371D02*
X021127Y010371D01*
X021127Y010529D02*
X017752Y010529D01*
X017752Y010688D02*
X019284Y010688D01*
X019127Y010688D02*
X017413Y010688D01*
X017413Y010529D02*
X019127Y010529D01*
X019127Y010371D02*
X017413Y010371D01*
X017413Y010212D02*
X019127Y010212D01*
X019127Y010054D02*
X017413Y010054D01*
X017016Y010314D02*
X016314Y010314D01*
X016252Y010377D01*
X016252Y010378D01*
X016189Y010565D01*
X016189Y010377D01*
X016252Y010314D01*
X016189Y010252D01*
X016189Y009858D01*
X016629Y009261D02*
X014624Y009261D01*
X014522Y009103D02*
X016629Y009103D01*
X017660Y008944D02*
X019127Y008944D01*
X019127Y008785D02*
X017631Y008785D01*
X017752Y008785D02*
X021127Y008785D01*
X021127Y008627D02*
X017752Y008627D01*
X017662Y008627D02*
X019127Y008627D01*
X019127Y008468D02*
X017662Y008468D01*
X017752Y008468D02*
X021127Y008468D01*
X021127Y008310D02*
X017752Y008310D01*
X017752Y008151D02*
X021127Y008151D01*
X021127Y007993D02*
X017752Y007993D01*
X017752Y007834D02*
X021127Y007834D01*
X021127Y007676D02*
X017752Y007676D01*
X017752Y007517D02*
X021127Y007517D01*
X021127Y007359D02*
X017752Y007359D01*
X017752Y007200D02*
X021127Y007200D01*
X021127Y007041D02*
X017752Y007041D01*
X017752Y006883D02*
X021127Y006883D01*
X021127Y006724D02*
X017752Y006724D01*
X017752Y006566D02*
X021066Y006566D01*
X021499Y006249D02*
X022814Y006249D01*
X022814Y006407D02*
X021627Y006407D01*
X021627Y006377D02*
X021627Y010502D01*
X022002Y010502D01*
X022002Y009314D01*
X022314Y009002D01*
X022814Y009002D01*
X022814Y005814D01*
X022439Y005439D01*
X019252Y005439D01*
X019252Y006127D01*
X021377Y006127D01*
X021627Y006377D01*
X021627Y006566D02*
X022814Y006566D01*
X022814Y006724D02*
X021627Y006724D01*
X021627Y006883D02*
X022814Y006883D01*
X022814Y007041D02*
X021627Y007041D01*
X021627Y007200D02*
X022814Y007200D01*
X022814Y007359D02*
X021627Y007359D01*
X021627Y007517D02*
X022814Y007517D01*
X022814Y007676D02*
X021627Y007676D01*
X021627Y007834D02*
X022814Y007834D01*
X022814Y007993D02*
X021627Y007993D01*
X021627Y008151D02*
X022814Y008151D01*
X022814Y008310D02*
X021627Y008310D01*
X021627Y008468D02*
X022814Y008468D01*
X022814Y008627D02*
X021627Y008627D01*
X021627Y008785D02*
X022814Y008785D01*
X022814Y008944D02*
X021627Y008944D01*
X021627Y009103D02*
X022213Y009103D01*
X022055Y009261D02*
X021627Y009261D01*
X021627Y009420D02*
X022002Y009420D01*
X022002Y009578D02*
X021627Y009578D01*
X021627Y009737D02*
X022002Y009737D01*
X022002Y009895D02*
X021627Y009895D01*
X021627Y010054D02*
X022002Y010054D01*
X022002Y010212D02*
X021627Y010212D01*
X021627Y010371D02*
X022002Y010371D01*
X021127Y008944D02*
X017752Y008944D01*
X016314Y007752D02*
X016314Y005564D01*
X015939Y005189D01*
X015939Y004502D01*
X015627Y004502D01*
X015502Y004627D01*
X015502Y007627D01*
X015627Y007752D01*
X016314Y007752D01*
X016314Y007676D02*
X015551Y007676D01*
X015502Y007517D02*
X016314Y007517D01*
X016314Y007359D02*
X015502Y007359D01*
X015502Y007200D02*
X016314Y007200D01*
X016314Y007041D02*
X015502Y007041D01*
X015502Y006883D02*
X016314Y006883D01*
X016314Y006724D02*
X015502Y006724D01*
X015502Y006566D02*
X016314Y006566D01*
X016314Y006407D02*
X015502Y006407D01*
X015502Y006249D02*
X016314Y006249D01*
X016314Y006090D02*
X015502Y006090D01*
X015502Y005932D02*
X016314Y005932D01*
X016314Y005773D02*
X015502Y005773D01*
X015502Y005615D02*
X016314Y005615D01*
X016206Y005456D02*
X015502Y005456D01*
X015502Y005297D02*
X016047Y005297D01*
X015939Y005139D02*
X015502Y005139D01*
X015502Y004980D02*
X015939Y004980D01*
X015939Y004822D02*
X015502Y004822D01*
X015502Y004663D02*
X015939Y004663D01*
X015939Y004505D02*
X015624Y004505D01*
X015952Y003702D02*
X017127Y004877D01*
X017127Y006939D01*
X017127Y007266D01*
X017127Y006939D02*
X017127Y006939D01*
X019252Y006090D02*
X022814Y006090D01*
X022814Y005932D02*
X019252Y005932D01*
X019252Y005773D02*
X022773Y005773D01*
X022615Y005615D02*
X019252Y005615D01*
X019252Y005456D02*
X022456Y005456D01*
X026064Y005456D02*
X028314Y005456D01*
X028314Y005297D02*
X026064Y005297D01*
X026064Y005139D02*
X028314Y005139D01*
X028314Y004980D02*
X026064Y004980D01*
X026064Y004822D02*
X028314Y004822D01*
X028314Y004663D02*
X026064Y004663D01*
X026064Y004505D02*
X028314Y004505D01*
X028314Y004346D02*
X026064Y004346D01*
X026064Y004188D02*
X028314Y004188D01*
X028314Y004029D02*
X026064Y004029D01*
X026064Y003871D02*
X028314Y003871D01*
X028314Y003752D02*
X028877Y003189D01*
X030689Y003189D01*
X031252Y003752D01*
X031252Y005939D01*
X031627Y005939D01*
X031627Y003502D01*
X030877Y002752D01*
X028627Y002752D01*
X027689Y003689D01*
X026064Y003689D01*
X026064Y006189D01*
X026752Y006189D01*
X027002Y005939D01*
X028314Y005939D01*
X028314Y003752D01*
X028354Y003712D02*
X026064Y003712D01*
X026439Y003189D02*
X027564Y003189D01*
X027689Y003064D01*
X027689Y002439D01*
X026314Y002439D01*
X026314Y003064D01*
X026439Y003189D01*
X026328Y003078D02*
X027675Y003078D01*
X027689Y002919D02*
X026314Y002919D01*
X026314Y002761D02*
X027689Y002761D01*
X027689Y002602D02*
X026314Y002602D01*
X026314Y002444D02*
X027689Y002444D01*
X028300Y003078D02*
X031203Y003078D01*
X031361Y003236D02*
X030736Y003236D01*
X030895Y003395D02*
X031520Y003395D01*
X031627Y003554D02*
X031054Y003554D01*
X031212Y003712D02*
X031627Y003712D01*
X031627Y003871D02*
X031252Y003871D01*
X031252Y004029D02*
X031627Y004029D01*
X031627Y004188D02*
X031252Y004188D01*
X031252Y004346D02*
X031627Y004346D01*
X031627Y004505D02*
X031252Y004505D01*
X031252Y004663D02*
X031627Y004663D01*
X031627Y004822D02*
X031252Y004822D01*
X031252Y004980D02*
X031627Y004980D01*
X031627Y005139D02*
X031252Y005139D01*
X031252Y005297D02*
X031627Y005297D01*
X031627Y005456D02*
X031252Y005456D01*
X031252Y005615D02*
X031627Y005615D01*
X031627Y005773D02*
X031252Y005773D01*
X031252Y005932D02*
X031627Y005932D01*
X032002Y005932D02*
X034432Y005932D01*
X034377Y005877D02*
X032002Y005877D01*
X032002Y006314D01*
X031814Y006502D01*
X031814Y007189D01*
X033377Y007189D01*
X033877Y007689D01*
X033877Y012502D01*
X035877Y012502D01*
X035877Y007377D01*
X034377Y005877D01*
X034590Y006090D02*
X032002Y006090D01*
X032002Y006249D02*
X034749Y006249D01*
X034907Y006407D02*
X031908Y006407D01*
X031814Y006566D02*
X035066Y006566D01*
X035224Y006724D02*
X031814Y006724D01*
X031814Y006883D02*
X035383Y006883D01*
X035541Y007041D02*
X031814Y007041D01*
X030752Y007041D02*
X028877Y007041D01*
X028877Y007189D02*
X028877Y006502D01*
X029314Y006064D01*
X029314Y003627D01*
X030252Y003627D01*
X030252Y006002D01*
X030752Y006502D01*
X030752Y007189D01*
X028877Y007189D01*
X028877Y006883D02*
X030752Y006883D01*
X030752Y006724D02*
X028877Y006724D01*
X028877Y006566D02*
X030752Y006566D01*
X030657Y006407D02*
X028971Y006407D01*
X029130Y006249D02*
X030499Y006249D01*
X030340Y006090D02*
X029288Y006090D01*
X029314Y005932D02*
X030252Y005932D01*
X030252Y005773D02*
X029314Y005773D01*
X029314Y005615D02*
X030252Y005615D01*
X030252Y005456D02*
X029314Y005456D01*
X029314Y005297D02*
X030252Y005297D01*
X030252Y005139D02*
X029314Y005139D01*
X029314Y004980D02*
X030252Y004980D01*
X030252Y004822D02*
X029314Y004822D01*
X029314Y004663D02*
X030252Y004663D01*
X030252Y004505D02*
X029314Y004505D01*
X029314Y004346D02*
X030252Y004346D01*
X030252Y004188D02*
X029314Y004188D01*
X029314Y004029D02*
X030252Y004029D01*
X030252Y003871D02*
X029314Y003871D01*
X029314Y003712D02*
X030252Y003712D01*
X031044Y002919D02*
X028459Y002919D01*
X028617Y002761D02*
X030886Y002761D01*
X032064Y004502D02*
X032064Y005252D01*
X032189Y005377D01*
X034314Y005377D01*
X034439Y005252D01*
X034439Y004502D01*
X032064Y004502D01*
X032064Y004505D02*
X034439Y004505D01*
X034439Y004663D02*
X032064Y004663D01*
X032064Y004822D02*
X034439Y004822D01*
X034439Y004980D02*
X032064Y004980D01*
X032064Y005139D02*
X034439Y005139D01*
X034393Y005297D02*
X032110Y005297D01*
X033387Y007200D02*
X035700Y007200D01*
X035859Y007359D02*
X033546Y007359D01*
X033705Y007517D02*
X035877Y007517D01*
X035877Y007676D02*
X033863Y007676D01*
X033877Y007834D02*
X035877Y007834D01*
X035877Y007993D02*
X033877Y007993D01*
X033877Y008151D02*
X035877Y008151D01*
X035877Y008310D02*
X033877Y008310D01*
X033877Y008468D02*
X035877Y008468D01*
X035877Y008627D02*
X033877Y008627D01*
X033877Y008785D02*
X035877Y008785D01*
X035877Y008944D02*
X033877Y008944D01*
X033877Y009103D02*
X035877Y009103D01*
X035877Y009261D02*
X033877Y009261D01*
X033877Y009420D02*
X035877Y009420D01*
X035877Y009578D02*
X033877Y009578D01*
X033877Y009737D02*
X035877Y009737D01*
X035877Y009895D02*
X033877Y009895D01*
X033877Y010054D02*
X035877Y010054D01*
X035877Y010212D02*
X033877Y010212D01*
X033877Y010371D02*
X035877Y010371D01*
X035877Y010529D02*
X033877Y010529D01*
X033877Y010688D02*
X035877Y010688D01*
X035877Y010846D02*
X033877Y010846D01*
X033877Y011005D02*
X035877Y011005D01*
X035877Y011164D02*
X033877Y011164D01*
X033877Y011322D02*
X035877Y011322D01*
X035877Y011481D02*
X033877Y011481D01*
X033877Y011639D02*
X035877Y011639D01*
X035877Y011798D02*
X033877Y011798D01*
X033877Y011956D02*
X035877Y011956D01*
X035877Y012115D02*
X033877Y012115D01*
X033877Y012273D02*
X035877Y012273D01*
X035877Y012432D02*
X033877Y012432D01*
X033702Y015286D02*
X028627Y015286D01*
X031252Y015286D01*
X031252Y015444D02*
X028627Y015444D01*
X033557Y015444D01*
X033557Y015603D02*
X028627Y015603D01*
X031252Y015603D01*
X031252Y015752D02*
X031252Y014377D01*
X028627Y014377D01*
X028627Y015627D01*
X028752Y015752D01*
X031252Y015752D01*
X031252Y015127D02*
X028627Y015127D01*
X037519Y015127D01*
X037519Y014969D02*
X028627Y014969D01*
X031252Y014969D01*
X031252Y014810D02*
X028627Y014810D01*
X037519Y014810D01*
X037519Y014652D02*
X028627Y014652D01*
X031252Y014652D01*
X031252Y014493D02*
X028627Y014493D01*
X037519Y014493D01*
X037519Y015286D02*
X036113Y015286D01*
X036259Y015444D02*
X037519Y015444D01*
X037519Y015603D02*
X036259Y015603D01*
X036259Y015761D02*
X037519Y015761D01*
X037519Y015920D02*
X036259Y015920D01*
X036259Y016078D02*
X037519Y016078D01*
X037519Y016237D02*
X036259Y016237D01*
X036259Y016396D02*
X037519Y016396D01*
X037519Y016554D02*
X036259Y016554D01*
X036259Y016713D02*
X037519Y016713D01*
X037519Y016871D02*
X036259Y016871D01*
X036357Y017030D02*
X037519Y017030D01*
X037519Y017188D02*
X036516Y017188D01*
X036674Y017347D02*
X037519Y017347D01*
X037519Y017505D02*
X036697Y017505D01*
X036697Y017664D02*
X037519Y017664D01*
X037519Y017822D02*
X036697Y017822D01*
X036697Y017981D02*
X037519Y017981D01*
X037519Y018139D02*
X036697Y018139D01*
X036697Y018298D02*
X037519Y018298D01*
X037519Y018457D02*
X036697Y018457D01*
X036697Y018615D02*
X037519Y018615D01*
X037519Y018774D02*
X036697Y018774D01*
X036697Y018932D02*
X037519Y018932D01*
X037519Y019091D02*
X036697Y019091D01*
X036727Y019249D02*
X037519Y019249D01*
X037519Y019408D02*
X037082Y019408D01*
X037241Y019566D02*
X037519Y019566D01*
X037519Y019725D02*
X037399Y019725D01*
X037427Y019883D02*
X037519Y019883D01*
X037519Y020042D02*
X037427Y020042D01*
X037427Y020201D02*
X037519Y020201D01*
X037519Y020359D02*
X037427Y020359D01*
X037427Y020518D02*
X037519Y020518D01*
X037519Y020676D02*
X037427Y020676D01*
X037427Y020835D02*
X037519Y020835D01*
X037519Y020993D02*
X037427Y020993D01*
X037427Y021152D02*
X037519Y021152D01*
X037519Y021310D02*
X037427Y021310D01*
X037427Y021469D02*
X037519Y021469D01*
X037519Y021627D02*
X037427Y021627D01*
X037427Y021786D02*
X037519Y021786D01*
X037519Y021945D02*
X037427Y021945D01*
X037427Y022103D02*
X037519Y022103D01*
X037519Y022262D02*
X037427Y022262D01*
X037427Y022420D02*
X037519Y022420D01*
X037519Y022579D02*
X037427Y022579D01*
X037427Y022737D02*
X037519Y022737D01*
X037519Y022896D02*
X037427Y022896D01*
X037427Y023054D02*
X037519Y023054D01*
X037519Y023213D02*
X037427Y023213D01*
X037427Y023371D02*
X037519Y023371D01*
X037519Y023530D02*
X037427Y023530D01*
X037427Y023689D02*
X037519Y023689D01*
X037519Y023847D02*
X037427Y023847D01*
X037427Y024006D02*
X037519Y024006D01*
X037519Y024164D02*
X037427Y024164D01*
X037427Y024323D02*
X037519Y024323D01*
X037519Y024481D02*
X037427Y024481D01*
X037427Y024640D02*
X037519Y024640D01*
X037517Y024640D02*
X037447Y024640D01*
X037447Y024798D02*
X037517Y024798D01*
X037519Y024798D02*
X037427Y024798D01*
X037427Y024957D02*
X037519Y024957D01*
X037517Y024957D02*
X037447Y024957D01*
X037447Y025115D02*
X037517Y025115D01*
X037519Y025115D02*
X037427Y025115D01*
X037427Y025274D02*
X037519Y025274D01*
X037517Y025274D02*
X037447Y025274D01*
X037447Y025432D02*
X037517Y025432D01*
X037519Y025432D02*
X037427Y025432D01*
X037427Y025591D02*
X037519Y025591D01*
X037517Y025591D02*
X037447Y025591D01*
X037447Y025750D02*
X037517Y025750D01*
X037519Y025750D02*
X037427Y025750D01*
X037427Y025908D02*
X037519Y025908D01*
X037517Y025908D02*
X037447Y025908D01*
X037447Y026067D02*
X037517Y026067D01*
X037519Y026067D02*
X037427Y026067D01*
X037427Y026225D02*
X037519Y026225D01*
X037517Y026225D02*
X037447Y026225D01*
X037447Y026384D02*
X037517Y026384D01*
X037519Y026384D02*
X037427Y026384D01*
X037427Y026542D02*
X037519Y026542D01*
X037517Y026542D02*
X037447Y026542D01*
X037447Y026701D02*
X037517Y026701D01*
X037519Y026701D02*
X037427Y026701D01*
X037427Y026859D02*
X037519Y026859D01*
X037517Y026859D02*
X037447Y026859D01*
X037447Y027018D02*
X037517Y027018D01*
X037519Y027018D02*
X037427Y027018D01*
X037427Y027176D02*
X037519Y027176D01*
X037517Y027176D02*
X037447Y027176D01*
X037447Y027335D02*
X037517Y027335D01*
X037519Y027335D02*
X037427Y027335D01*
X037427Y027494D02*
X037519Y027494D01*
X037517Y027494D02*
X037447Y027494D01*
X037447Y027652D02*
X037517Y027652D01*
X037519Y027652D02*
X037427Y027652D01*
X037427Y027811D02*
X037519Y027811D01*
X037517Y027811D02*
X037447Y027811D01*
X037447Y027969D02*
X037517Y027969D01*
X037519Y027969D02*
X037427Y027969D01*
X037427Y028128D02*
X037519Y028128D01*
X037517Y028128D02*
X037447Y028128D01*
X037447Y028286D02*
X037517Y028286D01*
X037519Y028286D02*
X037427Y028286D01*
X037427Y028445D02*
X037519Y028445D01*
X037517Y028445D02*
X037447Y028445D01*
X037447Y028603D02*
X037517Y028603D01*
X037519Y028603D02*
X037427Y028603D01*
X037427Y028762D02*
X037519Y028762D01*
X037517Y028762D02*
X037447Y028762D01*
X037447Y028920D02*
X037517Y028920D01*
X037519Y028920D02*
X037427Y028920D01*
X037427Y029079D02*
X037519Y029079D01*
X037517Y029079D02*
X037447Y029079D01*
X037447Y029238D02*
X037517Y029238D01*
X037519Y029238D02*
X037427Y029238D01*
X037427Y029396D02*
X037519Y029396D01*
X037517Y029396D02*
X037447Y029396D01*
X037447Y029555D02*
X037517Y029555D01*
X037519Y029555D02*
X037427Y029555D01*
X037427Y029713D02*
X037519Y029713D01*
X037517Y029713D02*
X037447Y029713D01*
X037447Y029872D02*
X037517Y029872D01*
X037519Y029872D02*
X037427Y029872D01*
X037427Y030030D02*
X037519Y030030D01*
X037517Y030030D02*
X037447Y030030D01*
X037447Y030189D02*
X037517Y030189D01*
X037519Y030189D02*
X037427Y030189D01*
X037427Y030347D02*
X037519Y030347D01*
X037517Y030347D02*
X037447Y030347D01*
X037447Y030506D02*
X037517Y030506D01*
X037519Y030506D02*
X037427Y030506D01*
X037427Y030664D02*
X037519Y030664D01*
X037517Y030664D02*
X037447Y030664D01*
X037447Y030823D02*
X037517Y030823D01*
X037519Y030823D02*
X037427Y030823D01*
X037427Y030981D02*
X037519Y030981D01*
X037517Y030981D02*
X037447Y030981D01*
X037446Y031009D02*
X037446Y031009D01*
X037426Y031001D02*
X037426Y031001D01*
X037517Y031140D02*
X037316Y031140D01*
X037287Y031140D02*
X037519Y031140D01*
X037519Y031299D02*
X037129Y031299D01*
X037157Y031299D02*
X037517Y031299D01*
X037519Y031457D02*
X036970Y031457D01*
X036999Y031457D02*
X037517Y031457D01*
X037519Y031616D02*
X036812Y031616D01*
X036840Y031616D02*
X037517Y031616D01*
X037519Y031774D02*
X036653Y031774D01*
X036681Y031774D02*
X037517Y031774D01*
X037519Y031933D02*
X036495Y031933D01*
X036523Y031933D02*
X037517Y031933D01*
X037519Y032091D02*
X036336Y032091D01*
X036364Y032091D02*
X037517Y032091D01*
X037519Y032250D02*
X036178Y032250D01*
X036206Y032250D02*
X037517Y032250D01*
X037259Y031197D02*
X037259Y031197D01*
X037251Y031177D02*
X037251Y031177D01*
X037127Y030877D02*
X037127Y019877D01*
X036877Y019627D01*
X035720Y019627D01*
X035814Y019627D01*
X035814Y019564D01*
X034127Y019564D01*
X029877Y023814D01*
X023752Y023814D01*
X023474Y023530D02*
X023007Y023530D01*
X023007Y023689D02*
X023374Y023689D01*
X023354Y023847D02*
X023007Y023847D01*
X023007Y024006D02*
X023401Y024006D01*
X023559Y024164D02*
X023007Y024164D01*
X022968Y024323D02*
X034682Y024323D01*
X034682Y024481D02*
X022809Y024481D01*
X022784Y024507D02*
X022784Y024507D01*
X022679Y024640D02*
X034682Y024640D01*
X022651Y024640D01*
X022521Y024798D02*
X034682Y024798D01*
X022492Y024798D01*
X022362Y024957D02*
X034682Y024957D01*
X022334Y024957D01*
X022326Y025115D02*
X022175Y025115D01*
X022203Y025115D02*
X022298Y025115D01*
X022203Y025274D02*
X022017Y025274D01*
X022045Y025274D02*
X022181Y025274D01*
X022167Y025432D02*
X021858Y025432D01*
X021886Y025432D02*
X022147Y025432D01*
X022176Y025591D02*
X021728Y025591D01*
X021700Y025591D02*
X022197Y025591D01*
X022285Y025750D02*
X021569Y025750D01*
X021541Y025750D02*
X022313Y025750D01*
X022551Y025908D02*
X022609Y025908D01*
X022610Y026067D02*
X022643Y026067D01*
X022643Y026225D02*
X022610Y026225D01*
X022610Y026384D02*
X022643Y026384D01*
X022643Y026542D02*
X022610Y026542D01*
X022591Y026859D02*
X022662Y026859D01*
X022682Y026859D02*
X022571Y026859D01*
X022571Y027018D02*
X022682Y027018D01*
X022662Y027018D02*
X022591Y027018D01*
X022591Y027176D02*
X022662Y027176D01*
X022682Y027176D02*
X022571Y027176D01*
X022571Y027335D02*
X022682Y027335D01*
X022662Y027335D02*
X022591Y027335D01*
X022591Y027494D02*
X022662Y027494D01*
X022682Y027494D02*
X022571Y027494D01*
X022571Y027652D02*
X022682Y027652D01*
X022662Y027652D02*
X022591Y027652D01*
X022740Y027811D02*
X021402Y027811D01*
X021382Y027811D02*
X022768Y027811D01*
X022610Y027969D02*
X021382Y027969D01*
X021402Y027969D02*
X022582Y027969D01*
X022451Y028128D02*
X021382Y028128D01*
X021402Y028128D02*
X022423Y028128D01*
X022327Y028286D02*
X021382Y028286D01*
X021402Y028286D02*
X022307Y028286D01*
X022627Y028377D02*
X022627Y028814D01*
X022627Y028946D02*
X022439Y029002D01*
X022439Y029439D01*
X022314Y029564D01*
X022314Y029878D01*
X021932Y029555D02*
X020298Y029555D01*
X020327Y029555D02*
X021904Y029555D01*
X021899Y029396D02*
X020457Y029396D01*
X020485Y029396D02*
X021875Y029396D01*
X021875Y029238D02*
X020644Y029238D01*
X020616Y029238D02*
X021895Y029238D01*
X021895Y029079D02*
X020774Y029079D01*
X020802Y029079D02*
X021875Y029079D01*
X021875Y028920D02*
X020961Y028920D01*
X020933Y028920D02*
X021895Y028920D01*
X021895Y028762D02*
X021091Y028762D01*
X021119Y028762D02*
X021875Y028762D01*
X021875Y028603D02*
X021278Y028603D01*
X021250Y028603D02*
X021895Y028603D01*
X021923Y028445D02*
X021402Y028445D01*
X021382Y028445D02*
X021951Y028445D01*
X022439Y028814D02*
X022439Y028814D01*
X022439Y028877D01*
X022439Y029002D02*
X022439Y029002D01*
X021838Y029713D02*
X020140Y029713D01*
X020252Y029713D02*
X021818Y029713D01*
X021167Y028714D02*
X021167Y028714D01*
X021159Y028694D02*
X021159Y028694D01*
X021382Y027652D02*
X021422Y027652D01*
X021402Y027652D02*
X021402Y027652D01*
X021402Y027494D02*
X021402Y027494D01*
X021382Y027494D02*
X021422Y027494D01*
X021422Y027335D02*
X021382Y027335D01*
X021402Y027335D02*
X021402Y027335D01*
X021402Y027176D02*
X021402Y027176D01*
X021382Y027176D02*
X021422Y027176D01*
X021422Y027018D02*
X021382Y027018D01*
X021402Y027018D02*
X021402Y027018D01*
X021402Y026859D02*
X021402Y026859D01*
X021382Y026859D02*
X021422Y026859D01*
X021422Y026701D02*
X021382Y026701D01*
X021402Y026701D02*
X021402Y026701D01*
X021402Y026542D02*
X021542Y026542D01*
X021382Y026542D02*
X021702Y026542D01*
X021702Y026384D02*
X021382Y026384D01*
X021402Y026384D02*
X021682Y026384D01*
X021702Y026252D02*
X021702Y026252D01*
X021682Y026244D02*
X021682Y026244D01*
X021701Y026225D02*
X021402Y026225D01*
X021382Y026225D02*
X021729Y026225D01*
X021859Y026067D02*
X021402Y026067D01*
X021382Y026067D02*
X021887Y026067D01*
X021926Y025908D02*
X021411Y025908D01*
X021382Y025908D02*
X021954Y025908D01*
X022064Y026314D02*
X022002Y026377D01*
X022002Y027127D01*
X021997Y027127D01*
X021997Y027175D01*
X022064Y026314D02*
X022253Y026314D01*
X022064Y026314D02*
X022064Y026314D01*
X023001Y026314D02*
X023002Y026314D01*
X023002Y025876D01*
X022564Y025439D01*
X022926Y025274D02*
X034682Y025274D01*
X022947Y025274D01*
X022982Y025432D02*
X034682Y025432D01*
X023010Y025432D01*
X023134Y025556D02*
X023134Y025556D01*
X023126Y025576D02*
X023126Y025576D01*
X023140Y025591D02*
X034682Y025591D01*
X023169Y025591D01*
X023299Y025750D02*
X034682Y025750D01*
X023322Y025750D01*
X023328Y025908D02*
X034682Y025908D01*
X023302Y025908D01*
X023358Y026067D02*
X034682Y026067D01*
X023378Y026067D01*
X023378Y026225D02*
X034682Y026225D01*
X023358Y026225D01*
X023358Y026384D02*
X030945Y026384D01*
X030917Y026384D02*
X023378Y026384D01*
X023358Y026542D02*
X030827Y026542D01*
X030807Y026542D02*
X023711Y026542D01*
X023831Y026701D02*
X030827Y026701D01*
X030807Y026701D02*
X023851Y026701D01*
X023851Y026859D02*
X030807Y026859D01*
X030827Y026859D02*
X023831Y026859D01*
X023831Y027018D02*
X030827Y027018D01*
X030807Y027018D02*
X023851Y027018D01*
X023851Y027176D02*
X030807Y027176D01*
X030827Y027176D02*
X023831Y027176D01*
X023831Y027335D02*
X030827Y027335D01*
X030807Y027335D02*
X023851Y027335D01*
X023851Y027494D02*
X030807Y027494D01*
X030827Y027494D02*
X023831Y027494D01*
X023831Y027652D02*
X030827Y027652D01*
X030807Y027652D02*
X023851Y027652D01*
X023577Y027811D02*
X029240Y027811D01*
X023557Y027811D01*
X023487Y027969D02*
X029081Y027969D01*
X023458Y027969D01*
X023328Y028128D02*
X028923Y028128D01*
X023300Y028128D01*
X023169Y028286D02*
X028764Y028286D01*
X023141Y028286D01*
X023302Y028445D02*
X028606Y028445D01*
X023331Y028445D01*
X023257Y027747D02*
X022627Y028377D01*
X023257Y027747D02*
X023257Y027175D01*
X023002Y026314D02*
X023002Y026314D01*
X022830Y025115D02*
X034682Y025115D01*
X022802Y025115D01*
X023944Y024164D02*
X034682Y024164D01*
X034682Y024006D02*
X030109Y024006D01*
X030268Y023847D02*
X034682Y023847D01*
X034682Y023689D02*
X030426Y023689D01*
X030585Y023530D02*
X034682Y023530D01*
X034682Y023371D02*
X030744Y023371D01*
X030902Y023213D02*
X034682Y023213D01*
X034682Y023054D02*
X031061Y023054D01*
X031219Y022896D02*
X034682Y022896D01*
X034682Y022737D02*
X031378Y022737D01*
X031536Y022579D02*
X034682Y022579D01*
X034682Y022420D02*
X031695Y022420D01*
X031853Y022262D02*
X034682Y022262D01*
X034682Y022103D02*
X032012Y022103D01*
X032170Y021945D02*
X034682Y021945D01*
X034682Y021786D02*
X032329Y021786D01*
X032487Y021627D02*
X034682Y021627D01*
X034682Y021469D02*
X032646Y021469D01*
X032805Y021310D02*
X034682Y021310D01*
X034682Y021152D02*
X032963Y021152D01*
X033122Y020993D02*
X034682Y020993D01*
X034682Y020835D02*
X033280Y020835D01*
X033439Y020676D02*
X034682Y020676D01*
X034682Y020518D02*
X033597Y020518D01*
X033756Y020359D02*
X034682Y020359D01*
X034682Y020201D02*
X033914Y020201D01*
X034073Y020042D02*
X034682Y020042D01*
X034682Y019883D02*
X034231Y019883D01*
X033859Y019408D02*
X028426Y019408D01*
X028281Y019566D02*
X028696Y019566D01*
X028666Y019579D02*
X028985Y019447D01*
X029330Y019447D01*
X029649Y019579D01*
X029893Y019823D01*
X030025Y020142D01*
X030025Y020487D01*
X029893Y020805D01*
X029649Y021049D01*
X029330Y021181D01*
X028985Y021181D01*
X028666Y021049D01*
X028422Y020805D01*
X028290Y020487D01*
X028290Y020142D01*
X028422Y019823D01*
X028666Y019579D01*
X028520Y019725D02*
X028135Y019725D01*
X027990Y019883D02*
X028397Y019883D01*
X028331Y020042D02*
X027130Y020042D01*
X026971Y020201D02*
X028290Y020201D01*
X028290Y020359D02*
X026172Y020359D01*
X026339Y020518D02*
X028303Y020518D01*
X028369Y020676D02*
X027632Y020676D01*
X027790Y020835D02*
X028452Y020835D01*
X028610Y020993D02*
X027873Y020993D01*
X027873Y021152D02*
X028914Y021152D01*
X029402Y021152D02*
X032115Y021152D01*
X032273Y020993D02*
X029705Y020993D01*
X029864Y020835D02*
X032432Y020835D01*
X032590Y020676D02*
X029946Y020676D01*
X030012Y020518D02*
X032749Y020518D01*
X032907Y020359D02*
X030025Y020359D01*
X030025Y020201D02*
X033066Y020201D01*
X033224Y020042D02*
X029984Y020042D01*
X029918Y019883D02*
X033383Y019883D01*
X033542Y019725D02*
X029795Y019725D01*
X029619Y019566D02*
X033700Y019566D01*
X034682Y019249D02*
X028571Y019249D01*
X028627Y019091D02*
X034682Y019091D01*
X034682Y018932D02*
X028627Y018932D01*
X028627Y018774D02*
X034682Y018774D01*
X034682Y018615D02*
X028627Y018615D01*
X028627Y018457D02*
X034682Y018457D01*
X034658Y018298D02*
X028627Y018298D01*
X028627Y018139D02*
X034499Y018139D01*
X034341Y017981D02*
X028627Y017981D01*
X028627Y017822D02*
X034182Y017822D01*
X034024Y017664D02*
X028627Y017664D01*
X028627Y017505D02*
X033865Y017505D01*
X033707Y017347D02*
X028627Y017347D01*
X028627Y017188D02*
X033557Y017188D01*
X033557Y017030D02*
X028627Y017030D01*
X028627Y016871D02*
X033557Y016871D01*
X033557Y016713D02*
X028627Y016713D01*
X028627Y016554D02*
X033557Y016554D01*
X033557Y016396D02*
X028627Y016396D01*
X028627Y016237D02*
X033557Y016237D01*
X033557Y016078D02*
X028627Y016078D01*
X028627Y015920D02*
X033557Y015920D01*
X033557Y015761D02*
X028627Y015761D01*
X027878Y015689D02*
X027752Y015689D01*
X025689Y016713D02*
X016887Y016713D01*
X016876Y016702D02*
X016876Y016702D01*
X017045Y016871D02*
X025689Y016871D01*
X025689Y017030D02*
X021775Y017030D01*
X021775Y017188D02*
X025689Y017188D01*
X025689Y017347D02*
X021775Y017347D01*
X021775Y017505D02*
X025689Y017505D01*
X025689Y017664D02*
X021775Y017664D01*
X021378Y017502D02*
X021378Y017377D01*
X021378Y018188D01*
X021377Y018189D01*
X021378Y018189D01*
X021378Y018252D01*
X021375Y017504D02*
X020661Y017504D01*
X021375Y017504D02*
X021377Y017502D01*
X021378Y017502D01*
X022483Y018457D02*
X025689Y018457D01*
X025689Y018615D02*
X022467Y018615D01*
X022478Y018774D02*
X025689Y018774D01*
X025689Y018932D02*
X022483Y018932D01*
X022483Y019091D02*
X025689Y019091D01*
X025749Y019249D02*
X022483Y019249D01*
X022483Y019408D02*
X023631Y019408D01*
X023539Y019566D02*
X022426Y019566D01*
X022704Y019725D02*
X023522Y019725D01*
X023568Y019883D02*
X022710Y019883D01*
X023127Y020313D02*
X023127Y020314D01*
X023127Y020314D01*
X023508Y020676D02*
X024119Y020676D01*
X024313Y021202D02*
X024313Y021202D01*
X024313Y021802D02*
X024313Y021802D01*
X025376Y021202D02*
X025376Y021202D01*
X026673Y020217D02*
X026673Y020216D01*
X026955Y020216D02*
X026955Y020216D01*
X026877Y019814D02*
X027061Y019630D01*
X027061Y019202D01*
X025908Y019408D02*
X025389Y019408D01*
X025514Y019534D02*
X025514Y019534D01*
X027873Y021310D02*
X031956Y021310D01*
X031798Y021469D02*
X027873Y021469D01*
X027873Y021627D02*
X031639Y021627D01*
X031480Y021786D02*
X027873Y021786D01*
X027873Y021945D02*
X031322Y021945D01*
X031163Y022103D02*
X027873Y022103D01*
X027873Y022262D02*
X031005Y022262D01*
X030846Y022420D02*
X027820Y022420D01*
X023073Y022896D02*
X023034Y022896D01*
X023044Y023054D02*
X023089Y023054D01*
X022096Y022420D02*
X022092Y022420D01*
X022092Y022262D02*
X022151Y022262D01*
X021127Y022627D02*
X021127Y022627D01*
X020393Y022420D02*
X020360Y022420D01*
X019645Y022896D02*
X019090Y022896D01*
X018752Y023286D02*
X019536Y023286D01*
X019627Y023377D01*
X019627Y024003D01*
X019151Y024006D02*
X018755Y024006D01*
X018869Y024164D02*
X019151Y024164D01*
X019242Y024323D02*
X018899Y024323D01*
X018862Y024481D02*
X019191Y024481D01*
X019151Y024640D02*
X018738Y024640D01*
X018528Y024957D02*
X018476Y024957D01*
X018252Y025467D02*
X018717Y025467D01*
X018752Y025502D01*
X018752Y025467D01*
X018752Y025502D02*
X018752Y026252D01*
X018002Y026127D02*
X017752Y025877D01*
X017752Y025467D01*
X017752Y024752D01*
X017252Y024252D01*
X015252Y024252D01*
X014627Y023627D01*
X014627Y015502D01*
X016002Y014127D01*
X016002Y012627D01*
X015752Y012377D01*
X015501Y012377D01*
X015502Y012377D01*
X015501Y012376D01*
X015501Y011377D01*
X015502Y011377D01*
X015501Y011376D01*
X015501Y010377D01*
X014753Y010377D02*
X014126Y010377D01*
X014126Y010689D01*
X014126Y010377D02*
X014126Y009815D01*
X014127Y009689D01*
X014108Y009689D01*
X013593Y009578D02*
X013285Y009578D01*
X013285Y009420D02*
X013593Y009420D01*
X013593Y009261D02*
X013285Y009261D01*
X013183Y009103D02*
X013695Y009103D01*
X013127Y008310D02*
X013091Y008310D01*
X013939Y007377D02*
X014314Y007377D01*
X014752Y007814D01*
X015064Y007814D01*
X015064Y005502D01*
X014689Y005127D01*
X014689Y004564D01*
X014377Y004564D01*
X013939Y005002D01*
X013939Y005502D01*
X013939Y007377D01*
X013939Y007359D02*
X015064Y007359D01*
X015064Y007517D02*
X014455Y007517D01*
X014613Y007676D02*
X015064Y007676D01*
X015064Y007200D02*
X013939Y007200D01*
X013939Y007041D02*
X015064Y007041D01*
X015064Y006883D02*
X013939Y006883D01*
X013939Y006724D02*
X015064Y006724D01*
X015064Y006566D02*
X013939Y006566D01*
X013939Y006407D02*
X015064Y006407D01*
X015064Y006249D02*
X013939Y006249D01*
X013939Y006090D02*
X015064Y006090D01*
X015064Y005932D02*
X013939Y005932D01*
X013939Y005773D02*
X015064Y005773D01*
X015064Y005615D02*
X013939Y005615D01*
X013939Y005456D02*
X015019Y005456D01*
X014860Y005297D02*
X013939Y005297D01*
X013939Y005139D02*
X014701Y005139D01*
X014689Y004980D02*
X013960Y004980D01*
X014119Y004822D02*
X014689Y004822D01*
X014689Y004663D02*
X014277Y004663D01*
X015952Y003702D02*
X011117Y003702D01*
X010526Y002602D02*
X018377Y002602D01*
X018377Y002444D02*
X010685Y002444D01*
X009814Y004029D02*
X006592Y004029D01*
X005426Y004980D02*
X002330Y004980D01*
X002330Y004822D02*
X005267Y004822D01*
X005109Y004663D02*
X002330Y004663D01*
X002330Y004505D02*
X005091Y004505D01*
X005091Y004346D02*
X002330Y004346D01*
X002330Y004188D02*
X005091Y004188D01*
X005091Y004029D02*
X002330Y004029D01*
X002330Y003871D02*
X005091Y003871D01*
X005091Y003712D02*
X002330Y003712D01*
X002330Y003554D02*
X005003Y003554D01*
X004901Y003395D02*
X002330Y003395D01*
X002330Y003236D02*
X004901Y003236D01*
X004901Y003078D02*
X002330Y003078D01*
X002330Y002919D02*
X004901Y002919D01*
X004901Y002761D02*
X002330Y002761D01*
X002330Y002602D02*
X004985Y002602D01*
X005144Y002444D02*
X002330Y002444D01*
X004073Y006539D02*
X004073Y006539D01*
X003752Y008627D02*
X003752Y030627D01*
X004620Y032501D02*
X004627Y032501D01*
X004627Y032502D01*
X004846Y032502D01*
X005679Y031774D02*
X005752Y031774D01*
X006657Y032502D02*
X006627Y032752D01*
X006627Y033252D01*
X007502Y033252D01*
X007503Y033253D01*
X007503Y034252D01*
X007900Y034311D02*
X011577Y034311D01*
X011577Y034469D02*
X007900Y034469D01*
X007870Y034628D02*
X011577Y034628D01*
X011877Y034877D02*
X012002Y035002D01*
X012003Y035002D01*
X011877Y034877D02*
X011877Y033502D01*
X012003Y033376D01*
X012003Y033319D01*
X012003Y033252D01*
X012002Y033252D01*
X011878Y033128D01*
X011127Y033128D01*
X010128Y033128D01*
X010127Y033127D01*
X010127Y033141D01*
X009016Y033141D01*
X009002Y033127D01*
X009002Y033207D01*
X009002Y033252D01*
X008251Y033252D01*
X007893Y033201D02*
X007860Y033201D01*
X007860Y033043D02*
X007893Y033043D01*
X007913Y032884D02*
X007840Y032884D01*
X007503Y033252D02*
X007502Y033252D01*
X007860Y033360D02*
X007893Y033360D01*
X007893Y033518D02*
X007860Y033518D01*
X007803Y033677D02*
X007971Y033677D01*
X007830Y033835D02*
X011577Y033835D01*
X011577Y033677D02*
X009532Y033677D01*
X009615Y033518D02*
X009700Y033518D01*
X009520Y032725D02*
X015077Y032725D01*
X015077Y032567D02*
X007310Y032567D01*
X007310Y032725D02*
X008483Y032725D01*
X007900Y033994D02*
X011577Y033994D01*
X011577Y034152D02*
X007900Y034152D01*
X010553Y033518D02*
X011577Y033518D01*
X012419Y033518D02*
X015077Y033518D01*
X015077Y033360D02*
X012419Y033360D01*
X012419Y033201D02*
X015077Y033201D01*
X015077Y033043D02*
X012419Y033043D01*
X012352Y032884D02*
X015077Y032884D01*
X015077Y033677D02*
X012419Y033677D01*
X012793Y033835D02*
X015077Y033835D01*
X015077Y033994D02*
X012793Y033994D01*
X012793Y034152D02*
X015077Y034152D01*
X015137Y034311D02*
X012793Y034311D01*
X012793Y034469D02*
X015295Y034469D01*
X015454Y034628D02*
X013082Y034628D01*
X013108Y034787D02*
X015612Y034787D01*
X015377Y034127D02*
X016402Y035152D01*
X016627Y035152D01*
X016252Y034127D02*
X017377Y034127D01*
X016252Y034127D02*
X015752Y033627D01*
X015752Y031189D01*
X019127Y027814D01*
X019127Y027626D01*
X018002Y026582D02*
X018002Y026127D01*
X017388Y026225D02*
X017115Y026225D01*
X017115Y026196D02*
X017115Y026969D01*
X016986Y027098D01*
X017066Y027018D02*
X017437Y027018D01*
X017388Y026859D02*
X017115Y026859D01*
X017115Y026701D02*
X017388Y026701D01*
X017388Y026542D02*
X017115Y026542D01*
X017115Y026384D02*
X017388Y026384D01*
X017115Y026196D02*
X016986Y026067D01*
X016814Y024640D02*
X017216Y024640D01*
X018459Y023847D02*
X019151Y023847D01*
X019083Y023689D02*
X019236Y023689D01*
X018752Y023286D02*
X018286Y023286D01*
X018252Y023252D01*
X018252Y023286D01*
X016827Y022002D02*
X016827Y020751D01*
X016452Y020376D01*
X016452Y020127D01*
X016452Y019103D01*
X016149Y019103D01*
X016020Y018974D01*
X016020Y018647D01*
X015803Y018647D01*
X015803Y020659D01*
X015860Y020717D01*
X015860Y021411D01*
X015893Y021411D02*
X015893Y020717D01*
X016022Y020588D01*
X016480Y020588D01*
X016608Y020717D01*
X016608Y021411D01*
X016551Y021469D01*
X016827Y021469D01*
X016753Y021564D02*
X016752Y021002D01*
X016827Y020993D02*
X016608Y020993D01*
X016608Y020835D02*
X016827Y020835D01*
X016752Y020676D02*
X016568Y020676D01*
X016594Y020518D02*
X015803Y020518D01*
X015803Y020359D02*
X016452Y020359D01*
X016452Y020201D02*
X015803Y020201D01*
X015803Y020042D02*
X016452Y020042D01*
X016452Y019883D02*
X015803Y019883D01*
X015803Y019725D02*
X016452Y019725D01*
X016452Y019566D02*
X015803Y019566D01*
X015803Y019408D02*
X016452Y019408D01*
X016452Y019249D02*
X015803Y019249D01*
X015803Y019091D02*
X016137Y019091D01*
X016020Y018932D02*
X015803Y018932D01*
X015803Y018774D02*
X016020Y018774D01*
X016378Y018627D02*
X016440Y018564D01*
X016439Y018564D01*
X016378Y018563D01*
X016378Y018127D01*
X015752Y018127D01*
X015503Y018376D01*
X015503Y021064D01*
X015860Y020993D02*
X015893Y020993D01*
X015893Y020835D02*
X015860Y020835D01*
X015819Y020676D02*
X015934Y020676D01*
X015893Y021152D02*
X015860Y021152D01*
X015860Y021310D02*
X015893Y021310D01*
X015893Y021411D02*
X015951Y021469D01*
X015920Y021627D02*
X015833Y021627D01*
X015860Y021786D02*
X015893Y021786D01*
X016251Y022002D02*
X016251Y021190D01*
X016252Y021064D01*
X016251Y021064D01*
X016608Y021152D02*
X016827Y021152D01*
X016827Y021310D02*
X016608Y021310D01*
X016551Y021469D02*
X016551Y021597D01*
X016608Y021655D01*
X016608Y022221D01*
X016627Y022202D01*
X016827Y022002D01*
X016827Y021945D02*
X016608Y021945D01*
X016608Y022103D02*
X016726Y022103D01*
X016827Y021786D02*
X016608Y021786D01*
X016581Y021627D02*
X016827Y021627D01*
X016252Y022002D02*
X016252Y023286D01*
X015414Y023371D02*
X014927Y023371D01*
X014927Y023213D02*
X015351Y023213D01*
X015202Y023054D02*
X014927Y023054D01*
X014927Y022896D02*
X015202Y022896D01*
X015414Y023530D02*
X014954Y023530D01*
X015113Y023689D02*
X015420Y023689D01*
X015485Y023847D02*
X015271Y023847D01*
X015057Y024481D02*
X014974Y024481D01*
X014627Y024877D02*
X014626Y024877D01*
X014972Y025274D02*
X015414Y025274D01*
X015377Y027626D02*
X015377Y034127D01*
X013627Y036877D02*
X012377Y035627D01*
X012377Y034185D01*
X010632Y031142D02*
X010632Y031142D01*
X009420Y031202D02*
X009420Y031202D01*
X008547Y030937D02*
X008547Y030937D01*
X008025Y030624D02*
X008025Y030624D01*
X007252Y028127D02*
X007252Y008627D01*
X009002Y008627D02*
X009000Y008526D01*
X008994Y008426D01*
X008985Y008326D01*
X008971Y008226D01*
X008954Y008127D01*
X008933Y008029D01*
X008908Y007931D01*
X008880Y007835D01*
X008848Y007740D01*
X008812Y007646D01*
X008772Y007553D01*
X008729Y007462D01*
X008683Y007373D01*
X008633Y007286D01*
X008580Y007200D01*
X008524Y007117D01*
X008465Y007036D01*
X008402Y006957D01*
X008337Y006881D01*
X008268Y006807D01*
X008197Y006736D01*
X008123Y006667D01*
X008047Y006602D01*
X007968Y006539D01*
X007887Y006480D01*
X007804Y006424D01*
X007718Y006371D01*
X007631Y006321D01*
X007542Y006275D01*
X007451Y006232D01*
X007358Y006192D01*
X007264Y006156D01*
X007169Y006124D01*
X007073Y006096D01*
X006975Y006071D01*
X006877Y006050D01*
X006778Y006033D01*
X006678Y006019D01*
X006578Y006010D01*
X006478Y006004D01*
X006377Y006002D01*
X006377Y005522D02*
X006377Y005522D01*
X006833Y005551D02*
X006833Y005551D01*
X007706Y005816D02*
X007706Y005816D01*
X009002Y008627D02*
X009002Y028127D01*
X009877Y029002D02*
X009934Y029000D01*
X009991Y028995D01*
X010048Y028985D01*
X010103Y028972D01*
X010158Y028956D01*
X010212Y028935D01*
X010264Y028912D01*
X010314Y028885D01*
X010363Y028855D01*
X010410Y028821D01*
X010454Y028785D01*
X010496Y028746D01*
X010535Y028704D01*
X010571Y028660D01*
X010605Y028613D01*
X010635Y028564D01*
X010662Y028514D01*
X010685Y028462D01*
X010706Y028408D01*
X010722Y028353D01*
X010735Y028298D01*
X010745Y028241D01*
X010750Y028184D01*
X010752Y028127D01*
X010752Y009564D01*
X010626Y009564D01*
X012982Y011481D02*
X013127Y011481D01*
X015143Y011481D01*
X015143Y011639D02*
X013127Y011639D01*
X012982Y011639D01*
X012982Y011798D02*
X013127Y011798D01*
X015201Y011798D01*
X015177Y011956D02*
X013127Y011956D01*
X012982Y011956D01*
X012982Y012115D02*
X013127Y012115D01*
X015103Y012115D01*
X015103Y012273D02*
X013127Y012273D01*
X012982Y012273D01*
X012982Y012432D02*
X013127Y012432D01*
X015103Y012432D01*
X015103Y012590D02*
X013127Y012590D01*
X012982Y012590D01*
X012982Y012749D02*
X013127Y012749D01*
X015129Y012749D01*
X014753Y012377D02*
X014252Y012377D01*
X013127Y012908D02*
X015702Y012908D01*
X015702Y013066D02*
X013127Y013066D01*
X012982Y013066D01*
X012982Y012908D02*
X013127Y012908D01*
X013127Y013225D02*
X012982Y013225D01*
X013127Y013225D02*
X015702Y013225D01*
X015702Y013383D02*
X013127Y013383D01*
X012982Y013383D01*
X014252Y011377D02*
X014753Y011377D01*
X015801Y011798D02*
X016442Y011798D01*
X016619Y011956D02*
X015824Y011956D01*
X015914Y012115D02*
X016619Y012115D01*
X016619Y012273D02*
X016073Y012273D01*
X016231Y012432D02*
X016619Y012432D01*
X016619Y012590D02*
X016302Y012590D01*
X016302Y012749D02*
X016648Y012749D01*
X016735Y012908D02*
X016302Y012908D01*
X016302Y013066D02*
X016732Y013066D01*
X016732Y013225D02*
X016302Y013225D01*
X016302Y013383D02*
X016732Y013383D01*
X016732Y013542D02*
X016302Y013542D01*
X016302Y013700D02*
X016732Y013700D01*
X016732Y013859D02*
X016302Y013859D01*
X016302Y014017D02*
X016732Y014017D01*
X016815Y014176D02*
X016302Y014176D01*
X016218Y014334D02*
X018689Y014334D01*
X018689Y014176D02*
X017688Y014176D01*
X017772Y014017D02*
X018689Y014017D01*
X018689Y013859D02*
X017772Y013859D01*
X017772Y013700D02*
X018689Y013700D01*
X018689Y013542D02*
X017772Y013542D01*
X017772Y013383D02*
X018689Y013383D01*
X018689Y013225D02*
X017772Y013225D01*
X017772Y013066D02*
X018689Y013066D01*
X018689Y012908D02*
X017769Y012908D01*
X017752Y012590D02*
X018689Y012590D01*
X017413Y012590D01*
X017413Y012432D02*
X018689Y012432D01*
X017752Y012432D01*
X017752Y012273D02*
X018689Y012273D01*
X017413Y012273D01*
X017413Y012115D02*
X018689Y012115D01*
X017752Y012115D01*
X017752Y011956D02*
X018689Y011956D01*
X017413Y011956D01*
X017473Y011798D02*
X018689Y011798D01*
X017752Y011798D01*
X017752Y011639D02*
X018689Y011639D01*
X017473Y011639D01*
X017473Y011481D02*
X018699Y011481D01*
X017752Y011481D01*
X017752Y011322D02*
X018735Y011322D01*
X017473Y011322D01*
X017473Y011164D02*
X018798Y011164D01*
X017752Y011164D01*
X017752Y011005D02*
X018896Y011005D01*
X017473Y011005D01*
X017473Y010846D02*
X019040Y010846D01*
X017752Y010846D01*
X016957Y011314D02*
X016252Y011314D01*
X016189Y011314D01*
X016189Y011313D01*
X016957Y011314D02*
X016957Y012270D01*
X017002Y012314D01*
X017016Y012314D01*
X017016Y012704D01*
X017252Y012939D01*
X017252Y013502D01*
X017486Y012749D02*
X018689Y012749D01*
X018715Y011384D02*
X018765Y011228D01*
X018839Y011083D01*
X018839Y011083D01*
X018839Y011083D01*
X018765Y011228D01*
X018765Y011228D01*
X018765Y011228D01*
X018715Y011384D01*
X018839Y011083D02*
X018935Y010951D01*
X018935Y010951D01*
X018935Y010951D01*
X018839Y011083D01*
X018935Y010951D02*
X019051Y010835D01*
X019051Y010835D01*
X018935Y010951D01*
X018689Y014493D02*
X016059Y014493D01*
X018839Y016170D02*
X018839Y016170D01*
X016378Y017627D02*
X016378Y018127D01*
X017126Y018627D02*
X017126Y018688D01*
X017564Y019127D01*
X017752Y019127D01*
X019002Y019877D02*
X019002Y019877D01*
X019440Y019877D01*
X019002Y019877D02*
X019002Y019877D01*
X019002Y019877D01*
X019717Y019404D02*
X020189Y019877D01*
X020188Y019877D01*
X020252Y019877D01*
X020252Y019877D01*
X020315Y019940D01*
X021189Y019940D01*
X021220Y019940D01*
X021189Y019939D02*
X021378Y019751D01*
X021378Y019127D01*
X022127Y019127D02*
X022127Y019127D01*
X021189Y019939D02*
X021189Y019940D01*
X020189Y019877D02*
X020189Y019877D01*
X019717Y019404D02*
X019717Y019000D01*
X016252Y022002D02*
X016251Y022002D01*
X009877Y030752D02*
X009774Y030750D01*
X009671Y030744D01*
X009568Y030734D01*
X009466Y030720D01*
X009365Y030702D01*
X009264Y030679D01*
X009164Y030653D01*
X009066Y030624D01*
X008968Y030590D01*
X008872Y030552D01*
X008778Y030511D01*
X008685Y030466D01*
X008594Y030417D01*
X008505Y030365D01*
X008419Y030310D01*
X008334Y030251D01*
X008252Y030188D01*
X008172Y030123D01*
X008095Y030055D01*
X008021Y029983D01*
X007949Y029909D01*
X007881Y029832D01*
X007816Y029752D01*
X007753Y029670D01*
X007694Y029585D01*
X007639Y029499D01*
X007587Y029410D01*
X007538Y029319D01*
X007493Y029226D01*
X007452Y029132D01*
X007414Y029036D01*
X007380Y028938D01*
X007351Y028840D01*
X007325Y028740D01*
X007302Y028639D01*
X007284Y028538D01*
X007270Y028436D01*
X007260Y028333D01*
X007254Y028230D01*
X007252Y028127D01*
X009002Y028127D02*
X009004Y028187D01*
X009010Y028246D01*
X009020Y028305D01*
X009034Y028363D01*
X009053Y028420D01*
X009074Y028476D01*
X009100Y028530D01*
X009129Y028582D01*
X009162Y028632D01*
X009198Y028679D01*
X009238Y028724D01*
X009280Y028766D01*
X009325Y028806D01*
X009372Y028842D01*
X009422Y028875D01*
X009474Y028904D01*
X009528Y028930D01*
X009584Y028951D01*
X009641Y028970D01*
X009699Y028984D01*
X009758Y028994D01*
X009817Y029000D01*
X009877Y029002D01*
X015677Y029079D02*
X017438Y029079D01*
X017279Y029238D02*
X015677Y029238D01*
X015677Y029396D02*
X017120Y029396D01*
X016962Y029555D02*
X015677Y029555D01*
X015677Y029713D02*
X016803Y029713D01*
X016645Y029872D02*
X015677Y029872D01*
X015677Y030030D02*
X016486Y030030D01*
X016328Y030189D02*
X015677Y030189D01*
X015677Y030347D02*
X016169Y030347D01*
X016011Y030506D02*
X015677Y030506D01*
X015677Y030664D02*
X015852Y030664D01*
X015694Y030823D02*
X015677Y030823D01*
X018075Y031774D02*
X018178Y031774D01*
X018151Y031933D02*
X018102Y031933D01*
X018102Y032091D02*
X018151Y032091D01*
X018151Y032250D02*
X018102Y032250D01*
X018102Y032408D02*
X018151Y032408D01*
X020502Y031127D02*
X022127Y031127D01*
X022314Y030939D01*
X022314Y030814D01*
X022314Y030626D01*
X022314Y030814D02*
X022314Y030814D01*
X022663Y030981D02*
X024452Y030981D01*
X024432Y030981D02*
X022691Y030981D01*
X022790Y030823D02*
X023680Y030823D01*
X023651Y030823D02*
X022810Y030823D01*
X022810Y030664D02*
X023631Y030664D01*
X023651Y030664D02*
X022790Y030664D01*
X022566Y031140D02*
X024381Y031140D01*
X024409Y031140D02*
X022537Y031140D01*
X022407Y031299D02*
X024375Y031299D01*
X024395Y031299D02*
X022379Y031299D01*
X021838Y030823D02*
X020760Y030823D01*
X020761Y031457D02*
X024375Y031457D01*
X024395Y031457D02*
X020733Y031457D01*
X020329Y029872D02*
X020252Y029872D01*
X022439Y031933D02*
X023877Y031933D01*
X023877Y032091D02*
X022439Y032091D01*
X022439Y032250D02*
X023877Y032250D01*
X023877Y032408D02*
X022439Y032408D01*
X022439Y032567D02*
X023877Y032567D01*
X023877Y032725D02*
X022439Y032725D01*
X022439Y032884D02*
X023877Y032884D01*
X023877Y033043D02*
X022439Y033043D01*
X022439Y033201D02*
X023877Y033201D01*
X023877Y033360D02*
X022439Y033360D01*
X022439Y033518D02*
X023877Y033518D01*
X023877Y033677D02*
X022439Y033677D01*
X022439Y033835D02*
X028460Y033835D01*
X028619Y033994D02*
X022439Y033994D01*
X022439Y034152D02*
X028752Y034152D01*
X028752Y034311D02*
X022439Y034311D01*
X022439Y034469D02*
X028752Y034469D01*
X028752Y034628D02*
X022439Y034628D01*
X022439Y034787D02*
X028752Y034787D01*
X028752Y034945D02*
X022439Y034945D01*
X022439Y035104D02*
X028752Y035104D01*
X028752Y035262D02*
X022439Y035262D01*
X022439Y035421D02*
X028752Y035421D01*
X028674Y035579D02*
X022439Y035579D01*
X022439Y035738D02*
X028515Y035738D01*
X028809Y035896D02*
X037519Y035896D01*
X037517Y035896D02*
X028809Y035896D01*
X028968Y035738D02*
X037519Y035738D01*
X037517Y035738D02*
X028968Y035738D01*
X029072Y035579D02*
X037519Y035579D01*
X037517Y035579D02*
X029072Y035579D01*
X029072Y035421D02*
X037519Y035421D01*
X037517Y035421D02*
X029072Y035421D01*
X029072Y035262D02*
X037519Y035262D01*
X037517Y035262D02*
X029072Y035262D01*
X029072Y035104D02*
X037519Y035104D01*
X037517Y035104D02*
X029072Y035104D01*
X029072Y034945D02*
X037519Y034945D01*
X037517Y034945D02*
X029072Y034945D01*
X029072Y034787D02*
X037519Y034787D01*
X037517Y034787D02*
X029072Y034787D01*
X029072Y034628D02*
X037519Y034628D01*
X037517Y034628D02*
X029072Y034628D01*
X029072Y034469D02*
X037519Y034469D01*
X037517Y034469D02*
X029072Y034469D01*
X029072Y034311D02*
X037519Y034311D01*
X037517Y034311D02*
X029072Y034311D01*
X029072Y034152D02*
X037519Y034152D01*
X037517Y034152D02*
X029072Y034152D01*
X029071Y033994D02*
X037519Y033994D01*
X037517Y033994D02*
X029071Y033994D01*
X028913Y033835D02*
X037519Y033835D01*
X037517Y033835D02*
X028913Y033835D01*
X028754Y033677D02*
X037519Y033677D01*
X037517Y033677D02*
X028754Y033677D01*
X028596Y033518D02*
X037519Y033518D01*
X037517Y033518D02*
X028596Y033518D01*
X028189Y032002D02*
X036002Y032002D01*
X037127Y030877D01*
X036827Y030664D02*
X036302Y030664D01*
X036322Y030664D02*
X036807Y030664D01*
X036807Y030506D02*
X036322Y030506D01*
X036302Y030506D02*
X036827Y030506D01*
X036827Y030347D02*
X036631Y030347D01*
X036659Y030347D02*
X036807Y030347D01*
X036807Y030189D02*
X036717Y030189D01*
X036697Y030189D02*
X036827Y030189D01*
X036827Y030030D02*
X036697Y030030D01*
X036717Y030030D02*
X036807Y030030D01*
X036807Y029872D02*
X036717Y029872D01*
X036697Y029872D02*
X036827Y029872D01*
X036827Y029713D02*
X036697Y029713D01*
X036717Y029713D02*
X036807Y029713D01*
X036807Y029555D02*
X036717Y029555D01*
X036697Y029555D02*
X036827Y029555D01*
X036827Y029396D02*
X036697Y029396D01*
X036717Y029396D02*
X036807Y029396D01*
X036807Y029238D02*
X036717Y029238D01*
X036697Y029238D02*
X036827Y029238D01*
X036827Y029079D02*
X036697Y029079D01*
X036717Y029079D02*
X036807Y029079D01*
X036807Y028920D02*
X036717Y028920D01*
X036697Y028920D02*
X036827Y028920D01*
X036827Y028762D02*
X036697Y028762D01*
X036717Y028762D02*
X036807Y028762D01*
X036807Y028603D02*
X036717Y028603D01*
X036697Y028603D02*
X036827Y028603D01*
X036827Y028445D02*
X036697Y028445D01*
X036717Y028445D02*
X036807Y028445D01*
X036807Y028286D02*
X036717Y028286D01*
X036697Y028286D02*
X036827Y028286D01*
X036827Y028128D02*
X036697Y028128D01*
X036717Y028128D02*
X036807Y028128D01*
X036807Y027969D02*
X036717Y027969D01*
X036697Y027969D02*
X036827Y027969D01*
X036827Y027811D02*
X036697Y027811D01*
X036807Y027811D01*
X036807Y027652D02*
X036697Y027652D01*
X036827Y027652D01*
X036827Y027494D02*
X036697Y027494D01*
X036807Y027494D01*
X036807Y027335D02*
X036697Y027335D01*
X036827Y027335D01*
X036827Y027176D02*
X036697Y027176D01*
X036807Y027176D01*
X036807Y027018D02*
X036697Y027018D01*
X036827Y027018D01*
X036827Y026859D02*
X036697Y026859D01*
X036807Y026859D01*
X036807Y026701D02*
X036697Y026701D01*
X036827Y026701D01*
X036827Y026542D02*
X036697Y026542D01*
X036807Y026542D01*
X036807Y026384D02*
X036697Y026384D01*
X036827Y026384D01*
X036827Y026225D02*
X036697Y026225D01*
X036807Y026225D01*
X036807Y026067D02*
X036697Y026067D01*
X036827Y026067D01*
X036827Y025908D02*
X036697Y025908D01*
X036807Y025908D01*
X036807Y025750D02*
X036697Y025750D01*
X036827Y025750D01*
X036827Y025591D02*
X036697Y025591D01*
X036807Y025591D01*
X036807Y025432D02*
X036697Y025432D01*
X036827Y025432D01*
X036827Y025274D02*
X036697Y025274D01*
X036807Y025274D01*
X036807Y025115D02*
X036697Y025115D01*
X036827Y025115D01*
X036827Y024957D02*
X036697Y024957D01*
X036807Y024957D01*
X036807Y024798D02*
X036697Y024798D01*
X036827Y024798D01*
X036827Y024640D02*
X036697Y024640D01*
X036807Y024640D01*
X036827Y024323D02*
X036727Y024323D01*
X036727Y024164D02*
X036827Y024164D01*
X036827Y024006D02*
X036727Y024006D01*
X036727Y023847D02*
X036827Y023847D01*
X036827Y023689D02*
X036727Y023689D01*
X036697Y023530D02*
X036827Y023530D01*
X036827Y023371D02*
X036697Y023371D01*
X036697Y023213D02*
X036827Y023213D01*
X036827Y023054D02*
X036697Y023054D01*
X036697Y022896D02*
X036827Y022896D01*
X036827Y022737D02*
X036697Y022737D01*
X036697Y022579D02*
X036827Y022579D01*
X036827Y022420D02*
X036697Y022420D01*
X036697Y022262D02*
X036827Y022262D01*
X036827Y022103D02*
X036697Y022103D01*
X036697Y021945D02*
X036827Y021945D01*
X036827Y021786D02*
X036697Y021786D01*
X036697Y021627D02*
X036827Y021627D01*
X036827Y021469D02*
X036697Y021469D01*
X036697Y021310D02*
X036827Y021310D01*
X036827Y021152D02*
X036697Y021152D01*
X036697Y020993D02*
X036827Y020993D01*
X036827Y020835D02*
X036697Y020835D01*
X036697Y020676D02*
X036827Y020676D01*
X036827Y020518D02*
X036697Y020518D01*
X036697Y020359D02*
X036827Y020359D01*
X036827Y020201D02*
X036697Y020201D01*
X036698Y020042D02*
X036827Y020042D01*
X036377Y020004D02*
X036377Y017502D01*
X035939Y017064D01*
X035939Y015564D01*
X033877Y015564D01*
X033877Y017064D01*
X035002Y018189D01*
X035002Y030057D01*
X035869Y030057D01*
X036134Y030057D01*
X036204Y030127D01*
X036377Y030127D01*
X036377Y024967D01*
X036335Y024925D01*
X036272Y024772D01*
X036272Y024606D01*
X036335Y024453D01*
X036377Y024412D01*
X036377Y023717D01*
X036335Y023675D01*
X036272Y023522D01*
X036272Y023356D01*
X036335Y023203D01*
X036377Y023162D01*
X036377Y020374D01*
X036334Y020272D01*
X036334Y020106D01*
X036377Y020004D01*
X036361Y020042D02*
X035002Y020042D01*
X035002Y020201D02*
X036334Y020201D01*
X036371Y020359D02*
X035002Y020359D01*
X035002Y020518D02*
X036377Y020518D01*
X036377Y020676D02*
X035002Y020676D01*
X035002Y020835D02*
X036377Y020835D01*
X036377Y020993D02*
X035002Y020993D01*
X035002Y021152D02*
X036377Y021152D01*
X036377Y021310D02*
X035002Y021310D01*
X035002Y021469D02*
X036377Y021469D01*
X036377Y021627D02*
X035002Y021627D01*
X035002Y021786D02*
X036377Y021786D01*
X036377Y021945D02*
X035002Y021945D01*
X035002Y022103D02*
X036377Y022103D01*
X036377Y022262D02*
X035002Y022262D01*
X035002Y022420D02*
X036377Y022420D01*
X036377Y022579D02*
X035002Y022579D01*
X035002Y022737D02*
X036377Y022737D01*
X036377Y022896D02*
X035002Y022896D01*
X035002Y023054D02*
X036377Y023054D01*
X036331Y023213D02*
X035002Y023213D01*
X035002Y023371D02*
X036272Y023371D01*
X036275Y023530D02*
X035002Y023530D01*
X035002Y023689D02*
X036349Y023689D01*
X036377Y023847D02*
X035002Y023847D01*
X035002Y024006D02*
X036377Y024006D01*
X036377Y024164D02*
X035002Y024164D01*
X035002Y024323D02*
X036377Y024323D01*
X036324Y024481D02*
X035002Y024481D01*
X035002Y024640D02*
X036272Y024640D01*
X036283Y024798D02*
X035002Y024798D01*
X035002Y024957D02*
X036367Y024957D01*
X036377Y025115D02*
X035002Y025115D01*
X035002Y025274D02*
X036377Y025274D01*
X036377Y025432D02*
X035002Y025432D01*
X035002Y025591D02*
X036377Y025591D01*
X036377Y025750D02*
X035002Y025750D01*
X035002Y025908D02*
X036377Y025908D01*
X036377Y026067D02*
X035002Y026067D01*
X035002Y026225D02*
X036377Y026225D01*
X036377Y026384D02*
X035002Y026384D01*
X035002Y026542D02*
X036377Y026542D01*
X036377Y026701D02*
X035002Y026701D01*
X035002Y026859D02*
X036377Y026859D01*
X036377Y027018D02*
X035002Y027018D01*
X035002Y027176D02*
X036377Y027176D01*
X036377Y027335D02*
X035002Y027335D01*
X035002Y027494D02*
X036377Y027494D01*
X036377Y027652D02*
X035002Y027652D01*
X035002Y027811D02*
X036377Y027811D01*
X036377Y027969D02*
X035002Y027969D01*
X035002Y028128D02*
X036377Y028128D01*
X036377Y028286D02*
X035002Y028286D01*
X035002Y028445D02*
X036377Y028445D01*
X036377Y028603D02*
X035002Y028603D01*
X035002Y028762D02*
X036377Y028762D01*
X036377Y028920D02*
X035002Y028920D01*
X035002Y029079D02*
X036377Y029079D01*
X036377Y029238D02*
X035002Y029238D01*
X035002Y029396D02*
X036377Y029396D01*
X036377Y029555D02*
X035002Y029555D01*
X035002Y029713D02*
X036377Y029713D01*
X036377Y029872D02*
X035002Y029872D01*
X035002Y030030D02*
X036377Y030030D01*
X036322Y030823D02*
X036728Y030823D01*
X036756Y030823D02*
X036302Y030823D01*
X036302Y030981D02*
X036597Y030981D01*
X036569Y030981D02*
X036322Y030981D01*
X036322Y031140D02*
X036411Y031140D01*
X036439Y031140D02*
X036302Y031140D01*
X036280Y031299D02*
X036191Y031299D01*
X036220Y031299D02*
X036252Y031299D01*
X036122Y031457D02*
X036033Y031457D01*
X036061Y031457D02*
X036094Y031457D01*
X035963Y031616D02*
X028295Y031616D01*
X028347Y031616D02*
X031413Y031616D01*
X031244Y031002D02*
X031244Y030994D01*
X031348Y030891D01*
X031432Y030807D01*
X031447Y030807D01*
X032234Y030144D01*
X032252Y030127D01*
X032252Y028127D01*
X029377Y028127D01*
X028377Y029127D01*
X027627Y029127D01*
X027627Y030141D01*
X027647Y030161D01*
X027647Y031002D01*
X031244Y031002D01*
X031257Y030981D02*
X027647Y030981D01*
X027647Y030823D02*
X031415Y030823D01*
X031348Y030891D02*
X031348Y030891D01*
X031616Y030664D02*
X027647Y030664D01*
X027647Y030506D02*
X031804Y030506D01*
X031993Y030347D02*
X027647Y030347D01*
X027647Y030189D02*
X032181Y030189D01*
X032252Y030030D02*
X027627Y030030D01*
X027627Y029872D02*
X032252Y029872D01*
X032252Y029713D02*
X027627Y029713D01*
X027627Y029555D02*
X032252Y029555D01*
X032252Y029396D02*
X027627Y029396D01*
X027627Y029238D02*
X032252Y029238D01*
X032252Y029079D02*
X028424Y029079D01*
X028583Y028920D02*
X032252Y028920D01*
X032252Y028762D02*
X028741Y028762D01*
X028900Y028603D02*
X032252Y028603D01*
X032252Y028445D02*
X029058Y028445D01*
X029217Y028286D02*
X032252Y028286D01*
X032252Y028128D02*
X029376Y028128D01*
X026516Y030752D02*
X026502Y030877D01*
X025877Y030627D02*
X025626Y030627D01*
X025501Y031502D02*
X025502Y032002D01*
X025188Y032250D02*
X024197Y032250D01*
X025160Y032250D01*
X025109Y032091D02*
X024197Y032091D01*
X025087Y032091D01*
X025084Y031933D02*
X025055Y031933D01*
X025026Y031933D02*
X025104Y031933D01*
X025110Y031774D02*
X025143Y031774D01*
X025143Y031616D02*
X025110Y031616D01*
X024479Y031933D02*
X024197Y031933D01*
X024451Y031933D01*
X024395Y031774D02*
X024197Y031774D01*
X024375Y031774D01*
X024375Y031616D02*
X024068Y031616D01*
X024395Y031616D01*
X024127Y030565D02*
X024127Y030252D01*
X034627Y034628D02*
X037517Y034628D01*
X037517Y034787D02*
X034627Y034787D01*
X034627Y034945D02*
X037517Y034945D01*
X037517Y035104D02*
X034627Y035104D01*
X034627Y035262D02*
X037517Y035262D01*
X037517Y035421D02*
X034627Y035421D01*
X034627Y035579D02*
X037517Y035579D01*
X037517Y035738D02*
X034627Y035738D01*
X034627Y035896D02*
X037517Y035896D01*
X035935Y031616D02*
X035903Y031616D01*
X036377Y019883D02*
X035002Y019883D01*
X035002Y019725D02*
X036377Y019725D01*
X036377Y019566D02*
X035002Y019566D01*
X035002Y019408D02*
X036377Y019408D01*
X036377Y019249D02*
X035002Y019249D01*
X035002Y019091D02*
X036377Y019091D01*
X036377Y018932D02*
X035002Y018932D01*
X035002Y018774D02*
X036377Y018774D01*
X036377Y018615D02*
X035002Y018615D01*
X035002Y018457D02*
X036377Y018457D01*
X036377Y018298D02*
X035002Y018298D01*
X034952Y018139D02*
X036377Y018139D01*
X036377Y017981D02*
X034793Y017981D01*
X034635Y017822D02*
X036377Y017822D01*
X036377Y017664D02*
X034476Y017664D01*
X034318Y017505D02*
X036377Y017505D01*
X036222Y017347D02*
X034159Y017347D01*
X034001Y017188D02*
X036063Y017188D01*
X035939Y017030D02*
X033877Y017030D01*
X033877Y016871D02*
X035939Y016871D01*
X035939Y016713D02*
X033877Y016713D01*
X033877Y016554D02*
X035939Y016554D01*
X035939Y016396D02*
X033877Y016396D01*
X033877Y016237D02*
X035939Y016237D01*
X035939Y016078D02*
X033877Y016078D01*
X033877Y015920D02*
X035939Y015920D01*
X035939Y015761D02*
X033877Y015761D01*
X033877Y015603D02*
X035939Y015603D01*
X035807Y015244D02*
X035807Y015244D01*
X029502Y012627D02*
X029329Y012627D01*
X026851Y006090D02*
X026064Y006090D01*
X026064Y005932D02*
X028314Y005932D01*
X028314Y005773D02*
X026064Y005773D01*
X026064Y005615D02*
X028314Y005615D01*
X028512Y003554D02*
X027825Y003554D01*
X027983Y003395D02*
X028671Y003395D01*
X028829Y003236D02*
X028142Y003236D01*
X034627Y003236D02*
X037517Y003236D01*
X037517Y003078D02*
X034627Y003078D01*
X034627Y002919D02*
X037517Y002919D01*
X037517Y002761D02*
X034627Y002761D01*
X034627Y002602D02*
X037517Y002602D01*
X037517Y002444D02*
X034627Y002444D01*
X034627Y002285D02*
X037517Y002285D01*
X037517Y002170D02*
X034627Y002170D01*
X034627Y004502D01*
X035127Y005002D01*
X037517Y005002D01*
X037517Y002170D01*
X037517Y003395D02*
X034627Y003395D01*
X034627Y003554D02*
X037517Y003554D01*
X037517Y003712D02*
X034627Y003712D01*
X034627Y003871D02*
X037517Y003871D01*
X037517Y004029D02*
X034627Y004029D01*
X034627Y004188D02*
X037517Y004188D01*
X037517Y004346D02*
X034627Y004346D01*
X034630Y004505D02*
X037517Y004505D01*
X037517Y004663D02*
X034788Y004663D01*
X034947Y004822D02*
X037517Y004822D01*
X037517Y004980D02*
X035105Y004980D01*
X006377Y006002D02*
X006276Y006004D01*
X006176Y006010D01*
X006076Y006019D01*
X005976Y006033D01*
X005877Y006050D01*
X005779Y006071D01*
X005681Y006096D01*
X005585Y006124D01*
X005490Y006156D01*
X005396Y006192D01*
X005303Y006232D01*
X005212Y006275D01*
X005123Y006321D01*
X005036Y006371D01*
X004950Y006424D01*
X004867Y006480D01*
X004786Y006539D01*
X004707Y006602D01*
X004631Y006667D01*
X004557Y006736D01*
X004486Y006807D01*
X004417Y006881D01*
X004352Y006957D01*
X004289Y007036D01*
X004230Y007117D01*
X004174Y007200D01*
X004121Y007286D01*
X004071Y007373D01*
X004025Y007462D01*
X003982Y007553D01*
X003942Y007646D01*
X003906Y007740D01*
X003874Y007835D01*
X003846Y007931D01*
X003821Y008029D01*
X003800Y008127D01*
X003783Y008226D01*
X003769Y008326D01*
X003760Y008426D01*
X003754Y008526D01*
X003752Y008627D01*
X003720Y032567D02*
X003532Y032567D01*
X003532Y032725D02*
X003720Y032725D01*
X003720Y032884D02*
X003532Y032884D01*
X003532Y033043D02*
X003720Y033043D01*
X003720Y033201D02*
X003532Y033201D01*
X003393Y033360D02*
X003720Y033360D01*
X002167Y037482D02*
X005752Y037482D01*
D45*
X008518Y037216D03*
X008518Y036716D03*
X008518Y036216D03*
X008518Y035716D03*
X010152Y034851D03*
X011152Y034476D03*
X011216Y035735D03*
X011216Y036235D03*
X011216Y036735D03*
X011216Y037235D03*
X013689Y037314D03*
X013627Y035502D03*
X015877Y035752D03*
X016002Y037314D03*
X018127Y036064D03*
X018627Y037314D03*
X018127Y034127D03*
X019627Y033877D03*
X019127Y031627D03*
X019127Y030689D03*
X019127Y030127D03*
X020127Y030689D03*
X020502Y030252D03*
X020314Y029752D03*
X021564Y029689D03*
X021502Y030689D03*
X021627Y031627D03*
X020627Y031627D03*
X020502Y031127D03*
X018127Y029939D03*
X017502Y031002D03*
X017627Y031627D03*
X016627Y031627D03*
X015814Y030502D03*
X014627Y031377D03*
X014627Y033252D03*
X012502Y032502D03*
X011216Y031360D03*
X012351Y030601D03*
X013110Y029466D03*
X014627Y029627D03*
X015814Y028127D03*
X014627Y027752D03*
X013377Y028127D03*
X013377Y026627D03*
X013377Y025127D03*
X013377Y023627D03*
X013377Y022127D03*
X013377Y020627D03*
X013377Y019127D03*
X013377Y017627D03*
X013377Y016127D03*
X013377Y014627D03*
X013377Y013127D03*
X014252Y012377D03*
X013377Y011627D03*
X014252Y011377D03*
X015127Y009877D03*
X015439Y008502D03*
X016502Y009127D03*
X017752Y010314D03*
X017939Y009314D03*
X018814Y010689D03*
X017752Y011314D03*
X017752Y012314D03*
X018502Y013502D03*
X018502Y015314D03*
X018814Y016502D03*
X020189Y016814D03*
X020189Y018252D03*
X018502Y018127D03*
X018252Y019814D03*
X019002Y019877D03*
X019377Y020814D03*
X018064Y021252D03*
X016752Y021002D03*
X017439Y022439D03*
X018627Y022627D03*
X018502Y024314D03*
X018189Y024814D03*
X017252Y024877D03*
X017252Y026127D03*
X017252Y027252D03*
X017252Y027877D03*
X017752Y028564D03*
X018564Y027252D03*
X019189Y026064D03*
X020252Y024564D03*
X020939Y024564D03*
X021064Y023564D03*
X021127Y022627D03*
X021314Y022127D03*
X021314Y021127D03*
X020752Y020314D03*
X022252Y021252D03*
X023877Y020939D03*
X024127Y021877D03*
X025377Y021064D03*
X025939Y021939D03*
X026002Y023314D03*
X023752Y023814D03*
X023189Y024314D03*
X023189Y023314D03*
X022564Y025439D03*
X021564Y026064D03*
X023564Y026377D03*
X022314Y028002D03*
X023439Y028314D03*
X024564Y028377D03*
X025627Y028752D03*
X026127Y028752D03*
X025877Y030189D03*
X026002Y031502D03*
X025502Y032002D03*
X025502Y032877D03*
X026314Y033314D03*
X027877Y033252D03*
X027877Y032502D03*
X028189Y032002D03*
X027877Y031502D03*
X027877Y028627D03*
X030877Y031502D03*
X030877Y032502D03*
X036564Y030689D03*
X034502Y026189D03*
X032377Y026189D03*
X034502Y024064D03*
X034502Y021814D03*
X034502Y020064D03*
X034502Y019064D03*
X036752Y020189D03*
X037127Y019127D03*
X036439Y016752D03*
X037189Y014564D03*
X034877Y014564D03*
X032564Y014564D03*
X033377Y016752D03*
X028939Y017314D03*
X027189Y018564D03*
X025627Y019377D03*
X026814Y020564D03*
X027002Y020252D03*
X027189Y020564D03*
X027377Y020252D03*
X027564Y020564D03*
X027752Y020252D03*
X029689Y023314D03*
X032627Y021814D03*
X036689Y023439D03*
X036689Y024689D03*
X025564Y016814D03*
X023502Y016814D03*
X022564Y017377D03*
X021752Y016814D03*
X023127Y019127D03*
X020189Y023345D03*
X015877Y022564D03*
X015189Y023502D03*
X015127Y025439D03*
X015814Y026127D03*
X015064Y021564D03*
X015064Y019502D03*
X016127Y019189D03*
X015189Y017439D03*
X015502Y015502D03*
X016377Y014627D03*
X015252Y014252D03*
X016502Y013002D03*
X016314Y012064D03*
X013002Y008627D03*
X011252Y005752D03*
X009610Y007287D03*
X008851Y006152D03*
X007716Y005393D03*
X006377Y005127D03*
X005037Y005393D03*
X003902Y006152D03*
X003143Y007287D03*
X002877Y008627D03*
X002877Y010127D03*
X002877Y011627D03*
X002877Y013127D03*
X002877Y014627D03*
X002877Y016127D03*
X002877Y017627D03*
X002877Y019127D03*
X002877Y020627D03*
X002877Y022127D03*
X002877Y023627D03*
X002877Y025127D03*
X002877Y026627D03*
X002877Y028127D03*
X002877Y029627D03*
X003643Y031216D03*
X002877Y032377D03*
X003643Y032716D03*
X005777Y033351D03*
X006527Y034226D03*
X007412Y032673D03*
X007814Y032127D03*
X008537Y031360D03*
X007402Y030601D03*
X006643Y029466D03*
X006377Y028127D03*
X006377Y026627D03*
X006377Y025127D03*
X006377Y023627D03*
X006377Y022127D03*
X006377Y020627D03*
X006377Y019127D03*
X006377Y017627D03*
X006377Y016127D03*
X006377Y014627D03*
X006377Y013127D03*
X006377Y011627D03*
X006377Y010127D03*
X006377Y008627D03*
X009877Y008627D03*
X009877Y010127D03*
X009877Y011627D03*
X009877Y013127D03*
X009877Y014627D03*
X009877Y016127D03*
X009877Y017627D03*
X009877Y019127D03*
X009877Y020627D03*
X009877Y022127D03*
X009877Y023627D03*
X009877Y025127D03*
X009877Y026627D03*
X009877Y028127D03*
X009877Y031627D03*
X009627Y032564D03*
X009002Y033877D03*
X005777Y031601D03*
X016877Y016377D03*
X017877Y007877D03*
X017877Y006627D03*
X019127Y006627D03*
X023064Y030689D03*
X023127Y031439D03*
X024314Y032064D03*
X024314Y033314D03*
D46*
X021627Y033627D03*
X021127Y033627D03*
X021127Y034127D03*
X021127Y034627D03*
X021127Y035127D03*
X021127Y035627D03*
X021127Y036127D03*
X021627Y036127D03*
X020627Y036127D03*
X020627Y034127D03*
X020627Y033627D03*
X021627Y034127D03*
X024814Y037002D03*
X025314Y037002D03*
X026127Y037002D03*
X026627Y037002D03*
X031252Y035064D03*
X031752Y035064D03*
X032252Y035064D03*
X032252Y034189D03*
X031752Y034189D03*
X031252Y034189D03*
X030377Y027689D03*
X029877Y027689D03*
X029377Y027689D03*
X028877Y027689D03*
X026877Y027002D03*
X026502Y026627D03*
X026127Y027002D03*
X025752Y026627D03*
X025377Y027002D03*
X025377Y026252D03*
X025752Y025877D03*
X026127Y026252D03*
X026502Y025877D03*
X026877Y026252D03*
X026877Y025502D03*
X026127Y025502D03*
X025377Y025502D03*
X022627Y023002D03*
X023939Y019689D03*
X024564Y018002D03*
X029252Y015627D03*
X029752Y015627D03*
X030002Y015127D03*
X030502Y015127D03*
X030752Y015627D03*
X030252Y015627D03*
X031002Y015127D03*
X031002Y014627D03*
X030502Y014627D03*
X029502Y015127D03*
X029002Y015127D03*
X031252Y019189D03*
X031752Y019189D03*
X032252Y019189D03*
X032252Y020064D03*
X031752Y020064D03*
X031252Y020064D03*
X031252Y023627D03*
X031752Y023627D03*
X032252Y023627D03*
X032252Y024502D03*
X031752Y024502D03*
X031252Y024502D03*
X021002Y010252D03*
X021002Y009377D03*
X021002Y008502D03*
X021002Y007627D03*
X021002Y006752D03*
X015689Y006627D03*
X015689Y007502D03*
X015689Y005752D03*
X009689Y004814D03*
X009689Y003939D03*
X009689Y003064D03*
X026564Y003064D03*
X027439Y003064D03*
X032377Y005252D03*
X032814Y005252D03*
X033252Y005252D03*
X033689Y005252D03*
X034127Y005252D03*
D47*
X027317Y019202D02*
X027317Y019936D01*
X027189Y020064D01*
X027189Y020314D01*
X027061Y021426D02*
X026827Y021426D01*
D48*
X026805Y019202D02*
X026805Y018930D01*
X026689Y018814D01*
X027189Y018564D02*
X027317Y018692D01*
X027317Y019202D01*
X027573Y019202D02*
X027573Y018930D01*
X027689Y018814D01*
X027189Y018564D02*
X027189Y018564D01*
D49*
X022627Y023002D02*
X022627Y024127D01*
X022439Y024314D01*
X021002Y025752D01*
X021002Y028314D01*
X019627Y029689D01*
X019627Y032601D01*
X018627Y032601D02*
X018627Y029439D01*
X020064Y028002D01*
X020064Y025439D01*
X020877Y024627D01*
X020939Y024564D01*
X027127Y029559D02*
X027127Y030377D01*
D50*
X027127Y032877D01*
D51*
X020939Y024564D02*
X021752Y023752D01*
X021752Y022502D01*
X021752Y020564D01*
X022002Y020314D01*
X022283Y020314D01*
X023127Y020314D01*
X024627Y020314D01*
X024502Y020315D01*
X024564Y019689D02*
X024564Y019689D01*
X023939Y019689D01*
X024564Y019689D02*
X024564Y019689D01*
X024564Y019674D01*
X025174Y019674D01*
X025377Y019877D01*
X025377Y019940D01*
X025377Y019877D02*
X026814Y019877D01*
X026877Y019814D01*
X026689Y018814D02*
X026564Y018689D01*
X026564Y018072D01*
X026564Y016931D02*
X027806Y016931D01*
X027814Y016939D01*
X027814Y016931D01*
X027752Y016939D01*
X027752Y015689D01*
X027752Y013127D01*
X028252Y012627D01*
X029329Y012627D01*
X027814Y018072D02*
X027814Y018689D01*
X027689Y018814D01*
X017752Y019127D02*
X017752Y019877D01*
X017501Y020128D01*
X017501Y021564D01*
X017501Y021627D02*
X017501Y022378D01*
X017439Y022439D01*
D52*
X011627Y028127D02*
X011627Y008502D01*
X013189Y006939D01*
X014314Y006939D01*
X008127Y008627D02*
X008127Y028127D01*
X009877Y029877D02*
X009960Y029875D01*
X010043Y029869D01*
X010126Y029859D01*
X010208Y029845D01*
X010290Y029828D01*
X010370Y029806D01*
X010449Y029781D01*
X010527Y029752D01*
X010604Y029719D01*
X010679Y029682D01*
X010752Y029643D01*
X010823Y029599D01*
X010892Y029553D01*
X010959Y029503D01*
X011023Y029450D01*
X011085Y029394D01*
X011144Y029335D01*
X011200Y029273D01*
X011253Y029209D01*
X011303Y029142D01*
X011349Y029073D01*
X011393Y029002D01*
X011432Y028929D01*
X011469Y028854D01*
X011502Y028777D01*
X011531Y028699D01*
X011556Y028620D01*
X011578Y028540D01*
X011595Y028458D01*
X011609Y028376D01*
X011619Y028293D01*
X011625Y028210D01*
X011627Y028127D01*
X009877Y029877D02*
X009794Y029875D01*
X009711Y029869D01*
X009628Y029859D01*
X009546Y029845D01*
X009464Y029828D01*
X009384Y029806D01*
X009305Y029781D01*
X009227Y029752D01*
X009150Y029719D01*
X009075Y029682D01*
X009002Y029643D01*
X008931Y029599D01*
X008862Y029553D01*
X008795Y029503D01*
X008731Y029450D01*
X008669Y029394D01*
X008610Y029335D01*
X008554Y029273D01*
X008501Y029209D01*
X008451Y029142D01*
X008405Y029073D01*
X008361Y029002D01*
X008322Y028929D01*
X008285Y028854D01*
X008252Y028777D01*
X008223Y028699D01*
X008198Y028620D01*
X008176Y028540D01*
X008159Y028458D01*
X008145Y028376D01*
X008135Y028293D01*
X008129Y028210D01*
X008127Y028127D01*
X004620Y032501D02*
X004620Y033745D01*
X007127Y036252D01*
X007127Y036564D01*
X004620Y032501D02*
X004627Y008627D01*
X006377Y006877D02*
X006460Y006879D01*
X006543Y006885D01*
X006626Y006895D01*
X006708Y006909D01*
X006790Y006926D01*
X006870Y006948D01*
X006949Y006973D01*
X007027Y007002D01*
X007104Y007035D01*
X007179Y007072D01*
X007252Y007111D01*
X007323Y007155D01*
X007392Y007201D01*
X007459Y007251D01*
X007523Y007304D01*
X007585Y007360D01*
X007644Y007419D01*
X007700Y007481D01*
X007753Y007545D01*
X007803Y007612D01*
X007849Y007681D01*
X007893Y007752D01*
X007932Y007825D01*
X007969Y007900D01*
X008002Y007977D01*
X008031Y008055D01*
X008056Y008134D01*
X008078Y008214D01*
X008095Y008296D01*
X008109Y008378D01*
X008119Y008461D01*
X008125Y008544D01*
X008127Y008627D01*
X006377Y006877D02*
X006294Y006879D01*
X006211Y006885D01*
X006128Y006895D01*
X006046Y006909D01*
X005964Y006926D01*
X005884Y006948D01*
X005805Y006973D01*
X005727Y007002D01*
X005650Y007035D01*
X005575Y007072D01*
X005502Y007111D01*
X005431Y007155D01*
X005362Y007201D01*
X005295Y007251D01*
X005231Y007304D01*
X005169Y007360D01*
X005110Y007419D01*
X005054Y007481D01*
X005001Y007545D01*
X004951Y007612D01*
X004905Y007681D01*
X004861Y007752D01*
X004822Y007825D01*
X004785Y007900D01*
X004752Y007977D01*
X004723Y008055D01*
X004698Y008134D01*
X004676Y008214D01*
X004659Y008296D01*
X004645Y008378D01*
X004635Y008461D01*
X004629Y008544D01*
X004627Y008627D01*
D53*
X029329Y013627D02*
X030564Y013627D01*
X030627Y013564D01*
D54*
X031296Y012895D01*
X031296Y011537D01*
M02*
