G75*
G70*
%OFA0B0*%
%FSLAX24Y24*%
%IPPOS*%
%LPD*%
%AMOC8*
5,1,8,0,0,1.08239X$1,22.5*
%
%ADD10C,0.0130*%
%ADD11C,0.0000*%
%ADD12C,0.2441*%
%ADD13C,0.0160*%
%ADD14C,0.0354*%
%ADD15C,0.0394*%
%ADD16C,0.0320*%
%ADD17C,0.0240*%
D10*
X005263Y002754D02*
X005263Y003039D01*
X005358Y003134D01*
X005453Y003039D01*
X005453Y002754D01*
X005644Y002754D02*
X005644Y003134D01*
X005549Y003134D01*
X005453Y003039D01*
X005908Y003039D02*
X006003Y003134D01*
X006193Y003134D01*
X006288Y003039D01*
X006288Y002849D01*
X006193Y002754D01*
X006003Y002754D01*
X005908Y002849D01*
X005908Y003039D01*
X006528Y003134D02*
X006718Y003134D01*
X006623Y003229D02*
X006623Y002849D01*
X006528Y002754D01*
X006957Y002754D02*
X007052Y002849D01*
X007052Y003229D01*
X006957Y003134D02*
X007148Y003134D01*
X007412Y003039D02*
X007507Y003134D01*
X007697Y003134D01*
X007792Y003039D01*
X007792Y002849D01*
X007697Y002754D01*
X007507Y002754D01*
X007412Y002849D01*
X007412Y003039D01*
X008056Y002944D02*
X008056Y002849D01*
X008151Y002754D01*
X008437Y002754D01*
X008437Y003325D01*
X008151Y003325D01*
X008056Y003229D01*
X008056Y003134D01*
X008151Y003039D01*
X008437Y003039D01*
X008151Y003039D02*
X008056Y002944D01*
D11*
X001930Y001930D02*
X001930Y037757D01*
X037757Y037757D01*
X037757Y001930D01*
X001930Y001930D01*
X018927Y011627D02*
X018927Y015627D01*
X018929Y015682D01*
X018934Y015736D01*
X018944Y015790D01*
X018957Y015843D01*
X018973Y015895D01*
X018993Y015946D01*
X019017Y015995D01*
X019043Y016043D01*
X019073Y016088D01*
X019106Y016132D01*
X019142Y016173D01*
X019181Y016212D01*
X019222Y016248D01*
X019266Y016281D01*
X019311Y016311D01*
X019359Y016337D01*
X019408Y016361D01*
X019459Y016381D01*
X019511Y016397D01*
X019564Y016410D01*
X019618Y016420D01*
X019672Y016425D01*
X019727Y016427D01*
X026227Y016427D01*
X026282Y016425D01*
X026336Y016420D01*
X026390Y016410D01*
X026443Y016397D01*
X026495Y016381D01*
X026546Y016361D01*
X026595Y016337D01*
X026643Y016311D01*
X026688Y016281D01*
X026732Y016248D01*
X026773Y016212D01*
X026812Y016173D01*
X026848Y016132D01*
X026881Y016088D01*
X026911Y016043D01*
X026937Y015995D01*
X026961Y015946D01*
X026981Y015895D01*
X026997Y015843D01*
X027010Y015790D01*
X027020Y015736D01*
X027025Y015682D01*
X027027Y015627D01*
X027027Y011627D01*
X027025Y011572D01*
X027020Y011518D01*
X027010Y011464D01*
X026997Y011411D01*
X026981Y011359D01*
X026961Y011308D01*
X026937Y011259D01*
X026911Y011211D01*
X026881Y011166D01*
X026848Y011122D01*
X026812Y011081D01*
X026773Y011042D01*
X026732Y011006D01*
X026688Y010973D01*
X026643Y010943D01*
X026595Y010917D01*
X026546Y010893D01*
X026495Y010873D01*
X026443Y010857D01*
X026390Y010844D01*
X026336Y010834D01*
X026282Y010829D01*
X026227Y010827D01*
X019727Y010827D01*
X019672Y010829D01*
X019618Y010834D01*
X019564Y010844D01*
X019511Y010857D01*
X019459Y010873D01*
X019408Y010893D01*
X019359Y010917D01*
X019311Y010943D01*
X019266Y010973D01*
X019222Y011006D01*
X019181Y011042D01*
X019142Y011081D01*
X019106Y011122D01*
X019073Y011166D01*
X019043Y011211D01*
X019017Y011259D01*
X018993Y011308D01*
X018973Y011359D01*
X018957Y011411D01*
X018944Y011464D01*
X018934Y011518D01*
X018929Y011572D01*
X018927Y011627D01*
X028528Y020314D02*
X028531Y020371D01*
X028538Y020428D01*
X028551Y020484D01*
X028569Y020538D01*
X028592Y020591D01*
X028620Y020641D01*
X028652Y020689D01*
X028688Y020733D01*
X028728Y020774D01*
X028772Y020812D01*
X028818Y020845D01*
X028868Y020873D01*
X028920Y020897D01*
X028974Y020917D01*
X029030Y020931D01*
X029086Y020940D01*
X029144Y020944D01*
X029201Y020943D01*
X029258Y020936D01*
X029314Y020924D01*
X029369Y020908D01*
X029422Y020886D01*
X029473Y020860D01*
X029521Y020829D01*
X029567Y020794D01*
X029609Y020754D01*
X029647Y020712D01*
X029681Y020665D01*
X029711Y020616D01*
X029736Y020565D01*
X029756Y020511D01*
X029772Y020456D01*
X029782Y020400D01*
X029787Y020343D01*
X029787Y020285D01*
X029782Y020228D01*
X029772Y020172D01*
X029756Y020117D01*
X029736Y020063D01*
X029711Y020012D01*
X029681Y019963D01*
X029647Y019916D01*
X029609Y019874D01*
X029567Y019834D01*
X029521Y019799D01*
X029473Y019768D01*
X029422Y019742D01*
X029369Y019720D01*
X029314Y019704D01*
X029258Y019692D01*
X029201Y019685D01*
X029144Y019684D01*
X029086Y019688D01*
X029030Y019697D01*
X028974Y019711D01*
X028920Y019731D01*
X028868Y019755D01*
X028818Y019783D01*
X028772Y019816D01*
X028728Y019854D01*
X028688Y019895D01*
X028652Y019939D01*
X028620Y019987D01*
X028592Y020037D01*
X028569Y020090D01*
X028551Y020144D01*
X028538Y020200D01*
X028531Y020257D01*
X028528Y020314D01*
D12*
X035985Y035985D03*
X035985Y003701D03*
X003701Y003701D03*
X003701Y035985D03*
D13*
X002170Y036055D02*
X037517Y036055D01*
X037517Y036213D02*
X002170Y036213D01*
X002170Y036372D02*
X037517Y036372D01*
X037517Y036531D02*
X002170Y036531D01*
X002170Y036689D02*
X037517Y036689D01*
X037517Y036848D02*
X002170Y036848D01*
X002170Y037006D02*
X037517Y037006D01*
X037517Y037165D02*
X002170Y037165D01*
X002170Y037323D02*
X037517Y037323D01*
X037517Y037482D02*
X002170Y037482D01*
X002170Y037517D02*
X037517Y037517D01*
X037517Y002170D01*
X002170Y002170D01*
X002170Y037517D01*
X002170Y035896D02*
X037517Y035896D01*
X037517Y035738D02*
X002170Y035738D01*
X002170Y035579D02*
X037517Y035579D01*
X037517Y035421D02*
X002170Y035421D01*
X002170Y035262D02*
X037517Y035262D01*
X037517Y035104D02*
X002170Y035104D01*
X002170Y034945D02*
X037517Y034945D01*
X037517Y034787D02*
X002170Y034787D01*
X002170Y034628D02*
X037517Y034628D01*
X037517Y034469D02*
X002170Y034469D01*
X002170Y034311D02*
X037517Y034311D01*
X037517Y034152D02*
X002170Y034152D01*
X002170Y033994D02*
X037517Y033994D01*
X037517Y033835D02*
X002170Y033835D01*
X002170Y033677D02*
X037517Y033677D01*
X037517Y033518D02*
X002170Y033518D01*
X002170Y033360D02*
X037517Y033360D01*
X037517Y033201D02*
X002170Y033201D01*
X002170Y033043D02*
X037517Y033043D01*
X037517Y032884D02*
X002170Y032884D01*
X002170Y032725D02*
X002636Y032725D01*
X002640Y032730D02*
X002523Y032613D01*
X002459Y032460D01*
X002459Y032294D01*
X002523Y032140D01*
X002640Y032023D01*
X002794Y031959D01*
X002841Y031959D01*
X002994Y031807D01*
X007544Y031807D01*
X007578Y031773D01*
X007731Y031709D01*
X007897Y031709D01*
X008050Y031773D01*
X008168Y031890D01*
X008231Y032044D01*
X008231Y032210D01*
X008168Y032363D01*
X008050Y032480D01*
X007897Y032544D01*
X007731Y032544D01*
X007578Y032480D01*
X007544Y032447D01*
X003294Y032447D01*
X003294Y032460D01*
X003230Y032613D01*
X003113Y032730D01*
X002960Y032794D01*
X002794Y032794D01*
X002640Y032730D01*
X002504Y032567D02*
X002170Y032567D01*
X002170Y032408D02*
X002459Y032408D01*
X002478Y032250D02*
X002170Y032250D01*
X002170Y032091D02*
X002572Y032091D01*
X002868Y031933D02*
X002170Y031933D01*
X002170Y031774D02*
X007577Y031774D01*
X007814Y032127D02*
X003127Y032127D01*
X002877Y032377D01*
X003249Y032567D02*
X037517Y032567D01*
X037517Y032725D02*
X003118Y032725D01*
X002170Y031616D02*
X016209Y031616D01*
X016209Y031544D02*
X016273Y031390D01*
X016307Y031357D01*
X016307Y031057D01*
X016494Y030869D01*
X017307Y030057D01*
X017572Y030057D01*
X018709Y030057D01*
X018709Y030044D01*
X018773Y029890D01*
X018890Y029773D01*
X019044Y029709D01*
X019210Y029709D01*
X019363Y029773D01*
X019480Y029890D01*
X019497Y029932D01*
X020232Y029932D01*
X020265Y029898D01*
X020419Y029834D01*
X020585Y029834D01*
X020738Y029898D01*
X020855Y030015D01*
X020919Y030169D01*
X020919Y030335D01*
X020855Y030488D01*
X020738Y030605D01*
X020585Y030669D01*
X020419Y030669D01*
X020265Y030605D01*
X020232Y030572D01*
X019134Y030572D01*
X019009Y030697D01*
X018744Y030697D01*
X018744Y030697D01*
X017572Y030697D01*
X016947Y031322D01*
X016947Y031357D01*
X016980Y031390D01*
X017044Y031544D01*
X017044Y031710D01*
X016980Y031863D01*
X016863Y031980D01*
X016710Y032044D01*
X016544Y032044D01*
X016390Y031980D01*
X016273Y031863D01*
X016209Y031710D01*
X016209Y031544D01*
X016245Y031457D02*
X002170Y031457D01*
X002170Y031299D02*
X016307Y031299D01*
X016307Y031140D02*
X002170Y031140D01*
X002170Y030981D02*
X016382Y030981D01*
X016540Y030823D02*
X002170Y030823D01*
X002170Y030664D02*
X016699Y030664D01*
X016857Y030506D02*
X002170Y030506D01*
X002170Y030347D02*
X017016Y030347D01*
X017174Y030189D02*
X002170Y030189D01*
X002170Y030030D02*
X018715Y030030D01*
X018792Y029872D02*
X002170Y029872D01*
X002170Y029713D02*
X019035Y029713D01*
X019218Y029713D02*
X037517Y029713D01*
X037517Y029555D02*
X002170Y029555D01*
X002170Y029396D02*
X037517Y029396D01*
X037517Y029238D02*
X002170Y029238D01*
X002170Y029079D02*
X037517Y029079D01*
X037517Y028920D02*
X002170Y028920D01*
X002170Y028762D02*
X037517Y028762D01*
X037517Y028603D02*
X002170Y028603D01*
X002170Y028445D02*
X037517Y028445D01*
X037517Y028286D02*
X002170Y028286D01*
X002170Y028128D02*
X037517Y028128D01*
X037517Y027969D02*
X002170Y027969D01*
X002170Y027811D02*
X037517Y027811D01*
X037517Y027652D02*
X002170Y027652D01*
X002170Y027494D02*
X037517Y027494D01*
X037517Y027335D02*
X002170Y027335D01*
X002170Y027176D02*
X037517Y027176D01*
X037517Y027018D02*
X002170Y027018D01*
X002170Y026859D02*
X037517Y026859D01*
X037517Y026701D02*
X002170Y026701D01*
X002170Y026542D02*
X037517Y026542D01*
X037517Y026384D02*
X002170Y026384D01*
X002170Y026225D02*
X037517Y026225D01*
X037517Y026067D02*
X002170Y026067D01*
X002170Y025908D02*
X037517Y025908D01*
X037517Y025750D02*
X022844Y025750D01*
X022800Y025793D02*
X022918Y025675D01*
X022981Y025522D01*
X022981Y025356D01*
X022918Y025203D01*
X022800Y025085D01*
X022647Y025022D01*
X022481Y025022D01*
X022328Y025085D01*
X022294Y025119D01*
X019759Y025119D01*
X018919Y024279D01*
X018919Y024231D01*
X018855Y024078D01*
X018738Y023960D01*
X018585Y023897D01*
X018419Y023897D01*
X018265Y023960D01*
X018148Y024078D01*
X018084Y024231D01*
X018084Y024397D01*
X018148Y024550D01*
X018265Y024668D01*
X018419Y024731D01*
X018466Y024731D01*
X019307Y025572D01*
X019307Y025572D01*
X019494Y025759D01*
X022294Y025759D01*
X022328Y025793D01*
X022481Y025856D01*
X022647Y025856D01*
X022800Y025793D01*
X022953Y025591D02*
X037517Y025591D01*
X037517Y025432D02*
X022981Y025432D01*
X022947Y025274D02*
X037517Y025274D01*
X037517Y025115D02*
X022830Y025115D01*
X022564Y025439D02*
X019627Y025439D01*
X018502Y024314D01*
X018891Y024164D02*
X019030Y024164D01*
X019079Y024213D02*
X017665Y022799D01*
X017660Y022799D01*
X017522Y022856D01*
X017356Y022856D01*
X017203Y022793D01*
X017085Y022675D01*
X017022Y022522D01*
X017022Y022356D01*
X017085Y022203D01*
X017203Y022085D01*
X017356Y022022D01*
X017522Y022022D01*
X017660Y022079D01*
X017665Y022079D01*
X017963Y022079D01*
X019588Y023704D01*
X020227Y023704D01*
X020513Y023704D01*
X020526Y023704D01*
X020624Y023802D01*
X021012Y024147D01*
X021022Y024147D01*
X021175Y024210D01*
X021293Y024328D01*
X021356Y024481D01*
X021356Y024647D01*
X021293Y024800D01*
X021175Y024918D01*
X021022Y024981D01*
X020856Y024981D01*
X020703Y024918D01*
X020585Y024800D01*
X020540Y024691D01*
X020240Y024424D01*
X019290Y024424D01*
X019079Y024213D01*
X019189Y024323D02*
X018963Y024323D01*
X019121Y024481D02*
X020304Y024481D01*
X020482Y024640D02*
X019280Y024640D01*
X019438Y024798D02*
X020585Y024798D01*
X020797Y024957D02*
X019597Y024957D01*
X019755Y025115D02*
X022298Y025115D01*
X022314Y024134D02*
X022182Y024134D01*
X021994Y023947D01*
X021091Y023044D01*
X021044Y023044D01*
X020890Y022980D01*
X020773Y022863D01*
X020709Y022710D01*
X020709Y022544D01*
X020773Y022390D01*
X020890Y022273D01*
X021044Y022209D01*
X021210Y022209D01*
X021363Y022273D01*
X021480Y022390D01*
X021544Y022544D01*
X021544Y022591D01*
X022447Y023494D01*
X023482Y023494D01*
X023515Y023460D01*
X023669Y023397D01*
X023835Y023397D01*
X023988Y023460D01*
X024105Y023578D01*
X024169Y023731D01*
X024169Y023897D01*
X024105Y024050D01*
X023988Y024168D01*
X023835Y024231D01*
X023669Y024231D01*
X023515Y024168D01*
X023482Y024134D01*
X022447Y024134D01*
X022344Y024134D01*
X022314Y024134D01*
X022053Y024006D02*
X020853Y024006D01*
X020674Y023847D02*
X021895Y023847D01*
X021736Y023689D02*
X019573Y023689D01*
X019414Y023530D02*
X021577Y023530D01*
X021419Y023371D02*
X019256Y023371D01*
X019097Y023213D02*
X021260Y023213D01*
X021102Y023054D02*
X018938Y023054D01*
X018780Y022896D02*
X020806Y022896D01*
X020721Y022737D02*
X018621Y022737D01*
X018463Y022579D02*
X020709Y022579D01*
X020761Y022420D02*
X018304Y022420D01*
X018146Y022262D02*
X020918Y022262D01*
X021336Y022262D02*
X022801Y022262D01*
X022852Y022211D02*
X022852Y020211D01*
X023086Y019977D01*
X023532Y019531D01*
X023569Y019442D01*
X023692Y019319D01*
X023852Y019252D01*
X024026Y019252D01*
X024187Y019319D01*
X024309Y019442D01*
X024376Y019602D01*
X024376Y019776D01*
X024309Y019937D01*
X024187Y020059D01*
X024098Y020096D01*
X023652Y020542D01*
X023652Y022542D01*
X023619Y022574D01*
X023034Y023160D01*
X022997Y023249D01*
X022874Y023372D01*
X022714Y023438D01*
X022540Y023438D01*
X022379Y023372D01*
X022256Y023249D01*
X022190Y023089D01*
X022190Y022915D01*
X022256Y022754D01*
X022379Y022631D01*
X022468Y022594D01*
X022852Y022211D01*
X022852Y022103D02*
X017987Y022103D01*
X017185Y022103D02*
X002170Y022103D01*
X002170Y021945D02*
X022852Y021945D01*
X022852Y021786D02*
X002170Y021786D01*
X002170Y021627D02*
X022852Y021627D01*
X022852Y021469D02*
X002170Y021469D01*
X002170Y021310D02*
X022852Y021310D01*
X022852Y021152D02*
X002170Y021152D01*
X002170Y020993D02*
X022852Y020993D01*
X022852Y020835D02*
X002170Y020835D01*
X002170Y020676D02*
X022852Y020676D01*
X022852Y020518D02*
X002170Y020518D01*
X002170Y020359D02*
X022852Y020359D01*
X022862Y020201D02*
X002170Y020201D01*
X002170Y020042D02*
X023021Y020042D01*
X023179Y019883D02*
X002170Y019883D01*
X002170Y019725D02*
X023338Y019725D01*
X023496Y019566D02*
X002170Y019566D01*
X002170Y019408D02*
X023603Y019408D01*
X024276Y019408D02*
X037517Y019408D01*
X037517Y019566D02*
X029626Y019566D01*
X029650Y019577D02*
X029895Y019821D01*
X030028Y020141D01*
X030028Y020487D01*
X029895Y020807D01*
X029650Y021052D01*
X029331Y021184D01*
X028985Y021184D01*
X028665Y021052D01*
X028420Y020807D01*
X028288Y020487D01*
X028288Y020141D01*
X028420Y019821D01*
X028665Y019577D01*
X028985Y019444D01*
X029331Y019444D01*
X029650Y019577D01*
X029799Y019725D02*
X037517Y019725D01*
X037517Y019883D02*
X029921Y019883D01*
X029986Y020042D02*
X037517Y020042D01*
X037517Y020201D02*
X030028Y020201D01*
X030028Y020359D02*
X037517Y020359D01*
X037517Y020518D02*
X030015Y020518D01*
X029949Y020676D02*
X037517Y020676D01*
X037517Y020835D02*
X029867Y020835D01*
X029709Y020993D02*
X037517Y020993D01*
X037517Y021152D02*
X029408Y021152D01*
X028907Y021152D02*
X023652Y021152D01*
X023652Y021310D02*
X037517Y021310D01*
X037517Y021469D02*
X023652Y021469D01*
X023652Y021627D02*
X037517Y021627D01*
X037517Y021786D02*
X023652Y021786D01*
X023652Y021945D02*
X037517Y021945D01*
X037517Y022103D02*
X023652Y022103D01*
X023652Y022262D02*
X037517Y022262D01*
X037517Y022420D02*
X023652Y022420D01*
X023615Y022579D02*
X037517Y022579D01*
X037517Y022737D02*
X023457Y022737D01*
X023298Y022896D02*
X037517Y022896D01*
X037517Y023054D02*
X023140Y023054D01*
X023012Y023213D02*
X037517Y023213D01*
X037517Y023371D02*
X022875Y023371D01*
X022379Y023371D02*
X022324Y023371D01*
X022241Y023213D02*
X022165Y023213D01*
X022190Y023054D02*
X022007Y023054D01*
X021848Y022896D02*
X022198Y022896D01*
X022273Y022737D02*
X021690Y022737D01*
X021544Y022579D02*
X022484Y022579D01*
X022642Y022420D02*
X021493Y022420D01*
X021127Y022627D02*
X022314Y023814D01*
X023752Y023814D01*
X024057Y023530D02*
X037517Y023530D01*
X037517Y023689D02*
X024151Y023689D01*
X024169Y023847D02*
X037517Y023847D01*
X037517Y024006D02*
X024124Y024006D01*
X023992Y024164D02*
X037517Y024164D01*
X037517Y024323D02*
X021288Y024323D01*
X021356Y024481D02*
X037517Y024481D01*
X037517Y024640D02*
X021356Y024640D01*
X021294Y024798D02*
X037517Y024798D01*
X037517Y024957D02*
X021081Y024957D01*
X021064Y024164D02*
X023512Y024164D01*
X023652Y020993D02*
X028607Y020993D01*
X028448Y020835D02*
X023652Y020835D01*
X023652Y020676D02*
X028366Y020676D01*
X028300Y020518D02*
X023676Y020518D01*
X023835Y020359D02*
X028288Y020359D01*
X028288Y020201D02*
X023993Y020201D01*
X024204Y020042D02*
X028329Y020042D01*
X028394Y019883D02*
X024331Y019883D01*
X024376Y019725D02*
X028517Y019725D01*
X028690Y019566D02*
X024361Y019566D01*
X026127Y016667D02*
X019627Y016667D01*
X019624Y016663D01*
X019483Y016641D01*
X019327Y016590D01*
X019182Y016516D01*
X019182Y016516D01*
X019049Y016420D01*
X019049Y016420D01*
X018933Y016304D01*
X018837Y016172D01*
X018763Y016026D01*
X018712Y015870D01*
X018690Y015729D01*
X018687Y015726D01*
X018687Y015539D01*
X018687Y015527D01*
X018687Y011527D01*
X018690Y011524D01*
X018712Y011383D01*
X018763Y011227D01*
X018837Y011082D01*
X018837Y011082D01*
X018933Y010949D01*
X019049Y010833D01*
X019182Y010737D01*
X019327Y010663D01*
X019327Y010663D01*
X019483Y010612D01*
X019624Y010590D01*
X019627Y010587D01*
X019807Y010587D01*
X019826Y010587D01*
X026326Y010587D01*
X026329Y010590D01*
X026470Y010612D01*
X026626Y010663D01*
X026772Y010737D01*
X026904Y010833D01*
X027020Y010949D01*
X027020Y010949D01*
X027116Y011082D01*
X027190Y011227D01*
X027190Y011227D01*
X027241Y011383D01*
X027241Y011383D01*
X027263Y011524D01*
X027267Y011527D01*
X027267Y015726D01*
X027263Y015729D01*
X027241Y015870D01*
X027241Y015870D01*
X027190Y016026D01*
X027116Y016172D01*
X027020Y016304D01*
X026904Y016420D01*
X026772Y016516D01*
X026772Y016516D01*
X026626Y016590D01*
X026626Y016590D01*
X026470Y016641D01*
X026329Y016663D01*
X026326Y016667D01*
X026157Y016667D01*
X026127Y016667D01*
X026470Y016641D02*
X026470Y016641D01*
X026697Y016554D02*
X037517Y016554D01*
X037517Y016396D02*
X026928Y016396D01*
X026904Y016420D02*
X026904Y016420D01*
X027020Y016304D02*
X027020Y016304D01*
X027069Y016237D02*
X037517Y016237D01*
X037517Y016078D02*
X027164Y016078D01*
X027190Y016026D02*
X027190Y016026D01*
X027225Y015920D02*
X037517Y015920D01*
X037517Y015761D02*
X027258Y015761D01*
X027267Y015603D02*
X037517Y015603D01*
X037517Y015444D02*
X027267Y015444D01*
X027267Y015286D02*
X037517Y015286D01*
X037517Y015127D02*
X027267Y015127D01*
X027267Y014969D02*
X037517Y014969D01*
X037517Y014810D02*
X027267Y014810D01*
X027267Y014652D02*
X037517Y014652D01*
X037517Y014493D02*
X027267Y014493D01*
X027267Y014334D02*
X037517Y014334D01*
X037517Y014176D02*
X027267Y014176D01*
X027267Y014017D02*
X037517Y014017D01*
X037517Y013859D02*
X027267Y013859D01*
X027267Y013700D02*
X037517Y013700D01*
X037517Y013542D02*
X027267Y013542D01*
X027267Y013383D02*
X037517Y013383D01*
X037517Y013225D02*
X027267Y013225D01*
X027267Y013066D02*
X037517Y013066D01*
X037517Y012908D02*
X027267Y012908D01*
X027267Y012749D02*
X037517Y012749D01*
X037517Y012590D02*
X027267Y012590D01*
X027267Y012432D02*
X037517Y012432D01*
X037517Y012273D02*
X027267Y012273D01*
X027267Y012115D02*
X037517Y012115D01*
X037517Y011956D02*
X027267Y011956D01*
X027267Y011798D02*
X037517Y011798D01*
X037517Y011639D02*
X027267Y011639D01*
X027256Y011481D02*
X037517Y011481D01*
X037517Y011322D02*
X027221Y011322D01*
X027158Y011164D02*
X037517Y011164D01*
X037517Y011005D02*
X027060Y011005D01*
X027116Y011082D02*
X027116Y011082D01*
X026917Y010846D02*
X037517Y010846D01*
X037517Y010688D02*
X026675Y010688D01*
X026626Y010663D02*
X026626Y010663D01*
X026772Y010737D02*
X026772Y010737D01*
X026904Y010833D02*
X026904Y010833D01*
X026470Y010612D02*
X026470Y010612D01*
X027116Y016172D02*
X027116Y016172D01*
X019483Y016641D02*
X019483Y016641D01*
X019327Y016590D02*
X019327Y016590D01*
X019256Y016554D02*
X002170Y016554D01*
X002170Y016396D02*
X019025Y016396D01*
X018885Y016237D02*
X002170Y016237D01*
X002170Y016078D02*
X018790Y016078D01*
X018728Y015920D02*
X002170Y015920D01*
X002170Y015761D02*
X018695Y015761D01*
X018687Y015603D02*
X002170Y015603D01*
X002170Y015444D02*
X018687Y015444D01*
X018687Y015286D02*
X002170Y015286D01*
X002170Y015127D02*
X018687Y015127D01*
X018687Y014969D02*
X002170Y014969D01*
X002170Y014810D02*
X018687Y014810D01*
X018687Y014652D02*
X002170Y014652D01*
X002170Y014493D02*
X018687Y014493D01*
X018687Y014334D02*
X002170Y014334D01*
X002170Y014176D02*
X018687Y014176D01*
X018687Y014017D02*
X002170Y014017D01*
X002170Y013859D02*
X018687Y013859D01*
X018687Y013700D02*
X002170Y013700D01*
X002170Y013542D02*
X018687Y013542D01*
X018687Y013383D02*
X002170Y013383D01*
X002170Y013225D02*
X018687Y013225D01*
X018687Y013066D02*
X002170Y013066D01*
X002170Y012908D02*
X018687Y012908D01*
X018687Y012749D02*
X002170Y012749D01*
X002170Y012590D02*
X018687Y012590D01*
X018687Y012432D02*
X002170Y012432D01*
X002170Y012273D02*
X018687Y012273D01*
X018687Y012115D02*
X002170Y012115D01*
X002170Y011956D02*
X018687Y011956D01*
X018687Y011798D02*
X002170Y011798D01*
X002170Y011639D02*
X018687Y011639D01*
X018697Y011481D02*
X002170Y011481D01*
X002170Y011322D02*
X018732Y011322D01*
X018712Y011383D02*
X018712Y011383D01*
X018763Y011227D02*
X018763Y011227D01*
X018795Y011164D02*
X002170Y011164D01*
X002170Y011005D02*
X018893Y011005D01*
X018933Y010949D02*
X018933Y010949D01*
X019036Y010846D02*
X002170Y010846D01*
X002170Y010688D02*
X019278Y010688D01*
X019182Y010737D02*
X019182Y010737D01*
X019049Y010833D02*
X019049Y010833D01*
X019483Y010612D02*
X019483Y010612D01*
X008742Y003451D02*
X008563Y003630D01*
X008278Y003630D01*
X008025Y003630D01*
X007930Y003534D01*
X007829Y003434D01*
X007823Y003439D01*
X007571Y003439D01*
X007380Y003439D01*
X007327Y003386D01*
X007274Y003439D01*
X007179Y003534D01*
X006926Y003534D01*
X006838Y003446D01*
X006749Y003534D01*
X006496Y003534D01*
X006401Y003439D01*
X006360Y003398D01*
X006319Y003439D01*
X006067Y003439D01*
X005877Y003439D01*
X005823Y003386D01*
X005770Y003439D01*
X005675Y003439D01*
X005485Y003439D01*
X005232Y003439D01*
X005053Y003261D01*
X004958Y003166D01*
X004958Y002628D01*
X005137Y002449D01*
X005327Y002449D01*
X005580Y002449D01*
X005770Y002449D01*
X005823Y002502D01*
X005877Y002449D01*
X006067Y002449D01*
X006319Y002449D01*
X006360Y002490D01*
X006401Y002449D01*
X006654Y002449D01*
X006743Y002538D01*
X006831Y002449D01*
X007084Y002449D01*
X007232Y002598D01*
X007285Y002544D01*
X007380Y002449D01*
X007571Y002449D01*
X007823Y002449D01*
X007924Y002550D01*
X008025Y002449D01*
X008563Y002449D01*
X008742Y002628D01*
X008742Y002880D01*
X008742Y002913D01*
X008742Y003166D01*
X008742Y003198D01*
X008742Y003451D01*
X008742Y003395D02*
X037517Y003395D01*
X037517Y003554D02*
X008639Y003554D01*
X008742Y003236D02*
X037517Y003236D01*
X037517Y003078D02*
X008742Y003078D01*
X008742Y002919D02*
X037517Y002919D01*
X037517Y002761D02*
X008742Y002761D01*
X008716Y002602D02*
X037517Y002602D01*
X037517Y002444D02*
X002170Y002444D01*
X002170Y002602D02*
X004984Y002602D01*
X004958Y002761D02*
X002170Y002761D01*
X002170Y002919D02*
X004958Y002919D01*
X004958Y003078D02*
X002170Y003078D01*
X002170Y003236D02*
X005029Y003236D01*
X005053Y003261D02*
X005053Y003261D01*
X005188Y003395D02*
X002170Y003395D01*
X002170Y003554D02*
X007949Y003554D01*
X007930Y003534D02*
X007930Y003534D01*
X007336Y003395D02*
X007318Y003395D01*
X005832Y003395D02*
X005814Y003395D01*
X002170Y003712D02*
X037517Y003712D01*
X037517Y003871D02*
X002170Y003871D01*
X002170Y004029D02*
X037517Y004029D01*
X037517Y004188D02*
X002170Y004188D01*
X002170Y004346D02*
X037517Y004346D01*
X037517Y004505D02*
X002170Y004505D01*
X002170Y004663D02*
X037517Y004663D01*
X037517Y004822D02*
X002170Y004822D01*
X002170Y004980D02*
X037517Y004980D01*
X037517Y005139D02*
X002170Y005139D01*
X002170Y005297D02*
X037517Y005297D01*
X037517Y005456D02*
X002170Y005456D01*
X002170Y005615D02*
X037517Y005615D01*
X037517Y005773D02*
X002170Y005773D01*
X002170Y005932D02*
X037517Y005932D01*
X037517Y006090D02*
X002170Y006090D01*
X002170Y006249D02*
X037517Y006249D01*
X037517Y006407D02*
X002170Y006407D01*
X002170Y006566D02*
X037517Y006566D01*
X037517Y006724D02*
X002170Y006724D01*
X002170Y006883D02*
X037517Y006883D01*
X037517Y007041D02*
X002170Y007041D01*
X002170Y007200D02*
X037517Y007200D01*
X037517Y007359D02*
X002170Y007359D01*
X002170Y007517D02*
X037517Y007517D01*
X037517Y007676D02*
X002170Y007676D01*
X002170Y007834D02*
X037517Y007834D01*
X037517Y007993D02*
X002170Y007993D01*
X002170Y008151D02*
X037517Y008151D01*
X037517Y008310D02*
X002170Y008310D01*
X002170Y008468D02*
X037517Y008468D01*
X037517Y008627D02*
X002170Y008627D01*
X002170Y008785D02*
X037517Y008785D01*
X037517Y008944D02*
X002170Y008944D01*
X002170Y009103D02*
X037517Y009103D01*
X037517Y009261D02*
X002170Y009261D01*
X002170Y009420D02*
X037517Y009420D01*
X037517Y009578D02*
X002170Y009578D01*
X002170Y009737D02*
X037517Y009737D01*
X037517Y009895D02*
X002170Y009895D01*
X002170Y010054D02*
X037517Y010054D01*
X037517Y010212D02*
X002170Y010212D01*
X002170Y010371D02*
X037517Y010371D01*
X037517Y010529D02*
X002170Y010529D01*
X002170Y016713D02*
X037517Y016713D01*
X037517Y016871D02*
X002170Y016871D01*
X002170Y017030D02*
X037517Y017030D01*
X037517Y017188D02*
X002170Y017188D01*
X002170Y017347D02*
X037517Y017347D01*
X037517Y017505D02*
X002170Y017505D01*
X002170Y017664D02*
X037517Y017664D01*
X037517Y017822D02*
X002170Y017822D01*
X002170Y017981D02*
X037517Y017981D01*
X037517Y018139D02*
X002170Y018139D01*
X002170Y018298D02*
X037517Y018298D01*
X037517Y018457D02*
X002170Y018457D01*
X002170Y018615D02*
X037517Y018615D01*
X037517Y018774D02*
X002170Y018774D01*
X002170Y018932D02*
X037517Y018932D01*
X037517Y019091D02*
X002170Y019091D01*
X002170Y019249D02*
X037517Y019249D01*
X037517Y029872D02*
X020675Y029872D01*
X020861Y030030D02*
X037517Y030030D01*
X037517Y030189D02*
X020919Y030189D01*
X020914Y030347D02*
X037517Y030347D01*
X037517Y030506D02*
X020837Y030506D01*
X020738Y030773D02*
X020585Y030709D01*
X020419Y030709D01*
X020265Y030773D01*
X020232Y030807D01*
X018197Y030807D01*
X017932Y030807D01*
X017830Y030908D01*
X017830Y030908D01*
X017744Y030994D01*
X017744Y031006D01*
X017566Y031209D01*
X017544Y031209D01*
X017390Y031273D01*
X017273Y031390D01*
X017209Y031544D01*
X017209Y031710D01*
X017273Y031863D01*
X017390Y031980D01*
X017544Y032044D01*
X017710Y032044D01*
X017863Y031980D01*
X017980Y031863D01*
X018044Y031710D01*
X018044Y031636D01*
X018209Y031447D01*
X020232Y031447D01*
X020265Y031480D01*
X020419Y031544D01*
X020585Y031544D01*
X020738Y031480D01*
X020855Y031363D01*
X020919Y031210D01*
X020919Y031044D01*
X020855Y030890D01*
X020738Y030773D01*
X020788Y030823D02*
X037517Y030823D01*
X037517Y030981D02*
X020893Y030981D01*
X020919Y031140D02*
X037517Y031140D01*
X037517Y031299D02*
X020882Y031299D01*
X020761Y031457D02*
X037517Y031457D01*
X037517Y031616D02*
X028347Y031616D01*
X028272Y031584D02*
X028425Y031648D01*
X028543Y031765D01*
X028606Y031919D01*
X028606Y032085D01*
X028543Y032238D01*
X028425Y032355D01*
X028272Y032419D01*
X028106Y032419D01*
X027953Y032355D01*
X027919Y032322D01*
X025772Y032322D01*
X025738Y032355D01*
X025585Y032419D01*
X025419Y032419D01*
X025265Y032355D01*
X025148Y032238D01*
X025084Y032085D01*
X025084Y031919D01*
X025148Y031765D01*
X025265Y031648D01*
X025419Y031584D01*
X025585Y031584D01*
X025738Y031648D01*
X025772Y031682D01*
X027919Y031682D01*
X027953Y031648D01*
X028106Y031584D01*
X028272Y031584D01*
X028031Y031616D02*
X025660Y031616D01*
X025343Y031616D02*
X018061Y031616D01*
X018017Y031774D02*
X025144Y031774D01*
X025084Y031933D02*
X017910Y031933D01*
X017627Y031627D02*
X018064Y031127D01*
X020502Y031127D01*
X020242Y031457D02*
X018200Y031457D01*
X017757Y030981D02*
X017287Y030981D01*
X017445Y030823D02*
X017915Y030823D01*
X017627Y031140D02*
X017128Y031140D01*
X016970Y031299D02*
X017365Y031299D01*
X017245Y031457D02*
X017008Y031457D01*
X017044Y031616D02*
X017209Y031616D01*
X017236Y031774D02*
X017017Y031774D01*
X016910Y031933D02*
X017343Y031933D01*
X016627Y031627D02*
X016627Y031189D01*
X017439Y030377D01*
X018877Y030377D01*
X019127Y030127D01*
X019252Y030252D01*
X020502Y030252D01*
X020329Y029872D02*
X019462Y029872D01*
X019041Y030664D02*
X020408Y030664D01*
X020595Y030664D02*
X037517Y030664D01*
X037517Y031774D02*
X028546Y031774D01*
X028606Y031933D02*
X037517Y031933D01*
X037517Y032091D02*
X028603Y032091D01*
X028531Y032250D02*
X037517Y032250D01*
X037517Y032408D02*
X028297Y032408D01*
X028081Y032408D02*
X025610Y032408D01*
X025394Y032408D02*
X008122Y032408D01*
X008215Y032250D02*
X025160Y032250D01*
X025087Y032091D02*
X008231Y032091D01*
X008185Y031933D02*
X016343Y031933D01*
X016236Y031774D02*
X008052Y031774D01*
X002170Y025750D02*
X019485Y025750D01*
X019326Y025591D02*
X002170Y025591D01*
X002170Y025432D02*
X019167Y025432D01*
X019009Y025274D02*
X002170Y025274D01*
X002170Y025115D02*
X018850Y025115D01*
X018692Y024957D02*
X002170Y024957D01*
X002170Y024798D02*
X018533Y024798D01*
X018237Y024640D02*
X002170Y024640D01*
X002170Y024481D02*
X018119Y024481D01*
X018084Y024323D02*
X002170Y024323D01*
X002170Y024164D02*
X018112Y024164D01*
X018220Y024006D02*
X002170Y024006D01*
X002170Y023847D02*
X018713Y023847D01*
X018783Y024006D02*
X018871Y024006D01*
X018554Y023689D02*
X002170Y023689D01*
X002170Y023530D02*
X018396Y023530D01*
X018237Y023371D02*
X002170Y023371D01*
X002170Y023213D02*
X018079Y023213D01*
X017920Y023054D02*
X002170Y023054D01*
X002170Y022896D02*
X017762Y022896D01*
X017147Y022737D02*
X002170Y022737D01*
X002170Y022579D02*
X017045Y022579D01*
X017022Y022420D02*
X002170Y022420D01*
X002170Y022262D02*
X017061Y022262D01*
X017572Y030057D02*
X017572Y030057D01*
X019009Y030697D02*
X019009Y030697D01*
X019009Y030697D01*
X025502Y032002D02*
X028189Y032002D01*
X037517Y002285D02*
X002170Y002285D01*
D14*
X005037Y005393D03*
X003902Y006152D03*
X003143Y007287D03*
X002877Y008627D03*
X002877Y010127D03*
X002877Y011627D03*
X002877Y013127D03*
X002877Y014627D03*
X002877Y016127D03*
X002877Y017627D03*
X002877Y019127D03*
X002877Y020627D03*
X002877Y022127D03*
X002877Y023627D03*
X002877Y025127D03*
X002877Y026627D03*
X002877Y028127D03*
X002877Y029627D03*
X003643Y031216D03*
X002877Y032377D03*
X003643Y032716D03*
X005777Y033351D03*
X006527Y034226D03*
X007412Y032673D03*
X007814Y032127D03*
X008537Y031360D03*
X007402Y030601D03*
X006643Y029466D03*
X006377Y028127D03*
X006377Y026627D03*
X006377Y025127D03*
X006377Y023627D03*
X006377Y022127D03*
X006377Y020627D03*
X006377Y019127D03*
X006377Y017627D03*
X006377Y016127D03*
X006377Y014627D03*
X006377Y013127D03*
X006377Y011627D03*
X006377Y010127D03*
X006377Y008627D03*
X008851Y006152D03*
X007716Y005393D03*
X006377Y005127D03*
X009610Y007287D03*
X009877Y008627D03*
X009877Y010127D03*
X009877Y011627D03*
X009877Y013127D03*
X009877Y014627D03*
X009877Y016127D03*
X009877Y017627D03*
X009877Y019127D03*
X009877Y020627D03*
X009877Y022127D03*
X009877Y023627D03*
X009877Y025127D03*
X009877Y026627D03*
X009877Y028127D03*
X012351Y030601D03*
X013110Y029466D03*
X014627Y029627D03*
X015814Y030502D03*
X016627Y031627D03*
X017627Y031627D03*
X017502Y031002D03*
X018127Y029939D03*
X019127Y030127D03*
X019127Y030689D03*
X019127Y031627D03*
X020127Y030689D03*
X020502Y030252D03*
X020314Y029752D03*
X021564Y029689D03*
X021502Y030689D03*
X021627Y031627D03*
X020627Y031627D03*
X020502Y031127D03*
X023064Y030689D03*
X023127Y031439D03*
X024314Y032064D03*
X025502Y032002D03*
X026002Y031502D03*
X025877Y030189D03*
X026127Y028752D03*
X025627Y028752D03*
X024564Y028377D03*
X023439Y028314D03*
X022314Y028002D03*
X023564Y026377D03*
X022564Y025439D03*
X021564Y026064D03*
X020939Y024564D03*
X020252Y024564D03*
X021064Y023564D03*
X021127Y022627D03*
X021314Y022127D03*
X021314Y021127D03*
X020752Y020314D03*
X019377Y020814D03*
X019002Y019877D03*
X018252Y019814D03*
X018064Y021252D03*
X016752Y021002D03*
X017439Y022439D03*
X018627Y022627D03*
X018502Y024314D03*
X018189Y024814D03*
X017252Y024877D03*
X017252Y026127D03*
X017252Y027252D03*
X017252Y027877D03*
X017752Y028564D03*
X018564Y027252D03*
X019189Y026064D03*
X020189Y023345D03*
X022252Y021252D03*
X023877Y020939D03*
X024127Y021877D03*
X025377Y021064D03*
X025939Y021939D03*
X026002Y023314D03*
X023752Y023814D03*
X023189Y024314D03*
X023189Y023314D03*
X026814Y020564D03*
X027002Y020252D03*
X027189Y020564D03*
X027377Y020252D03*
X027564Y020564D03*
X027752Y020252D03*
X027189Y018564D03*
X025627Y019377D03*
X023127Y019127D03*
X022564Y017377D03*
X021752Y016814D03*
X020189Y016814D03*
X018814Y016502D03*
X018502Y015314D03*
X018502Y013502D03*
X017752Y012314D03*
X017752Y011314D03*
X017752Y010314D03*
X017939Y009314D03*
X018814Y010689D03*
X016502Y009127D03*
X015439Y008502D03*
X015127Y009877D03*
X014252Y011377D03*
X013377Y011627D03*
X014252Y012377D03*
X013377Y013127D03*
X013377Y014627D03*
X013377Y016127D03*
X013377Y017627D03*
X013377Y019127D03*
X013377Y020627D03*
X013377Y022127D03*
X013377Y023627D03*
X013377Y025127D03*
X013377Y026627D03*
X013377Y028127D03*
X014627Y027752D03*
X015814Y028127D03*
X015814Y026127D03*
X015127Y025439D03*
X015189Y023502D03*
X015877Y022564D03*
X015064Y021564D03*
X015064Y019502D03*
X016127Y019189D03*
X015189Y017439D03*
X015502Y015502D03*
X016377Y014627D03*
X015252Y014252D03*
X016502Y013002D03*
X016314Y012064D03*
X013002Y008627D03*
X011252Y005752D03*
X017877Y006627D03*
X019127Y006627D03*
X017877Y007877D03*
X016877Y016377D03*
X018502Y018127D03*
X020189Y018252D03*
X023502Y016814D03*
X025564Y016814D03*
X028939Y017314D03*
X032564Y014564D03*
X034877Y014564D03*
X037189Y014564D03*
X036439Y016752D03*
X037127Y019127D03*
X036752Y020189D03*
X034502Y020064D03*
X034502Y019064D03*
X033377Y016752D03*
X032627Y021814D03*
X034502Y021814D03*
X034502Y024064D03*
X034502Y026189D03*
X032377Y026189D03*
X029689Y023314D03*
X027877Y028627D03*
X027877Y031502D03*
X028189Y032002D03*
X027877Y032502D03*
X027877Y033252D03*
X026314Y033314D03*
X025502Y032877D03*
X024314Y033314D03*
X019627Y033877D03*
X018127Y034127D03*
X018127Y036064D03*
X018627Y037314D03*
X016002Y037314D03*
X015877Y035752D03*
X013627Y035502D03*
X013689Y037314D03*
X011216Y037235D03*
X011216Y036735D03*
X011216Y036235D03*
X011216Y035735D03*
X010152Y034851D03*
X011152Y034476D03*
X009627Y032564D03*
X009877Y031627D03*
X011216Y031360D03*
X012502Y032502D03*
X014627Y033252D03*
X014627Y031377D03*
X009002Y033877D03*
X008518Y035716D03*
X008518Y036216D03*
X008518Y036716D03*
X008518Y037216D03*
X005777Y031601D03*
X030877Y031502D03*
X030877Y032502D03*
X036564Y030689D03*
X036689Y024689D03*
X036689Y023439D03*
D15*
X032252Y023627D03*
X031752Y023627D03*
X031252Y023627D03*
X031252Y024502D03*
X031752Y024502D03*
X032252Y024502D03*
X030377Y027689D03*
X029877Y027689D03*
X029377Y027689D03*
X028877Y027689D03*
X026877Y027002D03*
X026502Y026627D03*
X026127Y027002D03*
X025752Y026627D03*
X025377Y027002D03*
X025377Y026252D03*
X025752Y025877D03*
X026127Y026252D03*
X026502Y025877D03*
X026877Y026252D03*
X026877Y025502D03*
X026127Y025502D03*
X025377Y025502D03*
X022627Y023002D03*
X023939Y019689D03*
X024564Y018002D03*
X029252Y015627D03*
X029752Y015627D03*
X030002Y015127D03*
X030502Y015127D03*
X030752Y015627D03*
X030252Y015627D03*
X031002Y015127D03*
X031002Y014627D03*
X030502Y014627D03*
X029502Y015127D03*
X029002Y015127D03*
X031252Y019189D03*
X031752Y019189D03*
X032252Y019189D03*
X032252Y020064D03*
X031752Y020064D03*
X031252Y020064D03*
X021002Y010252D03*
X021002Y009377D03*
X021002Y008502D03*
X021002Y007627D03*
X021002Y006752D03*
X015689Y006627D03*
X015689Y007502D03*
X015689Y005752D03*
X009689Y004814D03*
X009689Y003939D03*
X009689Y003064D03*
X026564Y003064D03*
X027439Y003064D03*
X032377Y005252D03*
X032814Y005252D03*
X033252Y005252D03*
X033689Y005252D03*
X034127Y005252D03*
X021627Y033627D03*
X021127Y033627D03*
X021127Y034127D03*
X021127Y034627D03*
X021127Y035127D03*
X021127Y035627D03*
X021127Y036127D03*
X021627Y036127D03*
X020627Y036127D03*
X020627Y034127D03*
X020627Y033627D03*
X021627Y034127D03*
X024814Y037002D03*
X025314Y037002D03*
X026127Y037002D03*
X026627Y037002D03*
X031252Y035064D03*
X031752Y035064D03*
X032252Y035064D03*
X032252Y034189D03*
X031752Y034189D03*
X031252Y034189D03*
D16*
X022627Y023002D02*
X023252Y022377D01*
X023252Y020377D01*
X023939Y019689D01*
X023939Y019689D01*
D17*
X020377Y024064D02*
X020939Y024564D01*
X020939Y024564D01*
X020377Y024064D02*
X019439Y024064D01*
X017814Y022439D01*
X017439Y022439D01*
M02*
